%TF.GenerationSoftware,KiCad,Pcbnew,5.1.10*%
%TF.CreationDate,2021-08-11T21:48:22+02:00*%
%TF.ProjectId,LiPo_Wireless,4c69506f-5f57-4697-9265-6c6573732e6b,rev?*%
%TF.SameCoordinates,Original*%
%TF.FileFunction,Paste,Top*%
%TF.FilePolarity,Positive*%
%FSLAX46Y46*%
G04 Gerber Fmt 4.6, Leading zero omitted, Abs format (unit mm)*
G04 Created by KiCad (PCBNEW 5.1.10) date 2021-08-11 21:48:22*
%MOMM*%
%LPD*%
G01*
G04 APERTURE LIST*
%ADD10R,1.900000X1.000000*%
%ADD11R,1.500000X0.700000*%
%ADD12R,0.700000X1.500000*%
%ADD13R,0.900000X0.800000*%
%ADD14R,1.220000X0.650000*%
%ADD15C,0.100000*%
%ADD16R,0.700000X0.250000*%
%ADD17R,0.250000X0.700000*%
%ADD18R,1.000000X1.900000*%
G04 APERTURE END LIST*
%TO.C,BT1*%
G36*
G01*
X65048000Y-109895000D02*
X65048000Y-108895000D01*
G75*
G02*
X65548000Y-108395000I500000J0D01*
G01*
X67548000Y-108395000D01*
G75*
G02*
X68048000Y-108895000I0J-500000D01*
G01*
X68048000Y-109895000D01*
G75*
G02*
X67548000Y-110395000I-500000J0D01*
G01*
X65548000Y-110395000D01*
G75*
G02*
X65048000Y-109895000I0J500000D01*
G01*
G37*
G36*
G01*
X65048000Y-112895000D02*
X65048000Y-111895000D01*
G75*
G02*
X65548000Y-111395000I500000J0D01*
G01*
X67548000Y-111395000D01*
G75*
G02*
X68048000Y-111895000I0J-500000D01*
G01*
X68048000Y-112895000D01*
G75*
G02*
X67548000Y-113395000I-500000J0D01*
G01*
X65548000Y-113395000D01*
G75*
G02*
X65048000Y-112895000I0J500000D01*
G01*
G37*
%TD*%
%TO.C,C1*%
G36*
G01*
X82705000Y-124184500D02*
X82395000Y-124184500D01*
G75*
G02*
X82240000Y-124029500I0J155000D01*
G01*
X82240000Y-123604500D01*
G75*
G02*
X82395000Y-123449500I155000J0D01*
G01*
X82705000Y-123449500D01*
G75*
G02*
X82860000Y-123604500I0J-155000D01*
G01*
X82860000Y-124029500D01*
G75*
G02*
X82705000Y-124184500I-155000J0D01*
G01*
G37*
G36*
G01*
X82705000Y-123049500D02*
X82395000Y-123049500D01*
G75*
G02*
X82240000Y-122894500I0J155000D01*
G01*
X82240000Y-122469500D01*
G75*
G02*
X82395000Y-122314500I155000J0D01*
G01*
X82705000Y-122314500D01*
G75*
G02*
X82860000Y-122469500I0J-155000D01*
G01*
X82860000Y-122894500D01*
G75*
G02*
X82705000Y-123049500I-155000J0D01*
G01*
G37*
%TD*%
%TO.C,C2*%
G36*
G01*
X74181500Y-108105000D02*
X74181500Y-107795000D01*
G75*
G02*
X74336500Y-107640000I155000J0D01*
G01*
X74761500Y-107640000D01*
G75*
G02*
X74916500Y-107795000I0J-155000D01*
G01*
X74916500Y-108105000D01*
G75*
G02*
X74761500Y-108260000I-155000J0D01*
G01*
X74336500Y-108260000D01*
G75*
G02*
X74181500Y-108105000I0J155000D01*
G01*
G37*
G36*
G01*
X73046500Y-108105000D02*
X73046500Y-107795000D01*
G75*
G02*
X73201500Y-107640000I155000J0D01*
G01*
X73626500Y-107640000D01*
G75*
G02*
X73781500Y-107795000I0J-155000D01*
G01*
X73781500Y-108105000D01*
G75*
G02*
X73626500Y-108260000I-155000J0D01*
G01*
X73201500Y-108260000D01*
G75*
G02*
X73046500Y-108105000I0J155000D01*
G01*
G37*
%TD*%
%TO.C,D1*%
G36*
G01*
X78088500Y-112130000D02*
X77613500Y-112130000D01*
G75*
G02*
X77376000Y-111892500I0J237500D01*
G01*
X77376000Y-111317500D01*
G75*
G02*
X77613500Y-111080000I237500J0D01*
G01*
X78088500Y-111080000D01*
G75*
G02*
X78326000Y-111317500I0J-237500D01*
G01*
X78326000Y-111892500D01*
G75*
G02*
X78088500Y-112130000I-237500J0D01*
G01*
G37*
G36*
G01*
X78088500Y-110380000D02*
X77613500Y-110380000D01*
G75*
G02*
X77376000Y-110142500I0J237500D01*
G01*
X77376000Y-109567500D01*
G75*
G02*
X77613500Y-109330000I237500J0D01*
G01*
X78088500Y-109330000D01*
G75*
G02*
X78326000Y-109567500I0J-237500D01*
G01*
X78326000Y-110142500D01*
G75*
G02*
X78088500Y-110380000I-237500J0D01*
G01*
G37*
%TD*%
%TO.C,D2*%
G36*
G01*
X83456000Y-109236500D02*
X83456000Y-109711500D01*
G75*
G02*
X83218500Y-109949000I-237500J0D01*
G01*
X82643500Y-109949000D01*
G75*
G02*
X82406000Y-109711500I0J237500D01*
G01*
X82406000Y-109236500D01*
G75*
G02*
X82643500Y-108999000I237500J0D01*
G01*
X83218500Y-108999000D01*
G75*
G02*
X83456000Y-109236500I0J-237500D01*
G01*
G37*
G36*
G01*
X85206000Y-109236500D02*
X85206000Y-109711500D01*
G75*
G02*
X84968500Y-109949000I-237500J0D01*
G01*
X84393500Y-109949000D01*
G75*
G02*
X84156000Y-109711500I0J237500D01*
G01*
X84156000Y-109236500D01*
G75*
G02*
X84393500Y-108999000I237500J0D01*
G01*
X84968500Y-108999000D01*
G75*
G02*
X85206000Y-109236500I0J-237500D01*
G01*
G37*
%TD*%
%TO.C,J_Bat1*%
G36*
G01*
X65048000Y-107180000D02*
X65048000Y-106180000D01*
G75*
G02*
X65548000Y-105680000I500000J0D01*
G01*
X67548000Y-105680000D01*
G75*
G02*
X68048000Y-106180000I0J-500000D01*
G01*
X68048000Y-107180000D01*
G75*
G02*
X67548000Y-107680000I-500000J0D01*
G01*
X65548000Y-107680000D01*
G75*
G02*
X65048000Y-107180000I0J500000D01*
G01*
G37*
%TD*%
%TO.C,J_Chg*%
G36*
G01*
X78478000Y-108307000D02*
X77478000Y-108307000D01*
G75*
G02*
X76978000Y-107807000I0J500000D01*
G01*
X76978000Y-105807000D01*
G75*
G02*
X77478000Y-105307000I500000J0D01*
G01*
X78478000Y-105307000D01*
G75*
G02*
X78978000Y-105807000I0J-500000D01*
G01*
X78978000Y-107807000D01*
G75*
G02*
X78478000Y-108307000I-500000J0D01*
G01*
G37*
%TD*%
%TO.C,J_Frq1*%
G36*
G01*
X83447000Y-117372000D02*
X84447000Y-117372000D01*
G75*
G02*
X84947000Y-117872000I0J-500000D01*
G01*
X84947000Y-119872000D01*
G75*
G02*
X84447000Y-120372000I-500000J0D01*
G01*
X83447000Y-120372000D01*
G75*
G02*
X82947000Y-119872000I0J500000D01*
G01*
X82947000Y-117872000D01*
G75*
G02*
X83447000Y-117372000I500000J0D01*
G01*
G37*
%TD*%
D10*
%TO.C,Power_in*%
X69596000Y-122428000D03*
X66296000Y-119888000D03*
%TD*%
%TO.C,Power_out*%
X87505000Y-108204000D03*
X90805000Y-110744000D03*
%TD*%
D11*
%TO.C,L1*%
X84709000Y-122174000D03*
X84709000Y-123874000D03*
%TD*%
D12*
%TO.C,L2*%
X74852000Y-105791000D03*
X73152000Y-105791000D03*
%TD*%
D13*
%TO.C,Q1*%
X78264000Y-121732000D03*
X78264000Y-123632000D03*
X80264000Y-122682000D03*
%TD*%
%TO.C,R1*%
G36*
G01*
X82322500Y-117491500D02*
X82322500Y-117966500D01*
G75*
G02*
X82085000Y-118204000I-237500J0D01*
G01*
X81585000Y-118204000D01*
G75*
G02*
X81347500Y-117966500I0J237500D01*
G01*
X81347500Y-117491500D01*
G75*
G02*
X81585000Y-117254000I237500J0D01*
G01*
X82085000Y-117254000D01*
G75*
G02*
X82322500Y-117491500I0J-237500D01*
G01*
G37*
G36*
G01*
X80497500Y-117491500D02*
X80497500Y-117966500D01*
G75*
G02*
X80260000Y-118204000I-237500J0D01*
G01*
X79760000Y-118204000D01*
G75*
G02*
X79522500Y-117966500I0J237500D01*
G01*
X79522500Y-117491500D01*
G75*
G02*
X79760000Y-117254000I237500J0D01*
G01*
X80260000Y-117254000D01*
G75*
G02*
X80497500Y-117491500I0J-237500D01*
G01*
G37*
%TD*%
%TO.C,R2*%
G36*
G01*
X76687500Y-117491500D02*
X76687500Y-117966500D01*
G75*
G02*
X76450000Y-118204000I-237500J0D01*
G01*
X75950000Y-118204000D01*
G75*
G02*
X75712500Y-117966500I0J237500D01*
G01*
X75712500Y-117491500D01*
G75*
G02*
X75950000Y-117254000I237500J0D01*
G01*
X76450000Y-117254000D01*
G75*
G02*
X76687500Y-117491500I0J-237500D01*
G01*
G37*
G36*
G01*
X78512500Y-117491500D02*
X78512500Y-117966500D01*
G75*
G02*
X78275000Y-118204000I-237500J0D01*
G01*
X77775000Y-118204000D01*
G75*
G02*
X77537500Y-117966500I0J237500D01*
G01*
X77537500Y-117491500D01*
G75*
G02*
X77775000Y-117254000I237500J0D01*
G01*
X78275000Y-117254000D01*
G75*
G02*
X78512500Y-117491500I0J-237500D01*
G01*
G37*
%TD*%
%TO.C,R3*%
G36*
G01*
X72830500Y-119523500D02*
X72830500Y-119998500D01*
G75*
G02*
X72593000Y-120236000I-237500J0D01*
G01*
X72093000Y-120236000D01*
G75*
G02*
X71855500Y-119998500I0J237500D01*
G01*
X71855500Y-119523500D01*
G75*
G02*
X72093000Y-119286000I237500J0D01*
G01*
X72593000Y-119286000D01*
G75*
G02*
X72830500Y-119523500I0J-237500D01*
G01*
G37*
G36*
G01*
X74655500Y-119523500D02*
X74655500Y-119998500D01*
G75*
G02*
X74418000Y-120236000I-237500J0D01*
G01*
X73918000Y-120236000D01*
G75*
G02*
X73680500Y-119998500I0J237500D01*
G01*
X73680500Y-119523500D01*
G75*
G02*
X73918000Y-119286000I237500J0D01*
G01*
X74418000Y-119286000D01*
G75*
G02*
X74655500Y-119523500I0J-237500D01*
G01*
G37*
%TD*%
%TO.C,R4*%
G36*
G01*
X80474000Y-119523500D02*
X80474000Y-119998500D01*
G75*
G02*
X80236500Y-120236000I-237500J0D01*
G01*
X79736500Y-120236000D01*
G75*
G02*
X79499000Y-119998500I0J237500D01*
G01*
X79499000Y-119523500D01*
G75*
G02*
X79736500Y-119286000I237500J0D01*
G01*
X80236500Y-119286000D01*
G75*
G02*
X80474000Y-119523500I0J-237500D01*
G01*
G37*
G36*
G01*
X82299000Y-119523500D02*
X82299000Y-119998500D01*
G75*
G02*
X82061500Y-120236000I-237500J0D01*
G01*
X81561500Y-120236000D01*
G75*
G02*
X81324000Y-119998500I0J237500D01*
G01*
X81324000Y-119523500D01*
G75*
G02*
X81561500Y-119286000I237500J0D01*
G01*
X82061500Y-119286000D01*
G75*
G02*
X82299000Y-119523500I0J-237500D01*
G01*
G37*
%TD*%
%TO.C,R5*%
G36*
G01*
X78512500Y-119523500D02*
X78512500Y-119998500D01*
G75*
G02*
X78275000Y-120236000I-237500J0D01*
G01*
X77775000Y-120236000D01*
G75*
G02*
X77537500Y-119998500I0J237500D01*
G01*
X77537500Y-119523500D01*
G75*
G02*
X77775000Y-119286000I237500J0D01*
G01*
X78275000Y-119286000D01*
G75*
G02*
X78512500Y-119523500I0J-237500D01*
G01*
G37*
G36*
G01*
X76687500Y-119523500D02*
X76687500Y-119998500D01*
G75*
G02*
X76450000Y-120236000I-237500J0D01*
G01*
X75950000Y-120236000D01*
G75*
G02*
X75712500Y-119998500I0J237500D01*
G01*
X75712500Y-119523500D01*
G75*
G02*
X75950000Y-119286000I237500J0D01*
G01*
X76450000Y-119286000D01*
G75*
G02*
X76687500Y-119523500I0J-237500D01*
G01*
G37*
%TD*%
%TO.C,R6*%
G36*
G01*
X74655500Y-117491500D02*
X74655500Y-117966500D01*
G75*
G02*
X74418000Y-118204000I-237500J0D01*
G01*
X73918000Y-118204000D01*
G75*
G02*
X73680500Y-117966500I0J237500D01*
G01*
X73680500Y-117491500D01*
G75*
G02*
X73918000Y-117254000I237500J0D01*
G01*
X74418000Y-117254000D01*
G75*
G02*
X74655500Y-117491500I0J-237500D01*
G01*
G37*
G36*
G01*
X72830500Y-117491500D02*
X72830500Y-117966500D01*
G75*
G02*
X72593000Y-118204000I-237500J0D01*
G01*
X72093000Y-118204000D01*
G75*
G02*
X71855500Y-117966500I0J237500D01*
G01*
X71855500Y-117491500D01*
G75*
G02*
X72093000Y-117254000I237500J0D01*
G01*
X72593000Y-117254000D01*
G75*
G02*
X72830500Y-117491500I0J-237500D01*
G01*
G37*
%TD*%
%TO.C,R7*%
G36*
G01*
X85196500Y-110887500D02*
X85196500Y-111362500D01*
G75*
G02*
X84959000Y-111600000I-237500J0D01*
G01*
X84459000Y-111600000D01*
G75*
G02*
X84221500Y-111362500I0J237500D01*
G01*
X84221500Y-110887500D01*
G75*
G02*
X84459000Y-110650000I237500J0D01*
G01*
X84959000Y-110650000D01*
G75*
G02*
X85196500Y-110887500I0J-237500D01*
G01*
G37*
G36*
G01*
X83371500Y-110887500D02*
X83371500Y-111362500D01*
G75*
G02*
X83134000Y-111600000I-237500J0D01*
G01*
X82634000Y-111600000D01*
G75*
G02*
X82396500Y-111362500I0J237500D01*
G01*
X82396500Y-110887500D01*
G75*
G02*
X82634000Y-110650000I237500J0D01*
G01*
X83134000Y-110650000D01*
G75*
G02*
X83371500Y-110887500I0J-237500D01*
G01*
G37*
%TD*%
D14*
%TO.C,U1*%
X75057000Y-123571000D03*
X75057000Y-122621000D03*
X75057000Y-121671000D03*
X72437000Y-121671000D03*
X72437000Y-122621000D03*
X72437000Y-123571000D03*
%TD*%
D15*
%TO.C,U2*%
G36*
X74391000Y-110521000D02*
G01*
X74391000Y-111221000D01*
X73831000Y-111221000D01*
X73691000Y-111081000D01*
X73691000Y-110521000D01*
X74391000Y-110521000D01*
G37*
D16*
X73141000Y-111121000D03*
X73141000Y-110621000D03*
X74941000Y-110621000D03*
X74941000Y-111121000D03*
D17*
X73291000Y-109971000D03*
X73791000Y-109971000D03*
X74291000Y-109971000D03*
X74791000Y-109971000D03*
X73291000Y-111771000D03*
X73791000Y-111771000D03*
X74291000Y-111771000D03*
X74791000Y-111771000D03*
%TD*%
D18*
%TO.C,LED1*%
X83947000Y-103887000D03*
X81407000Y-107187000D03*
%TD*%
M02*
