%TF.GenerationSoftware,KiCad,Pcbnew,5.1.10*%
%TF.CreationDate,2021-08-11T21:48:22+02:00*%
%TF.ProjectId,LiPo_Wireless,4c69506f-5f57-4697-9265-6c6573732e6b,rev?*%
%TF.SameCoordinates,Original*%
%TF.FileFunction,Copper,L2,Bot*%
%TF.FilePolarity,Positive*%
%FSLAX46Y46*%
G04 Gerber Fmt 4.6, Leading zero omitted, Abs format (unit mm)*
G04 Created by KiCad (PCBNEW 5.1.10) date 2021-08-11 21:48:22*
%MOMM*%
%LPD*%
G01*
G04 APERTURE LIST*
%TA.AperFunction,ViaPad*%
%ADD10C,0.800000*%
%TD*%
%TA.AperFunction,Conductor*%
%ADD11C,0.200000*%
%TD*%
%TA.AperFunction,Conductor*%
%ADD12C,0.254000*%
%TD*%
%TA.AperFunction,Conductor*%
%ADD13C,0.100000*%
%TD*%
G04 APERTURE END LIST*
D10*
%TO.N,Net-(C1-Pad1)*%
X66929000Y-122428000D03*
%TO.N,Net-(D1-Pad2)*%
X72898000Y-112649000D03*
X85852000Y-106553000D03*
%TO.N,Net-(J_Frq1-Pad1)*%
X71374000Y-123571000D03*
X76708000Y-121793000D03*
%TD*%
D11*
%TO.N,Net-(J_Frq1-Pad1)*%
X74930000Y-123571000D02*
X76708000Y-121793000D01*
X73787000Y-123571000D02*
X74930000Y-123571000D01*
X73787000Y-123571000D02*
X71374000Y-123571000D01*
%TD*%
D12*
%TO.N,Net-(D1-Pad2)*%
X92177001Y-113792000D02*
X65176000Y-113792000D01*
X65176000Y-102641000D01*
X92177001Y-102641000D01*
X92177001Y-113792000D01*
%TA.AperFunction,Conductor*%
D13*
G36*
X92177001Y-113792000D02*
G01*
X65176000Y-113792000D01*
X65176000Y-102641000D01*
X92177001Y-102641000D01*
X92177001Y-113792000D01*
G37*
%TD.AperFunction*%
%TD*%
D12*
%TO.N,Net-(C1-Pad1)*%
X92177000Y-124435000D02*
X71943883Y-124435000D01*
X72033774Y-124374937D01*
X72102711Y-124306000D01*
X74893895Y-124306000D01*
X74930000Y-124309556D01*
X74966105Y-124306000D01*
X75074085Y-124295365D01*
X75212633Y-124253337D01*
X75340320Y-124185087D01*
X75452238Y-124093238D01*
X75475258Y-124065188D01*
X76712447Y-122828000D01*
X76809939Y-122828000D01*
X77009898Y-122788226D01*
X77198256Y-122710205D01*
X77367774Y-122596937D01*
X77511937Y-122452774D01*
X77625205Y-122283256D01*
X77703226Y-122094898D01*
X77743000Y-121894939D01*
X77743000Y-121691061D01*
X77703226Y-121491102D01*
X77625205Y-121302744D01*
X77511937Y-121133226D01*
X77367774Y-120989063D01*
X77198256Y-120875795D01*
X77009898Y-120797774D01*
X76809939Y-120758000D01*
X76606061Y-120758000D01*
X76406102Y-120797774D01*
X76217744Y-120875795D01*
X76048226Y-120989063D01*
X75904063Y-121133226D01*
X75790795Y-121302744D01*
X75712774Y-121491102D01*
X75673000Y-121691061D01*
X75673000Y-121788553D01*
X74625554Y-122836000D01*
X72102711Y-122836000D01*
X72033774Y-122767063D01*
X71864256Y-122653795D01*
X71675898Y-122575774D01*
X71475939Y-122536000D01*
X71272061Y-122536000D01*
X71072102Y-122575774D01*
X70883744Y-122653795D01*
X70714226Y-122767063D01*
X70570063Y-122911226D01*
X70456795Y-123080744D01*
X70378774Y-123269102D01*
X70339000Y-123469061D01*
X70339000Y-123672939D01*
X70378774Y-123872898D01*
X70456795Y-124061256D01*
X70570063Y-124230774D01*
X70714226Y-124374937D01*
X70804117Y-124435000D01*
X65176000Y-124435000D01*
X65176000Y-115062000D01*
X92177000Y-115062000D01*
X92177000Y-124435000D01*
%TA.AperFunction,Conductor*%
D13*
G36*
X92177000Y-124435000D02*
G01*
X71943883Y-124435000D01*
X72033774Y-124374937D01*
X72102711Y-124306000D01*
X74893895Y-124306000D01*
X74930000Y-124309556D01*
X74966105Y-124306000D01*
X75074085Y-124295365D01*
X75212633Y-124253337D01*
X75340320Y-124185087D01*
X75452238Y-124093238D01*
X75475258Y-124065188D01*
X76712447Y-122828000D01*
X76809939Y-122828000D01*
X77009898Y-122788226D01*
X77198256Y-122710205D01*
X77367774Y-122596937D01*
X77511937Y-122452774D01*
X77625205Y-122283256D01*
X77703226Y-122094898D01*
X77743000Y-121894939D01*
X77743000Y-121691061D01*
X77703226Y-121491102D01*
X77625205Y-121302744D01*
X77511937Y-121133226D01*
X77367774Y-120989063D01*
X77198256Y-120875795D01*
X77009898Y-120797774D01*
X76809939Y-120758000D01*
X76606061Y-120758000D01*
X76406102Y-120797774D01*
X76217744Y-120875795D01*
X76048226Y-120989063D01*
X75904063Y-121133226D01*
X75790795Y-121302744D01*
X75712774Y-121491102D01*
X75673000Y-121691061D01*
X75673000Y-121788553D01*
X74625554Y-122836000D01*
X72102711Y-122836000D01*
X72033774Y-122767063D01*
X71864256Y-122653795D01*
X71675898Y-122575774D01*
X71475939Y-122536000D01*
X71272061Y-122536000D01*
X71072102Y-122575774D01*
X70883744Y-122653795D01*
X70714226Y-122767063D01*
X70570063Y-122911226D01*
X70456795Y-123080744D01*
X70378774Y-123269102D01*
X70339000Y-123469061D01*
X70339000Y-123672939D01*
X70378774Y-123872898D01*
X70456795Y-124061256D01*
X70570063Y-124230774D01*
X70714226Y-124374937D01*
X70804117Y-124435000D01*
X65176000Y-124435000D01*
X65176000Y-115062000D01*
X92177000Y-115062000D01*
X92177000Y-124435000D01*
G37*
%TD.AperFunction*%
%TD*%
M02*
