%TF.GenerationSoftware,KiCad,Pcbnew,5.1.10*%
%TF.CreationDate,2021-08-11T21:48:22+02:00*%
%TF.ProjectId,LiPo_Wireless,4c69506f-5f57-4697-9265-6c6573732e6b,rev?*%
%TF.SameCoordinates,Original*%
%TF.FileFunction,Copper,L1,Top*%
%TF.FilePolarity,Positive*%
%FSLAX46Y46*%
G04 Gerber Fmt 4.6, Leading zero omitted, Abs format (unit mm)*
G04 Created by KiCad (PCBNEW 5.1.10) date 2021-08-11 21:48:22*
%MOMM*%
%LPD*%
G01*
G04 APERTURE LIST*
%TA.AperFunction,SMDPad,CuDef*%
%ADD10R,1.900000X1.000000*%
%TD*%
%TA.AperFunction,SMDPad,CuDef*%
%ADD11R,1.500000X0.700000*%
%TD*%
%TA.AperFunction,SMDPad,CuDef*%
%ADD12R,0.700000X1.500000*%
%TD*%
%TA.AperFunction,SMDPad,CuDef*%
%ADD13R,0.900000X0.800000*%
%TD*%
%TA.AperFunction,SMDPad,CuDef*%
%ADD14R,1.220000X0.650000*%
%TD*%
%TA.AperFunction,SMDPad,CuDef*%
%ADD15C,0.100000*%
%TD*%
%TA.AperFunction,SMDPad,CuDef*%
%ADD16R,0.700000X0.250000*%
%TD*%
%TA.AperFunction,SMDPad,CuDef*%
%ADD17R,0.250000X0.700000*%
%TD*%
%TA.AperFunction,SMDPad,CuDef*%
%ADD18R,1.000000X1.900000*%
%TD*%
%TA.AperFunction,ViaPad*%
%ADD19C,0.800000*%
%TD*%
%TA.AperFunction,Conductor*%
%ADD20C,0.200000*%
%TD*%
%TA.AperFunction,Conductor*%
%ADD21C,0.250000*%
%TD*%
%TA.AperFunction,Conductor*%
%ADD22C,0.254000*%
%TD*%
%TA.AperFunction,Conductor*%
%ADD23C,0.100000*%
%TD*%
G04 APERTURE END LIST*
%TO.P,BT1,1*%
%TO.N,Net-(BT1-Pad1)*%
%TA.AperFunction,SMDPad,CuDef*%
G36*
G01*
X65048000Y-109895000D02*
X65048000Y-108895000D01*
G75*
G02*
X65548000Y-108395000I500000J0D01*
G01*
X67548000Y-108395000D01*
G75*
G02*
X68048000Y-108895000I0J-500000D01*
G01*
X68048000Y-109895000D01*
G75*
G02*
X67548000Y-110395000I-500000J0D01*
G01*
X65548000Y-110395000D01*
G75*
G02*
X65048000Y-109895000I0J500000D01*
G01*
G37*
%TD.AperFunction*%
%TO.P,BT1,2*%
%TO.N,Net-(BT1-Pad2)*%
%TA.AperFunction,SMDPad,CuDef*%
G36*
G01*
X65048000Y-112895000D02*
X65048000Y-111895000D01*
G75*
G02*
X65548000Y-111395000I500000J0D01*
G01*
X67548000Y-111395000D01*
G75*
G02*
X68048000Y-111895000I0J-500000D01*
G01*
X68048000Y-112895000D01*
G75*
G02*
X67548000Y-113395000I-500000J0D01*
G01*
X65548000Y-113395000D01*
G75*
G02*
X65048000Y-112895000I0J500000D01*
G01*
G37*
%TD.AperFunction*%
%TD*%
%TO.P,C1,1*%
%TO.N,Net-(C1-Pad1)*%
%TA.AperFunction,SMDPad,CuDef*%
G36*
G01*
X82705000Y-124184500D02*
X82395000Y-124184500D01*
G75*
G02*
X82240000Y-124029500I0J155000D01*
G01*
X82240000Y-123604500D01*
G75*
G02*
X82395000Y-123449500I155000J0D01*
G01*
X82705000Y-123449500D01*
G75*
G02*
X82860000Y-123604500I0J-155000D01*
G01*
X82860000Y-124029500D01*
G75*
G02*
X82705000Y-124184500I-155000J0D01*
G01*
G37*
%TD.AperFunction*%
%TO.P,C1,2*%
%TO.N,Net-(C1-Pad2)*%
%TA.AperFunction,SMDPad,CuDef*%
G36*
G01*
X82705000Y-123049500D02*
X82395000Y-123049500D01*
G75*
G02*
X82240000Y-122894500I0J155000D01*
G01*
X82240000Y-122469500D01*
G75*
G02*
X82395000Y-122314500I155000J0D01*
G01*
X82705000Y-122314500D01*
G75*
G02*
X82860000Y-122469500I0J-155000D01*
G01*
X82860000Y-122894500D01*
G75*
G02*
X82705000Y-123049500I-155000J0D01*
G01*
G37*
%TD.AperFunction*%
%TD*%
%TO.P,C2,2*%
%TO.N,Net-(BT1-Pad2)*%
%TA.AperFunction,SMDPad,CuDef*%
G36*
G01*
X74181500Y-108105000D02*
X74181500Y-107795000D01*
G75*
G02*
X74336500Y-107640000I155000J0D01*
G01*
X74761500Y-107640000D01*
G75*
G02*
X74916500Y-107795000I0J-155000D01*
G01*
X74916500Y-108105000D01*
G75*
G02*
X74761500Y-108260000I-155000J0D01*
G01*
X74336500Y-108260000D01*
G75*
G02*
X74181500Y-108105000I0J155000D01*
G01*
G37*
%TD.AperFunction*%
%TO.P,C2,1*%
%TO.N,Net-(C2-Pad1)*%
%TA.AperFunction,SMDPad,CuDef*%
G36*
G01*
X73046500Y-108105000D02*
X73046500Y-107795000D01*
G75*
G02*
X73201500Y-107640000I155000J0D01*
G01*
X73626500Y-107640000D01*
G75*
G02*
X73781500Y-107795000I0J-155000D01*
G01*
X73781500Y-108105000D01*
G75*
G02*
X73626500Y-108260000I-155000J0D01*
G01*
X73201500Y-108260000D01*
G75*
G02*
X73046500Y-108105000I0J155000D01*
G01*
G37*
%TD.AperFunction*%
%TD*%
%TO.P,D1,1*%
%TO.N,Net-(D1-Pad1)*%
%TA.AperFunction,SMDPad,CuDef*%
G36*
G01*
X78088500Y-112130000D02*
X77613500Y-112130000D01*
G75*
G02*
X77376000Y-111892500I0J237500D01*
G01*
X77376000Y-111317500D01*
G75*
G02*
X77613500Y-111080000I237500J0D01*
G01*
X78088500Y-111080000D01*
G75*
G02*
X78326000Y-111317500I0J-237500D01*
G01*
X78326000Y-111892500D01*
G75*
G02*
X78088500Y-112130000I-237500J0D01*
G01*
G37*
%TD.AperFunction*%
%TO.P,D1,2*%
%TO.N,Net-(D1-Pad2)*%
%TA.AperFunction,SMDPad,CuDef*%
G36*
G01*
X78088500Y-110380000D02*
X77613500Y-110380000D01*
G75*
G02*
X77376000Y-110142500I0J237500D01*
G01*
X77376000Y-109567500D01*
G75*
G02*
X77613500Y-109330000I237500J0D01*
G01*
X78088500Y-109330000D01*
G75*
G02*
X78326000Y-109567500I0J-237500D01*
G01*
X78326000Y-110142500D01*
G75*
G02*
X78088500Y-110380000I-237500J0D01*
G01*
G37*
%TD.AperFunction*%
%TD*%
%TO.P,D2,2*%
%TO.N,Net-(D2-Pad2)*%
%TA.AperFunction,SMDPad,CuDef*%
G36*
G01*
X83456000Y-109236500D02*
X83456000Y-109711500D01*
G75*
G02*
X83218500Y-109949000I-237500J0D01*
G01*
X82643500Y-109949000D01*
G75*
G02*
X82406000Y-109711500I0J237500D01*
G01*
X82406000Y-109236500D01*
G75*
G02*
X82643500Y-108999000I237500J0D01*
G01*
X83218500Y-108999000D01*
G75*
G02*
X83456000Y-109236500I0J-237500D01*
G01*
G37*
%TD.AperFunction*%
%TO.P,D2,1*%
%TO.N,Net-(D2-Pad1)*%
%TA.AperFunction,SMDPad,CuDef*%
G36*
G01*
X85206000Y-109236500D02*
X85206000Y-109711500D01*
G75*
G02*
X84968500Y-109949000I-237500J0D01*
G01*
X84393500Y-109949000D01*
G75*
G02*
X84156000Y-109711500I0J237500D01*
G01*
X84156000Y-109236500D01*
G75*
G02*
X84393500Y-108999000I237500J0D01*
G01*
X84968500Y-108999000D01*
G75*
G02*
X85206000Y-109236500I0J-237500D01*
G01*
G37*
%TD.AperFunction*%
%TD*%
%TO.P,J_Bat1,1*%
%TO.N,Net-(BT1-Pad1)*%
%TA.AperFunction,SMDPad,CuDef*%
G36*
G01*
X65048000Y-107180000D02*
X65048000Y-106180000D01*
G75*
G02*
X65548000Y-105680000I500000J0D01*
G01*
X67548000Y-105680000D01*
G75*
G02*
X68048000Y-106180000I0J-500000D01*
G01*
X68048000Y-107180000D01*
G75*
G02*
X67548000Y-107680000I-500000J0D01*
G01*
X65548000Y-107680000D01*
G75*
G02*
X65048000Y-107180000I0J500000D01*
G01*
G37*
%TD.AperFunction*%
%TD*%
%TO.P,J_Chg,1*%
%TO.N,Net-(D1-Pad1)*%
%TA.AperFunction,SMDPad,CuDef*%
G36*
G01*
X78478000Y-108307000D02*
X77478000Y-108307000D01*
G75*
G02*
X76978000Y-107807000I0J500000D01*
G01*
X76978000Y-105807000D01*
G75*
G02*
X77478000Y-105307000I500000J0D01*
G01*
X78478000Y-105307000D01*
G75*
G02*
X78978000Y-105807000I0J-500000D01*
G01*
X78978000Y-107807000D01*
G75*
G02*
X78478000Y-108307000I-500000J0D01*
G01*
G37*
%TD.AperFunction*%
%TD*%
%TO.P,J_Frq1,1*%
%TO.N,Net-(J_Frq1-Pad1)*%
%TA.AperFunction,SMDPad,CuDef*%
G36*
G01*
X83447000Y-117372000D02*
X84447000Y-117372000D01*
G75*
G02*
X84947000Y-117872000I0J-500000D01*
G01*
X84947000Y-119872000D01*
G75*
G02*
X84447000Y-120372000I-500000J0D01*
G01*
X83447000Y-120372000D01*
G75*
G02*
X82947000Y-119872000I0J500000D01*
G01*
X82947000Y-117872000D01*
G75*
G02*
X83447000Y-117372000I500000J0D01*
G01*
G37*
%TD.AperFunction*%
%TD*%
D10*
%TO.P,Power_in,2*%
%TO.N,Net-(C1-Pad1)*%
X69596000Y-122428000D03*
%TO.P,Power_in,1*%
%TO.N,Net-(BT1-Pad2)*%
X66296000Y-119888000D03*
%TD*%
%TO.P,Power_out,1*%
%TO.N,Net-(D1-Pad2)*%
X87505000Y-108204000D03*
%TO.P,Power_out,2*%
%TO.N,Net-(BT1-Pad2)*%
X90805000Y-110744000D03*
%TD*%
D11*
%TO.P,L1,2*%
%TO.N,Net-(C1-Pad2)*%
X84709000Y-122174000D03*
%TO.P,L1,1*%
%TO.N,Net-(C1-Pad1)*%
X84709000Y-123874000D03*
%TD*%
D12*
%TO.P,L2,1*%
%TO.N,Net-(BT1-Pad2)*%
X74852000Y-105791000D03*
%TO.P,L2,2*%
%TO.N,Net-(C2-Pad1)*%
X73152000Y-105791000D03*
%TD*%
D13*
%TO.P,Q1,1*%
%TO.N,Net-(J_Frq1-Pad1)*%
X78264000Y-121732000D03*
%TO.P,Q1,2*%
%TO.N,Net-(BT1-Pad2)*%
X78264000Y-123632000D03*
%TO.P,Q1,3*%
%TO.N,Net-(C1-Pad2)*%
X80264000Y-122682000D03*
%TD*%
%TO.P,R1,1*%
%TO.N,Net-(R1-Pad1)*%
%TA.AperFunction,SMDPad,CuDef*%
G36*
G01*
X82322500Y-117491500D02*
X82322500Y-117966500D01*
G75*
G02*
X82085000Y-118204000I-237500J0D01*
G01*
X81585000Y-118204000D01*
G75*
G02*
X81347500Y-117966500I0J237500D01*
G01*
X81347500Y-117491500D01*
G75*
G02*
X81585000Y-117254000I237500J0D01*
G01*
X82085000Y-117254000D01*
G75*
G02*
X82322500Y-117491500I0J-237500D01*
G01*
G37*
%TD.AperFunction*%
%TO.P,R1,2*%
%TO.N,Net-(R1-Pad2)*%
%TA.AperFunction,SMDPad,CuDef*%
G36*
G01*
X80497500Y-117491500D02*
X80497500Y-117966500D01*
G75*
G02*
X80260000Y-118204000I-237500J0D01*
G01*
X79760000Y-118204000D01*
G75*
G02*
X79522500Y-117966500I0J237500D01*
G01*
X79522500Y-117491500D01*
G75*
G02*
X79760000Y-117254000I237500J0D01*
G01*
X80260000Y-117254000D01*
G75*
G02*
X80497500Y-117491500I0J-237500D01*
G01*
G37*
%TD.AperFunction*%
%TD*%
%TO.P,R2,2*%
%TO.N,Net-(R2-Pad2)*%
%TA.AperFunction,SMDPad,CuDef*%
G36*
G01*
X76687500Y-117491500D02*
X76687500Y-117966500D01*
G75*
G02*
X76450000Y-118204000I-237500J0D01*
G01*
X75950000Y-118204000D01*
G75*
G02*
X75712500Y-117966500I0J237500D01*
G01*
X75712500Y-117491500D01*
G75*
G02*
X75950000Y-117254000I237500J0D01*
G01*
X76450000Y-117254000D01*
G75*
G02*
X76687500Y-117491500I0J-237500D01*
G01*
G37*
%TD.AperFunction*%
%TO.P,R2,1*%
%TO.N,Net-(R1-Pad2)*%
%TA.AperFunction,SMDPad,CuDef*%
G36*
G01*
X78512500Y-117491500D02*
X78512500Y-117966500D01*
G75*
G02*
X78275000Y-118204000I-237500J0D01*
G01*
X77775000Y-118204000D01*
G75*
G02*
X77537500Y-117966500I0J237500D01*
G01*
X77537500Y-117491500D01*
G75*
G02*
X77775000Y-117254000I237500J0D01*
G01*
X78275000Y-117254000D01*
G75*
G02*
X78512500Y-117491500I0J-237500D01*
G01*
G37*
%TD.AperFunction*%
%TD*%
%TO.P,R3,2*%
%TO.N,Net-(BT1-Pad2)*%
%TA.AperFunction,SMDPad,CuDef*%
G36*
G01*
X72830500Y-119523500D02*
X72830500Y-119998500D01*
G75*
G02*
X72593000Y-120236000I-237500J0D01*
G01*
X72093000Y-120236000D01*
G75*
G02*
X71855500Y-119998500I0J237500D01*
G01*
X71855500Y-119523500D01*
G75*
G02*
X72093000Y-119286000I237500J0D01*
G01*
X72593000Y-119286000D01*
G75*
G02*
X72830500Y-119523500I0J-237500D01*
G01*
G37*
%TD.AperFunction*%
%TO.P,R3,1*%
%TO.N,Net-(R2-Pad2)*%
%TA.AperFunction,SMDPad,CuDef*%
G36*
G01*
X74655500Y-119523500D02*
X74655500Y-119998500D01*
G75*
G02*
X74418000Y-120236000I-237500J0D01*
G01*
X73918000Y-120236000D01*
G75*
G02*
X73680500Y-119998500I0J237500D01*
G01*
X73680500Y-119523500D01*
G75*
G02*
X73918000Y-119286000I237500J0D01*
G01*
X74418000Y-119286000D01*
G75*
G02*
X74655500Y-119523500I0J-237500D01*
G01*
G37*
%TD.AperFunction*%
%TD*%
%TO.P,R4,2*%
%TO.N,Net-(R1-Pad2)*%
%TA.AperFunction,SMDPad,CuDef*%
G36*
G01*
X80474000Y-119523500D02*
X80474000Y-119998500D01*
G75*
G02*
X80236500Y-120236000I-237500J0D01*
G01*
X79736500Y-120236000D01*
G75*
G02*
X79499000Y-119998500I0J237500D01*
G01*
X79499000Y-119523500D01*
G75*
G02*
X79736500Y-119286000I237500J0D01*
G01*
X80236500Y-119286000D01*
G75*
G02*
X80474000Y-119523500I0J-237500D01*
G01*
G37*
%TD.AperFunction*%
%TO.P,R4,1*%
%TO.N,Net-(R1-Pad1)*%
%TA.AperFunction,SMDPad,CuDef*%
G36*
G01*
X82299000Y-119523500D02*
X82299000Y-119998500D01*
G75*
G02*
X82061500Y-120236000I-237500J0D01*
G01*
X81561500Y-120236000D01*
G75*
G02*
X81324000Y-119998500I0J237500D01*
G01*
X81324000Y-119523500D01*
G75*
G02*
X81561500Y-119286000I237500J0D01*
G01*
X82061500Y-119286000D01*
G75*
G02*
X82299000Y-119523500I0J-237500D01*
G01*
G37*
%TD.AperFunction*%
%TD*%
%TO.P,R5,1*%
%TO.N,Net-(R1-Pad2)*%
%TA.AperFunction,SMDPad,CuDef*%
G36*
G01*
X78512500Y-119523500D02*
X78512500Y-119998500D01*
G75*
G02*
X78275000Y-120236000I-237500J0D01*
G01*
X77775000Y-120236000D01*
G75*
G02*
X77537500Y-119998500I0J237500D01*
G01*
X77537500Y-119523500D01*
G75*
G02*
X77775000Y-119286000I237500J0D01*
G01*
X78275000Y-119286000D01*
G75*
G02*
X78512500Y-119523500I0J-237500D01*
G01*
G37*
%TD.AperFunction*%
%TO.P,R5,2*%
%TO.N,Net-(R2-Pad2)*%
%TA.AperFunction,SMDPad,CuDef*%
G36*
G01*
X76687500Y-119523500D02*
X76687500Y-119998500D01*
G75*
G02*
X76450000Y-120236000I-237500J0D01*
G01*
X75950000Y-120236000D01*
G75*
G02*
X75712500Y-119998500I0J237500D01*
G01*
X75712500Y-119523500D01*
G75*
G02*
X75950000Y-119286000I237500J0D01*
G01*
X76450000Y-119286000D01*
G75*
G02*
X76687500Y-119523500I0J-237500D01*
G01*
G37*
%TD.AperFunction*%
%TD*%
%TO.P,R6,1*%
%TO.N,Net-(R2-Pad2)*%
%TA.AperFunction,SMDPad,CuDef*%
G36*
G01*
X74655500Y-117491500D02*
X74655500Y-117966500D01*
G75*
G02*
X74418000Y-118204000I-237500J0D01*
G01*
X73918000Y-118204000D01*
G75*
G02*
X73680500Y-117966500I0J237500D01*
G01*
X73680500Y-117491500D01*
G75*
G02*
X73918000Y-117254000I237500J0D01*
G01*
X74418000Y-117254000D01*
G75*
G02*
X74655500Y-117491500I0J-237500D01*
G01*
G37*
%TD.AperFunction*%
%TO.P,R6,2*%
%TO.N,Net-(BT1-Pad2)*%
%TA.AperFunction,SMDPad,CuDef*%
G36*
G01*
X72830500Y-117491500D02*
X72830500Y-117966500D01*
G75*
G02*
X72593000Y-118204000I-237500J0D01*
G01*
X72093000Y-118204000D01*
G75*
G02*
X71855500Y-117966500I0J237500D01*
G01*
X71855500Y-117491500D01*
G75*
G02*
X72093000Y-117254000I237500J0D01*
G01*
X72593000Y-117254000D01*
G75*
G02*
X72830500Y-117491500I0J-237500D01*
G01*
G37*
%TD.AperFunction*%
%TD*%
%TO.P,R7,1*%
%TO.N,Net-(D2-Pad1)*%
%TA.AperFunction,SMDPad,CuDef*%
G36*
G01*
X85196500Y-110887500D02*
X85196500Y-111362500D01*
G75*
G02*
X84959000Y-111600000I-237500J0D01*
G01*
X84459000Y-111600000D01*
G75*
G02*
X84221500Y-111362500I0J237500D01*
G01*
X84221500Y-110887500D01*
G75*
G02*
X84459000Y-110650000I237500J0D01*
G01*
X84959000Y-110650000D01*
G75*
G02*
X85196500Y-110887500I0J-237500D01*
G01*
G37*
%TD.AperFunction*%
%TO.P,R7,2*%
%TO.N,Net-(BT1-Pad2)*%
%TA.AperFunction,SMDPad,CuDef*%
G36*
G01*
X83371500Y-110887500D02*
X83371500Y-111362500D01*
G75*
G02*
X83134000Y-111600000I-237500J0D01*
G01*
X82634000Y-111600000D01*
G75*
G02*
X82396500Y-111362500I0J237500D01*
G01*
X82396500Y-110887500D01*
G75*
G02*
X82634000Y-110650000I237500J0D01*
G01*
X83134000Y-110650000D01*
G75*
G02*
X83371500Y-110887500I0J-237500D01*
G01*
G37*
%TD.AperFunction*%
%TD*%
D14*
%TO.P,U1,1*%
%TO.N,Net-(C1-Pad1)*%
X75057000Y-123571000D03*
%TO.P,U1,2*%
%TO.N,Net-(BT1-Pad2)*%
X75057000Y-122621000D03*
%TO.P,U1,3*%
%TO.N,Net-(R1-Pad1)*%
X75057000Y-121671000D03*
%TO.P,U1,4*%
%TO.N,Net-(BT1-Pad2)*%
X72437000Y-121671000D03*
%TO.P,U1,5*%
%TO.N,Net-(C1-Pad1)*%
X72437000Y-122621000D03*
%TO.P,U1,6*%
%TO.N,Net-(J_Frq1-Pad1)*%
X72437000Y-123571000D03*
%TD*%
%TA.AperFunction,SMDPad,CuDef*%
D15*
%TO.P,U2,13*%
%TO.N,Net-(BT1-Pad2)*%
G36*
X74391000Y-110521000D02*
G01*
X74391000Y-111221000D01*
X73831000Y-111221000D01*
X73691000Y-111081000D01*
X73691000Y-110521000D01*
X74391000Y-110521000D01*
G37*
%TD.AperFunction*%
D16*
%TO.P,U2,12*%
X73141000Y-111121000D03*
%TO.P,U2,11*%
%TO.N,Net-(C2-Pad1)*%
X73141000Y-110621000D03*
%TO.P,U2,5*%
%TO.N,Net-(D1-Pad2)*%
X74941000Y-110621000D03*
%TO.P,U2,6*%
%TO.N,Net-(BT1-Pad2)*%
X74941000Y-111121000D03*
D17*
%TO.P,U2,10*%
%TO.N,Net-(BT1-Pad1)*%
X73291000Y-109971000D03*
%TO.P,U2,9*%
%TO.N,Net-(D1-Pad2)*%
X73791000Y-109971000D03*
%TO.P,U2,8*%
X74291000Y-109971000D03*
%TO.P,U2,7*%
X74791000Y-109971000D03*
%TO.P,U2,1*%
X73291000Y-111771000D03*
%TO.P,U2,2*%
%TO.N,Net-(D1-Pad1)*%
X73791000Y-111771000D03*
%TO.P,U2,3*%
%TO.N,Net-(D1-Pad2)*%
X74291000Y-111771000D03*
%TO.P,U2,4*%
%TO.N,Net-(BT1-Pad2)*%
X74791000Y-111771000D03*
%TD*%
D18*
%TO.P,LED1,1*%
%TO.N,Net-(D1-Pad2)*%
X83947000Y-103887000D03*
%TO.P,LED1,2*%
%TO.N,Net-(D2-Pad2)*%
X81407000Y-107187000D03*
%TD*%
D19*
%TO.N,Net-(C1-Pad1)*%
X66929000Y-122428000D03*
%TO.N,Net-(D1-Pad2)*%
X72898000Y-112649000D03*
X85852000Y-106553000D03*
%TO.N,Net-(J_Frq1-Pad1)*%
X71374000Y-123571000D03*
X76708000Y-121793000D03*
%TD*%
D20*
%TO.N,Net-(BT1-Pad1)*%
X66548000Y-109395000D02*
X66548000Y-106680000D01*
X66675000Y-106553000D02*
X66548000Y-106680000D01*
X69850000Y-106553000D02*
X66675000Y-106553000D01*
X74407002Y-103886000D02*
X72517000Y-103886000D01*
X72517000Y-103886000D02*
X69850000Y-106553000D01*
X75692000Y-105170998D02*
X74407002Y-103886000D01*
X73291000Y-109335000D02*
X73787000Y-108839000D01*
X73291000Y-109971000D02*
X73291000Y-109335000D01*
X75184000Y-108839000D02*
X75692000Y-108331000D01*
X75692000Y-108331000D02*
X75692000Y-105170998D01*
X73787000Y-108839000D02*
X75184000Y-108839000D01*
D21*
%TO.N,Net-(BT1-Pad2)*%
X73007002Y-121671000D02*
X72437000Y-121671000D01*
X73957002Y-122621000D02*
X73007002Y-121671000D01*
X75057000Y-122621000D02*
X73957002Y-122621000D01*
X78264000Y-123632000D02*
X77253000Y-122621000D01*
X77253000Y-122621000D02*
X75057000Y-122621000D01*
X72216000Y-119888000D02*
X72343000Y-119761000D01*
X66296000Y-119888000D02*
X72216000Y-119888000D01*
X72343000Y-121577000D02*
X72437000Y-121671000D01*
X72343000Y-119761000D02*
X72343000Y-121577000D01*
X72343000Y-119761000D02*
X72343000Y-117729000D01*
X74041000Y-110871000D02*
X74241001Y-111071001D01*
D20*
X74852000Y-107647000D02*
X74549000Y-107950000D01*
X74852000Y-105791000D02*
X74852000Y-107647000D01*
X73141000Y-111121000D02*
X71378000Y-111121000D01*
X70104000Y-112395000D02*
X66548000Y-112395000D01*
X82884000Y-111125000D02*
X80010000Y-111125000D01*
X80010000Y-111125000D02*
X77343000Y-113792000D01*
X73025000Y-113792000D02*
X70866000Y-111633000D01*
X77343000Y-113792000D02*
X73025000Y-113792000D01*
X70866000Y-111633000D02*
X70104000Y-112395000D01*
X71378000Y-111121000D02*
X70866000Y-111633000D01*
X82884000Y-111125000D02*
X84027000Y-112268000D01*
X89281000Y-112268000D02*
X90805000Y-110744000D01*
X84027000Y-112268000D02*
X89281000Y-112268000D01*
X72343000Y-114474000D02*
X72343000Y-117729000D01*
X73025000Y-113792000D02*
X72343000Y-114474000D01*
X74002000Y-104941000D02*
X74852000Y-105791000D01*
X72644000Y-104521000D02*
X73582000Y-104521000D01*
X71378000Y-105787000D02*
X72644000Y-104521000D01*
X73582000Y-104521000D02*
X74002000Y-104941000D01*
X71378000Y-111121000D02*
X71378000Y-105787000D01*
X74291000Y-111121000D02*
X74041000Y-110871000D01*
X74941000Y-111121000D02*
X74291000Y-111121000D01*
X74791000Y-111271000D02*
X74941000Y-111121000D01*
X74791000Y-111771000D02*
X74791000Y-111271000D01*
X90805000Y-108934998D02*
X85725000Y-103854998D01*
X90805000Y-110744000D02*
X90805000Y-108934998D01*
X85725000Y-103854998D02*
X85725000Y-102997000D01*
X85725000Y-102997000D02*
X85344000Y-102616000D01*
X85344000Y-102616000D02*
X79121000Y-102616000D01*
X79121000Y-102616000D02*
X77089000Y-102616000D01*
X77089000Y-102616000D02*
X76327000Y-103378000D01*
X73141000Y-111121000D02*
X73283000Y-111121000D01*
X73791000Y-111121000D02*
X74041000Y-110871000D01*
X73141000Y-111121000D02*
X73791000Y-111121000D01*
D21*
%TO.N,Net-(C1-Pad1)*%
X72244000Y-122428000D02*
X72437000Y-122621000D01*
X69596000Y-122428000D02*
X72244000Y-122428000D01*
X82009999Y-124357001D02*
X82550000Y-123817000D01*
X76703001Y-124357001D02*
X82009999Y-124357001D01*
X75917000Y-123571000D02*
X76703001Y-124357001D01*
X75057000Y-123571000D02*
X75917000Y-123571000D01*
X84652000Y-123817000D02*
X84709000Y-123874000D01*
X82550000Y-123817000D02*
X84652000Y-123817000D01*
X72437000Y-122621000D02*
X73320592Y-122621000D01*
X73320592Y-122621000D02*
X74270592Y-123571000D01*
X74270592Y-123571000D02*
X75057000Y-123571000D01*
D20*
X69596000Y-122428000D02*
X66929000Y-122428000D01*
D21*
%TO.N,Net-(C1-Pad2)*%
X83058000Y-122174000D02*
X82550000Y-122682000D01*
X84709000Y-122174000D02*
X83058000Y-122174000D01*
X82550000Y-122682000D02*
X80264000Y-122682000D01*
D20*
%TO.N,Net-(C2-Pad1)*%
X72965999Y-108398001D02*
X73414000Y-107950000D01*
X72965999Y-110445999D02*
X72965999Y-108398001D01*
X73141000Y-110621000D02*
X72965999Y-110445999D01*
X73414000Y-106053000D02*
X73152000Y-105791000D01*
X73414000Y-107950000D02*
X73414000Y-106053000D01*
%TO.N,Net-(D1-Pad1)*%
X73791000Y-111771000D02*
X73791000Y-112907000D01*
X73791000Y-112907000D02*
X74168000Y-113284000D01*
X74168000Y-113284000D02*
X76962000Y-113284000D01*
X77851000Y-112395000D02*
X77851000Y-111605000D01*
X76962000Y-113284000D02*
X77851000Y-112395000D01*
X77851000Y-111605000D02*
X79121000Y-110335000D01*
X79121000Y-107950000D02*
X77978000Y-106807000D01*
X79121000Y-110335000D02*
X79121000Y-107950000D01*
D21*
%TO.N,Net-(D1-Pad2)*%
X74291000Y-112106002D02*
X74295000Y-112110002D01*
X74291000Y-111771000D02*
X74291000Y-112106002D01*
X74945000Y-110617000D02*
X74941000Y-110621000D01*
X76581000Y-110617000D02*
X74945000Y-110617000D01*
X77089000Y-110617000D02*
X77851000Y-109855000D01*
X76581000Y-110617000D02*
X77089000Y-110617000D01*
X74295000Y-112522000D02*
X74549000Y-112776000D01*
X74295000Y-112110002D02*
X74295000Y-112522000D01*
X76327000Y-112776000D02*
X76581000Y-112522000D01*
X76581000Y-112522000D02*
X76581000Y-110617000D01*
X74549000Y-112776000D02*
X76327000Y-112776000D01*
X74941000Y-110121000D02*
X74791000Y-109971000D01*
X74941000Y-110621000D02*
X74941000Y-110121000D01*
X74803000Y-109959000D02*
X74791000Y-109971000D01*
X74803000Y-109220000D02*
X74803000Y-109959000D01*
X75184000Y-109220000D02*
X76581000Y-110617000D01*
X74803000Y-109220000D02*
X75184000Y-109220000D01*
X74291000Y-109224000D02*
X74295000Y-109220000D01*
X74291000Y-109971000D02*
X74291000Y-109224000D01*
X74295000Y-109220000D02*
X74803000Y-109220000D01*
X83947000Y-103887000D02*
X83947000Y-104646000D01*
X73791000Y-109971000D02*
X73791000Y-109478000D01*
X74049000Y-109220000D02*
X74295000Y-109220000D01*
X73791000Y-109478000D02*
X74049000Y-109220000D01*
X83947000Y-103887000D02*
X77850000Y-103887000D01*
X77850000Y-103887000D02*
X76327000Y-105410000D01*
X76327000Y-108331000D02*
X77851000Y-109855000D01*
X76327000Y-105410000D02*
X76327000Y-108331000D01*
D20*
X73291000Y-112256000D02*
X72898000Y-112649000D01*
X73291000Y-111771000D02*
X73291000Y-112256000D01*
X85914500Y-106615500D02*
X85852000Y-106553000D01*
X85916500Y-106615500D02*
X85914500Y-106615500D01*
D21*
X85852000Y-106553000D02*
X87505000Y-108204000D01*
X83947000Y-104646000D02*
X85916500Y-106615500D01*
D20*
%TO.N,Net-(D2-Pad2)*%
X81407000Y-107950000D02*
X82931000Y-109474000D01*
X81407000Y-107187000D02*
X81407000Y-107950000D01*
%TO.N,Net-(D2-Pad1)*%
X84709000Y-109502000D02*
X84681000Y-109474000D01*
X84709000Y-111125000D02*
X84709000Y-109502000D01*
D21*
%TO.N,Net-(J_Frq1-Pad1)*%
X72437000Y-123571000D02*
X71374000Y-123571000D01*
X78457000Y-121539000D02*
X78264000Y-121732000D01*
X79502000Y-121539000D02*
X78457000Y-121539000D01*
X83947000Y-118908510D02*
X83947000Y-118872000D01*
X81316510Y-121539000D02*
X83947000Y-118908510D01*
X79502000Y-121539000D02*
X81316510Y-121539000D01*
D20*
X78203000Y-121793000D02*
X78264000Y-121732000D01*
X76708000Y-121793000D02*
X78203000Y-121793000D01*
D21*
%TO.N,Net-(R1-Pad1)*%
X81811500Y-117752500D02*
X81835000Y-117729000D01*
X81811500Y-119761000D02*
X81811500Y-117752500D01*
X76166990Y-120561010D02*
X75057000Y-121671000D01*
X81011490Y-120561010D02*
X76166990Y-120561010D01*
X81811500Y-119761000D02*
X81011490Y-120561010D01*
%TO.N,Net-(R1-Pad2)*%
X78025000Y-119761000D02*
X78025000Y-117729000D01*
X78025000Y-117729000D02*
X80010000Y-117729000D01*
X80010000Y-119737500D02*
X79986500Y-119761000D01*
X80010000Y-117729000D02*
X80010000Y-119737500D01*
X79986500Y-119761000D02*
X78025000Y-119761000D01*
%TO.N,Net-(R2-Pad2)*%
X74168000Y-119761000D02*
X76200000Y-119761000D01*
X76200000Y-119761000D02*
X76200000Y-117729000D01*
X76200000Y-117729000D02*
X74168000Y-117729000D01*
X74168000Y-117729000D02*
X74168000Y-119761000D01*
%TD*%
D22*
%TO.N,Net-(BT1-Pad2)*%
X92177001Y-109768864D02*
X92109494Y-109713463D01*
X91999180Y-109654498D01*
X91879482Y-109618188D01*
X91755000Y-109605928D01*
X91090750Y-109609000D01*
X90932000Y-109767750D01*
X90932000Y-110617000D01*
X90952000Y-110617000D01*
X90952000Y-110871000D01*
X90932000Y-110871000D01*
X90932000Y-111720250D01*
X91090750Y-111879000D01*
X91755000Y-111882072D01*
X91879482Y-111869812D01*
X91999180Y-111833502D01*
X92109494Y-111774537D01*
X92177001Y-111719136D01*
X92177000Y-124435000D01*
X86058567Y-124435000D01*
X86084812Y-124348482D01*
X86097072Y-124224000D01*
X86097072Y-123524000D01*
X86084812Y-123399518D01*
X86048502Y-123279820D01*
X85989537Y-123169506D01*
X85910185Y-123072815D01*
X85850704Y-123024000D01*
X85910185Y-122975185D01*
X85989537Y-122878494D01*
X86048502Y-122768180D01*
X86084812Y-122648482D01*
X86097072Y-122524000D01*
X86097072Y-121824000D01*
X86084812Y-121699518D01*
X86048502Y-121579820D01*
X85989537Y-121469506D01*
X85910185Y-121372815D01*
X85813494Y-121293463D01*
X85703180Y-121234498D01*
X85583482Y-121198188D01*
X85459000Y-121185928D01*
X83959000Y-121185928D01*
X83834518Y-121198188D01*
X83714820Y-121234498D01*
X83604506Y-121293463D01*
X83507815Y-121372815D01*
X83474015Y-121414000D01*
X83095322Y-121414000D01*
X83057999Y-121410324D01*
X83020676Y-121414000D01*
X83020667Y-121414000D01*
X82909014Y-121424997D01*
X82765753Y-121468454D01*
X82633724Y-121539026D01*
X82517999Y-121633999D01*
X82494200Y-121662998D01*
X82480770Y-121676428D01*
X82395000Y-121676428D01*
X82240279Y-121691667D01*
X82237932Y-121692379D01*
X83008476Y-120921836D01*
X83011479Y-120923441D01*
X83224973Y-120988204D01*
X83447000Y-121010072D01*
X84447000Y-121010072D01*
X84669027Y-120988204D01*
X84882521Y-120923441D01*
X85079279Y-120818272D01*
X85251738Y-120676738D01*
X85393272Y-120504279D01*
X85498441Y-120307521D01*
X85563204Y-120094027D01*
X85585072Y-119872000D01*
X85585072Y-117872000D01*
X85563204Y-117649973D01*
X85498441Y-117436479D01*
X85393272Y-117239721D01*
X85251738Y-117067262D01*
X85079279Y-116925728D01*
X84882521Y-116820559D01*
X84669027Y-116755796D01*
X84447000Y-116733928D01*
X83447000Y-116733928D01*
X83224973Y-116755796D01*
X83011479Y-116820559D01*
X82814721Y-116925728D01*
X82774797Y-116958493D01*
X82704123Y-116872377D01*
X82571442Y-116763488D01*
X82420067Y-116682577D01*
X82255816Y-116632752D01*
X82085000Y-116615928D01*
X81585000Y-116615928D01*
X81414184Y-116632752D01*
X81249933Y-116682577D01*
X81098558Y-116763488D01*
X80965877Y-116872377D01*
X80922500Y-116925232D01*
X80879123Y-116872377D01*
X80746442Y-116763488D01*
X80595067Y-116682577D01*
X80430816Y-116632752D01*
X80260000Y-116615928D01*
X79760000Y-116615928D01*
X79589184Y-116632752D01*
X79424933Y-116682577D01*
X79273558Y-116763488D01*
X79140877Y-116872377D01*
X79061580Y-116969000D01*
X78973420Y-116969000D01*
X78894123Y-116872377D01*
X78761442Y-116763488D01*
X78610067Y-116682577D01*
X78445816Y-116632752D01*
X78275000Y-116615928D01*
X77775000Y-116615928D01*
X77604184Y-116632752D01*
X77439933Y-116682577D01*
X77288558Y-116763488D01*
X77155877Y-116872377D01*
X77112500Y-116925232D01*
X77069123Y-116872377D01*
X76936442Y-116763488D01*
X76785067Y-116682577D01*
X76620816Y-116632752D01*
X76450000Y-116615928D01*
X75950000Y-116615928D01*
X75779184Y-116632752D01*
X75614933Y-116682577D01*
X75463558Y-116763488D01*
X75330877Y-116872377D01*
X75251580Y-116969000D01*
X75116420Y-116969000D01*
X75037123Y-116872377D01*
X74904442Y-116763488D01*
X74753067Y-116682577D01*
X74588816Y-116632752D01*
X74418000Y-116615928D01*
X73918000Y-116615928D01*
X73747184Y-116632752D01*
X73582933Y-116682577D01*
X73431558Y-116763488D01*
X73322717Y-116852812D01*
X73281685Y-116802815D01*
X73184994Y-116723463D01*
X73074680Y-116664498D01*
X72954982Y-116628188D01*
X72830500Y-116615928D01*
X72628750Y-116619000D01*
X72470000Y-116777750D01*
X72470000Y-117602000D01*
X72490000Y-117602000D01*
X72490000Y-117856000D01*
X72470000Y-117856000D01*
X72470000Y-118680250D01*
X72534750Y-118745000D01*
X72470000Y-118809750D01*
X72470000Y-119634000D01*
X72490000Y-119634000D01*
X72490000Y-119888000D01*
X72470000Y-119888000D01*
X72470000Y-120712250D01*
X72595750Y-120838000D01*
X72564000Y-120869750D01*
X72564000Y-121544000D01*
X73523250Y-121544000D01*
X73682000Y-121385250D01*
X73685072Y-121346000D01*
X73672812Y-121221518D01*
X73636502Y-121101820D01*
X73577537Y-120991506D01*
X73498185Y-120894815D01*
X73401494Y-120815463D01*
X73291180Y-120756498D01*
X73222582Y-120735689D01*
X73281685Y-120687185D01*
X73322717Y-120637188D01*
X73431558Y-120726512D01*
X73582933Y-120807423D01*
X73747184Y-120857248D01*
X73918000Y-120874072D01*
X74021090Y-120874072D01*
X73995815Y-120894815D01*
X73916463Y-120991506D01*
X73857498Y-121101820D01*
X73821188Y-121221518D01*
X73808928Y-121346000D01*
X73808928Y-121996000D01*
X73813492Y-122042345D01*
X73744868Y-121986026D01*
X73672702Y-121947452D01*
X73523250Y-121798000D01*
X73441141Y-121798000D01*
X73401494Y-121765463D01*
X73291180Y-121706498D01*
X73171482Y-121670188D01*
X73047000Y-121657928D01*
X72290000Y-121657928D01*
X72290000Y-121544000D01*
X72310000Y-121544000D01*
X72310000Y-120869750D01*
X72184250Y-120744000D01*
X72216000Y-120712250D01*
X72216000Y-119888000D01*
X71379250Y-119888000D01*
X71220500Y-120046750D01*
X71217428Y-120236000D01*
X71229688Y-120360482D01*
X71265998Y-120480180D01*
X71324963Y-120590494D01*
X71404315Y-120687185D01*
X71501006Y-120766537D01*
X71532522Y-120783383D01*
X71472506Y-120815463D01*
X71375815Y-120894815D01*
X71296463Y-120991506D01*
X71237498Y-121101820D01*
X71201188Y-121221518D01*
X71188928Y-121346000D01*
X71192000Y-121385250D01*
X71350748Y-121543998D01*
X71192000Y-121543998D01*
X71192000Y-121668000D01*
X71127046Y-121668000D01*
X71076537Y-121573506D01*
X70997185Y-121476815D01*
X70900494Y-121397463D01*
X70790180Y-121338498D01*
X70670482Y-121302188D01*
X70546000Y-121289928D01*
X68646000Y-121289928D01*
X68521518Y-121302188D01*
X68401820Y-121338498D01*
X68291506Y-121397463D01*
X68194815Y-121476815D01*
X68115463Y-121573506D01*
X68056498Y-121683820D01*
X68053713Y-121693000D01*
X67657711Y-121693000D01*
X67588774Y-121624063D01*
X67419256Y-121510795D01*
X67230898Y-121432774D01*
X67030939Y-121393000D01*
X66827061Y-121393000D01*
X66627102Y-121432774D01*
X66438744Y-121510795D01*
X66269226Y-121624063D01*
X66125063Y-121768226D01*
X66011795Y-121937744D01*
X65933774Y-122126102D01*
X65894000Y-122326061D01*
X65894000Y-122529939D01*
X65933774Y-122729898D01*
X66011795Y-122918256D01*
X66125063Y-123087774D01*
X66269226Y-123231937D01*
X66438744Y-123345205D01*
X66627102Y-123423226D01*
X66827061Y-123463000D01*
X67030939Y-123463000D01*
X67230898Y-123423226D01*
X67419256Y-123345205D01*
X67588774Y-123231937D01*
X67657711Y-123163000D01*
X68053713Y-123163000D01*
X68056498Y-123172180D01*
X68115463Y-123282494D01*
X68194815Y-123379185D01*
X68291506Y-123458537D01*
X68401820Y-123517502D01*
X68521518Y-123553812D01*
X68646000Y-123566072D01*
X70339000Y-123566072D01*
X70339000Y-123672939D01*
X70378774Y-123872898D01*
X70456795Y-124061256D01*
X70570063Y-124230774D01*
X70714226Y-124374937D01*
X70804117Y-124435000D01*
X65176000Y-124435000D01*
X65176000Y-121000004D01*
X65221518Y-121013812D01*
X65346000Y-121026072D01*
X66010250Y-121023000D01*
X66169000Y-120864250D01*
X66169000Y-120015000D01*
X66423000Y-120015000D01*
X66423000Y-120864250D01*
X66581750Y-121023000D01*
X67246000Y-121026072D01*
X67370482Y-121013812D01*
X67490180Y-120977502D01*
X67600494Y-120918537D01*
X67697185Y-120839185D01*
X67776537Y-120742494D01*
X67835502Y-120632180D01*
X67871812Y-120512482D01*
X67884072Y-120388000D01*
X67881000Y-120173750D01*
X67722250Y-120015000D01*
X66423000Y-120015000D01*
X66169000Y-120015000D01*
X66149000Y-120015000D01*
X66149000Y-119761000D01*
X66169000Y-119761000D01*
X66169000Y-118911750D01*
X66423000Y-118911750D01*
X66423000Y-119761000D01*
X67722250Y-119761000D01*
X67881000Y-119602250D01*
X67884072Y-119388000D01*
X67871812Y-119263518D01*
X67835502Y-119143820D01*
X67776537Y-119033506D01*
X67697185Y-118936815D01*
X67600494Y-118857463D01*
X67490180Y-118798498D01*
X67370482Y-118762188D01*
X67246000Y-118749928D01*
X66581750Y-118753000D01*
X66423000Y-118911750D01*
X66169000Y-118911750D01*
X66010250Y-118753000D01*
X65346000Y-118749928D01*
X65221518Y-118762188D01*
X65176000Y-118775996D01*
X65176000Y-118204000D01*
X71217428Y-118204000D01*
X71229688Y-118328482D01*
X71265998Y-118448180D01*
X71324963Y-118558494D01*
X71404315Y-118655185D01*
X71501006Y-118734537D01*
X71520581Y-118745000D01*
X71501006Y-118755463D01*
X71404315Y-118834815D01*
X71324963Y-118931506D01*
X71265998Y-119041820D01*
X71229688Y-119161518D01*
X71217428Y-119286000D01*
X71220500Y-119475250D01*
X71379250Y-119634000D01*
X72216000Y-119634000D01*
X72216000Y-118809750D01*
X72151250Y-118745000D01*
X72216000Y-118680250D01*
X72216000Y-117856000D01*
X71379250Y-117856000D01*
X71220500Y-118014750D01*
X71217428Y-118204000D01*
X65176000Y-118204000D01*
X65176000Y-117254000D01*
X71217428Y-117254000D01*
X71220500Y-117443250D01*
X71379250Y-117602000D01*
X72216000Y-117602000D01*
X72216000Y-116777750D01*
X72057250Y-116619000D01*
X71855500Y-116615928D01*
X71731018Y-116628188D01*
X71611320Y-116664498D01*
X71501006Y-116723463D01*
X71404315Y-116802815D01*
X71324963Y-116899506D01*
X71265998Y-117009820D01*
X71229688Y-117129518D01*
X71217428Y-117254000D01*
X65176000Y-117254000D01*
X65176000Y-114032748D01*
X66262250Y-114030000D01*
X66421000Y-113871250D01*
X66421000Y-112522000D01*
X66675000Y-112522000D01*
X66675000Y-113871250D01*
X66833750Y-114030000D01*
X68048000Y-114033072D01*
X68172482Y-114020812D01*
X68292180Y-113984502D01*
X68402494Y-113925537D01*
X68499185Y-113846185D01*
X68578537Y-113749494D01*
X68637502Y-113639180D01*
X68673812Y-113519482D01*
X68686072Y-113395000D01*
X68683000Y-112680750D01*
X68524250Y-112522000D01*
X66675000Y-112522000D01*
X66421000Y-112522000D01*
X66401000Y-112522000D01*
X66401000Y-112268000D01*
X66421000Y-112268000D01*
X66421000Y-112248000D01*
X66675000Y-112248000D01*
X66675000Y-112268000D01*
X68524250Y-112268000D01*
X68683000Y-112109250D01*
X68686072Y-111395000D01*
X68673812Y-111270518D01*
X68637502Y-111150820D01*
X68578537Y-111040506D01*
X68499185Y-110943815D01*
X68402494Y-110864463D01*
X68292180Y-110805498D01*
X68242305Y-110790369D01*
X68352738Y-110699738D01*
X68494272Y-110527279D01*
X68599441Y-110330521D01*
X68664204Y-110117027D01*
X68686072Y-109895000D01*
X68686072Y-108895000D01*
X68664204Y-108672973D01*
X68599441Y-108459479D01*
X68494272Y-108262721D01*
X68352738Y-108090262D01*
X68288448Y-108037500D01*
X68352738Y-107984738D01*
X68494272Y-107812279D01*
X68599441Y-107615521D01*
X68664204Y-107402027D01*
X68675435Y-107288000D01*
X69813895Y-107288000D01*
X69850000Y-107291556D01*
X69886105Y-107288000D01*
X69994085Y-107277365D01*
X70132633Y-107235337D01*
X70260320Y-107167087D01*
X70372238Y-107075238D01*
X70395259Y-107047188D01*
X72163928Y-105278519D01*
X72163928Y-106541000D01*
X72176188Y-106665482D01*
X72212498Y-106785180D01*
X72271463Y-106895494D01*
X72350815Y-106992185D01*
X72447506Y-107071537D01*
X72557820Y-107130502D01*
X72677518Y-107166812D01*
X72679000Y-107166958D01*
X72679000Y-107202792D01*
X72640713Y-107234213D01*
X72542085Y-107354393D01*
X72468797Y-107491504D01*
X72423667Y-107640279D01*
X72408428Y-107795000D01*
X72408428Y-107918817D01*
X72351913Y-107987681D01*
X72291640Y-108100444D01*
X72283663Y-108115368D01*
X72241634Y-108253916D01*
X72227443Y-108398001D01*
X72231000Y-108434116D01*
X72230999Y-110196628D01*
X72201498Y-110251820D01*
X72165188Y-110371518D01*
X72152928Y-110496000D01*
X72152928Y-110746000D01*
X72165188Y-110870482D01*
X72165345Y-110871000D01*
X72165188Y-110871518D01*
X72152928Y-110996000D01*
X72152928Y-111246000D01*
X72165188Y-111370482D01*
X72201498Y-111490180D01*
X72260463Y-111600494D01*
X72339815Y-111697185D01*
X72393547Y-111741281D01*
X72238226Y-111845063D01*
X72094063Y-111989226D01*
X71980795Y-112158744D01*
X71902774Y-112347102D01*
X71863000Y-112547061D01*
X71863000Y-112750939D01*
X71902774Y-112950898D01*
X71980795Y-113139256D01*
X72094063Y-113308774D01*
X72238226Y-113452937D01*
X72407744Y-113566205D01*
X72596102Y-113644226D01*
X72796061Y-113684000D01*
X72999939Y-113684000D01*
X73199898Y-113644226D01*
X73388256Y-113566205D01*
X73401746Y-113557192D01*
X73622741Y-113778187D01*
X73645762Y-113806238D01*
X73757680Y-113898087D01*
X73821524Y-113932212D01*
X73885366Y-113966337D01*
X74023915Y-114008365D01*
X74168000Y-114022556D01*
X74204105Y-114019000D01*
X76925895Y-114019000D01*
X76962000Y-114022556D01*
X76998105Y-114019000D01*
X77106085Y-114008365D01*
X77244633Y-113966337D01*
X77372320Y-113898087D01*
X77484238Y-113806238D01*
X77507258Y-113778188D01*
X78345197Y-112940250D01*
X78373237Y-112917238D01*
X78396250Y-112889197D01*
X78396253Y-112889194D01*
X78424311Y-112855005D01*
X78465087Y-112805320D01*
X78533337Y-112677633D01*
X78545966Y-112636000D01*
X78574942Y-112620512D01*
X78707623Y-112511623D01*
X78816512Y-112378942D01*
X78897423Y-112227567D01*
X78947248Y-112063316D01*
X78964072Y-111892500D01*
X78964072Y-111600000D01*
X81758428Y-111600000D01*
X81770688Y-111724482D01*
X81806998Y-111844180D01*
X81865963Y-111954494D01*
X81945315Y-112051185D01*
X82042006Y-112130537D01*
X82152320Y-112189502D01*
X82272018Y-112225812D01*
X82396500Y-112238072D01*
X82598250Y-112235000D01*
X82757000Y-112076250D01*
X82757000Y-111252000D01*
X81920250Y-111252000D01*
X81761500Y-111410750D01*
X81758428Y-111600000D01*
X78964072Y-111600000D01*
X78964072Y-111531374D01*
X79615197Y-110880250D01*
X79643237Y-110857238D01*
X79666250Y-110829197D01*
X79666253Y-110829194D01*
X79726343Y-110755974D01*
X79735087Y-110745320D01*
X79803337Y-110617633D01*
X79845365Y-110479085D01*
X79856000Y-110371105D01*
X79856000Y-110371096D01*
X79859555Y-110335001D01*
X79856000Y-110298906D01*
X79856000Y-107986096D01*
X79859555Y-107949999D01*
X79856000Y-107913902D01*
X79856000Y-107913895D01*
X79845365Y-107805915D01*
X79803337Y-107667367D01*
X79735087Y-107539680D01*
X79643238Y-107427762D01*
X79616072Y-107405467D01*
X79616072Y-106237000D01*
X80268928Y-106237000D01*
X80268928Y-108137000D01*
X80281188Y-108261482D01*
X80317498Y-108381180D01*
X80376463Y-108491494D01*
X80455815Y-108588185D01*
X80552506Y-108667537D01*
X80662820Y-108726502D01*
X80782518Y-108762812D01*
X80907000Y-108775072D01*
X81192626Y-108775072D01*
X81767928Y-109350375D01*
X81767928Y-109711500D01*
X81784752Y-109882316D01*
X81834577Y-110046567D01*
X81915488Y-110197942D01*
X81930760Y-110216551D01*
X81865963Y-110295506D01*
X81806998Y-110405820D01*
X81770688Y-110525518D01*
X81758428Y-110650000D01*
X81761500Y-110839250D01*
X81920250Y-110998000D01*
X82757000Y-110998000D01*
X82757000Y-110978000D01*
X83011000Y-110978000D01*
X83011000Y-110998000D01*
X83031000Y-110998000D01*
X83031000Y-111252000D01*
X83011000Y-111252000D01*
X83011000Y-112076250D01*
X83169750Y-112235000D01*
X83371500Y-112238072D01*
X83495982Y-112225812D01*
X83615680Y-112189502D01*
X83725994Y-112130537D01*
X83822685Y-112051185D01*
X83863717Y-112001188D01*
X83972558Y-112090512D01*
X84123933Y-112171423D01*
X84288184Y-112221248D01*
X84459000Y-112238072D01*
X84959000Y-112238072D01*
X85129816Y-112221248D01*
X85294067Y-112171423D01*
X85445442Y-112090512D01*
X85578123Y-111981623D01*
X85687012Y-111848942D01*
X85767923Y-111697567D01*
X85817748Y-111533316D01*
X85834572Y-111362500D01*
X85834572Y-111244000D01*
X89216928Y-111244000D01*
X89229188Y-111368482D01*
X89265498Y-111488180D01*
X89324463Y-111598494D01*
X89403815Y-111695185D01*
X89500506Y-111774537D01*
X89610820Y-111833502D01*
X89730518Y-111869812D01*
X89855000Y-111882072D01*
X90519250Y-111879000D01*
X90678000Y-111720250D01*
X90678000Y-110871000D01*
X89378750Y-110871000D01*
X89220000Y-111029750D01*
X89216928Y-111244000D01*
X85834572Y-111244000D01*
X85834572Y-110887500D01*
X85817748Y-110716684D01*
X85767923Y-110552433D01*
X85687012Y-110401058D01*
X85608415Y-110305288D01*
X85658712Y-110244000D01*
X89216928Y-110244000D01*
X89220000Y-110458250D01*
X89378750Y-110617000D01*
X90678000Y-110617000D01*
X90678000Y-109767750D01*
X90519250Y-109609000D01*
X89855000Y-109605928D01*
X89730518Y-109618188D01*
X89610820Y-109654498D01*
X89500506Y-109713463D01*
X89403815Y-109792815D01*
X89324463Y-109889506D01*
X89265498Y-109999820D01*
X89229188Y-110119518D01*
X89216928Y-110244000D01*
X85658712Y-110244000D01*
X85696512Y-110197942D01*
X85777423Y-110046567D01*
X85827248Y-109882316D01*
X85844072Y-109711500D01*
X85844072Y-109236500D01*
X85827248Y-109065684D01*
X85777423Y-108901433D01*
X85696512Y-108750058D01*
X85587623Y-108617377D01*
X85454942Y-108508488D01*
X85303567Y-108427577D01*
X85139316Y-108377752D01*
X84968500Y-108360928D01*
X84393500Y-108360928D01*
X84222684Y-108377752D01*
X84058433Y-108427577D01*
X83907058Y-108508488D01*
X83806000Y-108591425D01*
X83704942Y-108508488D01*
X83553567Y-108427577D01*
X83389316Y-108377752D01*
X83218500Y-108360928D01*
X82857375Y-108360928D01*
X82545072Y-108048626D01*
X82545072Y-106237000D01*
X82532812Y-106112518D01*
X82496502Y-105992820D01*
X82437537Y-105882506D01*
X82358185Y-105785815D01*
X82261494Y-105706463D01*
X82151180Y-105647498D01*
X82031482Y-105611188D01*
X81907000Y-105598928D01*
X80907000Y-105598928D01*
X80782518Y-105611188D01*
X80662820Y-105647498D01*
X80552506Y-105706463D01*
X80455815Y-105785815D01*
X80376463Y-105882506D01*
X80317498Y-105992820D01*
X80281188Y-106112518D01*
X80268928Y-106237000D01*
X79616072Y-106237000D01*
X79616072Y-105807000D01*
X79594204Y-105584973D01*
X79529441Y-105371479D01*
X79424272Y-105174721D01*
X79282738Y-105002262D01*
X79110279Y-104860728D01*
X78913521Y-104755559D01*
X78700027Y-104690796D01*
X78478000Y-104668928D01*
X78142874Y-104668928D01*
X78164802Y-104647000D01*
X82808928Y-104647000D01*
X82808928Y-104837000D01*
X82821188Y-104961482D01*
X82857498Y-105081180D01*
X82916463Y-105191494D01*
X82995815Y-105288185D01*
X83092506Y-105367537D01*
X83202820Y-105426502D01*
X83322518Y-105462812D01*
X83447000Y-105475072D01*
X83701271Y-105475072D01*
X84817000Y-106590802D01*
X84817000Y-106654939D01*
X84856774Y-106854898D01*
X84934795Y-107043256D01*
X85048063Y-107212774D01*
X85192226Y-107356937D01*
X85361744Y-107470205D01*
X85550102Y-107548226D01*
X85750061Y-107588000D01*
X85812801Y-107588000D01*
X85918004Y-107693076D01*
X85916928Y-107704000D01*
X85916928Y-108704000D01*
X85929188Y-108828482D01*
X85965498Y-108948180D01*
X86024463Y-109058494D01*
X86103815Y-109155185D01*
X86200506Y-109234537D01*
X86310820Y-109293502D01*
X86430518Y-109329812D01*
X86555000Y-109342072D01*
X88455000Y-109342072D01*
X88579482Y-109329812D01*
X88699180Y-109293502D01*
X88809494Y-109234537D01*
X88906185Y-109155185D01*
X88985537Y-109058494D01*
X89044502Y-108948180D01*
X89080812Y-108828482D01*
X89093072Y-108704000D01*
X89093072Y-107704000D01*
X89080812Y-107579518D01*
X89044502Y-107459820D01*
X88985537Y-107349506D01*
X88906185Y-107252815D01*
X88809494Y-107173463D01*
X88699180Y-107114498D01*
X88579482Y-107078188D01*
X88455000Y-107065928D01*
X87441002Y-107065928D01*
X86887000Y-106512596D01*
X86887000Y-106451061D01*
X86847226Y-106251102D01*
X86769205Y-106062744D01*
X86655937Y-105893226D01*
X86511774Y-105749063D01*
X86342256Y-105635795D01*
X86153898Y-105557774D01*
X85953939Y-105518000D01*
X85893802Y-105518000D01*
X85085072Y-104709271D01*
X85085072Y-102937000D01*
X85072812Y-102812518D01*
X85036502Y-102692820D01*
X85008803Y-102641000D01*
X92177001Y-102641000D01*
X92177001Y-109768864D01*
%TA.AperFunction,Conductor*%
D23*
G36*
X92177001Y-109768864D02*
G01*
X92109494Y-109713463D01*
X91999180Y-109654498D01*
X91879482Y-109618188D01*
X91755000Y-109605928D01*
X91090750Y-109609000D01*
X90932000Y-109767750D01*
X90932000Y-110617000D01*
X90952000Y-110617000D01*
X90952000Y-110871000D01*
X90932000Y-110871000D01*
X90932000Y-111720250D01*
X91090750Y-111879000D01*
X91755000Y-111882072D01*
X91879482Y-111869812D01*
X91999180Y-111833502D01*
X92109494Y-111774537D01*
X92177001Y-111719136D01*
X92177000Y-124435000D01*
X86058567Y-124435000D01*
X86084812Y-124348482D01*
X86097072Y-124224000D01*
X86097072Y-123524000D01*
X86084812Y-123399518D01*
X86048502Y-123279820D01*
X85989537Y-123169506D01*
X85910185Y-123072815D01*
X85850704Y-123024000D01*
X85910185Y-122975185D01*
X85989537Y-122878494D01*
X86048502Y-122768180D01*
X86084812Y-122648482D01*
X86097072Y-122524000D01*
X86097072Y-121824000D01*
X86084812Y-121699518D01*
X86048502Y-121579820D01*
X85989537Y-121469506D01*
X85910185Y-121372815D01*
X85813494Y-121293463D01*
X85703180Y-121234498D01*
X85583482Y-121198188D01*
X85459000Y-121185928D01*
X83959000Y-121185928D01*
X83834518Y-121198188D01*
X83714820Y-121234498D01*
X83604506Y-121293463D01*
X83507815Y-121372815D01*
X83474015Y-121414000D01*
X83095322Y-121414000D01*
X83057999Y-121410324D01*
X83020676Y-121414000D01*
X83020667Y-121414000D01*
X82909014Y-121424997D01*
X82765753Y-121468454D01*
X82633724Y-121539026D01*
X82517999Y-121633999D01*
X82494200Y-121662998D01*
X82480770Y-121676428D01*
X82395000Y-121676428D01*
X82240279Y-121691667D01*
X82237932Y-121692379D01*
X83008476Y-120921836D01*
X83011479Y-120923441D01*
X83224973Y-120988204D01*
X83447000Y-121010072D01*
X84447000Y-121010072D01*
X84669027Y-120988204D01*
X84882521Y-120923441D01*
X85079279Y-120818272D01*
X85251738Y-120676738D01*
X85393272Y-120504279D01*
X85498441Y-120307521D01*
X85563204Y-120094027D01*
X85585072Y-119872000D01*
X85585072Y-117872000D01*
X85563204Y-117649973D01*
X85498441Y-117436479D01*
X85393272Y-117239721D01*
X85251738Y-117067262D01*
X85079279Y-116925728D01*
X84882521Y-116820559D01*
X84669027Y-116755796D01*
X84447000Y-116733928D01*
X83447000Y-116733928D01*
X83224973Y-116755796D01*
X83011479Y-116820559D01*
X82814721Y-116925728D01*
X82774797Y-116958493D01*
X82704123Y-116872377D01*
X82571442Y-116763488D01*
X82420067Y-116682577D01*
X82255816Y-116632752D01*
X82085000Y-116615928D01*
X81585000Y-116615928D01*
X81414184Y-116632752D01*
X81249933Y-116682577D01*
X81098558Y-116763488D01*
X80965877Y-116872377D01*
X80922500Y-116925232D01*
X80879123Y-116872377D01*
X80746442Y-116763488D01*
X80595067Y-116682577D01*
X80430816Y-116632752D01*
X80260000Y-116615928D01*
X79760000Y-116615928D01*
X79589184Y-116632752D01*
X79424933Y-116682577D01*
X79273558Y-116763488D01*
X79140877Y-116872377D01*
X79061580Y-116969000D01*
X78973420Y-116969000D01*
X78894123Y-116872377D01*
X78761442Y-116763488D01*
X78610067Y-116682577D01*
X78445816Y-116632752D01*
X78275000Y-116615928D01*
X77775000Y-116615928D01*
X77604184Y-116632752D01*
X77439933Y-116682577D01*
X77288558Y-116763488D01*
X77155877Y-116872377D01*
X77112500Y-116925232D01*
X77069123Y-116872377D01*
X76936442Y-116763488D01*
X76785067Y-116682577D01*
X76620816Y-116632752D01*
X76450000Y-116615928D01*
X75950000Y-116615928D01*
X75779184Y-116632752D01*
X75614933Y-116682577D01*
X75463558Y-116763488D01*
X75330877Y-116872377D01*
X75251580Y-116969000D01*
X75116420Y-116969000D01*
X75037123Y-116872377D01*
X74904442Y-116763488D01*
X74753067Y-116682577D01*
X74588816Y-116632752D01*
X74418000Y-116615928D01*
X73918000Y-116615928D01*
X73747184Y-116632752D01*
X73582933Y-116682577D01*
X73431558Y-116763488D01*
X73322717Y-116852812D01*
X73281685Y-116802815D01*
X73184994Y-116723463D01*
X73074680Y-116664498D01*
X72954982Y-116628188D01*
X72830500Y-116615928D01*
X72628750Y-116619000D01*
X72470000Y-116777750D01*
X72470000Y-117602000D01*
X72490000Y-117602000D01*
X72490000Y-117856000D01*
X72470000Y-117856000D01*
X72470000Y-118680250D01*
X72534750Y-118745000D01*
X72470000Y-118809750D01*
X72470000Y-119634000D01*
X72490000Y-119634000D01*
X72490000Y-119888000D01*
X72470000Y-119888000D01*
X72470000Y-120712250D01*
X72595750Y-120838000D01*
X72564000Y-120869750D01*
X72564000Y-121544000D01*
X73523250Y-121544000D01*
X73682000Y-121385250D01*
X73685072Y-121346000D01*
X73672812Y-121221518D01*
X73636502Y-121101820D01*
X73577537Y-120991506D01*
X73498185Y-120894815D01*
X73401494Y-120815463D01*
X73291180Y-120756498D01*
X73222582Y-120735689D01*
X73281685Y-120687185D01*
X73322717Y-120637188D01*
X73431558Y-120726512D01*
X73582933Y-120807423D01*
X73747184Y-120857248D01*
X73918000Y-120874072D01*
X74021090Y-120874072D01*
X73995815Y-120894815D01*
X73916463Y-120991506D01*
X73857498Y-121101820D01*
X73821188Y-121221518D01*
X73808928Y-121346000D01*
X73808928Y-121996000D01*
X73813492Y-122042345D01*
X73744868Y-121986026D01*
X73672702Y-121947452D01*
X73523250Y-121798000D01*
X73441141Y-121798000D01*
X73401494Y-121765463D01*
X73291180Y-121706498D01*
X73171482Y-121670188D01*
X73047000Y-121657928D01*
X72290000Y-121657928D01*
X72290000Y-121544000D01*
X72310000Y-121544000D01*
X72310000Y-120869750D01*
X72184250Y-120744000D01*
X72216000Y-120712250D01*
X72216000Y-119888000D01*
X71379250Y-119888000D01*
X71220500Y-120046750D01*
X71217428Y-120236000D01*
X71229688Y-120360482D01*
X71265998Y-120480180D01*
X71324963Y-120590494D01*
X71404315Y-120687185D01*
X71501006Y-120766537D01*
X71532522Y-120783383D01*
X71472506Y-120815463D01*
X71375815Y-120894815D01*
X71296463Y-120991506D01*
X71237498Y-121101820D01*
X71201188Y-121221518D01*
X71188928Y-121346000D01*
X71192000Y-121385250D01*
X71350748Y-121543998D01*
X71192000Y-121543998D01*
X71192000Y-121668000D01*
X71127046Y-121668000D01*
X71076537Y-121573506D01*
X70997185Y-121476815D01*
X70900494Y-121397463D01*
X70790180Y-121338498D01*
X70670482Y-121302188D01*
X70546000Y-121289928D01*
X68646000Y-121289928D01*
X68521518Y-121302188D01*
X68401820Y-121338498D01*
X68291506Y-121397463D01*
X68194815Y-121476815D01*
X68115463Y-121573506D01*
X68056498Y-121683820D01*
X68053713Y-121693000D01*
X67657711Y-121693000D01*
X67588774Y-121624063D01*
X67419256Y-121510795D01*
X67230898Y-121432774D01*
X67030939Y-121393000D01*
X66827061Y-121393000D01*
X66627102Y-121432774D01*
X66438744Y-121510795D01*
X66269226Y-121624063D01*
X66125063Y-121768226D01*
X66011795Y-121937744D01*
X65933774Y-122126102D01*
X65894000Y-122326061D01*
X65894000Y-122529939D01*
X65933774Y-122729898D01*
X66011795Y-122918256D01*
X66125063Y-123087774D01*
X66269226Y-123231937D01*
X66438744Y-123345205D01*
X66627102Y-123423226D01*
X66827061Y-123463000D01*
X67030939Y-123463000D01*
X67230898Y-123423226D01*
X67419256Y-123345205D01*
X67588774Y-123231937D01*
X67657711Y-123163000D01*
X68053713Y-123163000D01*
X68056498Y-123172180D01*
X68115463Y-123282494D01*
X68194815Y-123379185D01*
X68291506Y-123458537D01*
X68401820Y-123517502D01*
X68521518Y-123553812D01*
X68646000Y-123566072D01*
X70339000Y-123566072D01*
X70339000Y-123672939D01*
X70378774Y-123872898D01*
X70456795Y-124061256D01*
X70570063Y-124230774D01*
X70714226Y-124374937D01*
X70804117Y-124435000D01*
X65176000Y-124435000D01*
X65176000Y-121000004D01*
X65221518Y-121013812D01*
X65346000Y-121026072D01*
X66010250Y-121023000D01*
X66169000Y-120864250D01*
X66169000Y-120015000D01*
X66423000Y-120015000D01*
X66423000Y-120864250D01*
X66581750Y-121023000D01*
X67246000Y-121026072D01*
X67370482Y-121013812D01*
X67490180Y-120977502D01*
X67600494Y-120918537D01*
X67697185Y-120839185D01*
X67776537Y-120742494D01*
X67835502Y-120632180D01*
X67871812Y-120512482D01*
X67884072Y-120388000D01*
X67881000Y-120173750D01*
X67722250Y-120015000D01*
X66423000Y-120015000D01*
X66169000Y-120015000D01*
X66149000Y-120015000D01*
X66149000Y-119761000D01*
X66169000Y-119761000D01*
X66169000Y-118911750D01*
X66423000Y-118911750D01*
X66423000Y-119761000D01*
X67722250Y-119761000D01*
X67881000Y-119602250D01*
X67884072Y-119388000D01*
X67871812Y-119263518D01*
X67835502Y-119143820D01*
X67776537Y-119033506D01*
X67697185Y-118936815D01*
X67600494Y-118857463D01*
X67490180Y-118798498D01*
X67370482Y-118762188D01*
X67246000Y-118749928D01*
X66581750Y-118753000D01*
X66423000Y-118911750D01*
X66169000Y-118911750D01*
X66010250Y-118753000D01*
X65346000Y-118749928D01*
X65221518Y-118762188D01*
X65176000Y-118775996D01*
X65176000Y-118204000D01*
X71217428Y-118204000D01*
X71229688Y-118328482D01*
X71265998Y-118448180D01*
X71324963Y-118558494D01*
X71404315Y-118655185D01*
X71501006Y-118734537D01*
X71520581Y-118745000D01*
X71501006Y-118755463D01*
X71404315Y-118834815D01*
X71324963Y-118931506D01*
X71265998Y-119041820D01*
X71229688Y-119161518D01*
X71217428Y-119286000D01*
X71220500Y-119475250D01*
X71379250Y-119634000D01*
X72216000Y-119634000D01*
X72216000Y-118809750D01*
X72151250Y-118745000D01*
X72216000Y-118680250D01*
X72216000Y-117856000D01*
X71379250Y-117856000D01*
X71220500Y-118014750D01*
X71217428Y-118204000D01*
X65176000Y-118204000D01*
X65176000Y-117254000D01*
X71217428Y-117254000D01*
X71220500Y-117443250D01*
X71379250Y-117602000D01*
X72216000Y-117602000D01*
X72216000Y-116777750D01*
X72057250Y-116619000D01*
X71855500Y-116615928D01*
X71731018Y-116628188D01*
X71611320Y-116664498D01*
X71501006Y-116723463D01*
X71404315Y-116802815D01*
X71324963Y-116899506D01*
X71265998Y-117009820D01*
X71229688Y-117129518D01*
X71217428Y-117254000D01*
X65176000Y-117254000D01*
X65176000Y-114032748D01*
X66262250Y-114030000D01*
X66421000Y-113871250D01*
X66421000Y-112522000D01*
X66675000Y-112522000D01*
X66675000Y-113871250D01*
X66833750Y-114030000D01*
X68048000Y-114033072D01*
X68172482Y-114020812D01*
X68292180Y-113984502D01*
X68402494Y-113925537D01*
X68499185Y-113846185D01*
X68578537Y-113749494D01*
X68637502Y-113639180D01*
X68673812Y-113519482D01*
X68686072Y-113395000D01*
X68683000Y-112680750D01*
X68524250Y-112522000D01*
X66675000Y-112522000D01*
X66421000Y-112522000D01*
X66401000Y-112522000D01*
X66401000Y-112268000D01*
X66421000Y-112268000D01*
X66421000Y-112248000D01*
X66675000Y-112248000D01*
X66675000Y-112268000D01*
X68524250Y-112268000D01*
X68683000Y-112109250D01*
X68686072Y-111395000D01*
X68673812Y-111270518D01*
X68637502Y-111150820D01*
X68578537Y-111040506D01*
X68499185Y-110943815D01*
X68402494Y-110864463D01*
X68292180Y-110805498D01*
X68242305Y-110790369D01*
X68352738Y-110699738D01*
X68494272Y-110527279D01*
X68599441Y-110330521D01*
X68664204Y-110117027D01*
X68686072Y-109895000D01*
X68686072Y-108895000D01*
X68664204Y-108672973D01*
X68599441Y-108459479D01*
X68494272Y-108262721D01*
X68352738Y-108090262D01*
X68288448Y-108037500D01*
X68352738Y-107984738D01*
X68494272Y-107812279D01*
X68599441Y-107615521D01*
X68664204Y-107402027D01*
X68675435Y-107288000D01*
X69813895Y-107288000D01*
X69850000Y-107291556D01*
X69886105Y-107288000D01*
X69994085Y-107277365D01*
X70132633Y-107235337D01*
X70260320Y-107167087D01*
X70372238Y-107075238D01*
X70395259Y-107047188D01*
X72163928Y-105278519D01*
X72163928Y-106541000D01*
X72176188Y-106665482D01*
X72212498Y-106785180D01*
X72271463Y-106895494D01*
X72350815Y-106992185D01*
X72447506Y-107071537D01*
X72557820Y-107130502D01*
X72677518Y-107166812D01*
X72679000Y-107166958D01*
X72679000Y-107202792D01*
X72640713Y-107234213D01*
X72542085Y-107354393D01*
X72468797Y-107491504D01*
X72423667Y-107640279D01*
X72408428Y-107795000D01*
X72408428Y-107918817D01*
X72351913Y-107987681D01*
X72291640Y-108100444D01*
X72283663Y-108115368D01*
X72241634Y-108253916D01*
X72227443Y-108398001D01*
X72231000Y-108434116D01*
X72230999Y-110196628D01*
X72201498Y-110251820D01*
X72165188Y-110371518D01*
X72152928Y-110496000D01*
X72152928Y-110746000D01*
X72165188Y-110870482D01*
X72165345Y-110871000D01*
X72165188Y-110871518D01*
X72152928Y-110996000D01*
X72152928Y-111246000D01*
X72165188Y-111370482D01*
X72201498Y-111490180D01*
X72260463Y-111600494D01*
X72339815Y-111697185D01*
X72393547Y-111741281D01*
X72238226Y-111845063D01*
X72094063Y-111989226D01*
X71980795Y-112158744D01*
X71902774Y-112347102D01*
X71863000Y-112547061D01*
X71863000Y-112750939D01*
X71902774Y-112950898D01*
X71980795Y-113139256D01*
X72094063Y-113308774D01*
X72238226Y-113452937D01*
X72407744Y-113566205D01*
X72596102Y-113644226D01*
X72796061Y-113684000D01*
X72999939Y-113684000D01*
X73199898Y-113644226D01*
X73388256Y-113566205D01*
X73401746Y-113557192D01*
X73622741Y-113778187D01*
X73645762Y-113806238D01*
X73757680Y-113898087D01*
X73821524Y-113932212D01*
X73885366Y-113966337D01*
X74023915Y-114008365D01*
X74168000Y-114022556D01*
X74204105Y-114019000D01*
X76925895Y-114019000D01*
X76962000Y-114022556D01*
X76998105Y-114019000D01*
X77106085Y-114008365D01*
X77244633Y-113966337D01*
X77372320Y-113898087D01*
X77484238Y-113806238D01*
X77507258Y-113778188D01*
X78345197Y-112940250D01*
X78373237Y-112917238D01*
X78396250Y-112889197D01*
X78396253Y-112889194D01*
X78424311Y-112855005D01*
X78465087Y-112805320D01*
X78533337Y-112677633D01*
X78545966Y-112636000D01*
X78574942Y-112620512D01*
X78707623Y-112511623D01*
X78816512Y-112378942D01*
X78897423Y-112227567D01*
X78947248Y-112063316D01*
X78964072Y-111892500D01*
X78964072Y-111600000D01*
X81758428Y-111600000D01*
X81770688Y-111724482D01*
X81806998Y-111844180D01*
X81865963Y-111954494D01*
X81945315Y-112051185D01*
X82042006Y-112130537D01*
X82152320Y-112189502D01*
X82272018Y-112225812D01*
X82396500Y-112238072D01*
X82598250Y-112235000D01*
X82757000Y-112076250D01*
X82757000Y-111252000D01*
X81920250Y-111252000D01*
X81761500Y-111410750D01*
X81758428Y-111600000D01*
X78964072Y-111600000D01*
X78964072Y-111531374D01*
X79615197Y-110880250D01*
X79643237Y-110857238D01*
X79666250Y-110829197D01*
X79666253Y-110829194D01*
X79726343Y-110755974D01*
X79735087Y-110745320D01*
X79803337Y-110617633D01*
X79845365Y-110479085D01*
X79856000Y-110371105D01*
X79856000Y-110371096D01*
X79859555Y-110335001D01*
X79856000Y-110298906D01*
X79856000Y-107986096D01*
X79859555Y-107949999D01*
X79856000Y-107913902D01*
X79856000Y-107913895D01*
X79845365Y-107805915D01*
X79803337Y-107667367D01*
X79735087Y-107539680D01*
X79643238Y-107427762D01*
X79616072Y-107405467D01*
X79616072Y-106237000D01*
X80268928Y-106237000D01*
X80268928Y-108137000D01*
X80281188Y-108261482D01*
X80317498Y-108381180D01*
X80376463Y-108491494D01*
X80455815Y-108588185D01*
X80552506Y-108667537D01*
X80662820Y-108726502D01*
X80782518Y-108762812D01*
X80907000Y-108775072D01*
X81192626Y-108775072D01*
X81767928Y-109350375D01*
X81767928Y-109711500D01*
X81784752Y-109882316D01*
X81834577Y-110046567D01*
X81915488Y-110197942D01*
X81930760Y-110216551D01*
X81865963Y-110295506D01*
X81806998Y-110405820D01*
X81770688Y-110525518D01*
X81758428Y-110650000D01*
X81761500Y-110839250D01*
X81920250Y-110998000D01*
X82757000Y-110998000D01*
X82757000Y-110978000D01*
X83011000Y-110978000D01*
X83011000Y-110998000D01*
X83031000Y-110998000D01*
X83031000Y-111252000D01*
X83011000Y-111252000D01*
X83011000Y-112076250D01*
X83169750Y-112235000D01*
X83371500Y-112238072D01*
X83495982Y-112225812D01*
X83615680Y-112189502D01*
X83725994Y-112130537D01*
X83822685Y-112051185D01*
X83863717Y-112001188D01*
X83972558Y-112090512D01*
X84123933Y-112171423D01*
X84288184Y-112221248D01*
X84459000Y-112238072D01*
X84959000Y-112238072D01*
X85129816Y-112221248D01*
X85294067Y-112171423D01*
X85445442Y-112090512D01*
X85578123Y-111981623D01*
X85687012Y-111848942D01*
X85767923Y-111697567D01*
X85817748Y-111533316D01*
X85834572Y-111362500D01*
X85834572Y-111244000D01*
X89216928Y-111244000D01*
X89229188Y-111368482D01*
X89265498Y-111488180D01*
X89324463Y-111598494D01*
X89403815Y-111695185D01*
X89500506Y-111774537D01*
X89610820Y-111833502D01*
X89730518Y-111869812D01*
X89855000Y-111882072D01*
X90519250Y-111879000D01*
X90678000Y-111720250D01*
X90678000Y-110871000D01*
X89378750Y-110871000D01*
X89220000Y-111029750D01*
X89216928Y-111244000D01*
X85834572Y-111244000D01*
X85834572Y-110887500D01*
X85817748Y-110716684D01*
X85767923Y-110552433D01*
X85687012Y-110401058D01*
X85608415Y-110305288D01*
X85658712Y-110244000D01*
X89216928Y-110244000D01*
X89220000Y-110458250D01*
X89378750Y-110617000D01*
X90678000Y-110617000D01*
X90678000Y-109767750D01*
X90519250Y-109609000D01*
X89855000Y-109605928D01*
X89730518Y-109618188D01*
X89610820Y-109654498D01*
X89500506Y-109713463D01*
X89403815Y-109792815D01*
X89324463Y-109889506D01*
X89265498Y-109999820D01*
X89229188Y-110119518D01*
X89216928Y-110244000D01*
X85658712Y-110244000D01*
X85696512Y-110197942D01*
X85777423Y-110046567D01*
X85827248Y-109882316D01*
X85844072Y-109711500D01*
X85844072Y-109236500D01*
X85827248Y-109065684D01*
X85777423Y-108901433D01*
X85696512Y-108750058D01*
X85587623Y-108617377D01*
X85454942Y-108508488D01*
X85303567Y-108427577D01*
X85139316Y-108377752D01*
X84968500Y-108360928D01*
X84393500Y-108360928D01*
X84222684Y-108377752D01*
X84058433Y-108427577D01*
X83907058Y-108508488D01*
X83806000Y-108591425D01*
X83704942Y-108508488D01*
X83553567Y-108427577D01*
X83389316Y-108377752D01*
X83218500Y-108360928D01*
X82857375Y-108360928D01*
X82545072Y-108048626D01*
X82545072Y-106237000D01*
X82532812Y-106112518D01*
X82496502Y-105992820D01*
X82437537Y-105882506D01*
X82358185Y-105785815D01*
X82261494Y-105706463D01*
X82151180Y-105647498D01*
X82031482Y-105611188D01*
X81907000Y-105598928D01*
X80907000Y-105598928D01*
X80782518Y-105611188D01*
X80662820Y-105647498D01*
X80552506Y-105706463D01*
X80455815Y-105785815D01*
X80376463Y-105882506D01*
X80317498Y-105992820D01*
X80281188Y-106112518D01*
X80268928Y-106237000D01*
X79616072Y-106237000D01*
X79616072Y-105807000D01*
X79594204Y-105584973D01*
X79529441Y-105371479D01*
X79424272Y-105174721D01*
X79282738Y-105002262D01*
X79110279Y-104860728D01*
X78913521Y-104755559D01*
X78700027Y-104690796D01*
X78478000Y-104668928D01*
X78142874Y-104668928D01*
X78164802Y-104647000D01*
X82808928Y-104647000D01*
X82808928Y-104837000D01*
X82821188Y-104961482D01*
X82857498Y-105081180D01*
X82916463Y-105191494D01*
X82995815Y-105288185D01*
X83092506Y-105367537D01*
X83202820Y-105426502D01*
X83322518Y-105462812D01*
X83447000Y-105475072D01*
X83701271Y-105475072D01*
X84817000Y-106590802D01*
X84817000Y-106654939D01*
X84856774Y-106854898D01*
X84934795Y-107043256D01*
X85048063Y-107212774D01*
X85192226Y-107356937D01*
X85361744Y-107470205D01*
X85550102Y-107548226D01*
X85750061Y-107588000D01*
X85812801Y-107588000D01*
X85918004Y-107693076D01*
X85916928Y-107704000D01*
X85916928Y-108704000D01*
X85929188Y-108828482D01*
X85965498Y-108948180D01*
X86024463Y-109058494D01*
X86103815Y-109155185D01*
X86200506Y-109234537D01*
X86310820Y-109293502D01*
X86430518Y-109329812D01*
X86555000Y-109342072D01*
X88455000Y-109342072D01*
X88579482Y-109329812D01*
X88699180Y-109293502D01*
X88809494Y-109234537D01*
X88906185Y-109155185D01*
X88985537Y-109058494D01*
X89044502Y-108948180D01*
X89080812Y-108828482D01*
X89093072Y-108704000D01*
X89093072Y-107704000D01*
X89080812Y-107579518D01*
X89044502Y-107459820D01*
X88985537Y-107349506D01*
X88906185Y-107252815D01*
X88809494Y-107173463D01*
X88699180Y-107114498D01*
X88579482Y-107078188D01*
X88455000Y-107065928D01*
X87441002Y-107065928D01*
X86887000Y-106512596D01*
X86887000Y-106451061D01*
X86847226Y-106251102D01*
X86769205Y-106062744D01*
X86655937Y-105893226D01*
X86511774Y-105749063D01*
X86342256Y-105635795D01*
X86153898Y-105557774D01*
X85953939Y-105518000D01*
X85893802Y-105518000D01*
X85085072Y-104709271D01*
X85085072Y-102937000D01*
X85072812Y-102812518D01*
X85036502Y-102692820D01*
X85008803Y-102641000D01*
X92177001Y-102641000D01*
X92177001Y-109768864D01*
G37*
%TD.AperFunction*%
D22*
X77459506Y-122662537D02*
X77495918Y-122682000D01*
X77459506Y-122701463D01*
X77362815Y-122780815D01*
X77283463Y-122877506D01*
X77224498Y-122987820D01*
X77188188Y-123107518D01*
X77175928Y-123232000D01*
X77179000Y-123346250D01*
X77337748Y-123504998D01*
X77179000Y-123504998D01*
X77179000Y-123597001D01*
X77017803Y-123597001D01*
X76480803Y-123060002D01*
X76457001Y-123030999D01*
X76341276Y-122936026D01*
X76302677Y-122915394D01*
X76302000Y-122906750D01*
X76143252Y-122748002D01*
X76302000Y-122748002D01*
X76302000Y-122745105D01*
X76406102Y-122788226D01*
X76606061Y-122828000D01*
X76809939Y-122828000D01*
X77009898Y-122788226D01*
X77198256Y-122710205D01*
X77367774Y-122596937D01*
X77373092Y-122591619D01*
X77459506Y-122662537D01*
%TA.AperFunction,Conductor*%
D23*
G36*
X77459506Y-122662537D02*
G01*
X77495918Y-122682000D01*
X77459506Y-122701463D01*
X77362815Y-122780815D01*
X77283463Y-122877506D01*
X77224498Y-122987820D01*
X77188188Y-123107518D01*
X77175928Y-123232000D01*
X77179000Y-123346250D01*
X77337748Y-123504998D01*
X77179000Y-123504998D01*
X77179000Y-123597001D01*
X77017803Y-123597001D01*
X76480803Y-123060002D01*
X76457001Y-123030999D01*
X76341276Y-122936026D01*
X76302677Y-122915394D01*
X76302000Y-122906750D01*
X76143252Y-122748002D01*
X76302000Y-122748002D01*
X76302000Y-122745105D01*
X76406102Y-122788226D01*
X76606061Y-122828000D01*
X76809939Y-122828000D01*
X77009898Y-122788226D01*
X77198256Y-122710205D01*
X77367774Y-122596937D01*
X77373092Y-122591619D01*
X77459506Y-122662537D01*
G37*
%TD.AperFunction*%
D22*
X74676000Y-107823000D02*
X74696000Y-107823000D01*
X74696000Y-108077000D01*
X74676000Y-108077000D01*
X74676000Y-108097000D01*
X74422000Y-108097000D01*
X74422000Y-108077000D01*
X74419572Y-108077000D01*
X74419572Y-107823000D01*
X74422000Y-107823000D01*
X74422000Y-107803000D01*
X74676000Y-107803000D01*
X74676000Y-107823000D01*
%TA.AperFunction,Conductor*%
D23*
G36*
X74676000Y-107823000D02*
G01*
X74696000Y-107823000D01*
X74696000Y-108077000D01*
X74676000Y-108077000D01*
X74676000Y-108097000D01*
X74422000Y-108097000D01*
X74422000Y-108077000D01*
X74419572Y-108077000D01*
X74419572Y-107823000D01*
X74422000Y-107823000D01*
X74422000Y-107803000D01*
X74676000Y-107803000D01*
X74676000Y-107823000D01*
G37*
%TD.AperFunction*%
D22*
X74957001Y-105938000D02*
X74725000Y-105938000D01*
X74725000Y-105918000D01*
X74705000Y-105918000D01*
X74705000Y-105664000D01*
X74725000Y-105664000D01*
X74725000Y-105644000D01*
X74957001Y-105644000D01*
X74957001Y-105938000D01*
%TA.AperFunction,Conductor*%
D23*
G36*
X74957001Y-105938000D02*
G01*
X74725000Y-105938000D01*
X74725000Y-105918000D01*
X74705000Y-105918000D01*
X74705000Y-105664000D01*
X74725000Y-105664000D01*
X74725000Y-105644000D01*
X74957001Y-105644000D01*
X74957001Y-105938000D01*
G37*
%TD.AperFunction*%
D22*
X82857498Y-102692820D02*
X82821188Y-102812518D01*
X82808928Y-102937000D01*
X82808928Y-103127000D01*
X77887322Y-103127000D01*
X77849999Y-103123324D01*
X77812676Y-103127000D01*
X77812667Y-103127000D01*
X77701014Y-103137997D01*
X77557753Y-103181454D01*
X77425724Y-103252026D01*
X77309999Y-103346999D01*
X77286201Y-103375997D01*
X76111324Y-104550875D01*
X74952260Y-103391812D01*
X74929240Y-103363762D01*
X74817322Y-103271913D01*
X74689635Y-103203663D01*
X74551087Y-103161635D01*
X74443107Y-103151000D01*
X74407002Y-103147444D01*
X74370897Y-103151000D01*
X72553105Y-103151000D01*
X72517000Y-103147444D01*
X72372915Y-103161635D01*
X72234366Y-103203663D01*
X72143886Y-103252026D01*
X72106680Y-103271913D01*
X71994762Y-103363762D01*
X71971746Y-103391807D01*
X69545554Y-105818000D01*
X68621743Y-105818000D01*
X68599441Y-105744479D01*
X68494272Y-105547721D01*
X68352738Y-105375262D01*
X68180279Y-105233728D01*
X67983521Y-105128559D01*
X67770027Y-105063796D01*
X67548000Y-105041928D01*
X65548000Y-105041928D01*
X65325973Y-105063796D01*
X65176000Y-105109290D01*
X65176000Y-102641000D01*
X82885197Y-102641000D01*
X82857498Y-102692820D01*
%TA.AperFunction,Conductor*%
D23*
G36*
X82857498Y-102692820D02*
G01*
X82821188Y-102812518D01*
X82808928Y-102937000D01*
X82808928Y-103127000D01*
X77887322Y-103127000D01*
X77849999Y-103123324D01*
X77812676Y-103127000D01*
X77812667Y-103127000D01*
X77701014Y-103137997D01*
X77557753Y-103181454D01*
X77425724Y-103252026D01*
X77309999Y-103346999D01*
X77286201Y-103375997D01*
X76111324Y-104550875D01*
X74952260Y-103391812D01*
X74929240Y-103363762D01*
X74817322Y-103271913D01*
X74689635Y-103203663D01*
X74551087Y-103161635D01*
X74443107Y-103151000D01*
X74407002Y-103147444D01*
X74370897Y-103151000D01*
X72553105Y-103151000D01*
X72517000Y-103147444D01*
X72372915Y-103161635D01*
X72234366Y-103203663D01*
X72143886Y-103252026D01*
X72106680Y-103271913D01*
X71994762Y-103363762D01*
X71971746Y-103391807D01*
X69545554Y-105818000D01*
X68621743Y-105818000D01*
X68599441Y-105744479D01*
X68494272Y-105547721D01*
X68352738Y-105375262D01*
X68180279Y-105233728D01*
X67983521Y-105128559D01*
X67770027Y-105063796D01*
X67548000Y-105041928D01*
X65548000Y-105041928D01*
X65325973Y-105063796D01*
X65176000Y-105109290D01*
X65176000Y-102641000D01*
X82885197Y-102641000D01*
X82857498Y-102692820D01*
G37*
%TD.AperFunction*%
%TD*%
M02*
