G04 #@! TF.GenerationSoftware,KiCad,Pcbnew,5.1.0*
G04 #@! TF.CreationDate,2019-04-19T18:29:55+02:00*
G04 #@! TF.ProjectId,Watch,57617463-682e-46b6-9963-61645f706362,rev?*
G04 #@! TF.SameCoordinates,Original*
G04 #@! TF.FileFunction,Legend,Top*
G04 #@! TF.FilePolarity,Positive*
%FSLAX46Y46*%
G04 Gerber Fmt 4.6, Leading zero omitted, Abs format (unit mm)*
G04 Created by KiCad (PCBNEW 5.1.0) date 2019-04-19 18:29:55*
%MOMM*%
%LPD*%
G04 APERTURE LIST*
%ADD10C,0.100000*%
%ADD11C,0.150000*%
%ADD12C,0.120000*%
%ADD13C,0.254000*%
G04 APERTURE END LIST*
D10*
X138700000Y-110025000D02*
X138700000Y-110025000D01*
X138600000Y-110025000D02*
X138600000Y-110025000D01*
X138600000Y-110025000D02*
G75*
G02X138700000Y-110025000I50000J0D01*
G01*
X138700000Y-110025000D02*
G75*
G02X138600000Y-110025000I-50000J0D01*
G01*
D11*
X148276307Y-96500000D02*
G75*
G03X148276307Y-96500000I-10776307J0D01*
G01*
D12*
X145400000Y-109350000D02*
X145400000Y-108650000D01*
X146600000Y-108650000D02*
X146600000Y-109350000D01*
X143650000Y-108300000D02*
X143650000Y-107600000D01*
X144850000Y-107600000D02*
X144850000Y-108300000D01*
X131900000Y-109350000D02*
X131900000Y-108650000D01*
X133100000Y-108650000D02*
X133100000Y-109350000D01*
X128400000Y-109350000D02*
X128400000Y-108650000D01*
X129600000Y-108650000D02*
X129600000Y-109350000D01*
X151850000Y-105850000D02*
X151850000Y-104925000D01*
X148150000Y-105850000D02*
X148150000Y-101150000D01*
X149725000Y-101050000D02*
X150275000Y-101050000D01*
X149725000Y-105950000D02*
X150275000Y-105950000D01*
X151850000Y-102075000D02*
X151850000Y-101150000D01*
X123150000Y-101150000D02*
X123150000Y-102075000D01*
X126850000Y-101150000D02*
X126850000Y-105850000D01*
X125275000Y-105950000D02*
X124725000Y-105950000D01*
X125275000Y-101050000D02*
X124725000Y-101050000D01*
X123150000Y-104925000D02*
X123150000Y-105850000D01*
D13*
X139010238Y-106824523D02*
X139010238Y-105554523D01*
X140340714Y-106703571D02*
X140280238Y-106764047D01*
X140098809Y-106824523D01*
X139977857Y-106824523D01*
X139796428Y-106764047D01*
X139675476Y-106643095D01*
X139615000Y-106522142D01*
X139554523Y-106280238D01*
X139554523Y-106098809D01*
X139615000Y-105856904D01*
X139675476Y-105735952D01*
X139796428Y-105615000D01*
X139977857Y-105554523D01*
X140098809Y-105554523D01*
X140280238Y-105615000D01*
X140340714Y-105675476D01*
X141550238Y-106824523D02*
X140824523Y-106824523D01*
X141187380Y-106824523D02*
X141187380Y-105554523D01*
X141066428Y-105735952D01*
X140945476Y-105856904D01*
X140824523Y-105917380D01*
D11*
X136964285Y-108178571D02*
X137107142Y-108226190D01*
X137154761Y-108273809D01*
X137202380Y-108369047D01*
X137202380Y-108511904D01*
X137154761Y-108607142D01*
X137107142Y-108654761D01*
X137011904Y-108702380D01*
X136630952Y-108702380D01*
X136630952Y-107702380D01*
X136964285Y-107702380D01*
X137059523Y-107750000D01*
X137107142Y-107797619D01*
X137154761Y-107892857D01*
X137154761Y-107988095D01*
X137107142Y-108083333D01*
X137059523Y-108130952D01*
X136964285Y-108178571D01*
X136630952Y-108178571D01*
X137488095Y-107702380D02*
X138059523Y-107702380D01*
X137773809Y-108702380D02*
X137773809Y-107702380D01*
X138916666Y-108702380D02*
X138345238Y-108702380D01*
X138630952Y-108702380D02*
X138630952Y-107702380D01*
X138535714Y-107845238D01*
X138440476Y-107940476D01*
X138345238Y-107988095D01*
X145107142Y-109166666D02*
X145154761Y-109214285D01*
X145202380Y-109357142D01*
X145202380Y-109452380D01*
X145154761Y-109595238D01*
X145059523Y-109690476D01*
X144964285Y-109738095D01*
X144773809Y-109785714D01*
X144630952Y-109785714D01*
X144440476Y-109738095D01*
X144345238Y-109690476D01*
X144250000Y-109595238D01*
X144202380Y-109452380D01*
X144202380Y-109357142D01*
X144250000Y-109214285D01*
X144297619Y-109166666D01*
X145202380Y-108214285D02*
X145202380Y-108785714D01*
X145202380Y-108500000D02*
X144202380Y-108500000D01*
X144345238Y-108595238D01*
X144440476Y-108690476D01*
X144488095Y-108785714D01*
X143357142Y-108116666D02*
X143404761Y-108164285D01*
X143452380Y-108307142D01*
X143452380Y-108402380D01*
X143404761Y-108545238D01*
X143309523Y-108640476D01*
X143214285Y-108688095D01*
X143023809Y-108735714D01*
X142880952Y-108735714D01*
X142690476Y-108688095D01*
X142595238Y-108640476D01*
X142500000Y-108545238D01*
X142452380Y-108402380D01*
X142452380Y-108307142D01*
X142500000Y-108164285D01*
X142547619Y-108116666D01*
X142547619Y-107735714D02*
X142500000Y-107688095D01*
X142452380Y-107592857D01*
X142452380Y-107354761D01*
X142500000Y-107259523D01*
X142547619Y-107211904D01*
X142642857Y-107164285D01*
X142738095Y-107164285D01*
X142880952Y-107211904D01*
X143452380Y-107783333D01*
X143452380Y-107164285D01*
X131607142Y-109166666D02*
X131654761Y-109214285D01*
X131702380Y-109357142D01*
X131702380Y-109452380D01*
X131654761Y-109595238D01*
X131559523Y-109690476D01*
X131464285Y-109738095D01*
X131273809Y-109785714D01*
X131130952Y-109785714D01*
X130940476Y-109738095D01*
X130845238Y-109690476D01*
X130750000Y-109595238D01*
X130702380Y-109452380D01*
X130702380Y-109357142D01*
X130750000Y-109214285D01*
X130797619Y-109166666D01*
X130702380Y-108833333D02*
X130702380Y-108214285D01*
X131083333Y-108547619D01*
X131083333Y-108404761D01*
X131130952Y-108309523D01*
X131178571Y-108261904D01*
X131273809Y-108214285D01*
X131511904Y-108214285D01*
X131607142Y-108261904D01*
X131654761Y-108309523D01*
X131702380Y-108404761D01*
X131702380Y-108690476D01*
X131654761Y-108785714D01*
X131607142Y-108833333D01*
X128107142Y-109166666D02*
X128154761Y-109214285D01*
X128202380Y-109357142D01*
X128202380Y-109452380D01*
X128154761Y-109595238D01*
X128059523Y-109690476D01*
X127964285Y-109738095D01*
X127773809Y-109785714D01*
X127630952Y-109785714D01*
X127440476Y-109738095D01*
X127345238Y-109690476D01*
X127250000Y-109595238D01*
X127202380Y-109452380D01*
X127202380Y-109357142D01*
X127250000Y-109214285D01*
X127297619Y-109166666D01*
X127535714Y-108309523D02*
X128202380Y-108309523D01*
X127154761Y-108547619D02*
X127869047Y-108785714D01*
X127869047Y-108166666D01*
X139416666Y-112702380D02*
X139416666Y-113416666D01*
X139369047Y-113559523D01*
X139273809Y-113654761D01*
X139130952Y-113702380D01*
X139035714Y-113702380D01*
X140416666Y-113702380D02*
X139845238Y-113702380D01*
X140130952Y-113702380D02*
X140130952Y-112702380D01*
X140035714Y-112845238D01*
X139940476Y-112940476D01*
X139845238Y-112988095D01*
X136666666Y-112702380D02*
X136666666Y-113416666D01*
X136619047Y-113559523D01*
X136523809Y-113654761D01*
X136380952Y-113702380D01*
X136285714Y-113702380D01*
X137095238Y-112797619D02*
X137142857Y-112750000D01*
X137238095Y-112702380D01*
X137476190Y-112702380D01*
X137571428Y-112750000D01*
X137619047Y-112797619D01*
X137666666Y-112892857D01*
X137666666Y-112988095D01*
X137619047Y-113130952D01*
X137047619Y-113702380D01*
X137666666Y-113702380D01*
X131666666Y-112702380D02*
X131666666Y-113416666D01*
X131619047Y-113559523D01*
X131523809Y-113654761D01*
X131380952Y-113702380D01*
X131285714Y-113702380D01*
X132047619Y-112702380D02*
X132666666Y-112702380D01*
X132333333Y-113083333D01*
X132476190Y-113083333D01*
X132571428Y-113130952D01*
X132619047Y-113178571D01*
X132666666Y-113273809D01*
X132666666Y-113511904D01*
X132619047Y-113607142D01*
X132571428Y-113654761D01*
X132476190Y-113702380D01*
X132190476Y-113702380D01*
X132095238Y-113654761D01*
X132047619Y-113607142D01*
X145916666Y-111202380D02*
X145916666Y-111916666D01*
X145869047Y-112059523D01*
X145773809Y-112154761D01*
X145630952Y-112202380D01*
X145535714Y-112202380D01*
X146821428Y-111535714D02*
X146821428Y-112202380D01*
X146583333Y-111154761D02*
X146345238Y-111869047D01*
X146964285Y-111869047D01*
X141916666Y-112702380D02*
X141916666Y-113416666D01*
X141869047Y-113559523D01*
X141773809Y-113654761D01*
X141630952Y-113702380D01*
X141535714Y-113702380D01*
X142869047Y-112702380D02*
X142392857Y-112702380D01*
X142345238Y-113178571D01*
X142392857Y-113130952D01*
X142488095Y-113083333D01*
X142726190Y-113083333D01*
X142821428Y-113130952D01*
X142869047Y-113178571D01*
X142916666Y-113273809D01*
X142916666Y-113511904D01*
X142869047Y-113607142D01*
X142821428Y-113654761D01*
X142726190Y-113702380D01*
X142488095Y-113702380D01*
X142392857Y-113654761D01*
X142345238Y-113607142D01*
X134166666Y-112702380D02*
X134166666Y-113416666D01*
X134119047Y-113559523D01*
X134023809Y-113654761D01*
X133880952Y-113702380D01*
X133785714Y-113702380D01*
X135071428Y-112702380D02*
X134880952Y-112702380D01*
X134785714Y-112750000D01*
X134738095Y-112797619D01*
X134642857Y-112940476D01*
X134595238Y-113130952D01*
X134595238Y-113511904D01*
X134642857Y-113607142D01*
X134690476Y-113654761D01*
X134785714Y-113702380D01*
X134976190Y-113702380D01*
X135071428Y-113654761D01*
X135119047Y-113607142D01*
X135166666Y-113511904D01*
X135166666Y-113273809D01*
X135119047Y-113178571D01*
X135071428Y-113130952D01*
X134976190Y-113083333D01*
X134785714Y-113083333D01*
X134690476Y-113130952D01*
X134642857Y-113178571D01*
X134595238Y-113273809D01*
X147404761Y-105083333D02*
X147452380Y-104940476D01*
X147452380Y-104702380D01*
X147404761Y-104607142D01*
X147357142Y-104559523D01*
X147261904Y-104511904D01*
X147166666Y-104511904D01*
X147071428Y-104559523D01*
X147023809Y-104607142D01*
X146976190Y-104702380D01*
X146928571Y-104892857D01*
X146880952Y-104988095D01*
X146833333Y-105035714D01*
X146738095Y-105083333D01*
X146642857Y-105083333D01*
X146547619Y-105035714D01*
X146500000Y-104988095D01*
X146452380Y-104892857D01*
X146452380Y-104654761D01*
X146500000Y-104511904D01*
X146452380Y-104178571D02*
X147452380Y-103940476D01*
X146738095Y-103750000D01*
X147452380Y-103559523D01*
X146452380Y-103321428D01*
X147452380Y-102416666D02*
X147452380Y-102988095D01*
X147452380Y-102702380D02*
X146452380Y-102702380D01*
X146595238Y-102797619D01*
X146690476Y-102892857D01*
X146738095Y-102988095D01*
X128654761Y-105583333D02*
X128702380Y-105440476D01*
X128702380Y-105202380D01*
X128654761Y-105107142D01*
X128607142Y-105059523D01*
X128511904Y-105011904D01*
X128416666Y-105011904D01*
X128321428Y-105059523D01*
X128273809Y-105107142D01*
X128226190Y-105202380D01*
X128178571Y-105392857D01*
X128130952Y-105488095D01*
X128083333Y-105535714D01*
X127988095Y-105583333D01*
X127892857Y-105583333D01*
X127797619Y-105535714D01*
X127750000Y-105488095D01*
X127702380Y-105392857D01*
X127702380Y-105154761D01*
X127750000Y-105011904D01*
X127702380Y-104678571D02*
X128702380Y-104440476D01*
X127988095Y-104250000D01*
X128702380Y-104059523D01*
X127702380Y-103821428D01*
X127797619Y-103488095D02*
X127750000Y-103440476D01*
X127702380Y-103345238D01*
X127702380Y-103107142D01*
X127750000Y-103011904D01*
X127797619Y-102964285D01*
X127892857Y-102916666D01*
X127988095Y-102916666D01*
X128130952Y-102964285D01*
X128702380Y-103535714D01*
X128702380Y-102916666D01*
M02*
