G04 #@! TF.FileFunction,Copper,L1,Top,Signal*
%FSLAX46Y46*%
G04 Gerber Fmt 4.6, Leading zero omitted, Abs format (unit mm)*
G04 Created by KiCad (PCBNEW 4.0.7) date 12/01/18 13:58:11*
%MOMM*%
%LPD*%
G01*
G04 APERTURE LIST*
%ADD10C,0.100000*%
%ADD11R,2.500000X5.500000*%
%ADD12R,10.000000X10.000000*%
%ADD13R,0.750000X1.200000*%
%ADD14C,1.000000*%
%ADD15R,1.000000X1.550000*%
%ADD16C,0.600000*%
%ADD17C,0.250000*%
%ADD18C,0.254000*%
G04 APERTURE END LIST*
D10*
D11*
X149500000Y-96500000D03*
X125500000Y-96500000D03*
D12*
X137500000Y-96500000D03*
D13*
X146000000Y-109950000D03*
X146000000Y-108050000D03*
X142500000Y-109950000D03*
X142500000Y-108050000D03*
X132500000Y-109950000D03*
X132500000Y-108050000D03*
X129000000Y-109950000D03*
X129000000Y-108050000D03*
D14*
X139700000Y-111760000D03*
X137160000Y-111760000D03*
X132080000Y-111760000D03*
X144780000Y-111760000D03*
X142240000Y-111760000D03*
X134620000Y-111760000D03*
D15*
X149150000Y-106125000D03*
X149150000Y-100875000D03*
X150850000Y-100875000D03*
X150850000Y-106125000D03*
X125850000Y-100875000D03*
X125850000Y-106125000D03*
X124150000Y-106125000D03*
X124150000Y-100875000D03*
D16*
X138750000Y-115000000D03*
X127000000Y-107750000D03*
X137750000Y-107050008D03*
X134500000Y-104750000D03*
X137250000Y-115000000D03*
X146500000Y-101750000D03*
X147000000Y-95000000D03*
X128000000Y-102000000D03*
X130500000Y-91750000D03*
X130500000Y-95250000D03*
X143750000Y-112750000D03*
X141750000Y-113750000D03*
X133250000Y-111000000D03*
X143500000Y-111750000D03*
X151000000Y-103500000D03*
X124150000Y-103500000D03*
D17*
X144780000Y-112970000D02*
X144780000Y-111760000D01*
X144250000Y-113500000D02*
X144780000Y-112970000D01*
X143000000Y-113500000D02*
X144250000Y-113500000D01*
X141500000Y-115000000D02*
X143000000Y-113500000D01*
X141250000Y-115000000D02*
X141500000Y-115000000D01*
X138750000Y-115000000D02*
X141250000Y-115000000D01*
X127000000Y-107750000D02*
X125500000Y-107750000D01*
X137750000Y-107050008D02*
X137750000Y-109950000D01*
X137750000Y-109950000D02*
X137750000Y-110000000D01*
X137750000Y-110000000D02*
X137750000Y-109950000D01*
X144780000Y-111760000D02*
X144780000Y-111170000D01*
X144780000Y-111170000D02*
X146000000Y-109950000D01*
X137250000Y-109950000D02*
X137250000Y-110000000D01*
X137250000Y-110000000D02*
X137250000Y-109950000D01*
X129000000Y-109950000D02*
X127700000Y-109950000D01*
X125000000Y-107250000D02*
X125000000Y-97000000D01*
X127700000Y-109950000D02*
X125500000Y-107750000D01*
X125500000Y-107750000D02*
X125000000Y-107250000D01*
X125000000Y-97000000D02*
X125500000Y-96500000D01*
X146000000Y-109950000D02*
X147550000Y-109950000D01*
X150000000Y-107500000D02*
X150000000Y-97000000D01*
X147550000Y-109950000D02*
X150000000Y-107500000D01*
X150000000Y-97000000D02*
X149500000Y-96500000D01*
X142500000Y-109950000D02*
X146000000Y-109950000D01*
X132500000Y-109950000D02*
X137250000Y-109950000D01*
X137250000Y-109950000D02*
X137750000Y-109950000D01*
X137750000Y-109950000D02*
X142500000Y-109950000D01*
X129000000Y-109950000D02*
X132500000Y-109950000D01*
X149500000Y-96500000D02*
X149500000Y-99250000D01*
X134620000Y-112370000D02*
X134620000Y-111760000D01*
X137250000Y-115000000D02*
X134620000Y-112370000D01*
X147000000Y-95000000D02*
X147000000Y-101250000D01*
X147000000Y-101250000D02*
X146500000Y-101750000D01*
X130500000Y-95250000D02*
X130500000Y-96250000D01*
X128000000Y-98750000D02*
X128000000Y-102000000D01*
X130500000Y-96250000D02*
X128000000Y-98750000D01*
X130500000Y-91750000D02*
X130500000Y-95250000D01*
X139700000Y-112450000D02*
X139700000Y-111760000D01*
X140000000Y-112750000D02*
X139700000Y-112450000D01*
X143750000Y-112750000D02*
X140000000Y-112750000D01*
X137160000Y-112410000D02*
X137160000Y-111760000D01*
X138500000Y-113750000D02*
X137160000Y-112410000D01*
X141750000Y-113750000D02*
X138500000Y-113750000D01*
X133250000Y-111000000D02*
X132490000Y-111760000D01*
X132490000Y-111760000D02*
X132080000Y-111760000D01*
X143490000Y-111760000D02*
X142240000Y-111760000D01*
X143500000Y-111750000D02*
X143490000Y-111760000D01*
X150850000Y-103500000D02*
X151000000Y-103500000D01*
X150850000Y-106125000D02*
X150850000Y-103500000D01*
X150850000Y-103500000D02*
X150850000Y-100875000D01*
X124150000Y-100875000D02*
X124150000Y-103500000D01*
X124150000Y-103500000D02*
X124150000Y-106125000D01*
D18*
G36*
X127162599Y-110487401D02*
X127409161Y-110652148D01*
X127700000Y-110710000D01*
X128007666Y-110710000D01*
X128021838Y-110785317D01*
X128160910Y-111001441D01*
X128373110Y-111146431D01*
X128625000Y-111197440D01*
X129375000Y-111197440D01*
X129610317Y-111153162D01*
X129826441Y-111014090D01*
X129971431Y-110801890D01*
X129990039Y-110710000D01*
X131507666Y-110710000D01*
X131517864Y-110764198D01*
X131437914Y-110797233D01*
X131118355Y-111116235D01*
X130945197Y-111533244D01*
X130944803Y-111984775D01*
X131117233Y-112402086D01*
X131436235Y-112721645D01*
X131853244Y-112894803D01*
X132304775Y-112895197D01*
X132722086Y-112722767D01*
X132895050Y-112550104D01*
X134009501Y-112550104D01*
X134046648Y-112765217D01*
X134474972Y-112908112D01*
X134925375Y-112876217D01*
X135193352Y-112765217D01*
X135230499Y-112550104D01*
X134620000Y-111939605D01*
X134009501Y-112550104D01*
X132895050Y-112550104D01*
X133041645Y-112403765D01*
X133127288Y-112197514D01*
X133389680Y-111935122D01*
X133435167Y-111935162D01*
X133492874Y-111911318D01*
X133503783Y-112065375D01*
X133614783Y-112333352D01*
X133829896Y-112370499D01*
X134440395Y-111760000D01*
X134799605Y-111760000D01*
X135410104Y-112370499D01*
X135625217Y-112333352D01*
X135768112Y-111905028D01*
X135736217Y-111454625D01*
X135625217Y-111186648D01*
X135410104Y-111149501D01*
X134799605Y-111760000D01*
X134440395Y-111760000D01*
X134426253Y-111745858D01*
X134605858Y-111566253D01*
X134620000Y-111580395D01*
X135230499Y-110969896D01*
X135193352Y-110754783D01*
X135059116Y-110710000D01*
X136729033Y-110710000D01*
X136517914Y-110797233D01*
X136198355Y-111116235D01*
X136025197Y-111533244D01*
X136024803Y-111984775D01*
X136197233Y-112402086D01*
X136448492Y-112653784D01*
X136457852Y-112700839D01*
X136622599Y-112947401D01*
X137962599Y-114287401D01*
X138069107Y-114358568D01*
X137957808Y-114469673D01*
X137815162Y-114813201D01*
X137814838Y-115185167D01*
X137956883Y-115528943D01*
X138121121Y-115693467D01*
X137500000Y-115817016D01*
X131829773Y-114689138D01*
X127022788Y-111477212D01*
X124748100Y-108072902D01*
X127162599Y-110487401D01*
X127162599Y-110487401D01*
G37*
X127162599Y-110487401D02*
X127409161Y-110652148D01*
X127700000Y-110710000D01*
X128007666Y-110710000D01*
X128021838Y-110785317D01*
X128160910Y-111001441D01*
X128373110Y-111146431D01*
X128625000Y-111197440D01*
X129375000Y-111197440D01*
X129610317Y-111153162D01*
X129826441Y-111014090D01*
X129971431Y-110801890D01*
X129990039Y-110710000D01*
X131507666Y-110710000D01*
X131517864Y-110764198D01*
X131437914Y-110797233D01*
X131118355Y-111116235D01*
X130945197Y-111533244D01*
X130944803Y-111984775D01*
X131117233Y-112402086D01*
X131436235Y-112721645D01*
X131853244Y-112894803D01*
X132304775Y-112895197D01*
X132722086Y-112722767D01*
X132895050Y-112550104D01*
X134009501Y-112550104D01*
X134046648Y-112765217D01*
X134474972Y-112908112D01*
X134925375Y-112876217D01*
X135193352Y-112765217D01*
X135230499Y-112550104D01*
X134620000Y-111939605D01*
X134009501Y-112550104D01*
X132895050Y-112550104D01*
X133041645Y-112403765D01*
X133127288Y-112197514D01*
X133389680Y-111935122D01*
X133435167Y-111935162D01*
X133492874Y-111911318D01*
X133503783Y-112065375D01*
X133614783Y-112333352D01*
X133829896Y-112370499D01*
X134440395Y-111760000D01*
X134799605Y-111760000D01*
X135410104Y-112370499D01*
X135625217Y-112333352D01*
X135768112Y-111905028D01*
X135736217Y-111454625D01*
X135625217Y-111186648D01*
X135410104Y-111149501D01*
X134799605Y-111760000D01*
X134440395Y-111760000D01*
X134426253Y-111745858D01*
X134605858Y-111566253D01*
X134620000Y-111580395D01*
X135230499Y-110969896D01*
X135193352Y-110754783D01*
X135059116Y-110710000D01*
X136729033Y-110710000D01*
X136517914Y-110797233D01*
X136198355Y-111116235D01*
X136025197Y-111533244D01*
X136024803Y-111984775D01*
X136197233Y-112402086D01*
X136448492Y-112653784D01*
X136457852Y-112700839D01*
X136622599Y-112947401D01*
X137962599Y-114287401D01*
X138069107Y-114358568D01*
X137957808Y-114469673D01*
X137815162Y-114813201D01*
X137814838Y-115185167D01*
X137956883Y-115528943D01*
X138121121Y-115693467D01*
X137500000Y-115817016D01*
X131829773Y-114689138D01*
X127022788Y-111477212D01*
X124748100Y-108072902D01*
X127162599Y-110487401D01*
G36*
X143170227Y-87310862D02*
X147977212Y-90522788D01*
X149700961Y-93102560D01*
X148250000Y-93102560D01*
X148014683Y-93146838D01*
X147798559Y-93285910D01*
X147653569Y-93498110D01*
X147602560Y-93750000D01*
X147602560Y-94280167D01*
X147530327Y-94207808D01*
X147186799Y-94065162D01*
X146814833Y-94064838D01*
X146471057Y-94206883D01*
X146207808Y-94469673D01*
X146065162Y-94813201D01*
X146064838Y-95185167D01*
X146206883Y-95528943D01*
X146240000Y-95562118D01*
X146240000Y-100845758D01*
X145971057Y-100956883D01*
X145707808Y-101219673D01*
X145565162Y-101563201D01*
X145564838Y-101935167D01*
X145706883Y-102278943D01*
X145969673Y-102542192D01*
X146313201Y-102684838D01*
X146685167Y-102685162D01*
X147028943Y-102543117D01*
X147292192Y-102280327D01*
X147434838Y-101936799D01*
X147434879Y-101889923D01*
X147537401Y-101787401D01*
X147702148Y-101540839D01*
X147760000Y-101250000D01*
X147760000Y-101160750D01*
X148015000Y-101160750D01*
X148015000Y-101776309D01*
X148111673Y-102009698D01*
X148290301Y-102188327D01*
X148523690Y-102285000D01*
X148864250Y-102285000D01*
X149023000Y-102126250D01*
X149023000Y-101002000D01*
X148173750Y-101002000D01*
X148015000Y-101160750D01*
X147760000Y-101160750D01*
X147760000Y-99661176D01*
X147785910Y-99701441D01*
X147998110Y-99846431D01*
X148062326Y-99859435D01*
X148015000Y-99973691D01*
X148015000Y-100589250D01*
X148173750Y-100748000D01*
X149023000Y-100748000D01*
X149023000Y-100728000D01*
X149240000Y-100728000D01*
X149240000Y-106272000D01*
X149023000Y-106272000D01*
X149023000Y-106252000D01*
X148173750Y-106252000D01*
X148015000Y-106410750D01*
X148015000Y-107026309D01*
X148111673Y-107259698D01*
X148290301Y-107438327D01*
X148523690Y-107535000D01*
X148864250Y-107535000D01*
X149022998Y-107376252D01*
X149022998Y-107402200D01*
X147235198Y-109190000D01*
X146992334Y-109190000D01*
X146978162Y-109114683D01*
X146911671Y-109011354D01*
X146913327Y-109009698D01*
X147010000Y-108776309D01*
X147010000Y-108335750D01*
X146851250Y-108177000D01*
X146127000Y-108177000D01*
X146127000Y-108197000D01*
X145873000Y-108197000D01*
X145873000Y-108177000D01*
X145148750Y-108177000D01*
X144990000Y-108335750D01*
X144990000Y-108776309D01*
X145086673Y-109009698D01*
X145088043Y-109011068D01*
X145028569Y-109098110D01*
X145009961Y-109190000D01*
X143492334Y-109190000D01*
X143478162Y-109114683D01*
X143411671Y-109011354D01*
X143413327Y-109009698D01*
X143510000Y-108776309D01*
X143510000Y-108335750D01*
X143351250Y-108177000D01*
X142627000Y-108177000D01*
X142627000Y-108197000D01*
X142373000Y-108197000D01*
X142373000Y-108177000D01*
X141648750Y-108177000D01*
X141490000Y-108335750D01*
X141490000Y-108776309D01*
X141586673Y-109009698D01*
X141588043Y-109011068D01*
X141528569Y-109098110D01*
X141509961Y-109190000D01*
X138510000Y-109190000D01*
X138510000Y-107612471D01*
X138542192Y-107580335D01*
X138648760Y-107323691D01*
X141490000Y-107323691D01*
X141490000Y-107764250D01*
X141648750Y-107923000D01*
X142373000Y-107923000D01*
X142373000Y-106973750D01*
X142627000Y-106973750D01*
X142627000Y-107923000D01*
X143351250Y-107923000D01*
X143510000Y-107764250D01*
X143510000Y-107323691D01*
X144990000Y-107323691D01*
X144990000Y-107764250D01*
X145148750Y-107923000D01*
X145873000Y-107923000D01*
X145873000Y-106973750D01*
X146127000Y-106973750D01*
X146127000Y-107923000D01*
X146851250Y-107923000D01*
X147010000Y-107764250D01*
X147010000Y-107323691D01*
X146913327Y-107090302D01*
X146734699Y-106911673D01*
X146501310Y-106815000D01*
X146285750Y-106815000D01*
X146127000Y-106973750D01*
X145873000Y-106973750D01*
X145714250Y-106815000D01*
X145498690Y-106815000D01*
X145265301Y-106911673D01*
X145086673Y-107090302D01*
X144990000Y-107323691D01*
X143510000Y-107323691D01*
X143413327Y-107090302D01*
X143234699Y-106911673D01*
X143001310Y-106815000D01*
X142785750Y-106815000D01*
X142627000Y-106973750D01*
X142373000Y-106973750D01*
X142214250Y-106815000D01*
X141998690Y-106815000D01*
X141765301Y-106911673D01*
X141586673Y-107090302D01*
X141490000Y-107323691D01*
X138648760Y-107323691D01*
X138684838Y-107236807D01*
X138685162Y-106864841D01*
X138543117Y-106521065D01*
X138280327Y-106257816D01*
X137936799Y-106115170D01*
X137564833Y-106114846D01*
X137221057Y-106256891D01*
X136957808Y-106519681D01*
X136815162Y-106863209D01*
X136814838Y-107235175D01*
X136956883Y-107578951D01*
X136990000Y-107612126D01*
X136990000Y-109190000D01*
X133492334Y-109190000D01*
X133478162Y-109114683D01*
X133411671Y-109011354D01*
X133413327Y-109009698D01*
X133510000Y-108776309D01*
X133510000Y-108335750D01*
X133351250Y-108177000D01*
X132627000Y-108177000D01*
X132627000Y-108197000D01*
X132373000Y-108197000D01*
X132373000Y-108177000D01*
X131648750Y-108177000D01*
X131490000Y-108335750D01*
X131490000Y-108776309D01*
X131586673Y-109009698D01*
X131588043Y-109011068D01*
X131528569Y-109098110D01*
X131509961Y-109190000D01*
X129992334Y-109190000D01*
X129978162Y-109114683D01*
X129911671Y-109011354D01*
X129913327Y-109009698D01*
X130010000Y-108776309D01*
X130010000Y-108335750D01*
X129851250Y-108177000D01*
X129127000Y-108177000D01*
X129127000Y-108197000D01*
X128873000Y-108197000D01*
X128873000Y-108177000D01*
X128148750Y-108177000D01*
X127990000Y-108335750D01*
X127990000Y-108776309D01*
X128086673Y-109009698D01*
X128088043Y-109011068D01*
X128028569Y-109098110D01*
X128010776Y-109185974D01*
X127414999Y-108590197D01*
X127528943Y-108543117D01*
X127792192Y-108280327D01*
X127934838Y-107936799D01*
X127935162Y-107564833D01*
X127835525Y-107323691D01*
X127990000Y-107323691D01*
X127990000Y-107764250D01*
X128148750Y-107923000D01*
X128873000Y-107923000D01*
X128873000Y-106973750D01*
X129127000Y-106973750D01*
X129127000Y-107923000D01*
X129851250Y-107923000D01*
X130010000Y-107764250D01*
X130010000Y-107323691D01*
X131490000Y-107323691D01*
X131490000Y-107764250D01*
X131648750Y-107923000D01*
X132373000Y-107923000D01*
X132373000Y-106973750D01*
X132627000Y-106973750D01*
X132627000Y-107923000D01*
X133351250Y-107923000D01*
X133510000Y-107764250D01*
X133510000Y-107323691D01*
X133413327Y-107090302D01*
X133234699Y-106911673D01*
X133001310Y-106815000D01*
X132785750Y-106815000D01*
X132627000Y-106973750D01*
X132373000Y-106973750D01*
X132214250Y-106815000D01*
X131998690Y-106815000D01*
X131765301Y-106911673D01*
X131586673Y-107090302D01*
X131490000Y-107323691D01*
X130010000Y-107323691D01*
X129913327Y-107090302D01*
X129734699Y-106911673D01*
X129501310Y-106815000D01*
X129285750Y-106815000D01*
X129127000Y-106973750D01*
X128873000Y-106973750D01*
X128714250Y-106815000D01*
X128498690Y-106815000D01*
X128265301Y-106911673D01*
X128086673Y-107090302D01*
X127990000Y-107323691D01*
X127835525Y-107323691D01*
X127793117Y-107221057D01*
X127530327Y-106957808D01*
X127186799Y-106815162D01*
X126985000Y-106814986D01*
X126985000Y-106410750D01*
X126826250Y-106252000D01*
X125977000Y-106252000D01*
X125977000Y-106272000D01*
X125760000Y-106272000D01*
X125760000Y-104873750D01*
X125977000Y-104873750D01*
X125977000Y-105998000D01*
X126826250Y-105998000D01*
X126985000Y-105839250D01*
X126985000Y-105223691D01*
X148015000Y-105223691D01*
X148015000Y-105839250D01*
X148173750Y-105998000D01*
X149023000Y-105998000D01*
X149023000Y-104873750D01*
X148864250Y-104715000D01*
X148523690Y-104715000D01*
X148290301Y-104811673D01*
X148111673Y-104990302D01*
X148015000Y-105223691D01*
X126985000Y-105223691D01*
X126888327Y-104990302D01*
X126709699Y-104811673D01*
X126476310Y-104715000D01*
X126135750Y-104715000D01*
X125977000Y-104873750D01*
X125760000Y-104873750D01*
X125760000Y-101002000D01*
X125977000Y-101002000D01*
X125977000Y-102126250D01*
X126135750Y-102285000D01*
X126476310Y-102285000D01*
X126709699Y-102188327D01*
X126888327Y-102009698D01*
X126985000Y-101776309D01*
X126985000Y-101160750D01*
X126826250Y-101002000D01*
X125977000Y-101002000D01*
X125760000Y-101002000D01*
X125760000Y-100728000D01*
X125977000Y-100728000D01*
X125977000Y-100748000D01*
X126826250Y-100748000D01*
X126985000Y-100589250D01*
X126985000Y-99973691D01*
X126938708Y-99861932D01*
X126985317Y-99853162D01*
X127201441Y-99714090D01*
X127240000Y-99657657D01*
X127240000Y-101437537D01*
X127207808Y-101469673D01*
X127065162Y-101813201D01*
X127064838Y-102185167D01*
X127206883Y-102528943D01*
X127469673Y-102792192D01*
X127813201Y-102934838D01*
X128185167Y-102935162D01*
X128528943Y-102793117D01*
X128792192Y-102530327D01*
X128934838Y-102186799D01*
X128935162Y-101814833D01*
X128793117Y-101471057D01*
X128760000Y-101437882D01*
X128760000Y-99064802D01*
X131037401Y-96787401D01*
X131038504Y-96785750D01*
X131865000Y-96785750D01*
X131865000Y-101626310D01*
X131961673Y-101859699D01*
X132140302Y-102038327D01*
X132373691Y-102135000D01*
X137214250Y-102135000D01*
X137373000Y-101976250D01*
X137373000Y-96627000D01*
X137627000Y-96627000D01*
X137627000Y-101976250D01*
X137785750Y-102135000D01*
X142626309Y-102135000D01*
X142859698Y-102038327D01*
X143038327Y-101859699D01*
X143135000Y-101626310D01*
X143135000Y-96785750D01*
X142976250Y-96627000D01*
X137627000Y-96627000D01*
X137373000Y-96627000D01*
X132023750Y-96627000D01*
X131865000Y-96785750D01*
X131038504Y-96785750D01*
X131202148Y-96540839D01*
X131260000Y-96250000D01*
X131260000Y-95812463D01*
X131292192Y-95780327D01*
X131434838Y-95436799D01*
X131435162Y-95064833D01*
X131293117Y-94721057D01*
X131260000Y-94687882D01*
X131260000Y-92312463D01*
X131292192Y-92280327D01*
X131434838Y-91936799D01*
X131435162Y-91564833D01*
X131356184Y-91373690D01*
X131865000Y-91373690D01*
X131865000Y-96214250D01*
X132023750Y-96373000D01*
X137373000Y-96373000D01*
X137373000Y-91023750D01*
X137627000Y-91023750D01*
X137627000Y-96373000D01*
X142976250Y-96373000D01*
X143135000Y-96214250D01*
X143135000Y-91373690D01*
X143038327Y-91140301D01*
X142859698Y-90961673D01*
X142626309Y-90865000D01*
X137785750Y-90865000D01*
X137627000Y-91023750D01*
X137373000Y-91023750D01*
X137214250Y-90865000D01*
X132373691Y-90865000D01*
X132140302Y-90961673D01*
X131961673Y-91140301D01*
X131865000Y-91373690D01*
X131356184Y-91373690D01*
X131293117Y-91221057D01*
X131030327Y-90957808D01*
X130686799Y-90815162D01*
X130314833Y-90814838D01*
X129971057Y-90956883D01*
X129707808Y-91219673D01*
X129565162Y-91563201D01*
X129564838Y-91935167D01*
X129706883Y-92278943D01*
X129740000Y-92312118D01*
X129740000Y-94687537D01*
X129707808Y-94719673D01*
X129565162Y-95063201D01*
X129564838Y-95435167D01*
X129706883Y-95778943D01*
X129740000Y-95812118D01*
X129740000Y-95935198D01*
X127462599Y-98212599D01*
X127397440Y-98310117D01*
X127397440Y-93750000D01*
X127353162Y-93514683D01*
X127214090Y-93298559D01*
X127001890Y-93153569D01*
X126750000Y-93102560D01*
X125299039Y-93102560D01*
X127022788Y-90522788D01*
X131829773Y-87310862D01*
X137500000Y-86182984D01*
X143170227Y-87310862D01*
X143170227Y-87310862D01*
G37*
X143170227Y-87310862D02*
X147977212Y-90522788D01*
X149700961Y-93102560D01*
X148250000Y-93102560D01*
X148014683Y-93146838D01*
X147798559Y-93285910D01*
X147653569Y-93498110D01*
X147602560Y-93750000D01*
X147602560Y-94280167D01*
X147530327Y-94207808D01*
X147186799Y-94065162D01*
X146814833Y-94064838D01*
X146471057Y-94206883D01*
X146207808Y-94469673D01*
X146065162Y-94813201D01*
X146064838Y-95185167D01*
X146206883Y-95528943D01*
X146240000Y-95562118D01*
X146240000Y-100845758D01*
X145971057Y-100956883D01*
X145707808Y-101219673D01*
X145565162Y-101563201D01*
X145564838Y-101935167D01*
X145706883Y-102278943D01*
X145969673Y-102542192D01*
X146313201Y-102684838D01*
X146685167Y-102685162D01*
X147028943Y-102543117D01*
X147292192Y-102280327D01*
X147434838Y-101936799D01*
X147434879Y-101889923D01*
X147537401Y-101787401D01*
X147702148Y-101540839D01*
X147760000Y-101250000D01*
X147760000Y-101160750D01*
X148015000Y-101160750D01*
X148015000Y-101776309D01*
X148111673Y-102009698D01*
X148290301Y-102188327D01*
X148523690Y-102285000D01*
X148864250Y-102285000D01*
X149023000Y-102126250D01*
X149023000Y-101002000D01*
X148173750Y-101002000D01*
X148015000Y-101160750D01*
X147760000Y-101160750D01*
X147760000Y-99661176D01*
X147785910Y-99701441D01*
X147998110Y-99846431D01*
X148062326Y-99859435D01*
X148015000Y-99973691D01*
X148015000Y-100589250D01*
X148173750Y-100748000D01*
X149023000Y-100748000D01*
X149023000Y-100728000D01*
X149240000Y-100728000D01*
X149240000Y-106272000D01*
X149023000Y-106272000D01*
X149023000Y-106252000D01*
X148173750Y-106252000D01*
X148015000Y-106410750D01*
X148015000Y-107026309D01*
X148111673Y-107259698D01*
X148290301Y-107438327D01*
X148523690Y-107535000D01*
X148864250Y-107535000D01*
X149022998Y-107376252D01*
X149022998Y-107402200D01*
X147235198Y-109190000D01*
X146992334Y-109190000D01*
X146978162Y-109114683D01*
X146911671Y-109011354D01*
X146913327Y-109009698D01*
X147010000Y-108776309D01*
X147010000Y-108335750D01*
X146851250Y-108177000D01*
X146127000Y-108177000D01*
X146127000Y-108197000D01*
X145873000Y-108197000D01*
X145873000Y-108177000D01*
X145148750Y-108177000D01*
X144990000Y-108335750D01*
X144990000Y-108776309D01*
X145086673Y-109009698D01*
X145088043Y-109011068D01*
X145028569Y-109098110D01*
X145009961Y-109190000D01*
X143492334Y-109190000D01*
X143478162Y-109114683D01*
X143411671Y-109011354D01*
X143413327Y-109009698D01*
X143510000Y-108776309D01*
X143510000Y-108335750D01*
X143351250Y-108177000D01*
X142627000Y-108177000D01*
X142627000Y-108197000D01*
X142373000Y-108197000D01*
X142373000Y-108177000D01*
X141648750Y-108177000D01*
X141490000Y-108335750D01*
X141490000Y-108776309D01*
X141586673Y-109009698D01*
X141588043Y-109011068D01*
X141528569Y-109098110D01*
X141509961Y-109190000D01*
X138510000Y-109190000D01*
X138510000Y-107612471D01*
X138542192Y-107580335D01*
X138648760Y-107323691D01*
X141490000Y-107323691D01*
X141490000Y-107764250D01*
X141648750Y-107923000D01*
X142373000Y-107923000D01*
X142373000Y-106973750D01*
X142627000Y-106973750D01*
X142627000Y-107923000D01*
X143351250Y-107923000D01*
X143510000Y-107764250D01*
X143510000Y-107323691D01*
X144990000Y-107323691D01*
X144990000Y-107764250D01*
X145148750Y-107923000D01*
X145873000Y-107923000D01*
X145873000Y-106973750D01*
X146127000Y-106973750D01*
X146127000Y-107923000D01*
X146851250Y-107923000D01*
X147010000Y-107764250D01*
X147010000Y-107323691D01*
X146913327Y-107090302D01*
X146734699Y-106911673D01*
X146501310Y-106815000D01*
X146285750Y-106815000D01*
X146127000Y-106973750D01*
X145873000Y-106973750D01*
X145714250Y-106815000D01*
X145498690Y-106815000D01*
X145265301Y-106911673D01*
X145086673Y-107090302D01*
X144990000Y-107323691D01*
X143510000Y-107323691D01*
X143413327Y-107090302D01*
X143234699Y-106911673D01*
X143001310Y-106815000D01*
X142785750Y-106815000D01*
X142627000Y-106973750D01*
X142373000Y-106973750D01*
X142214250Y-106815000D01*
X141998690Y-106815000D01*
X141765301Y-106911673D01*
X141586673Y-107090302D01*
X141490000Y-107323691D01*
X138648760Y-107323691D01*
X138684838Y-107236807D01*
X138685162Y-106864841D01*
X138543117Y-106521065D01*
X138280327Y-106257816D01*
X137936799Y-106115170D01*
X137564833Y-106114846D01*
X137221057Y-106256891D01*
X136957808Y-106519681D01*
X136815162Y-106863209D01*
X136814838Y-107235175D01*
X136956883Y-107578951D01*
X136990000Y-107612126D01*
X136990000Y-109190000D01*
X133492334Y-109190000D01*
X133478162Y-109114683D01*
X133411671Y-109011354D01*
X133413327Y-109009698D01*
X133510000Y-108776309D01*
X133510000Y-108335750D01*
X133351250Y-108177000D01*
X132627000Y-108177000D01*
X132627000Y-108197000D01*
X132373000Y-108197000D01*
X132373000Y-108177000D01*
X131648750Y-108177000D01*
X131490000Y-108335750D01*
X131490000Y-108776309D01*
X131586673Y-109009698D01*
X131588043Y-109011068D01*
X131528569Y-109098110D01*
X131509961Y-109190000D01*
X129992334Y-109190000D01*
X129978162Y-109114683D01*
X129911671Y-109011354D01*
X129913327Y-109009698D01*
X130010000Y-108776309D01*
X130010000Y-108335750D01*
X129851250Y-108177000D01*
X129127000Y-108177000D01*
X129127000Y-108197000D01*
X128873000Y-108197000D01*
X128873000Y-108177000D01*
X128148750Y-108177000D01*
X127990000Y-108335750D01*
X127990000Y-108776309D01*
X128086673Y-109009698D01*
X128088043Y-109011068D01*
X128028569Y-109098110D01*
X128010776Y-109185974D01*
X127414999Y-108590197D01*
X127528943Y-108543117D01*
X127792192Y-108280327D01*
X127934838Y-107936799D01*
X127935162Y-107564833D01*
X127835525Y-107323691D01*
X127990000Y-107323691D01*
X127990000Y-107764250D01*
X128148750Y-107923000D01*
X128873000Y-107923000D01*
X128873000Y-106973750D01*
X129127000Y-106973750D01*
X129127000Y-107923000D01*
X129851250Y-107923000D01*
X130010000Y-107764250D01*
X130010000Y-107323691D01*
X131490000Y-107323691D01*
X131490000Y-107764250D01*
X131648750Y-107923000D01*
X132373000Y-107923000D01*
X132373000Y-106973750D01*
X132627000Y-106973750D01*
X132627000Y-107923000D01*
X133351250Y-107923000D01*
X133510000Y-107764250D01*
X133510000Y-107323691D01*
X133413327Y-107090302D01*
X133234699Y-106911673D01*
X133001310Y-106815000D01*
X132785750Y-106815000D01*
X132627000Y-106973750D01*
X132373000Y-106973750D01*
X132214250Y-106815000D01*
X131998690Y-106815000D01*
X131765301Y-106911673D01*
X131586673Y-107090302D01*
X131490000Y-107323691D01*
X130010000Y-107323691D01*
X129913327Y-107090302D01*
X129734699Y-106911673D01*
X129501310Y-106815000D01*
X129285750Y-106815000D01*
X129127000Y-106973750D01*
X128873000Y-106973750D01*
X128714250Y-106815000D01*
X128498690Y-106815000D01*
X128265301Y-106911673D01*
X128086673Y-107090302D01*
X127990000Y-107323691D01*
X127835525Y-107323691D01*
X127793117Y-107221057D01*
X127530327Y-106957808D01*
X127186799Y-106815162D01*
X126985000Y-106814986D01*
X126985000Y-106410750D01*
X126826250Y-106252000D01*
X125977000Y-106252000D01*
X125977000Y-106272000D01*
X125760000Y-106272000D01*
X125760000Y-104873750D01*
X125977000Y-104873750D01*
X125977000Y-105998000D01*
X126826250Y-105998000D01*
X126985000Y-105839250D01*
X126985000Y-105223691D01*
X148015000Y-105223691D01*
X148015000Y-105839250D01*
X148173750Y-105998000D01*
X149023000Y-105998000D01*
X149023000Y-104873750D01*
X148864250Y-104715000D01*
X148523690Y-104715000D01*
X148290301Y-104811673D01*
X148111673Y-104990302D01*
X148015000Y-105223691D01*
X126985000Y-105223691D01*
X126888327Y-104990302D01*
X126709699Y-104811673D01*
X126476310Y-104715000D01*
X126135750Y-104715000D01*
X125977000Y-104873750D01*
X125760000Y-104873750D01*
X125760000Y-101002000D01*
X125977000Y-101002000D01*
X125977000Y-102126250D01*
X126135750Y-102285000D01*
X126476310Y-102285000D01*
X126709699Y-102188327D01*
X126888327Y-102009698D01*
X126985000Y-101776309D01*
X126985000Y-101160750D01*
X126826250Y-101002000D01*
X125977000Y-101002000D01*
X125760000Y-101002000D01*
X125760000Y-100728000D01*
X125977000Y-100728000D01*
X125977000Y-100748000D01*
X126826250Y-100748000D01*
X126985000Y-100589250D01*
X126985000Y-99973691D01*
X126938708Y-99861932D01*
X126985317Y-99853162D01*
X127201441Y-99714090D01*
X127240000Y-99657657D01*
X127240000Y-101437537D01*
X127207808Y-101469673D01*
X127065162Y-101813201D01*
X127064838Y-102185167D01*
X127206883Y-102528943D01*
X127469673Y-102792192D01*
X127813201Y-102934838D01*
X128185167Y-102935162D01*
X128528943Y-102793117D01*
X128792192Y-102530327D01*
X128934838Y-102186799D01*
X128935162Y-101814833D01*
X128793117Y-101471057D01*
X128760000Y-101437882D01*
X128760000Y-99064802D01*
X131037401Y-96787401D01*
X131038504Y-96785750D01*
X131865000Y-96785750D01*
X131865000Y-101626310D01*
X131961673Y-101859699D01*
X132140302Y-102038327D01*
X132373691Y-102135000D01*
X137214250Y-102135000D01*
X137373000Y-101976250D01*
X137373000Y-96627000D01*
X137627000Y-96627000D01*
X137627000Y-101976250D01*
X137785750Y-102135000D01*
X142626309Y-102135000D01*
X142859698Y-102038327D01*
X143038327Y-101859699D01*
X143135000Y-101626310D01*
X143135000Y-96785750D01*
X142976250Y-96627000D01*
X137627000Y-96627000D01*
X137373000Y-96627000D01*
X132023750Y-96627000D01*
X131865000Y-96785750D01*
X131038504Y-96785750D01*
X131202148Y-96540839D01*
X131260000Y-96250000D01*
X131260000Y-95812463D01*
X131292192Y-95780327D01*
X131434838Y-95436799D01*
X131435162Y-95064833D01*
X131293117Y-94721057D01*
X131260000Y-94687882D01*
X131260000Y-92312463D01*
X131292192Y-92280327D01*
X131434838Y-91936799D01*
X131435162Y-91564833D01*
X131356184Y-91373690D01*
X131865000Y-91373690D01*
X131865000Y-96214250D01*
X132023750Y-96373000D01*
X137373000Y-96373000D01*
X137373000Y-91023750D01*
X137627000Y-91023750D01*
X137627000Y-96373000D01*
X142976250Y-96373000D01*
X143135000Y-96214250D01*
X143135000Y-91373690D01*
X143038327Y-91140301D01*
X142859698Y-90961673D01*
X142626309Y-90865000D01*
X137785750Y-90865000D01*
X137627000Y-91023750D01*
X137373000Y-91023750D01*
X137214250Y-90865000D01*
X132373691Y-90865000D01*
X132140302Y-90961673D01*
X131961673Y-91140301D01*
X131865000Y-91373690D01*
X131356184Y-91373690D01*
X131293117Y-91221057D01*
X131030327Y-90957808D01*
X130686799Y-90815162D01*
X130314833Y-90814838D01*
X129971057Y-90956883D01*
X129707808Y-91219673D01*
X129565162Y-91563201D01*
X129564838Y-91935167D01*
X129706883Y-92278943D01*
X129740000Y-92312118D01*
X129740000Y-94687537D01*
X129707808Y-94719673D01*
X129565162Y-95063201D01*
X129564838Y-95435167D01*
X129706883Y-95778943D01*
X129740000Y-95812118D01*
X129740000Y-95935198D01*
X127462599Y-98212599D01*
X127397440Y-98310117D01*
X127397440Y-93750000D01*
X127353162Y-93514683D01*
X127214090Y-93298559D01*
X127001890Y-93153569D01*
X126750000Y-93102560D01*
X125299039Y-93102560D01*
X127022788Y-90522788D01*
X131829773Y-87310862D01*
X137500000Y-86182984D01*
X143170227Y-87310862D01*
M02*
