G04 #@! TF.GenerationSoftware,KiCad,Pcbnew,5.1.0*
G04 #@! TF.CreationDate,2019-04-19T18:29:55+02:00*
G04 #@! TF.ProjectId,Watch,57617463-682e-46b6-9963-61645f706362,rev?*
G04 #@! TF.SameCoordinates,Original*
G04 #@! TF.FileFunction,Copper,L1,Top*
G04 #@! TF.FilePolarity,Positive*
%FSLAX46Y46*%
G04 Gerber Fmt 4.6, Leading zero omitted, Abs format (unit mm)*
G04 Created by KiCad (PCBNEW 5.1.0) date 2019-04-19 18:29:55*
%MOMM*%
%LPD*%
G04 APERTURE LIST*
%ADD10R,0.300000X0.350000*%
%ADD11R,2.500000X5.500000*%
%ADD12R,10.000000X10.000000*%
%ADD13R,0.750000X1.200000*%
%ADD14C,1.000000*%
%ADD15R,1.000000X1.550000*%
%ADD16C,0.600000*%
%ADD17C,0.250000*%
%ADD18C,0.254000*%
G04 APERTURE END LIST*
D10*
X139250000Y-110000000D03*
X139750000Y-110000000D03*
X140250000Y-110000000D03*
X140750000Y-110000000D03*
X140775000Y-109475000D03*
X140775000Y-108975000D03*
X140750000Y-108450000D03*
X140250000Y-108450000D03*
X139750000Y-108450000D03*
X139250000Y-108450000D03*
X139225000Y-108975000D03*
X139225000Y-109475000D03*
D11*
X149500000Y-96500000D03*
X125500000Y-96500000D03*
D12*
X137500000Y-96500000D03*
D13*
X146000000Y-109950000D03*
X146000000Y-108050000D03*
X144250000Y-108900000D03*
X144250000Y-107000000D03*
X132500000Y-109950000D03*
X132500000Y-108050000D03*
X129000000Y-109950000D03*
X129000000Y-108050000D03*
D14*
X139700000Y-111760000D03*
X137160000Y-111760000D03*
X132080000Y-111760000D03*
X144780000Y-111760000D03*
X142240000Y-111760000D03*
X134620000Y-111760000D03*
D15*
X149150000Y-106125000D03*
X149150000Y-100875000D03*
X150850000Y-100875000D03*
X150850000Y-106125000D03*
X125850000Y-100875000D03*
X125850000Y-106125000D03*
X124150000Y-106125000D03*
X124150000Y-100875000D03*
D16*
X127000000Y-107750000D03*
X137500000Y-107050008D03*
X138742557Y-114374981D03*
X134500000Y-104750000D03*
X137691949Y-114374990D03*
X146500000Y-101750000D03*
X147000000Y-95000000D03*
X128000000Y-102000000D03*
X130500000Y-91750000D03*
X130500000Y-95250000D03*
X141737984Y-112884613D03*
X141220702Y-113454996D03*
X133250000Y-111000000D03*
X142354676Y-112375010D03*
X151000000Y-103500000D03*
X124150000Y-103500000D03*
X143889636Y-111304735D03*
X145000000Y-110500000D03*
X140500000Y-114250000D03*
D17*
X127000000Y-107750000D02*
X125500000Y-107750000D01*
X129000000Y-109950000D02*
X127700000Y-109950000D01*
X125000000Y-107250000D02*
X125000000Y-97000000D01*
X127700000Y-109950000D02*
X125500000Y-107750000D01*
X125500000Y-107750000D02*
X125000000Y-107250000D01*
X125000000Y-97000000D02*
X125500000Y-96500000D01*
X146000000Y-109950000D02*
X147550000Y-109950000D01*
X150000000Y-107500000D02*
X150000000Y-97000000D01*
X147550000Y-109950000D02*
X150000000Y-107500000D01*
X150000000Y-97000000D02*
X149500000Y-96500000D01*
X129000000Y-109950000D02*
X132500000Y-109950000D01*
X149500000Y-96500000D02*
X149500000Y-99250000D01*
X146000000Y-110540000D02*
X146000000Y-109950000D01*
X144780000Y-111760000D02*
X146000000Y-110540000D01*
X145300000Y-109950000D02*
X144250000Y-108900000D01*
X146000000Y-109950000D02*
X145300000Y-109950000D01*
X141150000Y-108450000D02*
X140750000Y-108450000D01*
X143175000Y-108450000D02*
X141150000Y-108450000D01*
X143625000Y-108900000D02*
X143175000Y-108450000D01*
X144250000Y-108900000D02*
X143625000Y-108900000D01*
X138442558Y-114674980D02*
X138742557Y-114374981D01*
X137867538Y-115250000D02*
X138442558Y-114674980D01*
X129000000Y-109950000D02*
X129000000Y-110175000D01*
X134075000Y-115250000D02*
X137867538Y-115250000D01*
X139042556Y-114674980D02*
X138742557Y-114374981D01*
X139242586Y-114875010D02*
X139042556Y-114674980D01*
X141664990Y-114875010D02*
X139242586Y-114875010D01*
X129000000Y-110175000D02*
X134075000Y-115250000D01*
X140759999Y-110934999D02*
X142684999Y-110934999D01*
X140250000Y-110000000D02*
X140250000Y-110425000D01*
X140250000Y-110425000D02*
X140759999Y-110934999D01*
X143065001Y-111315001D02*
X143065001Y-113474999D01*
X143065001Y-113474999D02*
X141664990Y-114875010D01*
X142684999Y-110934999D02*
X143065001Y-111315001D01*
X143065001Y-113474999D02*
X144780000Y-111760000D01*
X132500000Y-109725000D02*
X132500000Y-109950000D01*
X135174992Y-107050008D02*
X132500000Y-109725000D01*
X135174992Y-107050008D02*
X137500000Y-107050008D01*
X137234990Y-114374990D02*
X137267685Y-114374990D01*
X134620000Y-111760000D02*
X137234990Y-114374990D01*
X137267685Y-114374990D02*
X137691949Y-114374990D01*
X140250000Y-108450000D02*
X139750000Y-108450000D01*
X139750000Y-108450000D02*
X139750000Y-106250000D01*
X138250000Y-104750000D02*
X139750000Y-106250000D01*
X134500000Y-104750000D02*
X138250000Y-104750000D01*
X140250000Y-106750000D02*
X139750000Y-106250000D01*
X140250000Y-108450000D02*
X140250000Y-106750000D01*
X146000000Y-107000000D02*
X146000000Y-108050000D01*
X144250000Y-107000000D02*
X146000000Y-107000000D01*
X147000000Y-95000000D02*
X147000000Y-101250000D01*
X147000000Y-101250000D02*
X146500000Y-101750000D01*
X130500000Y-95250000D02*
X130500000Y-96250000D01*
X128000000Y-98750000D02*
X128000000Y-102000000D01*
X130500000Y-96250000D02*
X128000000Y-98750000D01*
X130500000Y-91750000D02*
X130500000Y-95250000D01*
X139250000Y-111310000D02*
X139700000Y-111760000D01*
X139250000Y-110275000D02*
X139250000Y-111310000D01*
X139250000Y-110275000D02*
X139250000Y-110000000D01*
X139700000Y-111760000D02*
X140199999Y-112259999D01*
X141113370Y-112259999D02*
X141437985Y-112584614D01*
X140199999Y-112259999D02*
X141113370Y-112259999D01*
X141437985Y-112584614D02*
X141737984Y-112884613D01*
X137160000Y-111760000D02*
X137160000Y-110840000D01*
X138525000Y-109475000D02*
X139225000Y-109475000D01*
X137160000Y-110840000D02*
X138525000Y-109475000D01*
X137160000Y-111760000D02*
X137867106Y-111760000D01*
X137867106Y-111760000D02*
X139562102Y-113454996D01*
X140796438Y-113454996D02*
X141220702Y-113454996D01*
X139562102Y-113454996D02*
X140796438Y-113454996D01*
X133250000Y-111000000D02*
X132490000Y-111760000D01*
X132490000Y-111760000D02*
X132080000Y-111760000D01*
X141532894Y-111760000D02*
X142240000Y-111760000D01*
X140921002Y-111760000D02*
X141532894Y-111760000D01*
X139750000Y-110000000D02*
X139750000Y-110588998D01*
X139750000Y-110588998D02*
X140921002Y-111760000D01*
X142354676Y-111874676D02*
X142354676Y-111950746D01*
X142240000Y-111760000D02*
X142354676Y-111874676D01*
X142354676Y-111950746D02*
X142354676Y-112375010D01*
X150850000Y-103500000D02*
X151000000Y-103500000D01*
X150850000Y-106125000D02*
X150850000Y-103500000D01*
X150850000Y-103500000D02*
X150850000Y-100875000D01*
X124150000Y-100875000D02*
X124150000Y-103500000D01*
X124150000Y-103500000D02*
X124150000Y-106125000D01*
X142059901Y-109475000D02*
X143589637Y-111004736D01*
X140775000Y-109475000D02*
X142059901Y-109475000D01*
X143589637Y-111004736D02*
X143889636Y-111304735D01*
X142725000Y-108975000D02*
X140775000Y-108975000D01*
X144250000Y-110500000D02*
X142725000Y-108975000D01*
X145000000Y-110500000D02*
X144250000Y-110500000D01*
X138550000Y-108450000D02*
X139250000Y-108450000D01*
X139542580Y-114250000D02*
X139042559Y-113749979D01*
X136334999Y-112156001D02*
X136334999Y-110665001D01*
X136334999Y-110665001D02*
X138550000Y-108450000D01*
X139042559Y-113749979D02*
X138999979Y-113749979D01*
X136763999Y-112585001D02*
X136334999Y-112156001D01*
X137835001Y-112585001D02*
X136763999Y-112585001D01*
X138999979Y-113749979D02*
X137835001Y-112585001D01*
X139542580Y-114250000D02*
X140500000Y-114250000D01*
D18*
G36*
X138275463Y-86203290D02*
G01*
X139766794Y-86357404D01*
X141234916Y-86661438D01*
X142664798Y-87112278D01*
X144041799Y-87705308D01*
X145351822Y-88434458D01*
X146581454Y-89292261D01*
X147718104Y-90269934D01*
X148750135Y-91357468D01*
X149666981Y-92543728D01*
X150020654Y-93111928D01*
X148250000Y-93111928D01*
X148125518Y-93124188D01*
X148005820Y-93160498D01*
X147895506Y-93219463D01*
X147798815Y-93298815D01*
X147719463Y-93395506D01*
X147660498Y-93505820D01*
X147624188Y-93625518D01*
X147611928Y-93750000D01*
X147611928Y-94289638D01*
X147596028Y-94273738D01*
X147442889Y-94171414D01*
X147272729Y-94100932D01*
X147092089Y-94065000D01*
X146907911Y-94065000D01*
X146727271Y-94100932D01*
X146557111Y-94171414D01*
X146403972Y-94273738D01*
X146273738Y-94403972D01*
X146171414Y-94557111D01*
X146100932Y-94727271D01*
X146065000Y-94907911D01*
X146065000Y-95092089D01*
X146100932Y-95272729D01*
X146171414Y-95442889D01*
X146240000Y-95545536D01*
X146240001Y-100848400D01*
X146227271Y-100850932D01*
X146057111Y-100921414D01*
X145903972Y-101023738D01*
X145773738Y-101153972D01*
X145671414Y-101307111D01*
X145600932Y-101477271D01*
X145565000Y-101657911D01*
X145565000Y-101842089D01*
X145600932Y-102022729D01*
X145671414Y-102192889D01*
X145773738Y-102346028D01*
X145903972Y-102476262D01*
X146057111Y-102578586D01*
X146227271Y-102649068D01*
X146407911Y-102685000D01*
X146592089Y-102685000D01*
X146772729Y-102649068D01*
X146942889Y-102578586D01*
X147096028Y-102476262D01*
X147226262Y-102346028D01*
X147328586Y-102192889D01*
X147399068Y-102022729D01*
X147423153Y-101901648D01*
X147510997Y-101813804D01*
X147540001Y-101790001D01*
X147634974Y-101674276D01*
X147647949Y-101650000D01*
X148011928Y-101650000D01*
X148024188Y-101774482D01*
X148060498Y-101894180D01*
X148119463Y-102004494D01*
X148198815Y-102101185D01*
X148295506Y-102180537D01*
X148405820Y-102239502D01*
X148525518Y-102275812D01*
X148650000Y-102288072D01*
X148864250Y-102285000D01*
X149023000Y-102126250D01*
X149023000Y-101002000D01*
X148173750Y-101002000D01*
X148015000Y-101160750D01*
X148011928Y-101650000D01*
X147647949Y-101650000D01*
X147705546Y-101542247D01*
X147749003Y-101398986D01*
X147760000Y-101287333D01*
X147760000Y-101287325D01*
X147763676Y-101250000D01*
X147760000Y-101212675D01*
X147760000Y-99653889D01*
X147798815Y-99701185D01*
X147895506Y-99780537D01*
X148005820Y-99839502D01*
X148060423Y-99856066D01*
X148024188Y-99975518D01*
X148011928Y-100100000D01*
X148015000Y-100589250D01*
X148173750Y-100748000D01*
X149023000Y-100748000D01*
X149023000Y-100728000D01*
X149240001Y-100728000D01*
X149240000Y-106272000D01*
X149023000Y-106272000D01*
X149023000Y-106252000D01*
X148173750Y-106252000D01*
X148015000Y-106410750D01*
X148011928Y-106900000D01*
X148024188Y-107024482D01*
X148060498Y-107144180D01*
X148119463Y-107254494D01*
X148198815Y-107351185D01*
X148295506Y-107430537D01*
X148405820Y-107489502D01*
X148525518Y-107525812D01*
X148650000Y-107538072D01*
X148864250Y-107535000D01*
X149022998Y-107376252D01*
X149022998Y-107402200D01*
X147235199Y-109190000D01*
X146990038Y-109190000D01*
X146964502Y-109105820D01*
X146907939Y-109000000D01*
X146964502Y-108894180D01*
X147000812Y-108774482D01*
X147013072Y-108650000D01*
X147010000Y-108335750D01*
X146851250Y-108177000D01*
X146127000Y-108177000D01*
X146127000Y-108197000D01*
X145873000Y-108197000D01*
X145873000Y-108177000D01*
X145853000Y-108177000D01*
X145853000Y-107923000D01*
X145873000Y-107923000D01*
X145873000Y-106973750D01*
X146127000Y-106973750D01*
X146127000Y-107923000D01*
X146851250Y-107923000D01*
X147010000Y-107764250D01*
X147013072Y-107450000D01*
X147000812Y-107325518D01*
X146964502Y-107205820D01*
X146905537Y-107095506D01*
X146826185Y-106998815D01*
X146729494Y-106919463D01*
X146619180Y-106860498D01*
X146499482Y-106824188D01*
X146375000Y-106811928D01*
X146285750Y-106815000D01*
X146127000Y-106973750D01*
X145873000Y-106973750D01*
X145714250Y-106815000D01*
X145625000Y-106811928D01*
X145500518Y-106824188D01*
X145380820Y-106860498D01*
X145270506Y-106919463D01*
X145260000Y-106928085D01*
X145260000Y-106872998D01*
X145101252Y-106872998D01*
X145260000Y-106714250D01*
X145263072Y-106400000D01*
X145250812Y-106275518D01*
X145214502Y-106155820D01*
X145155537Y-106045506D01*
X145076185Y-105948815D01*
X144979494Y-105869463D01*
X144869180Y-105810498D01*
X144749482Y-105774188D01*
X144625000Y-105761928D01*
X144535750Y-105765000D01*
X144377000Y-105923750D01*
X144377000Y-106873000D01*
X144397000Y-106873000D01*
X144397000Y-107127000D01*
X144377000Y-107127000D01*
X144377000Y-107147000D01*
X144123000Y-107147000D01*
X144123000Y-107127000D01*
X143398750Y-107127000D01*
X143240000Y-107285750D01*
X143236928Y-107600000D01*
X143246120Y-107693328D01*
X143212333Y-107690000D01*
X143212322Y-107690000D01*
X143175000Y-107686324D01*
X143137678Y-107690000D01*
X141152603Y-107690000D01*
X141144180Y-107685498D01*
X141024482Y-107649188D01*
X140900000Y-107636928D01*
X140600000Y-107636928D01*
X140493571Y-107647410D01*
X140431750Y-107640000D01*
X140399503Y-107672247D01*
X140355820Y-107685498D01*
X140248420Y-107742905D01*
X140163045Y-107693671D01*
X140100840Y-107672590D01*
X140068250Y-107640000D01*
X140000000Y-107648181D01*
X139931750Y-107640000D01*
X139899160Y-107672590D01*
X139836955Y-107693671D01*
X139751580Y-107742905D01*
X139644180Y-107685498D01*
X139600497Y-107672247D01*
X139568250Y-107640000D01*
X139506429Y-107647410D01*
X139400000Y-107636928D01*
X139100000Y-107636928D01*
X138975518Y-107649188D01*
X138855820Y-107685498D01*
X138847397Y-107690000D01*
X138587322Y-107690000D01*
X138549999Y-107686324D01*
X138512676Y-107690000D01*
X138512667Y-107690000D01*
X138401014Y-107700997D01*
X138257753Y-107744454D01*
X138125724Y-107815026D01*
X138125722Y-107815027D01*
X138125723Y-107815027D01*
X138038996Y-107886201D01*
X138038992Y-107886205D01*
X138009999Y-107909999D01*
X137986205Y-107938992D01*
X135823997Y-110101202D01*
X135794999Y-110125000D01*
X135771201Y-110153998D01*
X135771200Y-110153999D01*
X135700025Y-110240725D01*
X135629453Y-110372755D01*
X135608771Y-110440937D01*
X135585997Y-110516015D01*
X135583635Y-110540000D01*
X135571323Y-110665001D01*
X135575000Y-110702333D01*
X135575000Y-111190531D01*
X135398166Y-111161439D01*
X134799605Y-111760000D01*
X135398166Y-112358561D01*
X135592547Y-112326583D01*
X135625743Y-112436015D01*
X135629453Y-112448247D01*
X135700025Y-112580277D01*
X135735644Y-112623678D01*
X135794998Y-112696002D01*
X135824002Y-112719805D01*
X136200195Y-113095998D01*
X136223998Y-113125002D01*
X136293776Y-113182267D01*
X136339723Y-113219975D01*
X136471752Y-113290547D01*
X136615013Y-113334004D01*
X136763999Y-113348678D01*
X136801332Y-113345001D01*
X137520200Y-113345001D01*
X137991404Y-113816205D01*
X137913971Y-113932092D01*
X137843489Y-114102252D01*
X137819404Y-114223332D01*
X137552737Y-114490000D01*
X134389802Y-114490000D01*
X132646399Y-112746597D01*
X132803520Y-112641612D01*
X132906966Y-112538166D01*
X134021439Y-112538166D01*
X134056550Y-112751588D01*
X134260826Y-112842458D01*
X134478905Y-112891731D01*
X134702406Y-112897511D01*
X134922740Y-112859577D01*
X135131440Y-112779387D01*
X135183450Y-112751588D01*
X135218561Y-112538166D01*
X134620000Y-111939605D01*
X134021439Y-112538166D01*
X132906966Y-112538166D01*
X132961612Y-112483520D01*
X133085824Y-112297624D01*
X133127294Y-112197507D01*
X133401649Y-111923153D01*
X133493254Y-111904931D01*
X133520423Y-112062740D01*
X133600613Y-112271440D01*
X133628412Y-112323450D01*
X133841834Y-112358561D01*
X134440395Y-111760000D01*
X134426253Y-111745858D01*
X134605858Y-111566253D01*
X134620000Y-111580395D01*
X135218561Y-110981834D01*
X135183450Y-110768412D01*
X134979174Y-110677542D01*
X134761095Y-110628269D01*
X134537594Y-110622489D01*
X134317260Y-110660423D01*
X134148274Y-110725354D01*
X134078586Y-110557111D01*
X133976262Y-110403972D01*
X133846028Y-110273738D01*
X133692889Y-110171414D01*
X133522729Y-110100932D01*
X133513072Y-110099011D01*
X133513072Y-109786729D01*
X135489794Y-107810008D01*
X136954465Y-107810008D01*
X137057111Y-107878594D01*
X137227271Y-107949076D01*
X137407911Y-107985008D01*
X137592089Y-107985008D01*
X137772729Y-107949076D01*
X137942889Y-107878594D01*
X138096028Y-107776270D01*
X138226262Y-107646036D01*
X138328586Y-107492897D01*
X138399068Y-107322737D01*
X138435000Y-107142097D01*
X138435000Y-106957919D01*
X138399068Y-106777279D01*
X138328586Y-106607119D01*
X138226262Y-106453980D01*
X138172282Y-106400000D01*
X143236928Y-106400000D01*
X143240000Y-106714250D01*
X143398750Y-106873000D01*
X144123000Y-106873000D01*
X144123000Y-105923750D01*
X143964250Y-105765000D01*
X143875000Y-105761928D01*
X143750518Y-105774188D01*
X143630820Y-105810498D01*
X143520506Y-105869463D01*
X143423815Y-105948815D01*
X143344463Y-106045506D01*
X143285498Y-106155820D01*
X143249188Y-106275518D01*
X143236928Y-106400000D01*
X138172282Y-106400000D01*
X138096028Y-106323746D01*
X137942889Y-106221422D01*
X137772729Y-106150940D01*
X137592089Y-106115008D01*
X137407911Y-106115008D01*
X137227271Y-106150940D01*
X137057111Y-106221422D01*
X136954465Y-106290008D01*
X135212315Y-106290008D01*
X135174992Y-106286332D01*
X135137669Y-106290008D01*
X135137659Y-106290008D01*
X135026006Y-106301005D01*
X134882745Y-106344462D01*
X134750715Y-106415034D01*
X134703260Y-106453980D01*
X134634991Y-106510007D01*
X134611193Y-106539005D01*
X133511225Y-107638974D01*
X133513072Y-107450000D01*
X133500812Y-107325518D01*
X133464502Y-107205820D01*
X133405537Y-107095506D01*
X133326185Y-106998815D01*
X133229494Y-106919463D01*
X133119180Y-106860498D01*
X132999482Y-106824188D01*
X132875000Y-106811928D01*
X132785750Y-106815000D01*
X132627000Y-106973750D01*
X132627000Y-107923000D01*
X132647000Y-107923000D01*
X132647000Y-108177000D01*
X132627000Y-108177000D01*
X132627000Y-108197000D01*
X132373000Y-108197000D01*
X132373000Y-108177000D01*
X131648750Y-108177000D01*
X131490000Y-108335750D01*
X131486928Y-108650000D01*
X131499188Y-108774482D01*
X131535498Y-108894180D01*
X131592061Y-109000000D01*
X131535498Y-109105820D01*
X131509962Y-109190000D01*
X129990038Y-109190000D01*
X129964502Y-109105820D01*
X129907939Y-109000000D01*
X129964502Y-108894180D01*
X130000812Y-108774482D01*
X130013072Y-108650000D01*
X130010000Y-108335750D01*
X129851250Y-108177000D01*
X129127000Y-108177000D01*
X129127000Y-108197000D01*
X128873000Y-108197000D01*
X128873000Y-108177000D01*
X128148750Y-108177000D01*
X127990000Y-108335750D01*
X127986928Y-108650000D01*
X127999188Y-108774482D01*
X128035498Y-108894180D01*
X128092061Y-109000000D01*
X128035498Y-109105820D01*
X128011089Y-109186287D01*
X127414957Y-108590156D01*
X127442889Y-108578586D01*
X127596028Y-108476262D01*
X127726262Y-108346028D01*
X127828586Y-108192889D01*
X127899068Y-108022729D01*
X127935000Y-107842089D01*
X127935000Y-107657911D01*
X127899068Y-107477271D01*
X127887773Y-107450000D01*
X127986928Y-107450000D01*
X127990000Y-107764250D01*
X128148750Y-107923000D01*
X128873000Y-107923000D01*
X128873000Y-106973750D01*
X129127000Y-106973750D01*
X129127000Y-107923000D01*
X129851250Y-107923000D01*
X130010000Y-107764250D01*
X130013072Y-107450000D01*
X131486928Y-107450000D01*
X131490000Y-107764250D01*
X131648750Y-107923000D01*
X132373000Y-107923000D01*
X132373000Y-106973750D01*
X132214250Y-106815000D01*
X132125000Y-106811928D01*
X132000518Y-106824188D01*
X131880820Y-106860498D01*
X131770506Y-106919463D01*
X131673815Y-106998815D01*
X131594463Y-107095506D01*
X131535498Y-107205820D01*
X131499188Y-107325518D01*
X131486928Y-107450000D01*
X130013072Y-107450000D01*
X130000812Y-107325518D01*
X129964502Y-107205820D01*
X129905537Y-107095506D01*
X129826185Y-106998815D01*
X129729494Y-106919463D01*
X129619180Y-106860498D01*
X129499482Y-106824188D01*
X129375000Y-106811928D01*
X129285750Y-106815000D01*
X129127000Y-106973750D01*
X128873000Y-106973750D01*
X128714250Y-106815000D01*
X128625000Y-106811928D01*
X128500518Y-106824188D01*
X128380820Y-106860498D01*
X128270506Y-106919463D01*
X128173815Y-106998815D01*
X128094463Y-107095506D01*
X128035498Y-107205820D01*
X127999188Y-107325518D01*
X127986928Y-107450000D01*
X127887773Y-107450000D01*
X127828586Y-107307111D01*
X127726262Y-107153972D01*
X127596028Y-107023738D01*
X127442889Y-106921414D01*
X127272729Y-106850932D01*
X127092089Y-106815000D01*
X126987538Y-106815000D01*
X126985000Y-106410750D01*
X126826250Y-106252000D01*
X125977000Y-106252000D01*
X125977000Y-106272000D01*
X125760000Y-106272000D01*
X125760000Y-104873750D01*
X125977000Y-104873750D01*
X125977000Y-105998000D01*
X126826250Y-105998000D01*
X126985000Y-105839250D01*
X126988072Y-105350000D01*
X148011928Y-105350000D01*
X148015000Y-105839250D01*
X148173750Y-105998000D01*
X149023000Y-105998000D01*
X149023000Y-104873750D01*
X148864250Y-104715000D01*
X148650000Y-104711928D01*
X148525518Y-104724188D01*
X148405820Y-104760498D01*
X148295506Y-104819463D01*
X148198815Y-104898815D01*
X148119463Y-104995506D01*
X148060498Y-105105820D01*
X148024188Y-105225518D01*
X148011928Y-105350000D01*
X126988072Y-105350000D01*
X126975812Y-105225518D01*
X126939502Y-105105820D01*
X126880537Y-104995506D01*
X126801185Y-104898815D01*
X126704494Y-104819463D01*
X126594180Y-104760498D01*
X126474482Y-104724188D01*
X126350000Y-104711928D01*
X126135750Y-104715000D01*
X125977000Y-104873750D01*
X125760000Y-104873750D01*
X125760000Y-101002000D01*
X125977000Y-101002000D01*
X125977000Y-102126250D01*
X126135750Y-102285000D01*
X126350000Y-102288072D01*
X126474482Y-102275812D01*
X126594180Y-102239502D01*
X126704494Y-102180537D01*
X126801185Y-102101185D01*
X126880537Y-102004494D01*
X126939502Y-101894180D01*
X126975812Y-101774482D01*
X126988072Y-101650000D01*
X126985000Y-101160750D01*
X126826250Y-101002000D01*
X125977000Y-101002000D01*
X125760000Y-101002000D01*
X125760000Y-100728000D01*
X125977000Y-100728000D01*
X125977000Y-100748000D01*
X126826250Y-100748000D01*
X126985000Y-100589250D01*
X126988072Y-100100000D01*
X126975812Y-99975518D01*
X126939577Y-99856066D01*
X126994180Y-99839502D01*
X127104494Y-99780537D01*
X127201185Y-99701185D01*
X127240000Y-99653888D01*
X127240001Y-101454463D01*
X127171414Y-101557111D01*
X127100932Y-101727271D01*
X127065000Y-101907911D01*
X127065000Y-102092089D01*
X127100932Y-102272729D01*
X127171414Y-102442889D01*
X127273738Y-102596028D01*
X127403972Y-102726262D01*
X127557111Y-102828586D01*
X127727271Y-102899068D01*
X127907911Y-102935000D01*
X128092089Y-102935000D01*
X128272729Y-102899068D01*
X128442889Y-102828586D01*
X128596028Y-102726262D01*
X128726262Y-102596028D01*
X128828586Y-102442889D01*
X128899068Y-102272729D01*
X128935000Y-102092089D01*
X128935000Y-101907911D01*
X128899068Y-101727271D01*
X128828586Y-101557111D01*
X128790426Y-101500000D01*
X131861928Y-101500000D01*
X131874188Y-101624482D01*
X131910498Y-101744180D01*
X131969463Y-101854494D01*
X132048815Y-101951185D01*
X132145506Y-102030537D01*
X132255820Y-102089502D01*
X132375518Y-102125812D01*
X132500000Y-102138072D01*
X137214250Y-102135000D01*
X137373000Y-101976250D01*
X137373000Y-96627000D01*
X137627000Y-96627000D01*
X137627000Y-101976250D01*
X137785750Y-102135000D01*
X142500000Y-102138072D01*
X142624482Y-102125812D01*
X142744180Y-102089502D01*
X142854494Y-102030537D01*
X142951185Y-101951185D01*
X143030537Y-101854494D01*
X143089502Y-101744180D01*
X143125812Y-101624482D01*
X143138072Y-101500000D01*
X143135000Y-96785750D01*
X142976250Y-96627000D01*
X137627000Y-96627000D01*
X137373000Y-96627000D01*
X132023750Y-96627000D01*
X131865000Y-96785750D01*
X131861928Y-101500000D01*
X128790426Y-101500000D01*
X128760000Y-101454465D01*
X128760000Y-99064801D01*
X131011003Y-96813799D01*
X131040001Y-96790001D01*
X131066332Y-96757917D01*
X131134974Y-96674277D01*
X131205546Y-96542247D01*
X131218361Y-96500000D01*
X131249003Y-96398986D01*
X131260000Y-96287333D01*
X131260000Y-96287323D01*
X131263676Y-96250000D01*
X131260000Y-96212677D01*
X131260000Y-95795535D01*
X131328586Y-95692889D01*
X131399068Y-95522729D01*
X131435000Y-95342089D01*
X131435000Y-95157911D01*
X131399068Y-94977271D01*
X131328586Y-94807111D01*
X131260000Y-94704465D01*
X131260000Y-92295535D01*
X131328586Y-92192889D01*
X131399068Y-92022729D01*
X131435000Y-91842089D01*
X131435000Y-91657911D01*
X131403590Y-91500000D01*
X131861928Y-91500000D01*
X131865000Y-96214250D01*
X132023750Y-96373000D01*
X137373000Y-96373000D01*
X137373000Y-91023750D01*
X137627000Y-91023750D01*
X137627000Y-96373000D01*
X142976250Y-96373000D01*
X143135000Y-96214250D01*
X143138072Y-91500000D01*
X143125812Y-91375518D01*
X143089502Y-91255820D01*
X143030537Y-91145506D01*
X142951185Y-91048815D01*
X142854494Y-90969463D01*
X142744180Y-90910498D01*
X142624482Y-90874188D01*
X142500000Y-90861928D01*
X137785750Y-90865000D01*
X137627000Y-91023750D01*
X137373000Y-91023750D01*
X137214250Y-90865000D01*
X132500000Y-90861928D01*
X132375518Y-90874188D01*
X132255820Y-90910498D01*
X132145506Y-90969463D01*
X132048815Y-91048815D01*
X131969463Y-91145506D01*
X131910498Y-91255820D01*
X131874188Y-91375518D01*
X131861928Y-91500000D01*
X131403590Y-91500000D01*
X131399068Y-91477271D01*
X131328586Y-91307111D01*
X131226262Y-91153972D01*
X131096028Y-91023738D01*
X130942889Y-90921414D01*
X130772729Y-90850932D01*
X130592089Y-90815000D01*
X130407911Y-90815000D01*
X130227271Y-90850932D01*
X130057111Y-90921414D01*
X129903972Y-91023738D01*
X129773738Y-91153972D01*
X129671414Y-91307111D01*
X129600932Y-91477271D01*
X129565000Y-91657911D01*
X129565000Y-91842089D01*
X129600932Y-92022729D01*
X129671414Y-92192889D01*
X129740000Y-92295536D01*
X129740001Y-94704463D01*
X129671414Y-94807111D01*
X129600932Y-94977271D01*
X129565000Y-95157911D01*
X129565000Y-95342089D01*
X129600932Y-95522729D01*
X129671414Y-95692889D01*
X129740001Y-95795536D01*
X129740001Y-95935197D01*
X127489003Y-98186196D01*
X127459999Y-98209999D01*
X127404871Y-98277174D01*
X127388072Y-98297643D01*
X127388072Y-93750000D01*
X127375812Y-93625518D01*
X127339502Y-93505820D01*
X127280537Y-93395506D01*
X127201185Y-93298815D01*
X127104494Y-93219463D01*
X126994180Y-93160498D01*
X126874482Y-93124188D01*
X126750000Y-93111928D01*
X124979571Y-93111928D01*
X125362611Y-92501309D01*
X126283592Y-91318256D01*
X127319413Y-90234331D01*
X128459469Y-89260632D01*
X129692088Y-88407126D01*
X131004648Y-87682554D01*
X132383711Y-87094334D01*
X133815158Y-86648488D01*
X135284332Y-86349581D01*
X136776192Y-86200673D01*
X138275463Y-86203290D01*
X138275463Y-86203290D01*
G37*
X138275463Y-86203290D02*
X139766794Y-86357404D01*
X141234916Y-86661438D01*
X142664798Y-87112278D01*
X144041799Y-87705308D01*
X145351822Y-88434458D01*
X146581454Y-89292261D01*
X147718104Y-90269934D01*
X148750135Y-91357468D01*
X149666981Y-92543728D01*
X150020654Y-93111928D01*
X148250000Y-93111928D01*
X148125518Y-93124188D01*
X148005820Y-93160498D01*
X147895506Y-93219463D01*
X147798815Y-93298815D01*
X147719463Y-93395506D01*
X147660498Y-93505820D01*
X147624188Y-93625518D01*
X147611928Y-93750000D01*
X147611928Y-94289638D01*
X147596028Y-94273738D01*
X147442889Y-94171414D01*
X147272729Y-94100932D01*
X147092089Y-94065000D01*
X146907911Y-94065000D01*
X146727271Y-94100932D01*
X146557111Y-94171414D01*
X146403972Y-94273738D01*
X146273738Y-94403972D01*
X146171414Y-94557111D01*
X146100932Y-94727271D01*
X146065000Y-94907911D01*
X146065000Y-95092089D01*
X146100932Y-95272729D01*
X146171414Y-95442889D01*
X146240000Y-95545536D01*
X146240001Y-100848400D01*
X146227271Y-100850932D01*
X146057111Y-100921414D01*
X145903972Y-101023738D01*
X145773738Y-101153972D01*
X145671414Y-101307111D01*
X145600932Y-101477271D01*
X145565000Y-101657911D01*
X145565000Y-101842089D01*
X145600932Y-102022729D01*
X145671414Y-102192889D01*
X145773738Y-102346028D01*
X145903972Y-102476262D01*
X146057111Y-102578586D01*
X146227271Y-102649068D01*
X146407911Y-102685000D01*
X146592089Y-102685000D01*
X146772729Y-102649068D01*
X146942889Y-102578586D01*
X147096028Y-102476262D01*
X147226262Y-102346028D01*
X147328586Y-102192889D01*
X147399068Y-102022729D01*
X147423153Y-101901648D01*
X147510997Y-101813804D01*
X147540001Y-101790001D01*
X147634974Y-101674276D01*
X147647949Y-101650000D01*
X148011928Y-101650000D01*
X148024188Y-101774482D01*
X148060498Y-101894180D01*
X148119463Y-102004494D01*
X148198815Y-102101185D01*
X148295506Y-102180537D01*
X148405820Y-102239502D01*
X148525518Y-102275812D01*
X148650000Y-102288072D01*
X148864250Y-102285000D01*
X149023000Y-102126250D01*
X149023000Y-101002000D01*
X148173750Y-101002000D01*
X148015000Y-101160750D01*
X148011928Y-101650000D01*
X147647949Y-101650000D01*
X147705546Y-101542247D01*
X147749003Y-101398986D01*
X147760000Y-101287333D01*
X147760000Y-101287325D01*
X147763676Y-101250000D01*
X147760000Y-101212675D01*
X147760000Y-99653889D01*
X147798815Y-99701185D01*
X147895506Y-99780537D01*
X148005820Y-99839502D01*
X148060423Y-99856066D01*
X148024188Y-99975518D01*
X148011928Y-100100000D01*
X148015000Y-100589250D01*
X148173750Y-100748000D01*
X149023000Y-100748000D01*
X149023000Y-100728000D01*
X149240001Y-100728000D01*
X149240000Y-106272000D01*
X149023000Y-106272000D01*
X149023000Y-106252000D01*
X148173750Y-106252000D01*
X148015000Y-106410750D01*
X148011928Y-106900000D01*
X148024188Y-107024482D01*
X148060498Y-107144180D01*
X148119463Y-107254494D01*
X148198815Y-107351185D01*
X148295506Y-107430537D01*
X148405820Y-107489502D01*
X148525518Y-107525812D01*
X148650000Y-107538072D01*
X148864250Y-107535000D01*
X149022998Y-107376252D01*
X149022998Y-107402200D01*
X147235199Y-109190000D01*
X146990038Y-109190000D01*
X146964502Y-109105820D01*
X146907939Y-109000000D01*
X146964502Y-108894180D01*
X147000812Y-108774482D01*
X147013072Y-108650000D01*
X147010000Y-108335750D01*
X146851250Y-108177000D01*
X146127000Y-108177000D01*
X146127000Y-108197000D01*
X145873000Y-108197000D01*
X145873000Y-108177000D01*
X145853000Y-108177000D01*
X145853000Y-107923000D01*
X145873000Y-107923000D01*
X145873000Y-106973750D01*
X146127000Y-106973750D01*
X146127000Y-107923000D01*
X146851250Y-107923000D01*
X147010000Y-107764250D01*
X147013072Y-107450000D01*
X147000812Y-107325518D01*
X146964502Y-107205820D01*
X146905537Y-107095506D01*
X146826185Y-106998815D01*
X146729494Y-106919463D01*
X146619180Y-106860498D01*
X146499482Y-106824188D01*
X146375000Y-106811928D01*
X146285750Y-106815000D01*
X146127000Y-106973750D01*
X145873000Y-106973750D01*
X145714250Y-106815000D01*
X145625000Y-106811928D01*
X145500518Y-106824188D01*
X145380820Y-106860498D01*
X145270506Y-106919463D01*
X145260000Y-106928085D01*
X145260000Y-106872998D01*
X145101252Y-106872998D01*
X145260000Y-106714250D01*
X145263072Y-106400000D01*
X145250812Y-106275518D01*
X145214502Y-106155820D01*
X145155537Y-106045506D01*
X145076185Y-105948815D01*
X144979494Y-105869463D01*
X144869180Y-105810498D01*
X144749482Y-105774188D01*
X144625000Y-105761928D01*
X144535750Y-105765000D01*
X144377000Y-105923750D01*
X144377000Y-106873000D01*
X144397000Y-106873000D01*
X144397000Y-107127000D01*
X144377000Y-107127000D01*
X144377000Y-107147000D01*
X144123000Y-107147000D01*
X144123000Y-107127000D01*
X143398750Y-107127000D01*
X143240000Y-107285750D01*
X143236928Y-107600000D01*
X143246120Y-107693328D01*
X143212333Y-107690000D01*
X143212322Y-107690000D01*
X143175000Y-107686324D01*
X143137678Y-107690000D01*
X141152603Y-107690000D01*
X141144180Y-107685498D01*
X141024482Y-107649188D01*
X140900000Y-107636928D01*
X140600000Y-107636928D01*
X140493571Y-107647410D01*
X140431750Y-107640000D01*
X140399503Y-107672247D01*
X140355820Y-107685498D01*
X140248420Y-107742905D01*
X140163045Y-107693671D01*
X140100840Y-107672590D01*
X140068250Y-107640000D01*
X140000000Y-107648181D01*
X139931750Y-107640000D01*
X139899160Y-107672590D01*
X139836955Y-107693671D01*
X139751580Y-107742905D01*
X139644180Y-107685498D01*
X139600497Y-107672247D01*
X139568250Y-107640000D01*
X139506429Y-107647410D01*
X139400000Y-107636928D01*
X139100000Y-107636928D01*
X138975518Y-107649188D01*
X138855820Y-107685498D01*
X138847397Y-107690000D01*
X138587322Y-107690000D01*
X138549999Y-107686324D01*
X138512676Y-107690000D01*
X138512667Y-107690000D01*
X138401014Y-107700997D01*
X138257753Y-107744454D01*
X138125724Y-107815026D01*
X138125722Y-107815027D01*
X138125723Y-107815027D01*
X138038996Y-107886201D01*
X138038992Y-107886205D01*
X138009999Y-107909999D01*
X137986205Y-107938992D01*
X135823997Y-110101202D01*
X135794999Y-110125000D01*
X135771201Y-110153998D01*
X135771200Y-110153999D01*
X135700025Y-110240725D01*
X135629453Y-110372755D01*
X135608771Y-110440937D01*
X135585997Y-110516015D01*
X135583635Y-110540000D01*
X135571323Y-110665001D01*
X135575000Y-110702333D01*
X135575000Y-111190531D01*
X135398166Y-111161439D01*
X134799605Y-111760000D01*
X135398166Y-112358561D01*
X135592547Y-112326583D01*
X135625743Y-112436015D01*
X135629453Y-112448247D01*
X135700025Y-112580277D01*
X135735644Y-112623678D01*
X135794998Y-112696002D01*
X135824002Y-112719805D01*
X136200195Y-113095998D01*
X136223998Y-113125002D01*
X136293776Y-113182267D01*
X136339723Y-113219975D01*
X136471752Y-113290547D01*
X136615013Y-113334004D01*
X136763999Y-113348678D01*
X136801332Y-113345001D01*
X137520200Y-113345001D01*
X137991404Y-113816205D01*
X137913971Y-113932092D01*
X137843489Y-114102252D01*
X137819404Y-114223332D01*
X137552737Y-114490000D01*
X134389802Y-114490000D01*
X132646399Y-112746597D01*
X132803520Y-112641612D01*
X132906966Y-112538166D01*
X134021439Y-112538166D01*
X134056550Y-112751588D01*
X134260826Y-112842458D01*
X134478905Y-112891731D01*
X134702406Y-112897511D01*
X134922740Y-112859577D01*
X135131440Y-112779387D01*
X135183450Y-112751588D01*
X135218561Y-112538166D01*
X134620000Y-111939605D01*
X134021439Y-112538166D01*
X132906966Y-112538166D01*
X132961612Y-112483520D01*
X133085824Y-112297624D01*
X133127294Y-112197507D01*
X133401649Y-111923153D01*
X133493254Y-111904931D01*
X133520423Y-112062740D01*
X133600613Y-112271440D01*
X133628412Y-112323450D01*
X133841834Y-112358561D01*
X134440395Y-111760000D01*
X134426253Y-111745858D01*
X134605858Y-111566253D01*
X134620000Y-111580395D01*
X135218561Y-110981834D01*
X135183450Y-110768412D01*
X134979174Y-110677542D01*
X134761095Y-110628269D01*
X134537594Y-110622489D01*
X134317260Y-110660423D01*
X134148274Y-110725354D01*
X134078586Y-110557111D01*
X133976262Y-110403972D01*
X133846028Y-110273738D01*
X133692889Y-110171414D01*
X133522729Y-110100932D01*
X133513072Y-110099011D01*
X133513072Y-109786729D01*
X135489794Y-107810008D01*
X136954465Y-107810008D01*
X137057111Y-107878594D01*
X137227271Y-107949076D01*
X137407911Y-107985008D01*
X137592089Y-107985008D01*
X137772729Y-107949076D01*
X137942889Y-107878594D01*
X138096028Y-107776270D01*
X138226262Y-107646036D01*
X138328586Y-107492897D01*
X138399068Y-107322737D01*
X138435000Y-107142097D01*
X138435000Y-106957919D01*
X138399068Y-106777279D01*
X138328586Y-106607119D01*
X138226262Y-106453980D01*
X138172282Y-106400000D01*
X143236928Y-106400000D01*
X143240000Y-106714250D01*
X143398750Y-106873000D01*
X144123000Y-106873000D01*
X144123000Y-105923750D01*
X143964250Y-105765000D01*
X143875000Y-105761928D01*
X143750518Y-105774188D01*
X143630820Y-105810498D01*
X143520506Y-105869463D01*
X143423815Y-105948815D01*
X143344463Y-106045506D01*
X143285498Y-106155820D01*
X143249188Y-106275518D01*
X143236928Y-106400000D01*
X138172282Y-106400000D01*
X138096028Y-106323746D01*
X137942889Y-106221422D01*
X137772729Y-106150940D01*
X137592089Y-106115008D01*
X137407911Y-106115008D01*
X137227271Y-106150940D01*
X137057111Y-106221422D01*
X136954465Y-106290008D01*
X135212315Y-106290008D01*
X135174992Y-106286332D01*
X135137669Y-106290008D01*
X135137659Y-106290008D01*
X135026006Y-106301005D01*
X134882745Y-106344462D01*
X134750715Y-106415034D01*
X134703260Y-106453980D01*
X134634991Y-106510007D01*
X134611193Y-106539005D01*
X133511225Y-107638974D01*
X133513072Y-107450000D01*
X133500812Y-107325518D01*
X133464502Y-107205820D01*
X133405537Y-107095506D01*
X133326185Y-106998815D01*
X133229494Y-106919463D01*
X133119180Y-106860498D01*
X132999482Y-106824188D01*
X132875000Y-106811928D01*
X132785750Y-106815000D01*
X132627000Y-106973750D01*
X132627000Y-107923000D01*
X132647000Y-107923000D01*
X132647000Y-108177000D01*
X132627000Y-108177000D01*
X132627000Y-108197000D01*
X132373000Y-108197000D01*
X132373000Y-108177000D01*
X131648750Y-108177000D01*
X131490000Y-108335750D01*
X131486928Y-108650000D01*
X131499188Y-108774482D01*
X131535498Y-108894180D01*
X131592061Y-109000000D01*
X131535498Y-109105820D01*
X131509962Y-109190000D01*
X129990038Y-109190000D01*
X129964502Y-109105820D01*
X129907939Y-109000000D01*
X129964502Y-108894180D01*
X130000812Y-108774482D01*
X130013072Y-108650000D01*
X130010000Y-108335750D01*
X129851250Y-108177000D01*
X129127000Y-108177000D01*
X129127000Y-108197000D01*
X128873000Y-108197000D01*
X128873000Y-108177000D01*
X128148750Y-108177000D01*
X127990000Y-108335750D01*
X127986928Y-108650000D01*
X127999188Y-108774482D01*
X128035498Y-108894180D01*
X128092061Y-109000000D01*
X128035498Y-109105820D01*
X128011089Y-109186287D01*
X127414957Y-108590156D01*
X127442889Y-108578586D01*
X127596028Y-108476262D01*
X127726262Y-108346028D01*
X127828586Y-108192889D01*
X127899068Y-108022729D01*
X127935000Y-107842089D01*
X127935000Y-107657911D01*
X127899068Y-107477271D01*
X127887773Y-107450000D01*
X127986928Y-107450000D01*
X127990000Y-107764250D01*
X128148750Y-107923000D01*
X128873000Y-107923000D01*
X128873000Y-106973750D01*
X129127000Y-106973750D01*
X129127000Y-107923000D01*
X129851250Y-107923000D01*
X130010000Y-107764250D01*
X130013072Y-107450000D01*
X131486928Y-107450000D01*
X131490000Y-107764250D01*
X131648750Y-107923000D01*
X132373000Y-107923000D01*
X132373000Y-106973750D01*
X132214250Y-106815000D01*
X132125000Y-106811928D01*
X132000518Y-106824188D01*
X131880820Y-106860498D01*
X131770506Y-106919463D01*
X131673815Y-106998815D01*
X131594463Y-107095506D01*
X131535498Y-107205820D01*
X131499188Y-107325518D01*
X131486928Y-107450000D01*
X130013072Y-107450000D01*
X130000812Y-107325518D01*
X129964502Y-107205820D01*
X129905537Y-107095506D01*
X129826185Y-106998815D01*
X129729494Y-106919463D01*
X129619180Y-106860498D01*
X129499482Y-106824188D01*
X129375000Y-106811928D01*
X129285750Y-106815000D01*
X129127000Y-106973750D01*
X128873000Y-106973750D01*
X128714250Y-106815000D01*
X128625000Y-106811928D01*
X128500518Y-106824188D01*
X128380820Y-106860498D01*
X128270506Y-106919463D01*
X128173815Y-106998815D01*
X128094463Y-107095506D01*
X128035498Y-107205820D01*
X127999188Y-107325518D01*
X127986928Y-107450000D01*
X127887773Y-107450000D01*
X127828586Y-107307111D01*
X127726262Y-107153972D01*
X127596028Y-107023738D01*
X127442889Y-106921414D01*
X127272729Y-106850932D01*
X127092089Y-106815000D01*
X126987538Y-106815000D01*
X126985000Y-106410750D01*
X126826250Y-106252000D01*
X125977000Y-106252000D01*
X125977000Y-106272000D01*
X125760000Y-106272000D01*
X125760000Y-104873750D01*
X125977000Y-104873750D01*
X125977000Y-105998000D01*
X126826250Y-105998000D01*
X126985000Y-105839250D01*
X126988072Y-105350000D01*
X148011928Y-105350000D01*
X148015000Y-105839250D01*
X148173750Y-105998000D01*
X149023000Y-105998000D01*
X149023000Y-104873750D01*
X148864250Y-104715000D01*
X148650000Y-104711928D01*
X148525518Y-104724188D01*
X148405820Y-104760498D01*
X148295506Y-104819463D01*
X148198815Y-104898815D01*
X148119463Y-104995506D01*
X148060498Y-105105820D01*
X148024188Y-105225518D01*
X148011928Y-105350000D01*
X126988072Y-105350000D01*
X126975812Y-105225518D01*
X126939502Y-105105820D01*
X126880537Y-104995506D01*
X126801185Y-104898815D01*
X126704494Y-104819463D01*
X126594180Y-104760498D01*
X126474482Y-104724188D01*
X126350000Y-104711928D01*
X126135750Y-104715000D01*
X125977000Y-104873750D01*
X125760000Y-104873750D01*
X125760000Y-101002000D01*
X125977000Y-101002000D01*
X125977000Y-102126250D01*
X126135750Y-102285000D01*
X126350000Y-102288072D01*
X126474482Y-102275812D01*
X126594180Y-102239502D01*
X126704494Y-102180537D01*
X126801185Y-102101185D01*
X126880537Y-102004494D01*
X126939502Y-101894180D01*
X126975812Y-101774482D01*
X126988072Y-101650000D01*
X126985000Y-101160750D01*
X126826250Y-101002000D01*
X125977000Y-101002000D01*
X125760000Y-101002000D01*
X125760000Y-100728000D01*
X125977000Y-100728000D01*
X125977000Y-100748000D01*
X126826250Y-100748000D01*
X126985000Y-100589250D01*
X126988072Y-100100000D01*
X126975812Y-99975518D01*
X126939577Y-99856066D01*
X126994180Y-99839502D01*
X127104494Y-99780537D01*
X127201185Y-99701185D01*
X127240000Y-99653888D01*
X127240001Y-101454463D01*
X127171414Y-101557111D01*
X127100932Y-101727271D01*
X127065000Y-101907911D01*
X127065000Y-102092089D01*
X127100932Y-102272729D01*
X127171414Y-102442889D01*
X127273738Y-102596028D01*
X127403972Y-102726262D01*
X127557111Y-102828586D01*
X127727271Y-102899068D01*
X127907911Y-102935000D01*
X128092089Y-102935000D01*
X128272729Y-102899068D01*
X128442889Y-102828586D01*
X128596028Y-102726262D01*
X128726262Y-102596028D01*
X128828586Y-102442889D01*
X128899068Y-102272729D01*
X128935000Y-102092089D01*
X128935000Y-101907911D01*
X128899068Y-101727271D01*
X128828586Y-101557111D01*
X128790426Y-101500000D01*
X131861928Y-101500000D01*
X131874188Y-101624482D01*
X131910498Y-101744180D01*
X131969463Y-101854494D01*
X132048815Y-101951185D01*
X132145506Y-102030537D01*
X132255820Y-102089502D01*
X132375518Y-102125812D01*
X132500000Y-102138072D01*
X137214250Y-102135000D01*
X137373000Y-101976250D01*
X137373000Y-96627000D01*
X137627000Y-96627000D01*
X137627000Y-101976250D01*
X137785750Y-102135000D01*
X142500000Y-102138072D01*
X142624482Y-102125812D01*
X142744180Y-102089502D01*
X142854494Y-102030537D01*
X142951185Y-101951185D01*
X143030537Y-101854494D01*
X143089502Y-101744180D01*
X143125812Y-101624482D01*
X143138072Y-101500000D01*
X143135000Y-96785750D01*
X142976250Y-96627000D01*
X137627000Y-96627000D01*
X137373000Y-96627000D01*
X132023750Y-96627000D01*
X131865000Y-96785750D01*
X131861928Y-101500000D01*
X128790426Y-101500000D01*
X128760000Y-101454465D01*
X128760000Y-99064801D01*
X131011003Y-96813799D01*
X131040001Y-96790001D01*
X131066332Y-96757917D01*
X131134974Y-96674277D01*
X131205546Y-96542247D01*
X131218361Y-96500000D01*
X131249003Y-96398986D01*
X131260000Y-96287333D01*
X131260000Y-96287323D01*
X131263676Y-96250000D01*
X131260000Y-96212677D01*
X131260000Y-95795535D01*
X131328586Y-95692889D01*
X131399068Y-95522729D01*
X131435000Y-95342089D01*
X131435000Y-95157911D01*
X131399068Y-94977271D01*
X131328586Y-94807111D01*
X131260000Y-94704465D01*
X131260000Y-92295535D01*
X131328586Y-92192889D01*
X131399068Y-92022729D01*
X131435000Y-91842089D01*
X131435000Y-91657911D01*
X131403590Y-91500000D01*
X131861928Y-91500000D01*
X131865000Y-96214250D01*
X132023750Y-96373000D01*
X137373000Y-96373000D01*
X137373000Y-91023750D01*
X137627000Y-91023750D01*
X137627000Y-96373000D01*
X142976250Y-96373000D01*
X143135000Y-96214250D01*
X143138072Y-91500000D01*
X143125812Y-91375518D01*
X143089502Y-91255820D01*
X143030537Y-91145506D01*
X142951185Y-91048815D01*
X142854494Y-90969463D01*
X142744180Y-90910498D01*
X142624482Y-90874188D01*
X142500000Y-90861928D01*
X137785750Y-90865000D01*
X137627000Y-91023750D01*
X137373000Y-91023750D01*
X137214250Y-90865000D01*
X132500000Y-90861928D01*
X132375518Y-90874188D01*
X132255820Y-90910498D01*
X132145506Y-90969463D01*
X132048815Y-91048815D01*
X131969463Y-91145506D01*
X131910498Y-91255820D01*
X131874188Y-91375518D01*
X131861928Y-91500000D01*
X131403590Y-91500000D01*
X131399068Y-91477271D01*
X131328586Y-91307111D01*
X131226262Y-91153972D01*
X131096028Y-91023738D01*
X130942889Y-90921414D01*
X130772729Y-90850932D01*
X130592089Y-90815000D01*
X130407911Y-90815000D01*
X130227271Y-90850932D01*
X130057111Y-90921414D01*
X129903972Y-91023738D01*
X129773738Y-91153972D01*
X129671414Y-91307111D01*
X129600932Y-91477271D01*
X129565000Y-91657911D01*
X129565000Y-91842089D01*
X129600932Y-92022729D01*
X129671414Y-92192889D01*
X129740000Y-92295536D01*
X129740001Y-94704463D01*
X129671414Y-94807111D01*
X129600932Y-94977271D01*
X129565000Y-95157911D01*
X129565000Y-95342089D01*
X129600932Y-95522729D01*
X129671414Y-95692889D01*
X129740001Y-95795536D01*
X129740001Y-95935197D01*
X127489003Y-98186196D01*
X127459999Y-98209999D01*
X127404871Y-98277174D01*
X127388072Y-98297643D01*
X127388072Y-93750000D01*
X127375812Y-93625518D01*
X127339502Y-93505820D01*
X127280537Y-93395506D01*
X127201185Y-93298815D01*
X127104494Y-93219463D01*
X126994180Y-93160498D01*
X126874482Y-93124188D01*
X126750000Y-93111928D01*
X124979571Y-93111928D01*
X125362611Y-92501309D01*
X126283592Y-91318256D01*
X127319413Y-90234331D01*
X128459469Y-89260632D01*
X129692088Y-88407126D01*
X131004648Y-87682554D01*
X132383711Y-87094334D01*
X133815158Y-86648488D01*
X135284332Y-86349581D01*
X136776192Y-86200673D01*
X138275463Y-86203290D01*
M02*
