G04 #@! TF.FileFunction,Soldermask,Bot*
%FSLAX46Y46*%
G04 Gerber Fmt 4.6, Leading zero omitted, Abs format (unit mm)*
G04 Created by KiCad (PCBNEW 4.0.7) date 08/25/18 22:55:38*
%MOMM*%
%LPD*%
G01*
G04 APERTURE LIST*
%ADD10C,0.100000*%
%ADD11R,1.200000X0.750000*%
%ADD12R,0.800000X0.800000*%
%ADD13R,0.500000X0.900000*%
%ADD14R,0.250000X0.700000*%
%ADD15R,0.700000X0.250000*%
%ADD16R,1.725000X1.725000*%
%ADD17R,1.050000X1.100000*%
G04 APERTURE END LIST*
D10*
D11*
X141550000Y-102500000D03*
X143450000Y-102500000D03*
X133450000Y-102500000D03*
X131550000Y-102500000D03*
D12*
X145800000Y-90500000D03*
X144200000Y-90500000D03*
X145800000Y-93500000D03*
X144200000Y-93500000D03*
X145800000Y-96500000D03*
X144200000Y-96500000D03*
X145800000Y-99500000D03*
X144200000Y-99500000D03*
X140800000Y-90500000D03*
X139200000Y-90500000D03*
X140800000Y-93500000D03*
X139200000Y-93500000D03*
X140800000Y-96500000D03*
X139200000Y-96500000D03*
X140800000Y-99500000D03*
X139200000Y-99500000D03*
X135800000Y-90500000D03*
X134200000Y-90500000D03*
X135800000Y-93500000D03*
X134200000Y-93500000D03*
X135800000Y-96500000D03*
X134200000Y-96500000D03*
X135800000Y-99500000D03*
X134200000Y-99500000D03*
X130800000Y-90500000D03*
X129200000Y-90500000D03*
X130800000Y-93500000D03*
X129200000Y-93500000D03*
X130800000Y-96500000D03*
X129200000Y-96500000D03*
X130800000Y-99500000D03*
X129200000Y-99500000D03*
D13*
X126250000Y-96500000D03*
X124750000Y-96500000D03*
X126250000Y-99500000D03*
X124750000Y-99500000D03*
X148750000Y-96500000D03*
X150250000Y-96500000D03*
X148750000Y-99500000D03*
X150250000Y-99500000D03*
D14*
X135750000Y-108600000D03*
X136250000Y-108600000D03*
X136750000Y-108600000D03*
X137250000Y-108600000D03*
X137750000Y-108600000D03*
X138250000Y-108600000D03*
X138750000Y-108600000D03*
X139250000Y-108600000D03*
D15*
X139900000Y-109250000D03*
X139900000Y-109750000D03*
X139900000Y-110250000D03*
X139900000Y-110750000D03*
X139900000Y-111250000D03*
X139900000Y-111750000D03*
X139900000Y-112250000D03*
X139900000Y-112750000D03*
D14*
X139250000Y-113400000D03*
X138750000Y-113400000D03*
X138250000Y-113400000D03*
X137750000Y-113400000D03*
X137250000Y-113400000D03*
X136750000Y-113400000D03*
X136250000Y-113400000D03*
X135750000Y-113400000D03*
D15*
X135100000Y-112750000D03*
X135100000Y-112250000D03*
X135100000Y-111750000D03*
X135100000Y-111250000D03*
X135100000Y-110750000D03*
X135100000Y-110250000D03*
X135100000Y-109750000D03*
X135100000Y-109250000D03*
D16*
X138362500Y-111862500D03*
X136637500Y-111862500D03*
X138362500Y-110137500D03*
X136637500Y-110137500D03*
D17*
X136575000Y-102500000D03*
X138425000Y-102500000D03*
M02*
