G04 #@! TF.GenerationSoftware,KiCad,Pcbnew,5.1.5*
G04 #@! TF.CreationDate,2020-03-31T20:49:17+02:00*
G04 #@! TF.ProjectId,Watch,57617463-682e-46b6-9963-61645f706362,rev?*
G04 #@! TF.SameCoordinates,Original*
G04 #@! TF.FileFunction,Soldermask,Top*
G04 #@! TF.FilePolarity,Negative*
%FSLAX46Y46*%
G04 Gerber Fmt 4.6, Leading zero omitted, Abs format (unit mm)*
G04 Created by KiCad (PCBNEW 5.1.5) date 2020-03-31 20:49:17*
%MOMM*%
%LPD*%
G04 APERTURE LIST*
%ADD10C,1.000000*%
%ADD11R,0.300000X0.350000*%
%ADD12R,2.500000X5.500000*%
%ADD13R,10.000000X10.000000*%
%ADD14R,0.750000X1.200000*%
%ADD15R,1.000000X1.550000*%
G04 APERTURE END LIST*
D10*
X145542000Y-105664000D03*
X147320000Y-103886000D03*
X130810000Y-106680000D03*
X128905000Y-105410000D03*
X127635000Y-104140000D03*
D11*
X139250000Y-110000000D03*
X139750000Y-110000000D03*
X140250000Y-110000000D03*
X140750000Y-110000000D03*
X140775000Y-109475000D03*
X140775000Y-108975000D03*
X140750000Y-108450000D03*
X140250000Y-108450000D03*
X139750000Y-108450000D03*
X139250000Y-108450000D03*
X139225000Y-108975000D03*
X139225000Y-109475000D03*
D12*
X149500000Y-96500000D03*
X125500000Y-96500000D03*
D13*
X137500000Y-96500000D03*
D14*
X146000000Y-109950000D03*
X146000000Y-108050000D03*
X144250000Y-108900000D03*
X144250000Y-107000000D03*
X132500000Y-109950000D03*
X132500000Y-108050000D03*
X129000000Y-109950000D03*
X129000000Y-108050000D03*
D10*
X139700000Y-111760000D03*
X137160000Y-111760000D03*
X132080000Y-111760000D03*
X144780000Y-111760000D03*
X142240000Y-111760000D03*
X134620000Y-111760000D03*
D15*
X149150000Y-106125000D03*
X149150000Y-100875000D03*
X150850000Y-100875000D03*
X150850000Y-106125000D03*
X125850000Y-100875000D03*
X125850000Y-106125000D03*
X124150000Y-106125000D03*
X124150000Y-100875000D03*
M02*
