G04 #@! TF.FileFunction,Copper,L2,Bot,Signal*
%FSLAX46Y46*%
G04 Gerber Fmt 4.6, Leading zero omitted, Abs format (unit mm)*
G04 Created by KiCad (PCBNEW 4.0.7) date 07/30/18 21:39:11*
%MOMM*%
%LPD*%
G01*
G04 APERTURE LIST*
%ADD10C,0.100000*%
%ADD11R,4.000000X5.500000*%
%ADD12R,10.000000X10.000000*%
%ADD13C,1.000000*%
%ADD14R,1.000000X1.550000*%
%ADD15R,1.200000X0.750000*%
%ADD16C,0.600000*%
%ADD17C,0.250000*%
%ADD18C,0.254000*%
G04 APERTURE END LIST*
D10*
X166557127Y-106045000D02*
G75*
G03X166557127Y-106045000I-17332127J0D01*
G01*
D11*
X136525000Y-99695000D03*
X161925000Y-99695000D03*
D12*
X149225000Y-99695000D03*
D13*
X156845000Y-118745000D03*
X155575000Y-120015000D03*
X159385000Y-116205000D03*
X160655000Y-114935000D03*
X158115000Y-117475000D03*
X161925000Y-113665000D03*
D14*
X134835000Y-109940000D03*
X134835000Y-104690000D03*
X133135000Y-104690000D03*
X133135000Y-109940000D03*
X163615000Y-104690000D03*
X163615000Y-109940000D03*
X165315000Y-109940000D03*
X165315000Y-104690000D03*
D15*
X140015000Y-109855000D03*
X138115000Y-109855000D03*
X143190000Y-112395000D03*
X141290000Y-112395000D03*
X158435000Y-109855000D03*
X160335000Y-109855000D03*
X155260000Y-112395000D03*
X157160000Y-112395000D03*
D16*
X149860000Y-110490000D03*
X161925000Y-111760000D03*
X135890000Y-111760000D03*
X142875000Y-97155000D03*
X142875000Y-103505000D03*
X142875000Y-107315000D03*
X156845000Y-97155000D03*
X156845000Y-102870000D03*
X137795000Y-112395000D03*
X147320000Y-120650000D03*
X153670000Y-116205000D03*
X137795000Y-111125000D03*
X133350000Y-107315000D03*
X165100000Y-107315000D03*
D17*
X140015000Y-109855000D02*
X140015000Y-108265000D01*
X137160000Y-105410000D02*
X137160000Y-100330000D01*
X140015000Y-108265000D02*
X137160000Y-105410000D01*
X137160000Y-100330000D02*
X136525000Y-99695000D01*
X155260000Y-112395000D02*
X155260000Y-114620000D01*
X155575000Y-114935000D02*
X160655000Y-114935000D01*
X155260000Y-114620000D02*
X155575000Y-114935000D01*
X158435000Y-109855000D02*
X158115000Y-109855000D01*
X158115000Y-109855000D02*
X156527500Y-108267500D01*
X158435000Y-109855000D02*
X157800000Y-109855000D01*
X157800000Y-109855000D02*
X155260000Y-112395000D01*
X143190000Y-112395000D02*
X143190000Y-112075000D01*
X143190000Y-112075000D02*
X140970000Y-109855000D01*
X140970000Y-109855000D02*
X140015000Y-109855000D01*
X161925000Y-99695000D02*
X161925000Y-97155000D01*
X161925000Y-97155000D02*
X155575000Y-90805000D01*
X142875000Y-90805000D02*
X155575000Y-90805000D01*
X136525000Y-97155000D02*
X142875000Y-90805000D01*
X136525000Y-99695000D02*
X136525000Y-97155000D01*
X137160000Y-99060000D02*
X136525000Y-99695000D01*
X161925000Y-99695000D02*
X161925000Y-102870000D01*
X154305000Y-110490000D02*
X149860000Y-110490000D01*
X161925000Y-102870000D02*
X156527500Y-108267500D01*
X156527500Y-108267500D02*
X156210000Y-108585000D01*
X156210000Y-108585000D02*
X154305000Y-110490000D01*
X141290000Y-112395000D02*
X140655000Y-112395000D01*
X140655000Y-112395000D02*
X138115000Y-109855000D01*
X149225000Y-99695000D02*
X152400000Y-99695000D01*
X161925000Y-111760000D02*
X163615000Y-110070000D01*
X163615000Y-110070000D02*
X163615000Y-109940000D01*
X135890000Y-111760000D02*
X134835000Y-110705000D01*
X134835000Y-109940000D02*
X134835000Y-110705000D01*
X149225000Y-99695000D02*
X149225000Y-103505000D01*
X142875000Y-103505000D02*
X142875000Y-97155000D01*
X142875000Y-107315000D02*
X142875000Y-103505000D01*
X156845000Y-102870000D02*
X156845000Y-97155000D01*
X144145000Y-118745000D02*
X156845000Y-118745000D01*
X137795000Y-112395000D02*
X144145000Y-118745000D01*
X154940000Y-120650000D02*
X155575000Y-120015000D01*
X154305000Y-120650000D02*
X154940000Y-120650000D01*
X147320000Y-120650000D02*
X154305000Y-120650000D01*
X153670000Y-116205000D02*
X159385000Y-116205000D01*
X144145000Y-117475000D02*
X158115000Y-117475000D01*
X137795000Y-111125000D02*
X144145000Y-117475000D01*
X133135000Y-109940000D02*
X133135000Y-107530000D01*
X133135000Y-107530000D02*
X133350000Y-107315000D01*
X133135000Y-107100000D02*
X133135000Y-104690000D01*
X133350000Y-107315000D02*
X133135000Y-107100000D01*
X165315000Y-109940000D02*
X165315000Y-107530000D01*
X165315000Y-107530000D02*
X165100000Y-107315000D01*
X165315000Y-107100000D02*
X165315000Y-104690000D01*
X165100000Y-107315000D02*
X165315000Y-107100000D01*
D18*
G36*
X164604940Y-99674420D02*
X165319660Y-103267560D01*
X164815000Y-103267560D01*
X164579683Y-103311838D01*
X164476354Y-103378328D01*
X164474699Y-103376673D01*
X164241310Y-103280000D01*
X163900750Y-103280000D01*
X163742000Y-103438750D01*
X163742000Y-104563000D01*
X163762000Y-104563000D01*
X163762000Y-104817000D01*
X163742000Y-104817000D01*
X163742000Y-105941250D01*
X163900750Y-106100000D01*
X164241310Y-106100000D01*
X164474699Y-106003327D01*
X164476068Y-106001958D01*
X164555000Y-106055890D01*
X164555000Y-106537912D01*
X164307808Y-106784673D01*
X164165162Y-107128201D01*
X164164838Y-107500167D01*
X164306883Y-107843943D01*
X164555000Y-108092493D01*
X164555000Y-108577721D01*
X164476354Y-108628328D01*
X164474699Y-108626673D01*
X164241310Y-108530000D01*
X163900750Y-108530000D01*
X163742000Y-108688750D01*
X163742000Y-109813000D01*
X163762000Y-109813000D01*
X163762000Y-110067000D01*
X163742000Y-110067000D01*
X163742000Y-111191250D01*
X163900750Y-111350000D01*
X164241310Y-111350000D01*
X164474699Y-111253327D01*
X164476068Y-111251958D01*
X164563110Y-111311431D01*
X164814445Y-111362328D01*
X164604940Y-112415580D01*
X160996296Y-117816296D01*
X155595580Y-121424940D01*
X149225000Y-122692127D01*
X142854420Y-121424940D01*
X137453704Y-117816296D01*
X133845060Y-112415580D01*
X133635557Y-111362335D01*
X133870317Y-111318162D01*
X133973646Y-111251672D01*
X133975301Y-111253327D01*
X134208690Y-111350000D01*
X134549250Y-111350000D01*
X134708000Y-111191250D01*
X134708000Y-110067000D01*
X134962000Y-110067000D01*
X134962000Y-111191250D01*
X135120750Y-111350000D01*
X135461310Y-111350000D01*
X135694699Y-111253327D01*
X135873327Y-111074698D01*
X135970000Y-110841309D01*
X135970000Y-110225750D01*
X135811250Y-110067000D01*
X134962000Y-110067000D01*
X134708000Y-110067000D01*
X134688000Y-110067000D01*
X134688000Y-109813000D01*
X134708000Y-109813000D01*
X134708000Y-108688750D01*
X134962000Y-108688750D01*
X134962000Y-109813000D01*
X135811250Y-109813000D01*
X135970000Y-109654250D01*
X135970000Y-109353690D01*
X136880000Y-109353690D01*
X136880000Y-109569250D01*
X137038750Y-109728000D01*
X137988000Y-109728000D01*
X137988000Y-109003750D01*
X137829250Y-108845000D01*
X137388691Y-108845000D01*
X137155302Y-108941673D01*
X136976673Y-109120301D01*
X136880000Y-109353690D01*
X135970000Y-109353690D01*
X135970000Y-109038691D01*
X135873327Y-108805302D01*
X135694699Y-108626673D01*
X135461310Y-108530000D01*
X135120750Y-108530000D01*
X134962000Y-108688750D01*
X134708000Y-108688750D01*
X134549250Y-108530000D01*
X134208690Y-108530000D01*
X133975301Y-108626673D01*
X133973932Y-108628042D01*
X133895000Y-108574110D01*
X133895000Y-108092088D01*
X134142192Y-107845327D01*
X134284838Y-107501799D01*
X134285162Y-107129833D01*
X134143117Y-106786057D01*
X133895000Y-106537507D01*
X133895000Y-106052279D01*
X133973646Y-106001672D01*
X133975301Y-106003327D01*
X134208690Y-106100000D01*
X134549250Y-106100000D01*
X134708000Y-105941250D01*
X134708000Y-104817000D01*
X134962000Y-104817000D01*
X134962000Y-105941250D01*
X135120750Y-106100000D01*
X135461310Y-106100000D01*
X135694699Y-106003327D01*
X135873327Y-105824698D01*
X135970000Y-105591309D01*
X135970000Y-104975750D01*
X135811250Y-104817000D01*
X134962000Y-104817000D01*
X134708000Y-104817000D01*
X134688000Y-104817000D01*
X134688000Y-104563000D01*
X134708000Y-104563000D01*
X134708000Y-103438750D01*
X134962000Y-103438750D01*
X134962000Y-104563000D01*
X135811250Y-104563000D01*
X135970000Y-104404250D01*
X135970000Y-103788691D01*
X135873327Y-103555302D01*
X135694699Y-103376673D01*
X135461310Y-103280000D01*
X135120750Y-103280000D01*
X134962000Y-103438750D01*
X134708000Y-103438750D01*
X134549250Y-103280000D01*
X134208690Y-103280000D01*
X133975301Y-103376673D01*
X133973932Y-103378042D01*
X133886890Y-103318569D01*
X133635000Y-103267560D01*
X133130340Y-103267560D01*
X133845060Y-99674420D01*
X133877560Y-99625780D01*
X133877560Y-102445000D01*
X133921838Y-102680317D01*
X134060910Y-102896441D01*
X134273110Y-103041431D01*
X134525000Y-103092440D01*
X136400000Y-103092440D01*
X136400000Y-105410000D01*
X136457852Y-105700839D01*
X136622599Y-105947401D01*
X139255000Y-108579802D01*
X139255000Y-108862666D01*
X139179683Y-108876838D01*
X139076354Y-108943329D01*
X139074698Y-108941673D01*
X138841309Y-108845000D01*
X138400750Y-108845000D01*
X138242000Y-109003750D01*
X138242000Y-109728000D01*
X138262000Y-109728000D01*
X138262000Y-109982000D01*
X138242000Y-109982000D01*
X138242000Y-110002000D01*
X137988000Y-110002000D01*
X137988000Y-109982000D01*
X137038750Y-109982000D01*
X136880000Y-110140750D01*
X136880000Y-110356310D01*
X136976673Y-110589699D01*
X136996599Y-110609625D01*
X136860162Y-110938201D01*
X136859838Y-111310167D01*
X137001883Y-111653943D01*
X137107710Y-111759954D01*
X137002808Y-111864673D01*
X136860162Y-112208201D01*
X136859838Y-112580167D01*
X137001883Y-112923943D01*
X137264673Y-113187192D01*
X137608201Y-113329838D01*
X137655077Y-113329879D01*
X143607599Y-119282401D01*
X143854161Y-119447148D01*
X144145000Y-119505000D01*
X154557811Y-119505000D01*
X154440197Y-119788244D01*
X154440108Y-119890000D01*
X147882463Y-119890000D01*
X147850327Y-119857808D01*
X147506799Y-119715162D01*
X147134833Y-119714838D01*
X146791057Y-119856883D01*
X146527808Y-120119673D01*
X146385162Y-120463201D01*
X146384838Y-120835167D01*
X146526883Y-121178943D01*
X146789673Y-121442192D01*
X147133201Y-121584838D01*
X147505167Y-121585162D01*
X147848943Y-121443117D01*
X147882118Y-121410000D01*
X154940000Y-121410000D01*
X155230839Y-121352148D01*
X155477401Y-121187401D01*
X155514854Y-121149948D01*
X155799775Y-121150197D01*
X156217086Y-120977767D01*
X156536645Y-120658765D01*
X156709803Y-120241756D01*
X156710119Y-119879883D01*
X157069775Y-119880197D01*
X157487086Y-119707767D01*
X157806645Y-119388765D01*
X157979803Y-118971756D01*
X157980119Y-118609883D01*
X158339775Y-118610197D01*
X158757086Y-118437767D01*
X159076645Y-118118765D01*
X159249803Y-117701756D01*
X159250119Y-117339883D01*
X159609775Y-117340197D01*
X160027086Y-117167767D01*
X160346645Y-116848765D01*
X160519803Y-116431756D01*
X160520119Y-116069883D01*
X160879775Y-116070197D01*
X161297086Y-115897767D01*
X161616645Y-115578765D01*
X161789803Y-115161756D01*
X161790108Y-114812394D01*
X162230375Y-114781217D01*
X162498352Y-114670217D01*
X162535499Y-114455104D01*
X161925000Y-113844605D01*
X161910858Y-113858748D01*
X161731253Y-113679143D01*
X161745395Y-113665000D01*
X162104605Y-113665000D01*
X162715104Y-114275499D01*
X162930217Y-114238352D01*
X163073112Y-113810028D01*
X163041217Y-113359625D01*
X162930217Y-113091648D01*
X162715104Y-113054501D01*
X162104605Y-113665000D01*
X161745395Y-113665000D01*
X161134896Y-113054501D01*
X160919783Y-113091648D01*
X160776888Y-113519972D01*
X160796727Y-113800123D01*
X160430225Y-113799803D01*
X160012914Y-113972233D01*
X159809793Y-114175000D01*
X156020000Y-114175000D01*
X156020000Y-113387334D01*
X156095317Y-113373162D01*
X156198646Y-113306671D01*
X156200302Y-113308327D01*
X156433691Y-113405000D01*
X156874250Y-113405000D01*
X157033000Y-113246250D01*
X157033000Y-112522000D01*
X157287000Y-112522000D01*
X157287000Y-113246250D01*
X157445750Y-113405000D01*
X157886309Y-113405000D01*
X158119698Y-113308327D01*
X158298327Y-113129699D01*
X158395000Y-112896310D01*
X158395000Y-112874896D01*
X161314501Y-112874896D01*
X161925000Y-113485395D01*
X162535499Y-112874896D01*
X162498352Y-112659783D01*
X162070028Y-112516888D01*
X161619625Y-112548783D01*
X161351648Y-112659783D01*
X161314501Y-112874896D01*
X158395000Y-112874896D01*
X158395000Y-112680750D01*
X158236250Y-112522000D01*
X157287000Y-112522000D01*
X157033000Y-112522000D01*
X157013000Y-112522000D01*
X157013000Y-112268000D01*
X157033000Y-112268000D01*
X157033000Y-112248000D01*
X157287000Y-112248000D01*
X157287000Y-112268000D01*
X158236250Y-112268000D01*
X158395000Y-112109250D01*
X158395000Y-111893690D01*
X158298327Y-111660301D01*
X158119698Y-111481673D01*
X157886309Y-111385000D01*
X157445750Y-111385000D01*
X157287002Y-111543748D01*
X157287002Y-111442800D01*
X157852362Y-110877440D01*
X159035000Y-110877440D01*
X159270317Y-110833162D01*
X159373646Y-110766671D01*
X159375302Y-110768327D01*
X159608691Y-110865000D01*
X160049250Y-110865000D01*
X160208000Y-110706250D01*
X160208000Y-109982000D01*
X160462000Y-109982000D01*
X160462000Y-110706250D01*
X160620750Y-110865000D01*
X161061309Y-110865000D01*
X161294698Y-110768327D01*
X161473327Y-110589699D01*
X161570000Y-110356310D01*
X161570000Y-110225750D01*
X162480000Y-110225750D01*
X162480000Y-110841309D01*
X162576673Y-111074698D01*
X162755301Y-111253327D01*
X162988690Y-111350000D01*
X163329250Y-111350000D01*
X163488000Y-111191250D01*
X163488000Y-110067000D01*
X162638750Y-110067000D01*
X162480000Y-110225750D01*
X161570000Y-110225750D01*
X161570000Y-110140750D01*
X161411250Y-109982000D01*
X160462000Y-109982000D01*
X160208000Y-109982000D01*
X160188000Y-109982000D01*
X160188000Y-109728000D01*
X160208000Y-109728000D01*
X160208000Y-109003750D01*
X160462000Y-109003750D01*
X160462000Y-109728000D01*
X161411250Y-109728000D01*
X161570000Y-109569250D01*
X161570000Y-109353690D01*
X161473327Y-109120301D01*
X161391717Y-109038691D01*
X162480000Y-109038691D01*
X162480000Y-109654250D01*
X162638750Y-109813000D01*
X163488000Y-109813000D01*
X163488000Y-108688750D01*
X163329250Y-108530000D01*
X162988690Y-108530000D01*
X162755301Y-108626673D01*
X162576673Y-108805302D01*
X162480000Y-109038691D01*
X161391717Y-109038691D01*
X161294698Y-108941673D01*
X161061309Y-108845000D01*
X160620750Y-108845000D01*
X160462000Y-109003750D01*
X160208000Y-109003750D01*
X160049250Y-108845000D01*
X159608691Y-108845000D01*
X159375302Y-108941673D01*
X159373932Y-108943043D01*
X159286890Y-108883569D01*
X159035000Y-108832560D01*
X158167362Y-108832560D01*
X157602302Y-108267500D01*
X160894052Y-104975750D01*
X162480000Y-104975750D01*
X162480000Y-105591309D01*
X162576673Y-105824698D01*
X162755301Y-106003327D01*
X162988690Y-106100000D01*
X163329250Y-106100000D01*
X163488000Y-105941250D01*
X163488000Y-104817000D01*
X162638750Y-104817000D01*
X162480000Y-104975750D01*
X160894052Y-104975750D01*
X162081111Y-103788691D01*
X162480000Y-103788691D01*
X162480000Y-104404250D01*
X162638750Y-104563000D01*
X163488000Y-104563000D01*
X163488000Y-103438750D01*
X163329250Y-103280000D01*
X162988690Y-103280000D01*
X162755301Y-103376673D01*
X162576673Y-103555302D01*
X162480000Y-103788691D01*
X162081111Y-103788691D01*
X162462401Y-103407401D01*
X162627148Y-103160839D01*
X162640754Y-103092440D01*
X163925000Y-103092440D01*
X164160317Y-103048162D01*
X164376441Y-102909090D01*
X164521431Y-102696890D01*
X164572440Y-102445000D01*
X164572440Y-99625780D01*
X164604940Y-99674420D01*
X164604940Y-99674420D01*
G37*
X164604940Y-99674420D02*
X165319660Y-103267560D01*
X164815000Y-103267560D01*
X164579683Y-103311838D01*
X164476354Y-103378328D01*
X164474699Y-103376673D01*
X164241310Y-103280000D01*
X163900750Y-103280000D01*
X163742000Y-103438750D01*
X163742000Y-104563000D01*
X163762000Y-104563000D01*
X163762000Y-104817000D01*
X163742000Y-104817000D01*
X163742000Y-105941250D01*
X163900750Y-106100000D01*
X164241310Y-106100000D01*
X164474699Y-106003327D01*
X164476068Y-106001958D01*
X164555000Y-106055890D01*
X164555000Y-106537912D01*
X164307808Y-106784673D01*
X164165162Y-107128201D01*
X164164838Y-107500167D01*
X164306883Y-107843943D01*
X164555000Y-108092493D01*
X164555000Y-108577721D01*
X164476354Y-108628328D01*
X164474699Y-108626673D01*
X164241310Y-108530000D01*
X163900750Y-108530000D01*
X163742000Y-108688750D01*
X163742000Y-109813000D01*
X163762000Y-109813000D01*
X163762000Y-110067000D01*
X163742000Y-110067000D01*
X163742000Y-111191250D01*
X163900750Y-111350000D01*
X164241310Y-111350000D01*
X164474699Y-111253327D01*
X164476068Y-111251958D01*
X164563110Y-111311431D01*
X164814445Y-111362328D01*
X164604940Y-112415580D01*
X160996296Y-117816296D01*
X155595580Y-121424940D01*
X149225000Y-122692127D01*
X142854420Y-121424940D01*
X137453704Y-117816296D01*
X133845060Y-112415580D01*
X133635557Y-111362335D01*
X133870317Y-111318162D01*
X133973646Y-111251672D01*
X133975301Y-111253327D01*
X134208690Y-111350000D01*
X134549250Y-111350000D01*
X134708000Y-111191250D01*
X134708000Y-110067000D01*
X134962000Y-110067000D01*
X134962000Y-111191250D01*
X135120750Y-111350000D01*
X135461310Y-111350000D01*
X135694699Y-111253327D01*
X135873327Y-111074698D01*
X135970000Y-110841309D01*
X135970000Y-110225750D01*
X135811250Y-110067000D01*
X134962000Y-110067000D01*
X134708000Y-110067000D01*
X134688000Y-110067000D01*
X134688000Y-109813000D01*
X134708000Y-109813000D01*
X134708000Y-108688750D01*
X134962000Y-108688750D01*
X134962000Y-109813000D01*
X135811250Y-109813000D01*
X135970000Y-109654250D01*
X135970000Y-109353690D01*
X136880000Y-109353690D01*
X136880000Y-109569250D01*
X137038750Y-109728000D01*
X137988000Y-109728000D01*
X137988000Y-109003750D01*
X137829250Y-108845000D01*
X137388691Y-108845000D01*
X137155302Y-108941673D01*
X136976673Y-109120301D01*
X136880000Y-109353690D01*
X135970000Y-109353690D01*
X135970000Y-109038691D01*
X135873327Y-108805302D01*
X135694699Y-108626673D01*
X135461310Y-108530000D01*
X135120750Y-108530000D01*
X134962000Y-108688750D01*
X134708000Y-108688750D01*
X134549250Y-108530000D01*
X134208690Y-108530000D01*
X133975301Y-108626673D01*
X133973932Y-108628042D01*
X133895000Y-108574110D01*
X133895000Y-108092088D01*
X134142192Y-107845327D01*
X134284838Y-107501799D01*
X134285162Y-107129833D01*
X134143117Y-106786057D01*
X133895000Y-106537507D01*
X133895000Y-106052279D01*
X133973646Y-106001672D01*
X133975301Y-106003327D01*
X134208690Y-106100000D01*
X134549250Y-106100000D01*
X134708000Y-105941250D01*
X134708000Y-104817000D01*
X134962000Y-104817000D01*
X134962000Y-105941250D01*
X135120750Y-106100000D01*
X135461310Y-106100000D01*
X135694699Y-106003327D01*
X135873327Y-105824698D01*
X135970000Y-105591309D01*
X135970000Y-104975750D01*
X135811250Y-104817000D01*
X134962000Y-104817000D01*
X134708000Y-104817000D01*
X134688000Y-104817000D01*
X134688000Y-104563000D01*
X134708000Y-104563000D01*
X134708000Y-103438750D01*
X134962000Y-103438750D01*
X134962000Y-104563000D01*
X135811250Y-104563000D01*
X135970000Y-104404250D01*
X135970000Y-103788691D01*
X135873327Y-103555302D01*
X135694699Y-103376673D01*
X135461310Y-103280000D01*
X135120750Y-103280000D01*
X134962000Y-103438750D01*
X134708000Y-103438750D01*
X134549250Y-103280000D01*
X134208690Y-103280000D01*
X133975301Y-103376673D01*
X133973932Y-103378042D01*
X133886890Y-103318569D01*
X133635000Y-103267560D01*
X133130340Y-103267560D01*
X133845060Y-99674420D01*
X133877560Y-99625780D01*
X133877560Y-102445000D01*
X133921838Y-102680317D01*
X134060910Y-102896441D01*
X134273110Y-103041431D01*
X134525000Y-103092440D01*
X136400000Y-103092440D01*
X136400000Y-105410000D01*
X136457852Y-105700839D01*
X136622599Y-105947401D01*
X139255000Y-108579802D01*
X139255000Y-108862666D01*
X139179683Y-108876838D01*
X139076354Y-108943329D01*
X139074698Y-108941673D01*
X138841309Y-108845000D01*
X138400750Y-108845000D01*
X138242000Y-109003750D01*
X138242000Y-109728000D01*
X138262000Y-109728000D01*
X138262000Y-109982000D01*
X138242000Y-109982000D01*
X138242000Y-110002000D01*
X137988000Y-110002000D01*
X137988000Y-109982000D01*
X137038750Y-109982000D01*
X136880000Y-110140750D01*
X136880000Y-110356310D01*
X136976673Y-110589699D01*
X136996599Y-110609625D01*
X136860162Y-110938201D01*
X136859838Y-111310167D01*
X137001883Y-111653943D01*
X137107710Y-111759954D01*
X137002808Y-111864673D01*
X136860162Y-112208201D01*
X136859838Y-112580167D01*
X137001883Y-112923943D01*
X137264673Y-113187192D01*
X137608201Y-113329838D01*
X137655077Y-113329879D01*
X143607599Y-119282401D01*
X143854161Y-119447148D01*
X144145000Y-119505000D01*
X154557811Y-119505000D01*
X154440197Y-119788244D01*
X154440108Y-119890000D01*
X147882463Y-119890000D01*
X147850327Y-119857808D01*
X147506799Y-119715162D01*
X147134833Y-119714838D01*
X146791057Y-119856883D01*
X146527808Y-120119673D01*
X146385162Y-120463201D01*
X146384838Y-120835167D01*
X146526883Y-121178943D01*
X146789673Y-121442192D01*
X147133201Y-121584838D01*
X147505167Y-121585162D01*
X147848943Y-121443117D01*
X147882118Y-121410000D01*
X154940000Y-121410000D01*
X155230839Y-121352148D01*
X155477401Y-121187401D01*
X155514854Y-121149948D01*
X155799775Y-121150197D01*
X156217086Y-120977767D01*
X156536645Y-120658765D01*
X156709803Y-120241756D01*
X156710119Y-119879883D01*
X157069775Y-119880197D01*
X157487086Y-119707767D01*
X157806645Y-119388765D01*
X157979803Y-118971756D01*
X157980119Y-118609883D01*
X158339775Y-118610197D01*
X158757086Y-118437767D01*
X159076645Y-118118765D01*
X159249803Y-117701756D01*
X159250119Y-117339883D01*
X159609775Y-117340197D01*
X160027086Y-117167767D01*
X160346645Y-116848765D01*
X160519803Y-116431756D01*
X160520119Y-116069883D01*
X160879775Y-116070197D01*
X161297086Y-115897767D01*
X161616645Y-115578765D01*
X161789803Y-115161756D01*
X161790108Y-114812394D01*
X162230375Y-114781217D01*
X162498352Y-114670217D01*
X162535499Y-114455104D01*
X161925000Y-113844605D01*
X161910858Y-113858748D01*
X161731253Y-113679143D01*
X161745395Y-113665000D01*
X162104605Y-113665000D01*
X162715104Y-114275499D01*
X162930217Y-114238352D01*
X163073112Y-113810028D01*
X163041217Y-113359625D01*
X162930217Y-113091648D01*
X162715104Y-113054501D01*
X162104605Y-113665000D01*
X161745395Y-113665000D01*
X161134896Y-113054501D01*
X160919783Y-113091648D01*
X160776888Y-113519972D01*
X160796727Y-113800123D01*
X160430225Y-113799803D01*
X160012914Y-113972233D01*
X159809793Y-114175000D01*
X156020000Y-114175000D01*
X156020000Y-113387334D01*
X156095317Y-113373162D01*
X156198646Y-113306671D01*
X156200302Y-113308327D01*
X156433691Y-113405000D01*
X156874250Y-113405000D01*
X157033000Y-113246250D01*
X157033000Y-112522000D01*
X157287000Y-112522000D01*
X157287000Y-113246250D01*
X157445750Y-113405000D01*
X157886309Y-113405000D01*
X158119698Y-113308327D01*
X158298327Y-113129699D01*
X158395000Y-112896310D01*
X158395000Y-112874896D01*
X161314501Y-112874896D01*
X161925000Y-113485395D01*
X162535499Y-112874896D01*
X162498352Y-112659783D01*
X162070028Y-112516888D01*
X161619625Y-112548783D01*
X161351648Y-112659783D01*
X161314501Y-112874896D01*
X158395000Y-112874896D01*
X158395000Y-112680750D01*
X158236250Y-112522000D01*
X157287000Y-112522000D01*
X157033000Y-112522000D01*
X157013000Y-112522000D01*
X157013000Y-112268000D01*
X157033000Y-112268000D01*
X157033000Y-112248000D01*
X157287000Y-112248000D01*
X157287000Y-112268000D01*
X158236250Y-112268000D01*
X158395000Y-112109250D01*
X158395000Y-111893690D01*
X158298327Y-111660301D01*
X158119698Y-111481673D01*
X157886309Y-111385000D01*
X157445750Y-111385000D01*
X157287002Y-111543748D01*
X157287002Y-111442800D01*
X157852362Y-110877440D01*
X159035000Y-110877440D01*
X159270317Y-110833162D01*
X159373646Y-110766671D01*
X159375302Y-110768327D01*
X159608691Y-110865000D01*
X160049250Y-110865000D01*
X160208000Y-110706250D01*
X160208000Y-109982000D01*
X160462000Y-109982000D01*
X160462000Y-110706250D01*
X160620750Y-110865000D01*
X161061309Y-110865000D01*
X161294698Y-110768327D01*
X161473327Y-110589699D01*
X161570000Y-110356310D01*
X161570000Y-110225750D01*
X162480000Y-110225750D01*
X162480000Y-110841309D01*
X162576673Y-111074698D01*
X162755301Y-111253327D01*
X162988690Y-111350000D01*
X163329250Y-111350000D01*
X163488000Y-111191250D01*
X163488000Y-110067000D01*
X162638750Y-110067000D01*
X162480000Y-110225750D01*
X161570000Y-110225750D01*
X161570000Y-110140750D01*
X161411250Y-109982000D01*
X160462000Y-109982000D01*
X160208000Y-109982000D01*
X160188000Y-109982000D01*
X160188000Y-109728000D01*
X160208000Y-109728000D01*
X160208000Y-109003750D01*
X160462000Y-109003750D01*
X160462000Y-109728000D01*
X161411250Y-109728000D01*
X161570000Y-109569250D01*
X161570000Y-109353690D01*
X161473327Y-109120301D01*
X161391717Y-109038691D01*
X162480000Y-109038691D01*
X162480000Y-109654250D01*
X162638750Y-109813000D01*
X163488000Y-109813000D01*
X163488000Y-108688750D01*
X163329250Y-108530000D01*
X162988690Y-108530000D01*
X162755301Y-108626673D01*
X162576673Y-108805302D01*
X162480000Y-109038691D01*
X161391717Y-109038691D01*
X161294698Y-108941673D01*
X161061309Y-108845000D01*
X160620750Y-108845000D01*
X160462000Y-109003750D01*
X160208000Y-109003750D01*
X160049250Y-108845000D01*
X159608691Y-108845000D01*
X159375302Y-108941673D01*
X159373932Y-108943043D01*
X159286890Y-108883569D01*
X159035000Y-108832560D01*
X158167362Y-108832560D01*
X157602302Y-108267500D01*
X160894052Y-104975750D01*
X162480000Y-104975750D01*
X162480000Y-105591309D01*
X162576673Y-105824698D01*
X162755301Y-106003327D01*
X162988690Y-106100000D01*
X163329250Y-106100000D01*
X163488000Y-105941250D01*
X163488000Y-104817000D01*
X162638750Y-104817000D01*
X162480000Y-104975750D01*
X160894052Y-104975750D01*
X162081111Y-103788691D01*
X162480000Y-103788691D01*
X162480000Y-104404250D01*
X162638750Y-104563000D01*
X163488000Y-104563000D01*
X163488000Y-103438750D01*
X163329250Y-103280000D01*
X162988690Y-103280000D01*
X162755301Y-103376673D01*
X162576673Y-103555302D01*
X162480000Y-103788691D01*
X162081111Y-103788691D01*
X162462401Y-103407401D01*
X162627148Y-103160839D01*
X162640754Y-103092440D01*
X163925000Y-103092440D01*
X164160317Y-103048162D01*
X164376441Y-102909090D01*
X164521431Y-102696890D01*
X164572440Y-102445000D01*
X164572440Y-99625780D01*
X164604940Y-99674420D01*
G36*
X159992758Y-96297560D02*
X159925000Y-96297560D01*
X159689683Y-96341838D01*
X159473559Y-96480910D01*
X159328569Y-96693110D01*
X159277560Y-96945000D01*
X159277560Y-102445000D01*
X159321838Y-102680317D01*
X159460910Y-102896441D01*
X159673110Y-103041431D01*
X159925000Y-103092440D01*
X160627758Y-103092440D01*
X153990198Y-109730000D01*
X150422463Y-109730000D01*
X150390327Y-109697808D01*
X150046799Y-109555162D01*
X149674833Y-109554838D01*
X149331057Y-109696883D01*
X149067808Y-109959673D01*
X148925162Y-110303201D01*
X148924838Y-110675167D01*
X149066883Y-111018943D01*
X149329673Y-111282192D01*
X149673201Y-111424838D01*
X150045167Y-111425162D01*
X150388943Y-111283117D01*
X150422118Y-111250000D01*
X154305000Y-111250000D01*
X154595839Y-111192148D01*
X154842401Y-111027401D01*
X156527500Y-109342302D01*
X156882698Y-109697500D01*
X155207638Y-111372560D01*
X154660000Y-111372560D01*
X154424683Y-111416838D01*
X154208559Y-111555910D01*
X154063569Y-111768110D01*
X154012560Y-112020000D01*
X154012560Y-112770000D01*
X154056838Y-113005317D01*
X154195910Y-113221441D01*
X154408110Y-113366431D01*
X154500000Y-113385039D01*
X154500000Y-114620000D01*
X154557852Y-114910839D01*
X154722599Y-115157401D01*
X155010198Y-115445000D01*
X154232463Y-115445000D01*
X154200327Y-115412808D01*
X153856799Y-115270162D01*
X153484833Y-115269838D01*
X153141057Y-115411883D01*
X152877808Y-115674673D01*
X152735162Y-116018201D01*
X152734838Y-116390167D01*
X152869056Y-116715000D01*
X144459802Y-116715000D01*
X141077026Y-113332224D01*
X141163000Y-113246250D01*
X141163000Y-112522000D01*
X141143000Y-112522000D01*
X141143000Y-112268000D01*
X141163000Y-112268000D01*
X141163000Y-111543750D01*
X141004250Y-111385000D01*
X140563691Y-111385000D01*
X140330302Y-111481673D01*
X140151673Y-111660301D01*
X140055000Y-111893690D01*
X140055000Y-112109250D01*
X140213748Y-112267998D01*
X140055000Y-112267998D01*
X140055000Y-112310198D01*
X138730122Y-110985320D01*
X138730162Y-110939833D01*
X138699242Y-110865000D01*
X138841309Y-110865000D01*
X139074698Y-110768327D01*
X139076068Y-110766957D01*
X139163110Y-110826431D01*
X139415000Y-110877440D01*
X140615000Y-110877440D01*
X140850317Y-110833162D01*
X140864338Y-110824140D01*
X141500474Y-111460276D01*
X141417000Y-111543750D01*
X141417000Y-112268000D01*
X141437000Y-112268000D01*
X141437000Y-112522000D01*
X141417000Y-112522000D01*
X141417000Y-113246250D01*
X141575750Y-113405000D01*
X142016309Y-113405000D01*
X142249698Y-113308327D01*
X142251068Y-113306957D01*
X142338110Y-113366431D01*
X142590000Y-113417440D01*
X143790000Y-113417440D01*
X144025317Y-113373162D01*
X144241441Y-113234090D01*
X144386431Y-113021890D01*
X144437440Y-112770000D01*
X144437440Y-112020000D01*
X144393162Y-111784683D01*
X144254090Y-111568559D01*
X144041890Y-111423569D01*
X143790000Y-111372560D01*
X143562362Y-111372560D01*
X141507401Y-109317599D01*
X141260839Y-109152852D01*
X141144132Y-109129637D01*
X141079090Y-109028559D01*
X140866890Y-108883569D01*
X140775000Y-108864961D01*
X140775000Y-108265000D01*
X140717148Y-107974161D01*
X140552401Y-107727599D01*
X137920000Y-105095198D01*
X137920000Y-103092440D01*
X138525000Y-103092440D01*
X138760317Y-103048162D01*
X138976441Y-102909090D01*
X139121431Y-102696890D01*
X139172440Y-102445000D01*
X139172440Y-97340167D01*
X141939838Y-97340167D01*
X142081883Y-97683943D01*
X142115000Y-97717118D01*
X142115000Y-102942537D01*
X142082808Y-102974673D01*
X141940162Y-103318201D01*
X141939838Y-103690167D01*
X142081883Y-104033943D01*
X142115000Y-104067118D01*
X142115000Y-106752537D01*
X142082808Y-106784673D01*
X141940162Y-107128201D01*
X141939838Y-107500167D01*
X142081883Y-107843943D01*
X142344673Y-108107192D01*
X142688201Y-108249838D01*
X143060167Y-108250162D01*
X143403943Y-108108117D01*
X143667192Y-107845327D01*
X143809838Y-107501799D01*
X143810162Y-107129833D01*
X143668117Y-106786057D01*
X143635000Y-106752882D01*
X143635000Y-104929949D01*
X143686673Y-105054699D01*
X143865302Y-105233327D01*
X144098691Y-105330000D01*
X148939250Y-105330000D01*
X149098000Y-105171250D01*
X149098000Y-99822000D01*
X149352000Y-99822000D01*
X149352000Y-105171250D01*
X149510750Y-105330000D01*
X154351309Y-105330000D01*
X154584698Y-105233327D01*
X154763327Y-105054699D01*
X154860000Y-104821310D01*
X154860000Y-99980750D01*
X154701250Y-99822000D01*
X149352000Y-99822000D01*
X149098000Y-99822000D01*
X149078000Y-99822000D01*
X149078000Y-99568000D01*
X149098000Y-99568000D01*
X149098000Y-94218750D01*
X149352000Y-94218750D01*
X149352000Y-99568000D01*
X154701250Y-99568000D01*
X154860000Y-99409250D01*
X154860000Y-97340167D01*
X155909838Y-97340167D01*
X156051883Y-97683943D01*
X156085000Y-97717118D01*
X156085000Y-102307537D01*
X156052808Y-102339673D01*
X155910162Y-102683201D01*
X155909838Y-103055167D01*
X156051883Y-103398943D01*
X156314673Y-103662192D01*
X156658201Y-103804838D01*
X157030167Y-103805162D01*
X157373943Y-103663117D01*
X157637192Y-103400327D01*
X157779838Y-103056799D01*
X157780162Y-102684833D01*
X157638117Y-102341057D01*
X157605000Y-102307882D01*
X157605000Y-97717463D01*
X157637192Y-97685327D01*
X157779838Y-97341799D01*
X157780162Y-96969833D01*
X157638117Y-96626057D01*
X157375327Y-96362808D01*
X157031799Y-96220162D01*
X156659833Y-96219838D01*
X156316057Y-96361883D01*
X156052808Y-96624673D01*
X155910162Y-96968201D01*
X155909838Y-97340167D01*
X154860000Y-97340167D01*
X154860000Y-94568690D01*
X154763327Y-94335301D01*
X154584698Y-94156673D01*
X154351309Y-94060000D01*
X149510750Y-94060000D01*
X149352000Y-94218750D01*
X149098000Y-94218750D01*
X148939250Y-94060000D01*
X144098691Y-94060000D01*
X143865302Y-94156673D01*
X143686673Y-94335301D01*
X143590000Y-94568690D01*
X143590000Y-96547804D01*
X143405327Y-96362808D01*
X143061799Y-96220162D01*
X142689833Y-96219838D01*
X142346057Y-96361883D01*
X142082808Y-96624673D01*
X141940162Y-96968201D01*
X141939838Y-97340167D01*
X139172440Y-97340167D01*
X139172440Y-96945000D01*
X139128162Y-96709683D01*
X138989090Y-96493559D01*
X138776890Y-96348569D01*
X138525000Y-96297560D01*
X138457242Y-96297560D01*
X143189802Y-91565000D01*
X155260198Y-91565000D01*
X159992758Y-96297560D01*
X159992758Y-96297560D01*
G37*
X159992758Y-96297560D02*
X159925000Y-96297560D01*
X159689683Y-96341838D01*
X159473559Y-96480910D01*
X159328569Y-96693110D01*
X159277560Y-96945000D01*
X159277560Y-102445000D01*
X159321838Y-102680317D01*
X159460910Y-102896441D01*
X159673110Y-103041431D01*
X159925000Y-103092440D01*
X160627758Y-103092440D01*
X153990198Y-109730000D01*
X150422463Y-109730000D01*
X150390327Y-109697808D01*
X150046799Y-109555162D01*
X149674833Y-109554838D01*
X149331057Y-109696883D01*
X149067808Y-109959673D01*
X148925162Y-110303201D01*
X148924838Y-110675167D01*
X149066883Y-111018943D01*
X149329673Y-111282192D01*
X149673201Y-111424838D01*
X150045167Y-111425162D01*
X150388943Y-111283117D01*
X150422118Y-111250000D01*
X154305000Y-111250000D01*
X154595839Y-111192148D01*
X154842401Y-111027401D01*
X156527500Y-109342302D01*
X156882698Y-109697500D01*
X155207638Y-111372560D01*
X154660000Y-111372560D01*
X154424683Y-111416838D01*
X154208559Y-111555910D01*
X154063569Y-111768110D01*
X154012560Y-112020000D01*
X154012560Y-112770000D01*
X154056838Y-113005317D01*
X154195910Y-113221441D01*
X154408110Y-113366431D01*
X154500000Y-113385039D01*
X154500000Y-114620000D01*
X154557852Y-114910839D01*
X154722599Y-115157401D01*
X155010198Y-115445000D01*
X154232463Y-115445000D01*
X154200327Y-115412808D01*
X153856799Y-115270162D01*
X153484833Y-115269838D01*
X153141057Y-115411883D01*
X152877808Y-115674673D01*
X152735162Y-116018201D01*
X152734838Y-116390167D01*
X152869056Y-116715000D01*
X144459802Y-116715000D01*
X141077026Y-113332224D01*
X141163000Y-113246250D01*
X141163000Y-112522000D01*
X141143000Y-112522000D01*
X141143000Y-112268000D01*
X141163000Y-112268000D01*
X141163000Y-111543750D01*
X141004250Y-111385000D01*
X140563691Y-111385000D01*
X140330302Y-111481673D01*
X140151673Y-111660301D01*
X140055000Y-111893690D01*
X140055000Y-112109250D01*
X140213748Y-112267998D01*
X140055000Y-112267998D01*
X140055000Y-112310198D01*
X138730122Y-110985320D01*
X138730162Y-110939833D01*
X138699242Y-110865000D01*
X138841309Y-110865000D01*
X139074698Y-110768327D01*
X139076068Y-110766957D01*
X139163110Y-110826431D01*
X139415000Y-110877440D01*
X140615000Y-110877440D01*
X140850317Y-110833162D01*
X140864338Y-110824140D01*
X141500474Y-111460276D01*
X141417000Y-111543750D01*
X141417000Y-112268000D01*
X141437000Y-112268000D01*
X141437000Y-112522000D01*
X141417000Y-112522000D01*
X141417000Y-113246250D01*
X141575750Y-113405000D01*
X142016309Y-113405000D01*
X142249698Y-113308327D01*
X142251068Y-113306957D01*
X142338110Y-113366431D01*
X142590000Y-113417440D01*
X143790000Y-113417440D01*
X144025317Y-113373162D01*
X144241441Y-113234090D01*
X144386431Y-113021890D01*
X144437440Y-112770000D01*
X144437440Y-112020000D01*
X144393162Y-111784683D01*
X144254090Y-111568559D01*
X144041890Y-111423569D01*
X143790000Y-111372560D01*
X143562362Y-111372560D01*
X141507401Y-109317599D01*
X141260839Y-109152852D01*
X141144132Y-109129637D01*
X141079090Y-109028559D01*
X140866890Y-108883569D01*
X140775000Y-108864961D01*
X140775000Y-108265000D01*
X140717148Y-107974161D01*
X140552401Y-107727599D01*
X137920000Y-105095198D01*
X137920000Y-103092440D01*
X138525000Y-103092440D01*
X138760317Y-103048162D01*
X138976441Y-102909090D01*
X139121431Y-102696890D01*
X139172440Y-102445000D01*
X139172440Y-97340167D01*
X141939838Y-97340167D01*
X142081883Y-97683943D01*
X142115000Y-97717118D01*
X142115000Y-102942537D01*
X142082808Y-102974673D01*
X141940162Y-103318201D01*
X141939838Y-103690167D01*
X142081883Y-104033943D01*
X142115000Y-104067118D01*
X142115000Y-106752537D01*
X142082808Y-106784673D01*
X141940162Y-107128201D01*
X141939838Y-107500167D01*
X142081883Y-107843943D01*
X142344673Y-108107192D01*
X142688201Y-108249838D01*
X143060167Y-108250162D01*
X143403943Y-108108117D01*
X143667192Y-107845327D01*
X143809838Y-107501799D01*
X143810162Y-107129833D01*
X143668117Y-106786057D01*
X143635000Y-106752882D01*
X143635000Y-104929949D01*
X143686673Y-105054699D01*
X143865302Y-105233327D01*
X144098691Y-105330000D01*
X148939250Y-105330000D01*
X149098000Y-105171250D01*
X149098000Y-99822000D01*
X149352000Y-99822000D01*
X149352000Y-105171250D01*
X149510750Y-105330000D01*
X154351309Y-105330000D01*
X154584698Y-105233327D01*
X154763327Y-105054699D01*
X154860000Y-104821310D01*
X154860000Y-99980750D01*
X154701250Y-99822000D01*
X149352000Y-99822000D01*
X149098000Y-99822000D01*
X149078000Y-99822000D01*
X149078000Y-99568000D01*
X149098000Y-99568000D01*
X149098000Y-94218750D01*
X149352000Y-94218750D01*
X149352000Y-99568000D01*
X154701250Y-99568000D01*
X154860000Y-99409250D01*
X154860000Y-97340167D01*
X155909838Y-97340167D01*
X156051883Y-97683943D01*
X156085000Y-97717118D01*
X156085000Y-102307537D01*
X156052808Y-102339673D01*
X155910162Y-102683201D01*
X155909838Y-103055167D01*
X156051883Y-103398943D01*
X156314673Y-103662192D01*
X156658201Y-103804838D01*
X157030167Y-103805162D01*
X157373943Y-103663117D01*
X157637192Y-103400327D01*
X157779838Y-103056799D01*
X157780162Y-102684833D01*
X157638117Y-102341057D01*
X157605000Y-102307882D01*
X157605000Y-97717463D01*
X157637192Y-97685327D01*
X157779838Y-97341799D01*
X157780162Y-96969833D01*
X157638117Y-96626057D01*
X157375327Y-96362808D01*
X157031799Y-96220162D01*
X156659833Y-96219838D01*
X156316057Y-96361883D01*
X156052808Y-96624673D01*
X155910162Y-96968201D01*
X155909838Y-97340167D01*
X154860000Y-97340167D01*
X154860000Y-94568690D01*
X154763327Y-94335301D01*
X154584698Y-94156673D01*
X154351309Y-94060000D01*
X149510750Y-94060000D01*
X149352000Y-94218750D01*
X149098000Y-94218750D01*
X148939250Y-94060000D01*
X144098691Y-94060000D01*
X143865302Y-94156673D01*
X143686673Y-94335301D01*
X143590000Y-94568690D01*
X143590000Y-96547804D01*
X143405327Y-96362808D01*
X143061799Y-96220162D01*
X142689833Y-96219838D01*
X142346057Y-96361883D01*
X142082808Y-96624673D01*
X141940162Y-96968201D01*
X141939838Y-97340167D01*
X139172440Y-97340167D01*
X139172440Y-96945000D01*
X139128162Y-96709683D01*
X138989090Y-96493559D01*
X138776890Y-96348569D01*
X138525000Y-96297560D01*
X138457242Y-96297560D01*
X143189802Y-91565000D01*
X155260198Y-91565000D01*
X159992758Y-96297560D01*
M02*
