G04 #@! TF.GenerationSoftware,KiCad,Pcbnew,5.1.5*
G04 #@! TF.CreationDate,2020-03-31T20:49:17+02:00*
G04 #@! TF.ProjectId,Watch,57617463-682e-46b6-9963-61645f706362,rev?*
G04 #@! TF.SameCoordinates,Original*
G04 #@! TF.FileFunction,Copper,L2,Bot*
G04 #@! TF.FilePolarity,Positive*
%FSLAX46Y46*%
G04 Gerber Fmt 4.6, Leading zero omitted, Abs format (unit mm)*
G04 Created by KiCad (PCBNEW 5.1.5) date 2020-03-31 20:49:17*
%MOMM*%
%LPD*%
G04 APERTURE LIST*
%ADD10R,1.200000X0.750000*%
%ADD11R,0.800000X0.800000*%
%ADD12R,0.500000X0.900000*%
%ADD13R,0.250000X0.700000*%
%ADD14R,0.700000X0.250000*%
%ADD15R,1.725000X1.725000*%
%ADD16R,1.050000X1.100000*%
%ADD17C,0.600000*%
%ADD18C,0.250000*%
G04 APERTURE END LIST*
D10*
X141550000Y-103000000D03*
X143450000Y-103000000D03*
X133450000Y-103000000D03*
X131550000Y-103000000D03*
D11*
X145800000Y-90500000D03*
X144200000Y-90500000D03*
X145800000Y-93500000D03*
X144200000Y-93500000D03*
X145800000Y-96500000D03*
X144200000Y-96500000D03*
X145800000Y-99500000D03*
X144200000Y-99500000D03*
X140800000Y-90500000D03*
X139200000Y-90500000D03*
X140800000Y-93500000D03*
X139200000Y-93500000D03*
X140800000Y-96500000D03*
X139200000Y-96500000D03*
X140800000Y-99500000D03*
X139200000Y-99500000D03*
X135800000Y-90500000D03*
X134200000Y-90500000D03*
X135800000Y-93500000D03*
X134200000Y-93500000D03*
X135800000Y-96500000D03*
X134200000Y-96500000D03*
X135800000Y-99500000D03*
X134200000Y-99500000D03*
X130800000Y-90500000D03*
X129200000Y-90500000D03*
X130800000Y-93500000D03*
X129200000Y-93500000D03*
X130800000Y-96500000D03*
X129200000Y-96500000D03*
X130800000Y-99500000D03*
X129200000Y-99500000D03*
D12*
X126250000Y-96500000D03*
X124750000Y-96500000D03*
X126250000Y-99500000D03*
X124750000Y-99500000D03*
X148750000Y-96500000D03*
X150250000Y-96500000D03*
X148750000Y-99500000D03*
X150250000Y-99500000D03*
D13*
X135750000Y-108600000D03*
X136250000Y-108600000D03*
X136750000Y-108600000D03*
X137250000Y-108600000D03*
X137750000Y-108600000D03*
X138250000Y-108600000D03*
X138750000Y-108600000D03*
X139250000Y-108600000D03*
D14*
X139900000Y-109250000D03*
X139900000Y-109750000D03*
X139900000Y-110250000D03*
X139900000Y-110750000D03*
X139900000Y-111250000D03*
X139900000Y-111750000D03*
X139900000Y-112250000D03*
X139900000Y-112750000D03*
D13*
X139250000Y-113400000D03*
X138750000Y-113400000D03*
X138250000Y-113400000D03*
X137750000Y-113400000D03*
X137250000Y-113400000D03*
X136750000Y-113400000D03*
X136250000Y-113400000D03*
X135750000Y-113400000D03*
D14*
X135100000Y-112750000D03*
X135100000Y-112250000D03*
X135100000Y-111750000D03*
X135100000Y-111250000D03*
X135100000Y-110750000D03*
X135100000Y-110250000D03*
X135100000Y-109750000D03*
X135100000Y-109250000D03*
D15*
X138362500Y-111862500D03*
X136637500Y-111862500D03*
X138362500Y-110137500D03*
X136637500Y-110137500D03*
D16*
X136575000Y-103000000D03*
X138425000Y-103000000D03*
D17*
X127000000Y-107750000D03*
X137500000Y-107050008D03*
X138742557Y-114374981D03*
X134500000Y-104750000D03*
X137691949Y-114374990D03*
X146500000Y-101750000D03*
X147000000Y-95000000D03*
X128000000Y-102000000D03*
X130500000Y-91750000D03*
X130500000Y-95250000D03*
X141737984Y-112884613D03*
X141220702Y-113454996D03*
X133250000Y-111000000D03*
X142354676Y-112375010D03*
X151000000Y-103500000D03*
X124150000Y-103500000D03*
X143889636Y-111304735D03*
X145000000Y-110500000D03*
X140500000Y-114250000D03*
D18*
X135100000Y-112750000D02*
X132000000Y-112750000D01*
X132000000Y-112750000D02*
X127000000Y-107750000D01*
X138750000Y-113400000D02*
X138750000Y-114367538D01*
X138750000Y-114367538D02*
X138742557Y-114374981D01*
X137250000Y-107300008D02*
X137500000Y-107050008D01*
X137250000Y-108600000D02*
X137250000Y-107300008D01*
X138250000Y-107800008D02*
X137500000Y-107050008D01*
X138250000Y-108600000D02*
X138250000Y-107800008D01*
X142000000Y-102000000D02*
X142450000Y-102000000D01*
X142450000Y-102000000D02*
X143450000Y-103000000D01*
X132750000Y-102000000D02*
X132550000Y-102000000D01*
X132550000Y-102000000D02*
X131550000Y-103000000D01*
X134750000Y-106250000D02*
X134500000Y-106250000D01*
X134500000Y-106250000D02*
X131550000Y-103300000D01*
X131550000Y-103300000D02*
X131550000Y-103000000D01*
X131550000Y-103000000D02*
X131750000Y-103000000D01*
X132750000Y-102000000D02*
X142000000Y-102000000D01*
X142450000Y-102000000D02*
X143450000Y-103000000D01*
X136000000Y-106250000D02*
X134500000Y-104750000D01*
X136750000Y-108600000D02*
X136750000Y-107000000D01*
X136750000Y-107000000D02*
X136000000Y-106250000D01*
X137750000Y-108600000D02*
X137750000Y-109525000D01*
X136000000Y-106250000D02*
X134750000Y-106250000D01*
X136750000Y-108600000D02*
X136750000Y-110025000D01*
X136750000Y-110025000D02*
X136637500Y-110137500D01*
X137750000Y-109525000D02*
X138362500Y-110137500D01*
X138362500Y-110137500D02*
X136637500Y-110137500D01*
X136637500Y-110137500D02*
X136637500Y-111862500D01*
X136637500Y-111862500D02*
X138362500Y-111862500D01*
X138362500Y-111862500D02*
X136637500Y-111862500D01*
X136637500Y-111862500D02*
X137250000Y-112475000D01*
X137250000Y-112475000D02*
X137250000Y-113400000D01*
X137250000Y-113400000D02*
X137250000Y-114000000D01*
X137250000Y-114000000D02*
X137624990Y-114374990D01*
X137624990Y-114374990D02*
X137691949Y-114374990D01*
X148000000Y-101750000D02*
X149500000Y-100250000D01*
X149500000Y-95500000D02*
X148625000Y-94625000D01*
X149500000Y-100250000D02*
X149500000Y-95500000D01*
X148000000Y-101750000D02*
X140500000Y-109250000D01*
X145800000Y-99500000D02*
X145800000Y-99550000D01*
X145800000Y-99550000D02*
X147875000Y-101625000D01*
X147875000Y-101625000D02*
X148000000Y-101750000D01*
X145800000Y-96500000D02*
X146750000Y-96500000D01*
X146750000Y-96500000D02*
X148625000Y-94625000D01*
X147500000Y-93500000D02*
X147500000Y-92200000D01*
X147500000Y-92200000D02*
X145800000Y-90500000D01*
X147500000Y-93500000D02*
X145800000Y-93500000D01*
X148625000Y-94625000D02*
X147500000Y-93500000D01*
X140500000Y-109250000D02*
X139900000Y-109250000D01*
X138225000Y-89525000D02*
X143225000Y-89525000D01*
X143225000Y-89525000D02*
X144200000Y-90500000D01*
X133225000Y-89525000D02*
X138225000Y-89525000D01*
X138225000Y-89525000D02*
X139200000Y-90500000D01*
X129200000Y-90500000D02*
X129250000Y-90500000D01*
X129250000Y-90500000D02*
X130250000Y-89500000D01*
X133200000Y-89500000D02*
X133225000Y-89525000D01*
X133225000Y-89525000D02*
X134200000Y-90500000D01*
X130250000Y-89500000D02*
X133200000Y-89500000D01*
X126250000Y-96500000D02*
X126250000Y-93450000D01*
X126250000Y-93450000D02*
X129200000Y-90500000D01*
X138225000Y-94475000D02*
X143225000Y-94475000D01*
X143225000Y-94475000D02*
X144200000Y-93500000D01*
X133225000Y-94475000D02*
X138225000Y-94475000D01*
X138225000Y-94475000D02*
X139200000Y-93500000D01*
X128225000Y-94475000D02*
X133225000Y-94475000D01*
X133225000Y-94475000D02*
X134200000Y-93500000D01*
X126250000Y-99500000D02*
X126250000Y-99250000D01*
X126250000Y-99250000D02*
X127500000Y-98000000D01*
X127500000Y-98000000D02*
X127500000Y-95200000D01*
X127500000Y-95200000D02*
X128225000Y-94475000D01*
X128225000Y-94475000D02*
X129200000Y-93500000D01*
X136250000Y-97500000D02*
X130200000Y-97500000D01*
X130200000Y-97500000D02*
X129200000Y-96500000D01*
X140250000Y-97500000D02*
X136250000Y-97500000D01*
X136250000Y-97500000D02*
X135200000Y-97500000D01*
X135200000Y-97500000D02*
X134200000Y-96500000D01*
X145200000Y-97500000D02*
X147750000Y-97500000D01*
X147750000Y-97500000D02*
X148750000Y-96500000D01*
X145200000Y-97500000D02*
X140250000Y-97500000D01*
X140250000Y-97500000D02*
X140200000Y-97500000D01*
X140200000Y-97500000D02*
X139200000Y-96500000D01*
X145200000Y-97500000D02*
X144200000Y-96500000D01*
X145250000Y-98500000D02*
X147750000Y-98500000D01*
X147750000Y-98500000D02*
X148750000Y-99500000D01*
X135200000Y-98500000D02*
X130200000Y-98500000D01*
X130200000Y-98500000D02*
X129200000Y-99500000D01*
X140250000Y-98500000D02*
X135200000Y-98500000D01*
X135200000Y-98500000D02*
X134200000Y-99500000D01*
X145250000Y-98500000D02*
X140250000Y-98500000D01*
X140250000Y-98500000D02*
X140200000Y-98500000D01*
X140200000Y-98500000D02*
X139200000Y-99500000D01*
X148750000Y-99500000D02*
X148500000Y-99500000D01*
X145250000Y-98500000D02*
X145200000Y-98500000D01*
X145200000Y-98500000D02*
X144200000Y-99500000D01*
X144200000Y-99500000D02*
X144200000Y-99700000D01*
X139200000Y-99500000D02*
X139200000Y-99700000D01*
X130250000Y-103250000D02*
X131000000Y-104000000D01*
X131000000Y-104000000D02*
X134000000Y-107000000D01*
X130500000Y-102000000D02*
X130250000Y-102250000D01*
X130250000Y-102250000D02*
X130250000Y-103250000D01*
X131250000Y-101250000D02*
X130500000Y-102000000D01*
X138500000Y-101250000D02*
X139050000Y-101250000D01*
X139050000Y-101250000D02*
X140800000Y-99500000D01*
X131250000Y-101250000D02*
X138500000Y-101250000D01*
X138500000Y-101250000D02*
X146000000Y-101250000D01*
X136250000Y-108600000D02*
X136250000Y-107750000D01*
X136250000Y-107750000D02*
X136200002Y-107700002D01*
X134000000Y-107000000D02*
X135500000Y-107000000D01*
X135500000Y-107000000D02*
X136200002Y-107700002D01*
X146500000Y-101750000D02*
X146000000Y-101250000D01*
X146500000Y-94500000D02*
X145000000Y-94500000D01*
X147000000Y-95000000D02*
X146500000Y-94500000D01*
X140800000Y-99500000D02*
X140750000Y-99500000D01*
X140800000Y-99500000D02*
X141000000Y-99500000D01*
X145000000Y-94500000D02*
X144250000Y-94500000D01*
X142250000Y-96500000D02*
X140800000Y-96500000D01*
X144250000Y-94500000D02*
X142250000Y-96500000D01*
X142275000Y-92025000D02*
X142275000Y-91975000D01*
X142275000Y-91975000D02*
X140800000Y-90500000D01*
X142300000Y-92000000D02*
X142275000Y-92025000D01*
X142275000Y-92025000D02*
X140800000Y-93500000D01*
X144500000Y-92000000D02*
X142300000Y-92000000D01*
X145000000Y-92500000D02*
X144500000Y-92000000D01*
X145000000Y-94500000D02*
X145000000Y-92500000D01*
X130500000Y-101000000D02*
X129500000Y-102000000D01*
X129500000Y-102000000D02*
X129500000Y-103750000D01*
X134800000Y-100500000D02*
X135800000Y-99500000D01*
X135800000Y-99500000D02*
X135750000Y-99500000D01*
X130500000Y-101000000D02*
X131000000Y-100500000D01*
X131000000Y-100500000D02*
X134800000Y-100500000D01*
X133750000Y-107750000D02*
X133500000Y-107750000D01*
X133500000Y-107750000D02*
X129500000Y-103750000D01*
X135000000Y-107750000D02*
X135500000Y-107750000D01*
X135750000Y-108000000D02*
X135750000Y-108250000D01*
X135500000Y-107750000D02*
X135750000Y-108000000D01*
X133750000Y-107750000D02*
X135000000Y-107750000D01*
X135750000Y-108250000D02*
X135750000Y-108600000D01*
X135750000Y-108500000D02*
X135750000Y-108250000D01*
X135750000Y-108250000D02*
X135750000Y-108600000D01*
X128000000Y-102000000D02*
X128000000Y-102250000D01*
X128000000Y-102250000D02*
X128750000Y-103000000D01*
X129500000Y-103750000D02*
X128750000Y-103000000D01*
X134300000Y-92000000D02*
X135800000Y-93500000D01*
X130500000Y-91750000D02*
X130750000Y-92000000D01*
X134300000Y-92000000D02*
X135800000Y-90500000D01*
X130750000Y-92000000D02*
X134300000Y-92000000D01*
X135800000Y-96500000D02*
X135750000Y-96500000D01*
X135750000Y-96500000D02*
X134500000Y-95250000D01*
X135800000Y-93500000D02*
X135750000Y-93500000D01*
X135800000Y-90500000D02*
X135800000Y-90700000D01*
X130500000Y-95250000D02*
X134500000Y-95250000D01*
X128000000Y-100750000D02*
X128000000Y-100500000D01*
X128000000Y-100500000D02*
X130000000Y-100500000D01*
X130000000Y-100500000D02*
X130800000Y-99700000D01*
X130800000Y-99700000D02*
X130800000Y-99500000D01*
X128000000Y-100750000D02*
X126625000Y-102125000D01*
X130800000Y-90500000D02*
X130500000Y-90500000D01*
X130500000Y-90500000D02*
X128500000Y-92500000D01*
X130800000Y-106250000D02*
X130750000Y-106250000D01*
X130750000Y-106250000D02*
X126625000Y-102125000D01*
X129800000Y-92500000D02*
X130800000Y-93500000D01*
X128000000Y-92500000D02*
X128500000Y-92500000D01*
X126625000Y-102125000D02*
X125500000Y-101000000D01*
X125500000Y-101000000D02*
X125500000Y-98750000D01*
X125500000Y-98750000D02*
X127000000Y-97250000D01*
X127000000Y-97250000D02*
X127000000Y-93500000D01*
X127000000Y-93500000D02*
X128000000Y-92500000D01*
X128500000Y-92500000D02*
X129800000Y-92500000D01*
X129800000Y-95500000D02*
X130800000Y-96500000D01*
X128500000Y-95500000D02*
X129800000Y-95500000D01*
X128000000Y-96000000D02*
X128500000Y-95500000D01*
X128000000Y-100500000D02*
X128000000Y-96000000D01*
X135100000Y-109250000D02*
X133750000Y-109250000D01*
X130800000Y-106300000D02*
X130800000Y-106250000D01*
X133750000Y-109250000D02*
X130800000Y-106300000D01*
X141603371Y-112750000D02*
X141737984Y-112884613D01*
X139900000Y-112750000D02*
X141603371Y-112750000D01*
X139250000Y-113400000D02*
X139250000Y-113750000D01*
X139250000Y-113400000D02*
X141165706Y-113400000D01*
X141165706Y-113400000D02*
X141220702Y-113454996D01*
X135100000Y-110750000D02*
X133500000Y-110750000D01*
X133500000Y-110750000D02*
X133250000Y-111000000D01*
X142229666Y-112250000D02*
X142354676Y-112375010D01*
X139900000Y-112250000D02*
X142229666Y-112250000D01*
X124750000Y-96500000D02*
X123750000Y-97500000D01*
X132250000Y-110250000D02*
X135100000Y-110250000D01*
X123750000Y-101750000D02*
X132250000Y-110250000D01*
X123750000Y-97500000D02*
X123750000Y-101750000D01*
X135100000Y-109750000D02*
X133000000Y-109750000D01*
X124750000Y-101500000D02*
X124750000Y-99500000D01*
X133000000Y-109750000D02*
X124750000Y-101500000D01*
X151250000Y-97500000D02*
X150250000Y-96500000D01*
X142000000Y-110250000D02*
X151250000Y-101000000D01*
X151250000Y-101000000D02*
X151250000Y-97500000D01*
X139900000Y-110250000D02*
X142000000Y-110250000D01*
X150250000Y-100750000D02*
X141250000Y-109750000D01*
X141250000Y-109750000D02*
X139900000Y-109750000D01*
X150250000Y-99500000D02*
X150250000Y-100750000D01*
X150000000Y-103500000D02*
X151000000Y-103500000D01*
X139900000Y-110750000D02*
X142750000Y-110750000D01*
X142750000Y-110750000D02*
X150000000Y-103500000D01*
X135100000Y-111750000D02*
X132400000Y-111750000D01*
X132400000Y-111750000D02*
X124150000Y-103500000D01*
X138425000Y-103000000D02*
X141550000Y-103000000D01*
X139250000Y-108600000D02*
X139250000Y-103825000D01*
X139250000Y-103825000D02*
X138425000Y-103000000D01*
X133450000Y-103000000D02*
X136575000Y-103000000D01*
X137250000Y-104000000D02*
X138750000Y-105500000D01*
X138750000Y-105500000D02*
X138750000Y-108600000D01*
X136575000Y-103325000D02*
X137250000Y-104000000D01*
X141249991Y-114999991D02*
X143889636Y-112360346D01*
X143889636Y-112360346D02*
X143889636Y-111728999D01*
X143889636Y-111728999D02*
X143889636Y-111304735D01*
X137249991Y-114999991D02*
X141249991Y-114999991D01*
X136250000Y-114000000D02*
X137249991Y-114999991D01*
X136250000Y-113400000D02*
X136250000Y-114000000D01*
X141549998Y-115450002D02*
X145000000Y-112000000D01*
X145000000Y-112000000D02*
X145000000Y-110500000D01*
X137063591Y-115450002D02*
X141549998Y-115450002D01*
X135750000Y-114136411D02*
X137063591Y-115450002D01*
X135750000Y-113400000D02*
X135750000Y-114136411D01*
X143250000Y-112000000D02*
X143250000Y-112363572D01*
X143000000Y-111750000D02*
X143250000Y-112000000D01*
X143250000Y-112363572D02*
X141363572Y-114250000D01*
X139900000Y-111750000D02*
X143000000Y-111750000D01*
X141363572Y-114250000D02*
X140500000Y-114250000D01*
M02*
