G04 #@! TF.GenerationSoftware,KiCad,Pcbnew,5.1.6*
G04 #@! TF.CreationDate,2020-07-30T14:00:23+02:00*
G04 #@! TF.ProjectId,Watch,57617463-682e-46b6-9963-61645f706362,rev?*
G04 #@! TF.SameCoordinates,Original*
G04 #@! TF.FileFunction,Legend,Top*
G04 #@! TF.FilePolarity,Positive*
%FSLAX46Y46*%
G04 Gerber Fmt 4.6, Leading zero omitted, Abs format (unit mm)*
G04 Created by KiCad (PCBNEW 5.1.6) date 2020-07-30 14:00:23*
%MOMM*%
%LPD*%
G01*
G04 APERTURE LIST*
%ADD10C,0.150000*%
%ADD11C,0.120000*%
G04 APERTURE END LIST*
D10*
X148276307Y-96500000D02*
G75*
G03*
X148276307Y-96500000I-10776307J0D01*
G01*
D11*
X149382000Y-104105000D02*
X148682000Y-104105000D01*
X148682000Y-102905000D02*
X149382000Y-102905000D01*
X132944000Y-114085000D02*
X132834000Y-114085000D01*
X132834000Y-114085000D02*
X132834000Y-114685000D01*
X143374000Y-114085000D02*
X143484000Y-114085000D01*
X143484000Y-114085000D02*
X143484000Y-114685000D01*
X135709000Y-111495000D02*
X135909000Y-111895000D01*
X135909000Y-111895000D02*
X136109000Y-111495000D01*
X136109000Y-111495000D02*
X135709000Y-111495000D01*
X126363000Y-106614279D02*
X126363000Y-106288721D01*
X127383000Y-106614279D02*
X127383000Y-106288721D01*
D10*
X136964285Y-108178571D02*
X137107142Y-108226190D01*
X137154761Y-108273809D01*
X137202380Y-108369047D01*
X137202380Y-108511904D01*
X137154761Y-108607142D01*
X137107142Y-108654761D01*
X137011904Y-108702380D01*
X136630952Y-108702380D01*
X136630952Y-107702380D01*
X136964285Y-107702380D01*
X137059523Y-107750000D01*
X137107142Y-107797619D01*
X137154761Y-107892857D01*
X137154761Y-107988095D01*
X137107142Y-108083333D01*
X137059523Y-108130952D01*
X136964285Y-108178571D01*
X136630952Y-108178571D01*
X137488095Y-107702380D02*
X138059523Y-107702380D01*
X137773809Y-108702380D02*
X137773809Y-107702380D01*
X138916666Y-108702380D02*
X138345238Y-108702380D01*
X138630952Y-108702380D02*
X138630952Y-107702380D01*
X138535714Y-107845238D01*
X138440476Y-107940476D01*
X138345238Y-107988095D01*
X148865333Y-105112142D02*
X148817714Y-105159761D01*
X148674857Y-105207380D01*
X148579619Y-105207380D01*
X148436761Y-105159761D01*
X148341523Y-105064523D01*
X148293904Y-104969285D01*
X148246285Y-104778809D01*
X148246285Y-104635952D01*
X148293904Y-104445476D01*
X148341523Y-104350238D01*
X148436761Y-104255000D01*
X148579619Y-104207380D01*
X148674857Y-104207380D01*
X148817714Y-104255000D01*
X148865333Y-104302619D01*
X149198666Y-104207380D02*
X149817714Y-104207380D01*
X149484380Y-104588333D01*
X149627238Y-104588333D01*
X149722476Y-104635952D01*
X149770095Y-104683571D01*
X149817714Y-104778809D01*
X149817714Y-105016904D01*
X149770095Y-105112142D01*
X149722476Y-105159761D01*
X149627238Y-105207380D01*
X149341523Y-105207380D01*
X149246285Y-105159761D01*
X149198666Y-105112142D01*
X143938666Y-111466380D02*
X143938666Y-112180666D01*
X143891047Y-112323523D01*
X143795809Y-112418761D01*
X143652952Y-112466380D01*
X143557714Y-112466380D01*
X144938666Y-112466380D02*
X144367238Y-112466380D01*
X144652952Y-112466380D02*
X144652952Y-111466380D01*
X144557714Y-111609238D01*
X144462476Y-111704476D01*
X144367238Y-111752095D01*
X125895380Y-106618166D02*
X125419190Y-106951500D01*
X125895380Y-107189595D02*
X124895380Y-107189595D01*
X124895380Y-106808642D01*
X124943000Y-106713404D01*
X124990619Y-106665785D01*
X125085857Y-106618166D01*
X125228714Y-106618166D01*
X125323952Y-106665785D01*
X125371571Y-106713404D01*
X125419190Y-106808642D01*
X125419190Y-107189595D01*
X124895380Y-105713404D02*
X124895380Y-106189595D01*
X125371571Y-106237214D01*
X125323952Y-106189595D01*
X125276333Y-106094357D01*
X125276333Y-105856261D01*
X125323952Y-105761023D01*
X125371571Y-105713404D01*
X125466809Y-105665785D01*
X125704904Y-105665785D01*
X125800142Y-105713404D01*
X125847761Y-105761023D01*
X125895380Y-105856261D01*
X125895380Y-106094357D01*
X125847761Y-106189595D01*
X125800142Y-106237214D01*
M02*
