G04 #@! TF.GenerationSoftware,KiCad,Pcbnew,5.1.6*
G04 #@! TF.CreationDate,2020-07-17T21:44:09+02:00*
G04 #@! TF.ProjectId,Watch,57617463-682e-46b6-9963-61645f706362,rev?*
G04 #@! TF.SameCoordinates,Original*
G04 #@! TF.FileFunction,Copper,L1,Top*
G04 #@! TF.FilePolarity,Positive*
%FSLAX46Y46*%
G04 Gerber Fmt 4.6, Leading zero omitted, Abs format (unit mm)*
G04 Created by KiCad (PCBNEW 5.1.6) date 2020-07-17 21:44:09*
%MOMM*%
%LPD*%
G01*
G04 APERTURE LIST*
G04 #@! TA.AperFunction,SMDPad,CuDef*
%ADD10R,2.500000X5.500000*%
G04 #@! TD*
G04 #@! TA.AperFunction,SMDPad,CuDef*
%ADD11R,10.000000X10.000000*%
G04 #@! TD*
G04 #@! TA.AperFunction,SMDPad,CuDef*
%ADD12R,1.200000X0.750000*%
G04 #@! TD*
G04 #@! TA.AperFunction,SMDPad,CuDef*
%ADD13R,0.300000X1.100000*%
G04 #@! TD*
G04 #@! TA.AperFunction,SMDPad,CuDef*
%ADD14R,2.700000X3.100000*%
G04 #@! TD*
G04 #@! TA.AperFunction,ViaPad*
%ADD15C,0.600000*%
G04 #@! TD*
G04 #@! TA.AperFunction,Conductor*
%ADD16C,0.250000*%
G04 #@! TD*
G04 #@! TA.AperFunction,Conductor*
%ADD17C,0.254000*%
G04 #@! TD*
G04 APERTURE END LIST*
D10*
X149500000Y-96500000D03*
X125500000Y-96500000D03*
D11*
X137500000Y-96500000D03*
D12*
X149982000Y-103505000D03*
X148082000Y-103505000D03*
D13*
X135909000Y-110695000D03*
X136409000Y-110695000D03*
X136909000Y-110695000D03*
X137409000Y-110695000D03*
X137909000Y-110695000D03*
X138409000Y-110695000D03*
X138909000Y-110695000D03*
X139409000Y-110695000D03*
X139909000Y-110695000D03*
X140409000Y-110695000D03*
D14*
X134039000Y-112395000D03*
X142279000Y-112395000D03*
D15*
X128270000Y-103632000D03*
X143510000Y-105918000D03*
X139954000Y-112141000D03*
X131318000Y-106807000D03*
X144653000Y-102997000D03*
X144046000Y-110208000D03*
X129032000Y-105664000D03*
X129168990Y-108006575D03*
X128397000Y-107061000D03*
X144398730Y-105917730D03*
X129794000Y-104775000D03*
X130175000Y-108585000D03*
X134149906Y-105320906D03*
X142494000Y-105918000D03*
X133133906Y-106590906D03*
X141478000Y-105918000D03*
X131247247Y-108594990D03*
X147000000Y-95000000D03*
X145413968Y-104901988D03*
X128000000Y-102000000D03*
X128270000Y-94615000D03*
X128397000Y-91948000D03*
X131027449Y-110730471D03*
X131827452Y-110734149D03*
D16*
X125000000Y-97000000D02*
X125500000Y-96500000D01*
X150000000Y-97000000D02*
X149500000Y-96500000D01*
X149500000Y-96500000D02*
X149500000Y-99250000D01*
X128270000Y-103632000D02*
X127254000Y-103632000D01*
X125500000Y-101878000D02*
X125500000Y-96500000D01*
X127254000Y-103632000D02*
X125500000Y-101878000D01*
X149982000Y-96982000D02*
X149500000Y-96500000D01*
X149982000Y-103505000D02*
X149982000Y-96982000D01*
X145288000Y-105664000D02*
X145288000Y-106300411D01*
X143510000Y-105918000D02*
X144399000Y-105029000D01*
X144399000Y-105029000D02*
X144653000Y-105029000D01*
X144653000Y-105029000D02*
X145288000Y-105664000D01*
X145288000Y-106300411D02*
X142553400Y-109035011D01*
X142553400Y-109035011D02*
X140775399Y-109035011D01*
X140775399Y-109035011D02*
X139909000Y-109901410D01*
X139909000Y-109901410D02*
X139909000Y-110695000D01*
X125500000Y-93500000D02*
X125500000Y-96500000D01*
X127677001Y-91322999D02*
X125500000Y-93500000D01*
X132207000Y-87376000D02*
X128260001Y-91322999D01*
X128260001Y-91322999D02*
X127677001Y-91322999D01*
X143376000Y-87376000D02*
X132207000Y-87376000D01*
X149500000Y-96500000D02*
X149500000Y-93500000D01*
X149500000Y-93500000D02*
X143376000Y-87376000D01*
X139909000Y-112096000D02*
X139954000Y-112141000D01*
X139909000Y-110695000D02*
X139909000Y-112096000D01*
X149987000Y-108077000D02*
X149987000Y-103510000D01*
X143793999Y-114270001D02*
X149987000Y-108077000D01*
X149987000Y-103510000D02*
X149982000Y-103505000D01*
X140388737Y-114270001D02*
X143793999Y-114270001D01*
X139954000Y-113835264D02*
X140388737Y-114270001D01*
X139954000Y-112141000D02*
X139954000Y-113835264D01*
X144000000Y-103000000D02*
X137500000Y-96500000D01*
X140896000Y-110208000D02*
X144046000Y-110208000D01*
X140409000Y-110695000D02*
X140896000Y-110208000D01*
X148087000Y-105622998D02*
X148087000Y-105283000D01*
X144046000Y-109663998D02*
X148087000Y-105622998D01*
X144046000Y-110208000D02*
X144046000Y-109663998D01*
X148087000Y-103510000D02*
X148082000Y-103505000D01*
X148087000Y-105283000D02*
X148087000Y-103510000D01*
X144650000Y-103000000D02*
X144653000Y-102997000D01*
X144000000Y-103000000D02*
X144650000Y-103000000D01*
X129032000Y-105664000D02*
X129032000Y-107869585D01*
X129032000Y-107869585D02*
X129168990Y-108006575D01*
X129168990Y-108467990D02*
X130377907Y-109676907D01*
X129168990Y-108006575D02*
X129168990Y-108467990D01*
X136409000Y-110053520D02*
X136409000Y-110695000D01*
X132131093Y-109676907D02*
X132131093Y-109422907D01*
X130377907Y-109676907D02*
X132131093Y-109676907D01*
X132131093Y-109422907D02*
X132969000Y-108585000D01*
X134940480Y-108585000D02*
X136409000Y-110053520D01*
X132969000Y-108585000D02*
X134940480Y-108585000D01*
X128397000Y-107061000D02*
X128397000Y-108585000D01*
X128397000Y-108585000D02*
X129888918Y-110076918D01*
X135909000Y-110695000D02*
X135909000Y-110128000D01*
X135909000Y-110128000D02*
X135382000Y-109601000D01*
X133666836Y-109601000D02*
X133190918Y-110076918D01*
X135382000Y-109601000D02*
X133666836Y-109601000D01*
X129888918Y-110076918D02*
X133190918Y-110076918D01*
X139409000Y-109765000D02*
X140589000Y-108585000D01*
X139409000Y-110695000D02*
X139409000Y-109765000D01*
X140589000Y-108585000D02*
X141731460Y-108585000D01*
X141731460Y-108585000D02*
X144398730Y-105917730D01*
X130175000Y-108585000D02*
X129794000Y-108204000D01*
X129794000Y-108204000D02*
X129794000Y-104775000D01*
X130175000Y-108585000D02*
X130810000Y-109220000D01*
X130810000Y-109220000D02*
X131697590Y-109220000D01*
X131697590Y-109220000D02*
X132782599Y-108134991D01*
X136909000Y-109917110D02*
X136909000Y-110695000D01*
X135126881Y-108134991D02*
X136909000Y-109917110D01*
X132782599Y-108134991D02*
X135126881Y-108134991D01*
X141896906Y-105320906D02*
X142494000Y-105918000D01*
X134149906Y-105320906D02*
X141896906Y-105320906D01*
X133552902Y-105320906D02*
X134149906Y-105320906D01*
X132996669Y-107284969D02*
X132461000Y-106749300D01*
X137909000Y-109715000D02*
X135478969Y-107284969D01*
X132461000Y-106412808D02*
X133552902Y-105320906D01*
X132461000Y-106749300D02*
X132461000Y-106412808D01*
X137909000Y-110695000D02*
X137909000Y-109715000D01*
X135478969Y-107284969D02*
X132996669Y-107284969D01*
X141478000Y-105918000D02*
X140805094Y-106590906D01*
X140805094Y-106590906D02*
X140499906Y-106590906D01*
X133133906Y-106590906D02*
X140499906Y-106590906D01*
X135313280Y-107684980D02*
X137409000Y-109780700D01*
X137409000Y-109780700D02*
X137409000Y-110695000D01*
X132157257Y-107684980D02*
X135313280Y-107684980D01*
X131247247Y-108594990D02*
X132157257Y-107684980D01*
X147000000Y-103315956D02*
X145413968Y-104901988D01*
X147000000Y-95000000D02*
X147000000Y-103315956D01*
X128000000Y-98750000D02*
X128000000Y-102000000D01*
X128270000Y-98480000D02*
X128000000Y-98750000D01*
X128270000Y-94615000D02*
X128270000Y-98480000D01*
X128397000Y-94488000D02*
X128270000Y-94615000D01*
X128397000Y-91948000D02*
X128397000Y-94488000D01*
X138909000Y-110695000D02*
X138909000Y-112043000D01*
X138909000Y-112043000D02*
X136231989Y-114720011D01*
X136231989Y-114720011D02*
X132244600Y-114720011D01*
X132244600Y-114720011D02*
X131027449Y-113502860D01*
X131027449Y-113502860D02*
X131027449Y-110730471D01*
X138409000Y-111495000D02*
X138409000Y-110695000D01*
X135633999Y-114270001D02*
X138409000Y-111495000D01*
X132431001Y-114270001D02*
X135633999Y-114270001D01*
X131827452Y-113666452D02*
X132431001Y-114270001D01*
X131827452Y-110734149D02*
X131827452Y-113666452D01*
D17*
G36*
X148067105Y-93141907D02*
G01*
X148005820Y-93160498D01*
X147895506Y-93219463D01*
X147798815Y-93298815D01*
X147719463Y-93395506D01*
X147660498Y-93505820D01*
X147624188Y-93625518D01*
X147611928Y-93750000D01*
X147611928Y-94289638D01*
X147596028Y-94273738D01*
X147442889Y-94171414D01*
X147272729Y-94100932D01*
X147092089Y-94065000D01*
X146907911Y-94065000D01*
X146727271Y-94100932D01*
X146557111Y-94171414D01*
X146403972Y-94273738D01*
X146273738Y-94403972D01*
X146171414Y-94557111D01*
X146100932Y-94727271D01*
X146065000Y-94907911D01*
X146065000Y-95092089D01*
X146100932Y-95272729D01*
X146171414Y-95442889D01*
X146240000Y-95545536D01*
X146240001Y-103001153D01*
X145262319Y-103978835D01*
X145141239Y-104002920D01*
X144971079Y-104073402D01*
X144817940Y-104175726D01*
X144721588Y-104272078D01*
X144690333Y-104269000D01*
X144690322Y-104269000D01*
X144653000Y-104265324D01*
X144615678Y-104269000D01*
X144436323Y-104269000D01*
X144399000Y-104265324D01*
X144361677Y-104269000D01*
X144361667Y-104269000D01*
X144250014Y-104279997D01*
X144106753Y-104323454D01*
X143974724Y-104394026D01*
X143858999Y-104488999D01*
X143835201Y-104517997D01*
X143358351Y-104994847D01*
X143237271Y-105018932D01*
X143067111Y-105089414D01*
X143002000Y-105132920D01*
X142936889Y-105089414D01*
X142766729Y-105018932D01*
X142645649Y-104994847D01*
X142460709Y-104809908D01*
X142436907Y-104780905D01*
X142321182Y-104685932D01*
X142189153Y-104615360D01*
X142045892Y-104571903D01*
X141934239Y-104560906D01*
X141934228Y-104560906D01*
X141896906Y-104557230D01*
X141859584Y-104560906D01*
X134695441Y-104560906D01*
X134592795Y-104492320D01*
X134422635Y-104421838D01*
X134241995Y-104385906D01*
X134057817Y-104385906D01*
X133877177Y-104421838D01*
X133707017Y-104492320D01*
X133604371Y-104560906D01*
X133590235Y-104560906D01*
X133552902Y-104557229D01*
X133515569Y-104560906D01*
X133403916Y-104571903D01*
X133260655Y-104615360D01*
X133128626Y-104685932D01*
X133012901Y-104780905D01*
X132989103Y-104809903D01*
X131950001Y-105849006D01*
X131920999Y-105872807D01*
X131826026Y-105988532D01*
X131755454Y-106120561D01*
X131711997Y-106263822D01*
X131701000Y-106375475D01*
X131701000Y-106375486D01*
X131697324Y-106412808D01*
X131701000Y-106450130D01*
X131701000Y-106711978D01*
X131697324Y-106749300D01*
X131701000Y-106786622D01*
X131701000Y-106786632D01*
X131711997Y-106898285D01*
X131747457Y-107015182D01*
X131754527Y-107038489D01*
X131732981Y-107050006D01*
X131732979Y-107050007D01*
X131732980Y-107050007D01*
X131646253Y-107121181D01*
X131646249Y-107121185D01*
X131617256Y-107144979D01*
X131593462Y-107173972D01*
X131095598Y-107671837D01*
X130974518Y-107695922D01*
X130804358Y-107766404D01*
X130718599Y-107823706D01*
X130617889Y-107756414D01*
X130554000Y-107729951D01*
X130554000Y-105320535D01*
X130622586Y-105217889D01*
X130693068Y-105047729D01*
X130729000Y-104867089D01*
X130729000Y-104682911D01*
X130693068Y-104502271D01*
X130622586Y-104332111D01*
X130520262Y-104178972D01*
X130390028Y-104048738D01*
X130236889Y-103946414D01*
X130066729Y-103875932D01*
X129886089Y-103840000D01*
X129701911Y-103840000D01*
X129521271Y-103875932D01*
X129351111Y-103946414D01*
X129197972Y-104048738D01*
X129067738Y-104178972D01*
X128965414Y-104332111D01*
X128894932Y-104502271D01*
X128859000Y-104682911D01*
X128859000Y-104745094D01*
X128759271Y-104764932D01*
X128589111Y-104835414D01*
X128435972Y-104937738D01*
X128305738Y-105067972D01*
X128203414Y-105221111D01*
X128132932Y-105391271D01*
X128097000Y-105571911D01*
X128097000Y-105756089D01*
X128132932Y-105936729D01*
X128203414Y-106106889D01*
X128226593Y-106141579D01*
X128124271Y-106161932D01*
X127954111Y-106232414D01*
X127800972Y-106334738D01*
X127670738Y-106464972D01*
X127568414Y-106618111D01*
X127497932Y-106788271D01*
X127462000Y-106968911D01*
X127462000Y-107153089D01*
X127497932Y-107333729D01*
X127568414Y-107503889D01*
X127637000Y-107606536D01*
X127637001Y-108547668D01*
X127633324Y-108585000D01*
X127637001Y-108622333D01*
X127647998Y-108733986D01*
X127655961Y-108760236D01*
X127691454Y-108877246D01*
X127762026Y-109009276D01*
X127820090Y-109080026D01*
X127857000Y-109125001D01*
X127885998Y-109148799D01*
X129325119Y-110587921D01*
X129348917Y-110616919D01*
X129464642Y-110711892D01*
X129596671Y-110782464D01*
X129739932Y-110825921D01*
X129851585Y-110836918D01*
X129851593Y-110836918D01*
X129888918Y-110840594D01*
X129926243Y-110836918D01*
X130095305Y-110836918D01*
X130128381Y-111003200D01*
X130198863Y-111173360D01*
X130267450Y-111276008D01*
X130267449Y-113465537D01*
X130263773Y-113502860D01*
X130267449Y-113540182D01*
X130267449Y-113540192D01*
X130278446Y-113651845D01*
X130321903Y-113795106D01*
X130392475Y-113927136D01*
X130419455Y-113960011D01*
X130487099Y-114042436D01*
X130309273Y-113955208D01*
X129035510Y-113161265D01*
X127848604Y-112242531D01*
X126760734Y-111208434D01*
X125783063Y-110069584D01*
X124925624Y-108837668D01*
X124197216Y-107525327D01*
X123605312Y-106146027D01*
X123155986Y-104713923D01*
X122853849Y-103243708D01*
X122702002Y-101750470D01*
X122702002Y-100249530D01*
X122853849Y-98756292D01*
X123155986Y-97286077D01*
X123605312Y-95853973D01*
X123611928Y-95838556D01*
X123611928Y-99250000D01*
X123624188Y-99374482D01*
X123660498Y-99494180D01*
X123719463Y-99604494D01*
X123798815Y-99701185D01*
X123895506Y-99780537D01*
X124005820Y-99839502D01*
X124125518Y-99875812D01*
X124250000Y-99888072D01*
X124740000Y-99888072D01*
X124740000Y-101840677D01*
X124736324Y-101878000D01*
X124740000Y-101915322D01*
X124740000Y-101915332D01*
X124750997Y-102026985D01*
X124788005Y-102148986D01*
X124794454Y-102170246D01*
X124865026Y-102302276D01*
X124904871Y-102350826D01*
X124959999Y-102418001D01*
X124989003Y-102441804D01*
X126690201Y-104143003D01*
X126713999Y-104172001D01*
X126742997Y-104195799D01*
X126829724Y-104266974D01*
X126961753Y-104337546D01*
X127105014Y-104381003D01*
X127254000Y-104395677D01*
X127291333Y-104392000D01*
X127724465Y-104392000D01*
X127827111Y-104460586D01*
X127997271Y-104531068D01*
X128177911Y-104567000D01*
X128362089Y-104567000D01*
X128542729Y-104531068D01*
X128712889Y-104460586D01*
X128866028Y-104358262D01*
X128996262Y-104228028D01*
X129098586Y-104074889D01*
X129169068Y-103904729D01*
X129205000Y-103724089D01*
X129205000Y-103539911D01*
X129169068Y-103359271D01*
X129098586Y-103189111D01*
X128996262Y-103035972D01*
X128866028Y-102905738D01*
X128712889Y-102803414D01*
X128569469Y-102744008D01*
X128596028Y-102726262D01*
X128726262Y-102596028D01*
X128828586Y-102442889D01*
X128899068Y-102272729D01*
X128935000Y-102092089D01*
X128935000Y-101907911D01*
X128899068Y-101727271D01*
X128828586Y-101557111D01*
X128790426Y-101500000D01*
X131861928Y-101500000D01*
X131874188Y-101624482D01*
X131910498Y-101744180D01*
X131969463Y-101854494D01*
X132048815Y-101951185D01*
X132145506Y-102030537D01*
X132255820Y-102089502D01*
X132375518Y-102125812D01*
X132500000Y-102138072D01*
X137214250Y-102135000D01*
X137373000Y-101976250D01*
X137373000Y-96627000D01*
X137627000Y-96627000D01*
X137627000Y-101976250D01*
X137785750Y-102135000D01*
X142500000Y-102138072D01*
X142624482Y-102125812D01*
X142744180Y-102089502D01*
X142854494Y-102030537D01*
X142951185Y-101951185D01*
X143030537Y-101854494D01*
X143089502Y-101744180D01*
X143125812Y-101624482D01*
X143138072Y-101500000D01*
X143135000Y-96785750D01*
X142976250Y-96627000D01*
X137627000Y-96627000D01*
X137373000Y-96627000D01*
X132023750Y-96627000D01*
X131865000Y-96785750D01*
X131861928Y-101500000D01*
X128790426Y-101500000D01*
X128760000Y-101454465D01*
X128760000Y-99064801D01*
X128780997Y-99043804D01*
X128810001Y-99020001D01*
X128904974Y-98904276D01*
X128975546Y-98772247D01*
X129019003Y-98628986D01*
X129030000Y-98517333D01*
X129030000Y-98517325D01*
X129033676Y-98480000D01*
X129030000Y-98442675D01*
X129030000Y-95160535D01*
X129098586Y-95057889D01*
X129169068Y-94887729D01*
X129205000Y-94707089D01*
X129205000Y-94522911D01*
X129169068Y-94342271D01*
X129157000Y-94313136D01*
X129157000Y-92493535D01*
X129225586Y-92390889D01*
X129296068Y-92220729D01*
X129332000Y-92040089D01*
X129332000Y-91855911D01*
X129296068Y-91675271D01*
X129225586Y-91505111D01*
X129222171Y-91500000D01*
X131861928Y-91500000D01*
X131865000Y-96214250D01*
X132023750Y-96373000D01*
X137373000Y-96373000D01*
X137373000Y-91023750D01*
X137627000Y-91023750D01*
X137627000Y-96373000D01*
X142976250Y-96373000D01*
X143135000Y-96214250D01*
X143138072Y-91500000D01*
X143125812Y-91375518D01*
X143089502Y-91255820D01*
X143030537Y-91145506D01*
X142951185Y-91048815D01*
X142854494Y-90969463D01*
X142744180Y-90910498D01*
X142624482Y-90874188D01*
X142500000Y-90861928D01*
X137785750Y-90865000D01*
X137627000Y-91023750D01*
X137373000Y-91023750D01*
X137214250Y-90865000D01*
X132500000Y-90861928D01*
X132375518Y-90874188D01*
X132255820Y-90910498D01*
X132145506Y-90969463D01*
X132048815Y-91048815D01*
X131969463Y-91145506D01*
X131910498Y-91255820D01*
X131874188Y-91375518D01*
X131861928Y-91500000D01*
X129222171Y-91500000D01*
X129196388Y-91461413D01*
X132521802Y-88136000D01*
X143061199Y-88136000D01*
X148067105Y-93141907D01*
G37*
X148067105Y-93141907D02*
X148005820Y-93160498D01*
X147895506Y-93219463D01*
X147798815Y-93298815D01*
X147719463Y-93395506D01*
X147660498Y-93505820D01*
X147624188Y-93625518D01*
X147611928Y-93750000D01*
X147611928Y-94289638D01*
X147596028Y-94273738D01*
X147442889Y-94171414D01*
X147272729Y-94100932D01*
X147092089Y-94065000D01*
X146907911Y-94065000D01*
X146727271Y-94100932D01*
X146557111Y-94171414D01*
X146403972Y-94273738D01*
X146273738Y-94403972D01*
X146171414Y-94557111D01*
X146100932Y-94727271D01*
X146065000Y-94907911D01*
X146065000Y-95092089D01*
X146100932Y-95272729D01*
X146171414Y-95442889D01*
X146240000Y-95545536D01*
X146240001Y-103001153D01*
X145262319Y-103978835D01*
X145141239Y-104002920D01*
X144971079Y-104073402D01*
X144817940Y-104175726D01*
X144721588Y-104272078D01*
X144690333Y-104269000D01*
X144690322Y-104269000D01*
X144653000Y-104265324D01*
X144615678Y-104269000D01*
X144436323Y-104269000D01*
X144399000Y-104265324D01*
X144361677Y-104269000D01*
X144361667Y-104269000D01*
X144250014Y-104279997D01*
X144106753Y-104323454D01*
X143974724Y-104394026D01*
X143858999Y-104488999D01*
X143835201Y-104517997D01*
X143358351Y-104994847D01*
X143237271Y-105018932D01*
X143067111Y-105089414D01*
X143002000Y-105132920D01*
X142936889Y-105089414D01*
X142766729Y-105018932D01*
X142645649Y-104994847D01*
X142460709Y-104809908D01*
X142436907Y-104780905D01*
X142321182Y-104685932D01*
X142189153Y-104615360D01*
X142045892Y-104571903D01*
X141934239Y-104560906D01*
X141934228Y-104560906D01*
X141896906Y-104557230D01*
X141859584Y-104560906D01*
X134695441Y-104560906D01*
X134592795Y-104492320D01*
X134422635Y-104421838D01*
X134241995Y-104385906D01*
X134057817Y-104385906D01*
X133877177Y-104421838D01*
X133707017Y-104492320D01*
X133604371Y-104560906D01*
X133590235Y-104560906D01*
X133552902Y-104557229D01*
X133515569Y-104560906D01*
X133403916Y-104571903D01*
X133260655Y-104615360D01*
X133128626Y-104685932D01*
X133012901Y-104780905D01*
X132989103Y-104809903D01*
X131950001Y-105849006D01*
X131920999Y-105872807D01*
X131826026Y-105988532D01*
X131755454Y-106120561D01*
X131711997Y-106263822D01*
X131701000Y-106375475D01*
X131701000Y-106375486D01*
X131697324Y-106412808D01*
X131701000Y-106450130D01*
X131701000Y-106711978D01*
X131697324Y-106749300D01*
X131701000Y-106786622D01*
X131701000Y-106786632D01*
X131711997Y-106898285D01*
X131747457Y-107015182D01*
X131754527Y-107038489D01*
X131732981Y-107050006D01*
X131732979Y-107050007D01*
X131732980Y-107050007D01*
X131646253Y-107121181D01*
X131646249Y-107121185D01*
X131617256Y-107144979D01*
X131593462Y-107173972D01*
X131095598Y-107671837D01*
X130974518Y-107695922D01*
X130804358Y-107766404D01*
X130718599Y-107823706D01*
X130617889Y-107756414D01*
X130554000Y-107729951D01*
X130554000Y-105320535D01*
X130622586Y-105217889D01*
X130693068Y-105047729D01*
X130729000Y-104867089D01*
X130729000Y-104682911D01*
X130693068Y-104502271D01*
X130622586Y-104332111D01*
X130520262Y-104178972D01*
X130390028Y-104048738D01*
X130236889Y-103946414D01*
X130066729Y-103875932D01*
X129886089Y-103840000D01*
X129701911Y-103840000D01*
X129521271Y-103875932D01*
X129351111Y-103946414D01*
X129197972Y-104048738D01*
X129067738Y-104178972D01*
X128965414Y-104332111D01*
X128894932Y-104502271D01*
X128859000Y-104682911D01*
X128859000Y-104745094D01*
X128759271Y-104764932D01*
X128589111Y-104835414D01*
X128435972Y-104937738D01*
X128305738Y-105067972D01*
X128203414Y-105221111D01*
X128132932Y-105391271D01*
X128097000Y-105571911D01*
X128097000Y-105756089D01*
X128132932Y-105936729D01*
X128203414Y-106106889D01*
X128226593Y-106141579D01*
X128124271Y-106161932D01*
X127954111Y-106232414D01*
X127800972Y-106334738D01*
X127670738Y-106464972D01*
X127568414Y-106618111D01*
X127497932Y-106788271D01*
X127462000Y-106968911D01*
X127462000Y-107153089D01*
X127497932Y-107333729D01*
X127568414Y-107503889D01*
X127637000Y-107606536D01*
X127637001Y-108547668D01*
X127633324Y-108585000D01*
X127637001Y-108622333D01*
X127647998Y-108733986D01*
X127655961Y-108760236D01*
X127691454Y-108877246D01*
X127762026Y-109009276D01*
X127820090Y-109080026D01*
X127857000Y-109125001D01*
X127885998Y-109148799D01*
X129325119Y-110587921D01*
X129348917Y-110616919D01*
X129464642Y-110711892D01*
X129596671Y-110782464D01*
X129739932Y-110825921D01*
X129851585Y-110836918D01*
X129851593Y-110836918D01*
X129888918Y-110840594D01*
X129926243Y-110836918D01*
X130095305Y-110836918D01*
X130128381Y-111003200D01*
X130198863Y-111173360D01*
X130267450Y-111276008D01*
X130267449Y-113465537D01*
X130263773Y-113502860D01*
X130267449Y-113540182D01*
X130267449Y-113540192D01*
X130278446Y-113651845D01*
X130321903Y-113795106D01*
X130392475Y-113927136D01*
X130419455Y-113960011D01*
X130487099Y-114042436D01*
X130309273Y-113955208D01*
X129035510Y-113161265D01*
X127848604Y-112242531D01*
X126760734Y-111208434D01*
X125783063Y-110069584D01*
X124925624Y-108837668D01*
X124197216Y-107525327D01*
X123605312Y-106146027D01*
X123155986Y-104713923D01*
X122853849Y-103243708D01*
X122702002Y-101750470D01*
X122702002Y-100249530D01*
X122853849Y-98756292D01*
X123155986Y-97286077D01*
X123605312Y-95853973D01*
X123611928Y-95838556D01*
X123611928Y-99250000D01*
X123624188Y-99374482D01*
X123660498Y-99494180D01*
X123719463Y-99604494D01*
X123798815Y-99701185D01*
X123895506Y-99780537D01*
X124005820Y-99839502D01*
X124125518Y-99875812D01*
X124250000Y-99888072D01*
X124740000Y-99888072D01*
X124740000Y-101840677D01*
X124736324Y-101878000D01*
X124740000Y-101915322D01*
X124740000Y-101915332D01*
X124750997Y-102026985D01*
X124788005Y-102148986D01*
X124794454Y-102170246D01*
X124865026Y-102302276D01*
X124904871Y-102350826D01*
X124959999Y-102418001D01*
X124989003Y-102441804D01*
X126690201Y-104143003D01*
X126713999Y-104172001D01*
X126742997Y-104195799D01*
X126829724Y-104266974D01*
X126961753Y-104337546D01*
X127105014Y-104381003D01*
X127254000Y-104395677D01*
X127291333Y-104392000D01*
X127724465Y-104392000D01*
X127827111Y-104460586D01*
X127997271Y-104531068D01*
X128177911Y-104567000D01*
X128362089Y-104567000D01*
X128542729Y-104531068D01*
X128712889Y-104460586D01*
X128866028Y-104358262D01*
X128996262Y-104228028D01*
X129098586Y-104074889D01*
X129169068Y-103904729D01*
X129205000Y-103724089D01*
X129205000Y-103539911D01*
X129169068Y-103359271D01*
X129098586Y-103189111D01*
X128996262Y-103035972D01*
X128866028Y-102905738D01*
X128712889Y-102803414D01*
X128569469Y-102744008D01*
X128596028Y-102726262D01*
X128726262Y-102596028D01*
X128828586Y-102442889D01*
X128899068Y-102272729D01*
X128935000Y-102092089D01*
X128935000Y-101907911D01*
X128899068Y-101727271D01*
X128828586Y-101557111D01*
X128790426Y-101500000D01*
X131861928Y-101500000D01*
X131874188Y-101624482D01*
X131910498Y-101744180D01*
X131969463Y-101854494D01*
X132048815Y-101951185D01*
X132145506Y-102030537D01*
X132255820Y-102089502D01*
X132375518Y-102125812D01*
X132500000Y-102138072D01*
X137214250Y-102135000D01*
X137373000Y-101976250D01*
X137373000Y-96627000D01*
X137627000Y-96627000D01*
X137627000Y-101976250D01*
X137785750Y-102135000D01*
X142500000Y-102138072D01*
X142624482Y-102125812D01*
X142744180Y-102089502D01*
X142854494Y-102030537D01*
X142951185Y-101951185D01*
X143030537Y-101854494D01*
X143089502Y-101744180D01*
X143125812Y-101624482D01*
X143138072Y-101500000D01*
X143135000Y-96785750D01*
X142976250Y-96627000D01*
X137627000Y-96627000D01*
X137373000Y-96627000D01*
X132023750Y-96627000D01*
X131865000Y-96785750D01*
X131861928Y-101500000D01*
X128790426Y-101500000D01*
X128760000Y-101454465D01*
X128760000Y-99064801D01*
X128780997Y-99043804D01*
X128810001Y-99020001D01*
X128904974Y-98904276D01*
X128975546Y-98772247D01*
X129019003Y-98628986D01*
X129030000Y-98517333D01*
X129030000Y-98517325D01*
X129033676Y-98480000D01*
X129030000Y-98442675D01*
X129030000Y-95160535D01*
X129098586Y-95057889D01*
X129169068Y-94887729D01*
X129205000Y-94707089D01*
X129205000Y-94522911D01*
X129169068Y-94342271D01*
X129157000Y-94313136D01*
X129157000Y-92493535D01*
X129225586Y-92390889D01*
X129296068Y-92220729D01*
X129332000Y-92040089D01*
X129332000Y-91855911D01*
X129296068Y-91675271D01*
X129225586Y-91505111D01*
X129222171Y-91500000D01*
X131861928Y-91500000D01*
X131865000Y-96214250D01*
X132023750Y-96373000D01*
X137373000Y-96373000D01*
X137373000Y-91023750D01*
X137627000Y-91023750D01*
X137627000Y-96373000D01*
X142976250Y-96373000D01*
X143135000Y-96214250D01*
X143138072Y-91500000D01*
X143125812Y-91375518D01*
X143089502Y-91255820D01*
X143030537Y-91145506D01*
X142951185Y-91048815D01*
X142854494Y-90969463D01*
X142744180Y-90910498D01*
X142624482Y-90874188D01*
X142500000Y-90861928D01*
X137785750Y-90865000D01*
X137627000Y-91023750D01*
X137373000Y-91023750D01*
X137214250Y-90865000D01*
X132500000Y-90861928D01*
X132375518Y-90874188D01*
X132255820Y-90910498D01*
X132145506Y-90969463D01*
X132048815Y-91048815D01*
X131969463Y-91145506D01*
X131910498Y-91255820D01*
X131874188Y-91375518D01*
X131861928Y-91500000D01*
X129222171Y-91500000D01*
X129196388Y-91461413D01*
X132521802Y-88136000D01*
X143061199Y-88136000D01*
X148067105Y-93141907D01*
G36*
X147798815Y-99701185D02*
G01*
X147895506Y-99780537D01*
X148005820Y-99839502D01*
X148125518Y-99875812D01*
X148250000Y-99888072D01*
X149081521Y-99888072D01*
X149207754Y-99955546D01*
X149222001Y-99959868D01*
X149222000Y-102514962D01*
X149137820Y-102540498D01*
X149032000Y-102597061D01*
X148926180Y-102540498D01*
X148806482Y-102504188D01*
X148682000Y-102491928D01*
X148367750Y-102495000D01*
X148209000Y-102653750D01*
X148209000Y-103378000D01*
X148229000Y-103378000D01*
X148229000Y-103632000D01*
X148209000Y-103632000D01*
X148209000Y-104356250D01*
X148367750Y-104515000D01*
X148682000Y-104518072D01*
X148806482Y-104505812D01*
X148926180Y-104469502D01*
X149032000Y-104412939D01*
X149137820Y-104469502D01*
X149227001Y-104496555D01*
X149227000Y-107762198D01*
X144267072Y-112722127D01*
X144267072Y-110845000D01*
X144254812Y-110720518D01*
X144218502Y-110600820D01*
X144159537Y-110490506D01*
X144080185Y-110393815D01*
X143983494Y-110314463D01*
X143873180Y-110255498D01*
X143753482Y-110219188D01*
X143629000Y-110206928D01*
X141196375Y-110206928D01*
X141196965Y-110156675D01*
X141186984Y-110031989D01*
X141152871Y-109911647D01*
X141095935Y-109800273D01*
X141091775Y-109795011D01*
X142516078Y-109795011D01*
X142553400Y-109798687D01*
X142590722Y-109795011D01*
X142590733Y-109795011D01*
X142702386Y-109784014D01*
X142845647Y-109740557D01*
X142977676Y-109669985D01*
X143093401Y-109575012D01*
X143117204Y-109546008D01*
X145799008Y-106864206D01*
X145828001Y-106840412D01*
X145851795Y-106811419D01*
X145851799Y-106811415D01*
X145922973Y-106724688D01*
X145922974Y-106724687D01*
X145993546Y-106592658D01*
X146037003Y-106449397D01*
X146048000Y-106337744D01*
X146048000Y-106337735D01*
X146051676Y-106300412D01*
X146048000Y-106263089D01*
X146048000Y-105701333D01*
X146051677Y-105664000D01*
X146044734Y-105593512D01*
X146140230Y-105498016D01*
X146242554Y-105344877D01*
X146313036Y-105174717D01*
X146337121Y-105053637D01*
X147046610Y-104344148D01*
X147127506Y-104410537D01*
X147237820Y-104469502D01*
X147357518Y-104505812D01*
X147482000Y-104518072D01*
X147796250Y-104515000D01*
X147955000Y-104356250D01*
X147955000Y-103632000D01*
X147935000Y-103632000D01*
X147935000Y-103378000D01*
X147955000Y-103378000D01*
X147955000Y-102653750D01*
X147796250Y-102495000D01*
X147760000Y-102494646D01*
X147760000Y-99653889D01*
X147798815Y-99701185D01*
G37*
X147798815Y-99701185D02*
X147895506Y-99780537D01*
X148005820Y-99839502D01*
X148125518Y-99875812D01*
X148250000Y-99888072D01*
X149081521Y-99888072D01*
X149207754Y-99955546D01*
X149222001Y-99959868D01*
X149222000Y-102514962D01*
X149137820Y-102540498D01*
X149032000Y-102597061D01*
X148926180Y-102540498D01*
X148806482Y-102504188D01*
X148682000Y-102491928D01*
X148367750Y-102495000D01*
X148209000Y-102653750D01*
X148209000Y-103378000D01*
X148229000Y-103378000D01*
X148229000Y-103632000D01*
X148209000Y-103632000D01*
X148209000Y-104356250D01*
X148367750Y-104515000D01*
X148682000Y-104518072D01*
X148806482Y-104505812D01*
X148926180Y-104469502D01*
X149032000Y-104412939D01*
X149137820Y-104469502D01*
X149227001Y-104496555D01*
X149227000Y-107762198D01*
X144267072Y-112722127D01*
X144267072Y-110845000D01*
X144254812Y-110720518D01*
X144218502Y-110600820D01*
X144159537Y-110490506D01*
X144080185Y-110393815D01*
X143983494Y-110314463D01*
X143873180Y-110255498D01*
X143753482Y-110219188D01*
X143629000Y-110206928D01*
X141196375Y-110206928D01*
X141196965Y-110156675D01*
X141186984Y-110031989D01*
X141152871Y-109911647D01*
X141095935Y-109800273D01*
X141091775Y-109795011D01*
X142516078Y-109795011D01*
X142553400Y-109798687D01*
X142590722Y-109795011D01*
X142590733Y-109795011D01*
X142702386Y-109784014D01*
X142845647Y-109740557D01*
X142977676Y-109669985D01*
X143093401Y-109575012D01*
X143117204Y-109546008D01*
X145799008Y-106864206D01*
X145828001Y-106840412D01*
X145851795Y-106811419D01*
X145851799Y-106811415D01*
X145922973Y-106724688D01*
X145922974Y-106724687D01*
X145993546Y-106592658D01*
X146037003Y-106449397D01*
X146048000Y-106337744D01*
X146048000Y-106337735D01*
X146051676Y-106300412D01*
X146048000Y-106263089D01*
X146048000Y-105701333D01*
X146051677Y-105664000D01*
X146044734Y-105593512D01*
X146140230Y-105498016D01*
X146242554Y-105344877D01*
X146313036Y-105174717D01*
X146337121Y-105053637D01*
X147046610Y-104344148D01*
X147127506Y-104410537D01*
X147237820Y-104469502D01*
X147357518Y-104505812D01*
X147482000Y-104518072D01*
X147796250Y-104515000D01*
X147955000Y-104356250D01*
X147955000Y-103632000D01*
X147935000Y-103632000D01*
X147935000Y-103378000D01*
X147955000Y-103378000D01*
X147955000Y-102653750D01*
X147796250Y-102495000D01*
X147760000Y-102494646D01*
X147760000Y-99653889D01*
X147798815Y-99701185D01*
M02*
