M48
; DRILL file {KiCad 5.1.6} date Mon Aug 10 20:45:48 2020
; FORMAT={-:-/ absolute / inch / decimal}
; #@! TF.CreationDate,2020-08-10T20:45:48+02:00
; #@! TF.GenerationSoftware,Kicad,Pcbnew,5.1.6
; #@! TF.FileFunction,Plated,1,2,PTH
FMAT,2
INCH
T1C0.0157
%
G90
G05
T1
X5.0394Y-4.0157
X5.05Y-3.725
X5.05Y-4.08
X5.055Y-3.62
X5.055Y-4.215
X5.08Y-4.16
X5.0854Y-4.2522
X5.11Y-4.125
X5.125Y-4.275
X5.1339Y-4.055
X5.1586Y-4.3595
X5.1672Y-4.2754
X5.1901Y-4.3596
X5.27Y-4.235
X5.2815Y-4.1465
X5.51Y-4.415
X5.61Y-4.17
X5.65Y-4.17
X5.6711Y-4.3389
X5.685Y-4.17
X5.6929Y-4.055
X5.725Y-4.13
X5.7874Y-3.7402
T0
M30
