G04 #@! TF.GenerationSoftware,KiCad,Pcbnew,5.1.9*
G04 #@! TF.CreationDate,2021-04-30T23:25:29+02:00*
G04 #@! TF.ProjectId,Watch,57617463-682e-46b6-9963-61645f706362,rev?*
G04 #@! TF.SameCoordinates,Original*
G04 #@! TF.FileFunction,Legend,Top*
G04 #@! TF.FilePolarity,Positive*
%FSLAX46Y46*%
G04 Gerber Fmt 4.6, Leading zero omitted, Abs format (unit mm)*
G04 Created by KiCad (PCBNEW 5.1.9) date 2021-04-30 23:25:29*
%MOMM*%
%LPD*%
G01*
G04 APERTURE LIST*
%ADD10C,0.150000*%
%ADD11C,0.120000*%
G04 APERTURE END LIST*
D10*
X128436857Y-108640571D02*
X128579714Y-108688190D01*
X128627333Y-108735809D01*
X128674952Y-108831047D01*
X128674952Y-108973904D01*
X128627333Y-109069142D01*
X128579714Y-109116761D01*
X128484476Y-109164380D01*
X128103523Y-109164380D01*
X128103523Y-108164380D01*
X128436857Y-108164380D01*
X128532095Y-108212000D01*
X128579714Y-108259619D01*
X128627333Y-108354857D01*
X128627333Y-108450095D01*
X128579714Y-108545333D01*
X128532095Y-108592952D01*
X128436857Y-108640571D01*
X128103523Y-108640571D01*
X129055904Y-108878666D02*
X129532095Y-108878666D01*
X128960666Y-109164380D02*
X129294000Y-108164380D01*
X129627333Y-109164380D01*
X129817809Y-108164380D02*
X130389238Y-108164380D01*
X130103523Y-109164380D02*
X130103523Y-108164380D01*
X130722571Y-108783428D02*
X131484476Y-108783428D01*
X145581857Y-108767571D02*
X145724714Y-108815190D01*
X145772333Y-108862809D01*
X145819952Y-108958047D01*
X145819952Y-109100904D01*
X145772333Y-109196142D01*
X145724714Y-109243761D01*
X145629476Y-109291380D01*
X145248523Y-109291380D01*
X145248523Y-108291380D01*
X145581857Y-108291380D01*
X145677095Y-108339000D01*
X145724714Y-108386619D01*
X145772333Y-108481857D01*
X145772333Y-108577095D01*
X145724714Y-108672333D01*
X145677095Y-108719952D01*
X145581857Y-108767571D01*
X145248523Y-108767571D01*
X146200904Y-109005666D02*
X146677095Y-109005666D01*
X146105666Y-109291380D02*
X146439000Y-108291380D01*
X146772333Y-109291380D01*
X146962809Y-108291380D02*
X147534238Y-108291380D01*
X147248523Y-109291380D02*
X147248523Y-108291380D01*
X147867571Y-108910428D02*
X148629476Y-108910428D01*
X148248523Y-109291380D02*
X148248523Y-108529476D01*
X127826000Y-104116142D02*
X127778380Y-104163761D01*
X127635523Y-104211380D01*
X127540285Y-104211380D01*
X127397428Y-104163761D01*
X127302190Y-104068523D01*
X127254571Y-103973285D01*
X127206952Y-103782809D01*
X127206952Y-103639952D01*
X127254571Y-103449476D01*
X127302190Y-103354238D01*
X127397428Y-103259000D01*
X127540285Y-103211380D01*
X127635523Y-103211380D01*
X127778380Y-103259000D01*
X127826000Y-103306619D01*
X128254571Y-104211380D02*
X128254571Y-103211380D01*
X128683142Y-104211380D02*
X128683142Y-103687571D01*
X128635523Y-103592333D01*
X128540285Y-103544714D01*
X128397428Y-103544714D01*
X128302190Y-103592333D01*
X128254571Y-103639952D01*
X129587904Y-104211380D02*
X129587904Y-103687571D01*
X129540285Y-103592333D01*
X129445047Y-103544714D01*
X129254571Y-103544714D01*
X129159333Y-103592333D01*
X129587904Y-104163761D02*
X129492666Y-104211380D01*
X129254571Y-104211380D01*
X129159333Y-104163761D01*
X129111714Y-104068523D01*
X129111714Y-103973285D01*
X129159333Y-103878047D01*
X129254571Y-103830428D01*
X129492666Y-103830428D01*
X129587904Y-103782809D01*
X130064095Y-104211380D02*
X130064095Y-103544714D01*
X130064095Y-103735190D02*
X130111714Y-103639952D01*
X130159333Y-103592333D01*
X130254571Y-103544714D01*
X130349809Y-103544714D01*
X131111714Y-103544714D02*
X131111714Y-104354238D01*
X131064095Y-104449476D01*
X131016476Y-104497095D01*
X130921238Y-104544714D01*
X130778380Y-104544714D01*
X130683142Y-104497095D01*
X131111714Y-104163761D02*
X131016476Y-104211380D01*
X130826000Y-104211380D01*
X130730761Y-104163761D01*
X130683142Y-104116142D01*
X130635523Y-104020904D01*
X130635523Y-103735190D01*
X130683142Y-103639952D01*
X130730761Y-103592333D01*
X130826000Y-103544714D01*
X131016476Y-103544714D01*
X131111714Y-103592333D01*
X131968857Y-104163761D02*
X131873619Y-104211380D01*
X131683142Y-104211380D01*
X131587904Y-104163761D01*
X131540285Y-104068523D01*
X131540285Y-103687571D01*
X131587904Y-103592333D01*
X131683142Y-103544714D01*
X131873619Y-103544714D01*
X131968857Y-103592333D01*
X132016476Y-103687571D01*
X132016476Y-103782809D01*
X131540285Y-103878047D01*
X132445047Y-104211380D02*
X132445047Y-103544714D01*
X132445047Y-103735190D02*
X132492666Y-103639952D01*
X132540285Y-103592333D01*
X132635523Y-103544714D01*
X132730761Y-103544714D01*
X134349809Y-103259000D02*
X134254571Y-103211380D01*
X134111714Y-103211380D01*
X133968857Y-103259000D01*
X133873619Y-103354238D01*
X133826000Y-103449476D01*
X133778380Y-103639952D01*
X133778380Y-103782809D01*
X133826000Y-103973285D01*
X133873619Y-104068523D01*
X133968857Y-104163761D01*
X134111714Y-104211380D01*
X134206952Y-104211380D01*
X134349809Y-104163761D01*
X134397428Y-104116142D01*
X134397428Y-103782809D01*
X134206952Y-103782809D01*
X134826000Y-104211380D02*
X134826000Y-103211380D01*
X135397428Y-104211380D01*
X135397428Y-103211380D01*
X135873619Y-104211380D02*
X135873619Y-103211380D01*
X136111714Y-103211380D01*
X136254571Y-103259000D01*
X136349809Y-103354238D01*
X136397428Y-103449476D01*
X136445047Y-103639952D01*
X136445047Y-103782809D01*
X136397428Y-103973285D01*
X136349809Y-104068523D01*
X136254571Y-104163761D01*
X136111714Y-104211380D01*
X135873619Y-104211380D01*
X127794285Y-101703142D02*
X127746666Y-101750761D01*
X127603809Y-101798380D01*
X127508571Y-101798380D01*
X127365714Y-101750761D01*
X127270476Y-101655523D01*
X127222857Y-101560285D01*
X127175238Y-101369809D01*
X127175238Y-101226952D01*
X127222857Y-101036476D01*
X127270476Y-100941238D01*
X127365714Y-100846000D01*
X127508571Y-100798380D01*
X127603809Y-100798380D01*
X127746666Y-100846000D01*
X127794285Y-100893619D01*
X128222857Y-101798380D02*
X128222857Y-100798380D01*
X128651428Y-101798380D02*
X128651428Y-101274571D01*
X128603809Y-101179333D01*
X128508571Y-101131714D01*
X128365714Y-101131714D01*
X128270476Y-101179333D01*
X128222857Y-101226952D01*
X129556190Y-101798380D02*
X129556190Y-101274571D01*
X129508571Y-101179333D01*
X129413333Y-101131714D01*
X129222857Y-101131714D01*
X129127619Y-101179333D01*
X129556190Y-101750761D02*
X129460952Y-101798380D01*
X129222857Y-101798380D01*
X129127619Y-101750761D01*
X129080000Y-101655523D01*
X129080000Y-101560285D01*
X129127619Y-101465047D01*
X129222857Y-101417428D01*
X129460952Y-101417428D01*
X129556190Y-101369809D01*
X130032380Y-101798380D02*
X130032380Y-101131714D01*
X130032380Y-101322190D02*
X130080000Y-101226952D01*
X130127619Y-101179333D01*
X130222857Y-101131714D01*
X130318095Y-101131714D01*
X131080000Y-101131714D02*
X131080000Y-101941238D01*
X131032380Y-102036476D01*
X130984761Y-102084095D01*
X130889523Y-102131714D01*
X130746666Y-102131714D01*
X130651428Y-102084095D01*
X131080000Y-101750761D02*
X130984761Y-101798380D01*
X130794285Y-101798380D01*
X130699047Y-101750761D01*
X130651428Y-101703142D01*
X130603809Y-101607904D01*
X130603809Y-101322190D01*
X130651428Y-101226952D01*
X130699047Y-101179333D01*
X130794285Y-101131714D01*
X130984761Y-101131714D01*
X131080000Y-101179333D01*
X131937142Y-101750761D02*
X131841904Y-101798380D01*
X131651428Y-101798380D01*
X131556190Y-101750761D01*
X131508571Y-101655523D01*
X131508571Y-101274571D01*
X131556190Y-101179333D01*
X131651428Y-101131714D01*
X131841904Y-101131714D01*
X131937142Y-101179333D01*
X131984761Y-101274571D01*
X131984761Y-101369809D01*
X131508571Y-101465047D01*
X132413333Y-101798380D02*
X132413333Y-101131714D01*
X132413333Y-101322190D02*
X132460952Y-101226952D01*
X132508571Y-101179333D01*
X132603809Y-101131714D01*
X132699047Y-101131714D01*
X133318095Y-102179333D02*
X133270476Y-102131714D01*
X133175238Y-101988857D01*
X133127619Y-101893619D01*
X133080000Y-101750761D01*
X133032380Y-101512666D01*
X133032380Y-101322190D01*
X133080000Y-101084095D01*
X133127619Y-100941238D01*
X133175238Y-100846000D01*
X133270476Y-100703142D01*
X133318095Y-100655523D01*
X133699047Y-101417428D02*
X134460952Y-101417428D01*
X134080000Y-101798380D02*
X134080000Y-101036476D01*
X135413333Y-100798380D02*
X134937142Y-100798380D01*
X134889523Y-101274571D01*
X134937142Y-101226952D01*
X135032380Y-101179333D01*
X135270476Y-101179333D01*
X135365714Y-101226952D01*
X135413333Y-101274571D01*
X135460952Y-101369809D01*
X135460952Y-101607904D01*
X135413333Y-101703142D01*
X135365714Y-101750761D01*
X135270476Y-101798380D01*
X135032380Y-101798380D01*
X134937142Y-101750761D01*
X134889523Y-101703142D01*
X135746666Y-100798380D02*
X136080000Y-101798380D01*
X136413333Y-100798380D01*
X136651428Y-102179333D02*
X136699047Y-102131714D01*
X136794285Y-101988857D01*
X136841904Y-101893619D01*
X136889523Y-101750761D01*
X136937142Y-101512666D01*
X136937142Y-101322190D01*
X136889523Y-101084095D01*
X136841904Y-100941238D01*
X136794285Y-100846000D01*
X136699047Y-100703142D01*
X136651428Y-100655523D01*
D11*
X149956000Y-105756000D02*
X149256000Y-105756000D01*
X149256000Y-104556000D02*
X149956000Y-104556000D01*
X150210000Y-104232000D02*
X149510000Y-104232000D01*
X149510000Y-103032000D02*
X150210000Y-103032000D01*
X132944000Y-114085000D02*
X132834000Y-114085000D01*
X132834000Y-114085000D02*
X132834000Y-114685000D01*
X143374000Y-114085000D02*
X143484000Y-114085000D01*
X143484000Y-114085000D02*
X143484000Y-114685000D01*
X135709000Y-111495000D02*
X135909000Y-111895000D01*
X135909000Y-111895000D02*
X136109000Y-111495000D01*
X136109000Y-111495000D02*
X135709000Y-111495000D01*
X125474000Y-106614279D02*
X125474000Y-106288721D01*
X126494000Y-106614279D02*
X126494000Y-106288721D01*
X127541000Y-89441000D02*
X127541000Y-109441000D01*
X127541000Y-109441000D02*
X147541000Y-109441000D01*
X147541000Y-109441000D02*
X147541000Y-89441000D01*
X147541000Y-89441000D02*
X127541000Y-89441000D01*
X150116000Y-94429733D02*
X150116000Y-94772267D01*
X149096000Y-94429733D02*
X149096000Y-94772267D01*
X125715500Y-94154258D02*
X125715500Y-93679742D01*
X126760500Y-94154258D02*
X126760500Y-93679742D01*
X149257000Y-101747000D02*
X151057000Y-101747000D01*
X151057000Y-98527000D02*
X148607000Y-98527000D01*
X123789000Y-96696000D02*
X123789000Y-98456000D01*
X126859000Y-98456000D02*
X126859000Y-96026000D01*
D10*
X149693333Y-107291142D02*
X149645714Y-107338761D01*
X149502857Y-107386380D01*
X149407619Y-107386380D01*
X149264761Y-107338761D01*
X149169523Y-107243523D01*
X149121904Y-107148285D01*
X149074285Y-106957809D01*
X149074285Y-106814952D01*
X149121904Y-106624476D01*
X149169523Y-106529238D01*
X149264761Y-106434000D01*
X149407619Y-106386380D01*
X149502857Y-106386380D01*
X149645714Y-106434000D01*
X149693333Y-106481619D01*
X150026666Y-106386380D02*
X150645714Y-106386380D01*
X150312380Y-106767333D01*
X150455238Y-106767333D01*
X150550476Y-106814952D01*
X150598095Y-106862571D01*
X150645714Y-106957809D01*
X150645714Y-107195904D01*
X150598095Y-107291142D01*
X150550476Y-107338761D01*
X150455238Y-107386380D01*
X150169523Y-107386380D01*
X150074285Y-107338761D01*
X150026666Y-107291142D01*
X125006380Y-106618166D02*
X124530190Y-106951500D01*
X125006380Y-107189595D02*
X124006380Y-107189595D01*
X124006380Y-106808642D01*
X124054000Y-106713404D01*
X124101619Y-106665785D01*
X124196857Y-106618166D01*
X124339714Y-106618166D01*
X124434952Y-106665785D01*
X124482571Y-106713404D01*
X124530190Y-106808642D01*
X124530190Y-107189595D01*
X124006380Y-105713404D02*
X124006380Y-106189595D01*
X124482571Y-106237214D01*
X124434952Y-106189595D01*
X124387333Y-106094357D01*
X124387333Y-105856261D01*
X124434952Y-105761023D01*
X124482571Y-105713404D01*
X124577809Y-105665785D01*
X124815904Y-105665785D01*
X124911142Y-105713404D01*
X124958761Y-105761023D01*
X125006380Y-105856261D01*
X125006380Y-106094357D01*
X124958761Y-106189595D01*
X124911142Y-106237214D01*
X136755285Y-99869571D02*
X136898142Y-99917190D01*
X136945761Y-99964809D01*
X136993380Y-100060047D01*
X136993380Y-100202904D01*
X136945761Y-100298142D01*
X136898142Y-100345761D01*
X136802904Y-100393380D01*
X136421952Y-100393380D01*
X136421952Y-99393380D01*
X136755285Y-99393380D01*
X136850523Y-99441000D01*
X136898142Y-99488619D01*
X136945761Y-99583857D01*
X136945761Y-99679095D01*
X136898142Y-99774333D01*
X136850523Y-99821952D01*
X136755285Y-99869571D01*
X136421952Y-99869571D01*
X137279095Y-99393380D02*
X137850523Y-99393380D01*
X137564809Y-100393380D02*
X137564809Y-99393380D01*
X138707666Y-100393380D02*
X138136238Y-100393380D01*
X138421952Y-100393380D02*
X138421952Y-99393380D01*
X138326714Y-99536238D01*
X138231476Y-99631476D01*
X138136238Y-99679095D01*
X148534380Y-94781666D02*
X148534380Y-95257857D01*
X147534380Y-95257857D01*
X148534380Y-93924523D02*
X148534380Y-94495952D01*
X148534380Y-94210238D02*
X147534380Y-94210238D01*
X147677238Y-94305476D01*
X147772476Y-94400714D01*
X147820095Y-94495952D01*
X125260380Y-94083666D02*
X124784190Y-94417000D01*
X125260380Y-94655095D02*
X124260380Y-94655095D01*
X124260380Y-94274142D01*
X124308000Y-94178904D01*
X124355619Y-94131285D01*
X124450857Y-94083666D01*
X124593714Y-94083666D01*
X124688952Y-94131285D01*
X124736571Y-94178904D01*
X124784190Y-94274142D01*
X124784190Y-94655095D01*
X124260380Y-93226523D02*
X124260380Y-93417000D01*
X124308000Y-93512238D01*
X124355619Y-93559857D01*
X124498476Y-93655095D01*
X124688952Y-93702714D01*
X125069904Y-93702714D01*
X125165142Y-93655095D01*
X125212761Y-93607476D01*
X125260380Y-93512238D01*
X125260380Y-93321761D01*
X125212761Y-93226523D01*
X125165142Y-93178904D01*
X125069904Y-93131285D01*
X124831809Y-93131285D01*
X124736571Y-93178904D01*
X124688952Y-93226523D01*
X124641333Y-93321761D01*
X124641333Y-93512238D01*
X124688952Y-93607476D01*
X124736571Y-93655095D01*
X124831809Y-93702714D01*
X149395095Y-96689380D02*
X149395095Y-97498904D01*
X149442714Y-97594142D01*
X149490333Y-97641761D01*
X149585571Y-97689380D01*
X149776047Y-97689380D01*
X149871285Y-97641761D01*
X149918904Y-97594142D01*
X149966523Y-97498904D01*
X149966523Y-96689380D01*
X150395095Y-96784619D02*
X150442714Y-96737000D01*
X150537952Y-96689380D01*
X150776047Y-96689380D01*
X150871285Y-96737000D01*
X150918904Y-96784619D01*
X150966523Y-96879857D01*
X150966523Y-96975095D01*
X150918904Y-97117952D01*
X150347476Y-97689380D01*
X150966523Y-97689380D01*
X127251380Y-98337904D02*
X128060904Y-98337904D01*
X128156142Y-98290285D01*
X128203761Y-98242666D01*
X128251380Y-98147428D01*
X128251380Y-97956952D01*
X128203761Y-97861714D01*
X128156142Y-97814095D01*
X128060904Y-97766476D01*
X127251380Y-97766476D01*
X127251380Y-97385523D02*
X127251380Y-96766476D01*
X127632333Y-97099809D01*
X127632333Y-96956952D01*
X127679952Y-96861714D01*
X127727571Y-96814095D01*
X127822809Y-96766476D01*
X128060904Y-96766476D01*
X128156142Y-96814095D01*
X128203761Y-96861714D01*
X128251380Y-96956952D01*
X128251380Y-97242666D01*
X128203761Y-97337904D01*
X128156142Y-97385523D01*
X140001666Y-86828380D02*
X140001666Y-87542666D01*
X139954047Y-87685523D01*
X139858809Y-87780761D01*
X139715952Y-87828380D01*
X139620714Y-87828380D01*
X140620714Y-87256952D02*
X140525476Y-87209333D01*
X140477857Y-87161714D01*
X140430238Y-87066476D01*
X140430238Y-87018857D01*
X140477857Y-86923619D01*
X140525476Y-86876000D01*
X140620714Y-86828380D01*
X140811190Y-86828380D01*
X140906428Y-86876000D01*
X140954047Y-86923619D01*
X141001666Y-87018857D01*
X141001666Y-87066476D01*
X140954047Y-87161714D01*
X140906428Y-87209333D01*
X140811190Y-87256952D01*
X140620714Y-87256952D01*
X140525476Y-87304571D01*
X140477857Y-87352190D01*
X140430238Y-87447428D01*
X140430238Y-87637904D01*
X140477857Y-87733142D01*
X140525476Y-87780761D01*
X140620714Y-87828380D01*
X140811190Y-87828380D01*
X140906428Y-87780761D01*
X140954047Y-87733142D01*
X141001666Y-87637904D01*
X141001666Y-87447428D01*
X140954047Y-87352190D01*
X140906428Y-87304571D01*
X140811190Y-87256952D01*
M02*
