M48
; DRILL file {KiCad 5.1.9} date Fri Apr 30 23:25:26 2021
; FORMAT={-:-/ absolute / inch / decimal}
; #@! TF.CreationDate,2021-04-30T23:25:26+02:00
; #@! TF.GenerationSoftware,Kicad,Pcbnew,5.1.9
; #@! TF.FileFunction,Plated,1,2,PTH
FMAT,2
INCH
T1C0.0157
%
G90
G05
T1
X5.0427Y-4.0792
X5.0443Y-4.0157
X5.05Y-3.725
X5.055Y-3.62
X5.055Y-4.215
X5.08Y-4.16
X5.0854Y-4.2354
X5.11Y-4.125
X5.125Y-4.275
X5.1349Y-4.0546
X5.14Y-3.5
X5.1672Y-4.2753
X5.1832Y-4.3931
X5.2041Y-4.3696
X5.27Y-4.235
X5.2815Y-4.1465
X5.5033Y-4.415
X5.575Y-4.145
X5.61Y-4.17
X5.6443Y-4.1204
X5.655Y-4.335
X5.6648Y-4.2852
X5.685Y-4.17
X5.6929Y-4.055
X5.725Y-4.13
X5.7874Y-3.7402
X5.83Y-3.595
X5.955Y-4.03
T0
M30
