M48
; DRILL file {KiCad 5.1.10} date Fri Dec 10 15:11:41 2021
; FORMAT={-:-/ absolute / inch / decimal}
; #@! TF.CreationDate,2021-12-10T15:11:41+01:00
; #@! TF.GenerationSoftware,Kicad,Pcbnew,5.1.10
; #@! TF.FileFunction,Plated,1,2,PTH
FMAT,2
INCH
T1C0.0157
%
G90
G05
T1
X5.0427Y-4.0792
X5.0443Y-4.0157
X5.05Y-3.725
X5.055Y-3.62
X5.055Y-4.215
X5.08Y-4.16
X5.0854Y-4.2354
X5.11Y-4.125
X5.125Y-4.275
X5.1349Y-4.0546
X5.1672Y-4.2753
X5.1832Y-4.3931
X5.2041Y-4.3696
X5.27Y-4.235
X5.2815Y-4.1465
X5.415Y-4.12
X5.5033Y-4.415
X5.5252Y-4.145
X5.5696Y-4.1212
X5.6525Y-3.9675
X5.6775Y-4.3987
X5.6949Y-4.0551
X5.7139Y-4.3139
X5.765Y-4.155
X5.7874Y-3.7402
X5.88Y-4.07
X5.97Y-3.985
X5.975Y-4.055
T0
M30
