G04 #@! TF.GenerationSoftware,KiCad,Pcbnew,5.1.10*
G04 #@! TF.CreationDate,2021-12-10T15:11:43+01:00*
G04 #@! TF.ProjectId,Watch,57617463-682e-46b6-9963-61645f706362,rev?*
G04 #@! TF.SameCoordinates,Original*
G04 #@! TF.FileFunction,Soldermask,Top*
G04 #@! TF.FilePolarity,Negative*
%FSLAX46Y46*%
G04 Gerber Fmt 4.6, Leading zero omitted, Abs format (unit mm)*
G04 Created by KiCad (PCBNEW 5.1.10) date 2021-12-10 15:11:43*
%MOMM*%
%LPD*%
G01*
G04 APERTURE LIST*
%ADD10R,1.200000X0.750000*%
%ADD11R,0.300000X1.100000*%
%ADD12R,2.700000X3.100000*%
%ADD13C,1.000000*%
%ADD14R,0.650000X1.060000*%
%ADD15R,1.500000X0.700000*%
%ADD16R,0.700000X1.500000*%
G04 APERTURE END LIST*
D10*
X145100000Y-110744000D03*
X147000000Y-110744000D03*
D11*
X135909000Y-110695000D03*
X136409000Y-110695000D03*
X136909000Y-110695000D03*
X137409000Y-110695000D03*
X137909000Y-110695000D03*
X138409000Y-110695000D03*
X138909000Y-110695000D03*
X139409000Y-110695000D03*
X139909000Y-110695000D03*
X140409000Y-110695000D03*
D12*
X134039000Y-112395000D03*
X142279000Y-112395000D03*
G36*
G01*
X127256250Y-110191000D02*
X126743750Y-110191000D01*
G75*
G02*
X126525000Y-109972250I0J218750D01*
G01*
X126525000Y-109534750D01*
G75*
G02*
X126743750Y-109316000I218750J0D01*
G01*
X127256250Y-109316000D01*
G75*
G02*
X127475000Y-109534750I0J-218750D01*
G01*
X127475000Y-109972250D01*
G75*
G02*
X127256250Y-110191000I-218750J0D01*
G01*
G37*
G36*
G01*
X127256250Y-108616000D02*
X126743750Y-108616000D01*
G75*
G02*
X126525000Y-108397250I0J218750D01*
G01*
X126525000Y-107959750D01*
G75*
G02*
X126743750Y-107741000I218750J0D01*
G01*
X127256250Y-107741000D01*
G75*
G02*
X127475000Y-107959750I0J-218750D01*
G01*
X127475000Y-108397250D01*
G75*
G02*
X127256250Y-108616000I-218750J0D01*
G01*
G37*
D13*
X141986000Y-108077000D03*
X139446000Y-108077000D03*
X136906000Y-108077000D03*
X144526000Y-108077000D03*
G36*
G01*
X149495500Y-106296000D02*
X149970500Y-106296000D01*
G75*
G02*
X150208000Y-106533500I0J-237500D01*
G01*
X150208000Y-107108500D01*
G75*
G02*
X149970500Y-107346000I-237500J0D01*
G01*
X149495500Y-107346000D01*
G75*
G02*
X149258000Y-107108500I0J237500D01*
G01*
X149258000Y-106533500D01*
G75*
G02*
X149495500Y-106296000I237500J0D01*
G01*
G37*
G36*
G01*
X149495500Y-108046000D02*
X149970500Y-108046000D01*
G75*
G02*
X150208000Y-108283500I0J-237500D01*
G01*
X150208000Y-108858500D01*
G75*
G02*
X149970500Y-109096000I-237500J0D01*
G01*
X149495500Y-109096000D01*
G75*
G02*
X149258000Y-108858500I0J237500D01*
G01*
X149258000Y-108283500D01*
G75*
G02*
X149495500Y-108046000I237500J0D01*
G01*
G37*
D14*
X146116000Y-109220000D03*
X147066000Y-109220000D03*
X148016000Y-109220000D03*
X148016000Y-107020000D03*
X146116000Y-107020000D03*
G36*
G01*
X127913000Y-112006000D02*
X127913000Y-111006000D01*
G75*
G02*
X128413000Y-110506000I500000J0D01*
G01*
X130413000Y-110506000D01*
G75*
G02*
X130913000Y-111006000I0J-500000D01*
G01*
X130913000Y-112006000D01*
G75*
G02*
X130413000Y-112506000I-500000J0D01*
G01*
X128413000Y-112506000D01*
G75*
G02*
X127913000Y-112006000I0J500000D01*
G01*
G37*
G36*
G01*
X142518000Y-105910000D02*
X142518000Y-104910000D01*
G75*
G02*
X143018000Y-104410000I500000J0D01*
G01*
X145018000Y-104410000D01*
G75*
G02*
X145518000Y-104910000I0J-500000D01*
G01*
X145518000Y-105910000D01*
G75*
G02*
X145018000Y-106410000I-500000J0D01*
G01*
X143018000Y-106410000D01*
G75*
G02*
X142518000Y-105910000I0J500000D01*
G01*
G37*
D15*
X146685000Y-102909000D03*
X146685000Y-104609000D03*
D16*
X149264000Y-105029000D03*
X150964000Y-105029000D03*
D13*
X138938000Y-114300000D03*
M02*
