G04 #@! TF.GenerationSoftware,KiCad,Pcbnew,5.1.10*
G04 #@! TF.CreationDate,2021-12-10T15:11:43+01:00*
G04 #@! TF.ProjectId,Watch,57617463-682e-46b6-9963-61645f706362,rev?*
G04 #@! TF.SameCoordinates,Original*
G04 #@! TF.FileFunction,Legend,Bot*
G04 #@! TF.FilePolarity,Positive*
%FSLAX46Y46*%
G04 Gerber Fmt 4.6, Leading zero omitted, Abs format (unit mm)*
G04 Created by KiCad (PCBNEW 5.1.10) date 2021-12-10 15:11:43*
%MOMM*%
%LPD*%
G01*
G04 APERTURE LIST*
%ADD10C,0.120000*%
G04 APERTURE END LIST*
D10*
X150149000Y-102774000D02*
X150149000Y-103474000D01*
X151349000Y-103474000D02*
X151349000Y-102774000D01*
X142150000Y-103600000D02*
X142850000Y-103600000D01*
X142850000Y-102400000D02*
X142150000Y-102400000D01*
X132850000Y-102400000D02*
X132150000Y-102400000D01*
X132150000Y-103600000D02*
X132850000Y-103600000D01*
X143700000Y-91000000D02*
X143700000Y-90000000D01*
X143700000Y-90000000D02*
X145800000Y-90000000D01*
X143700000Y-91000000D02*
X145800000Y-91000000D01*
X143700000Y-94000000D02*
X143700000Y-93000000D01*
X143700000Y-93000000D02*
X145800000Y-93000000D01*
X143700000Y-94000000D02*
X145800000Y-94000000D01*
X143700000Y-97000000D02*
X143700000Y-96000000D01*
X143700000Y-96000000D02*
X145800000Y-96000000D01*
X143700000Y-97000000D02*
X145800000Y-97000000D01*
X143700000Y-100000000D02*
X143700000Y-99000000D01*
X143700000Y-99000000D02*
X145800000Y-99000000D01*
X143700000Y-100000000D02*
X145800000Y-100000000D01*
X138700000Y-91000000D02*
X138700000Y-90000000D01*
X138700000Y-90000000D02*
X140800000Y-90000000D01*
X138700000Y-91000000D02*
X140800000Y-91000000D01*
X138700000Y-94000000D02*
X138700000Y-93000000D01*
X138700000Y-93000000D02*
X140800000Y-93000000D01*
X138700000Y-94000000D02*
X140800000Y-94000000D01*
X138700000Y-97000000D02*
X138700000Y-96000000D01*
X138700000Y-96000000D02*
X140800000Y-96000000D01*
X138700000Y-97000000D02*
X140800000Y-97000000D01*
X138700000Y-100000000D02*
X138700000Y-99000000D01*
X138700000Y-99000000D02*
X140800000Y-99000000D01*
X138700000Y-100000000D02*
X140800000Y-100000000D01*
X133700000Y-91000000D02*
X133700000Y-90000000D01*
X133700000Y-90000000D02*
X135800000Y-90000000D01*
X133700000Y-91000000D02*
X135800000Y-91000000D01*
X133700000Y-94000000D02*
X133700000Y-93000000D01*
X133700000Y-93000000D02*
X135800000Y-93000000D01*
X133700000Y-94000000D02*
X135800000Y-94000000D01*
X133700000Y-97000000D02*
X133700000Y-96000000D01*
X133700000Y-96000000D02*
X135800000Y-96000000D01*
X133700000Y-97000000D02*
X135800000Y-97000000D01*
X133700000Y-100000000D02*
X133700000Y-99000000D01*
X133700000Y-99000000D02*
X135800000Y-99000000D01*
X133700000Y-100000000D02*
X135800000Y-100000000D01*
X128700000Y-91000000D02*
X128700000Y-90000000D01*
X128700000Y-90000000D02*
X130800000Y-90000000D01*
X128700000Y-91000000D02*
X130800000Y-91000000D01*
X128700000Y-94000000D02*
X128700000Y-93000000D01*
X128700000Y-93000000D02*
X130800000Y-93000000D01*
X128700000Y-94000000D02*
X130800000Y-94000000D01*
X128700000Y-97000000D02*
X128700000Y-96000000D01*
X128700000Y-96000000D02*
X130800000Y-96000000D01*
X128700000Y-97000000D02*
X130800000Y-97000000D01*
X128700000Y-100000000D02*
X128700000Y-99000000D01*
X128700000Y-99000000D02*
X130800000Y-99000000D01*
X128700000Y-100000000D02*
X130800000Y-100000000D01*
X125000000Y-97180000D02*
X126000000Y-97180000D01*
X126000000Y-95820000D02*
X125000000Y-95820000D01*
X125000000Y-100180000D02*
X126000000Y-100180000D01*
X126000000Y-98820000D02*
X125000000Y-98820000D01*
X150000000Y-95820000D02*
X149000000Y-95820000D01*
X149000000Y-97180000D02*
X150000000Y-97180000D01*
X150000000Y-98820000D02*
X149000000Y-98820000D01*
X149000000Y-100180000D02*
X150000000Y-100180000D01*
X138700000Y-103800000D02*
X135850000Y-103800000D01*
X135850000Y-103800000D02*
X135850000Y-102200000D01*
X135850000Y-102200000D02*
X138700000Y-102200000D01*
X134890000Y-110593000D02*
X134890000Y-111068000D01*
X134890000Y-111068000D02*
X135365000Y-111068000D01*
X140110000Y-106323000D02*
X140110000Y-105848000D01*
X140110000Y-105848000D02*
X139635000Y-105848000D01*
X140110000Y-110593000D02*
X140110000Y-111068000D01*
X140110000Y-111068000D02*
X139635000Y-111068000D01*
X134890000Y-106323000D02*
X134890000Y-105848000D01*
X148846000Y-105110233D02*
X148846000Y-105402767D01*
X147826000Y-105110233D02*
X147826000Y-105402767D01*
X144499000Y-108370000D02*
X144499000Y-110655000D01*
X143029000Y-108370000D02*
X144499000Y-108370000D01*
X143029000Y-110655000D02*
X143029000Y-108370000D01*
M02*
