G04 #@! TF.GenerationSoftware,KiCad,Pcbnew,5.1.9*
G04 #@! TF.CreationDate,2021-04-30T23:25:29+02:00*
G04 #@! TF.ProjectId,Watch,57617463-682e-46b6-9963-61645f706362,rev?*
G04 #@! TF.SameCoordinates,Original*
G04 #@! TF.FileFunction,Soldermask,Bot*
G04 #@! TF.FilePolarity,Negative*
%FSLAX46Y46*%
G04 Gerber Fmt 4.6, Leading zero omitted, Abs format (unit mm)*
G04 Created by KiCad (PCBNEW 5.1.9) date 2021-04-30 23:25:29*
%MOMM*%
%LPD*%
G01*
G04 APERTURE LIST*
%ADD10R,0.300000X0.350000*%
%ADD11R,0.750000X1.200000*%
%ADD12R,1.200000X0.750000*%
%ADD13R,0.800000X0.800000*%
%ADD14R,0.500000X0.900000*%
%ADD15R,1.050000X1.100000*%
%ADD16R,3.650000X3.650000*%
G04 APERTURE END LIST*
D10*
X130543000Y-106557000D03*
X130543000Y-107057000D03*
X130568000Y-107582000D03*
X131068000Y-107582000D03*
X131568000Y-107582000D03*
X132068000Y-107582000D03*
X132093000Y-107057000D03*
X132093000Y-106557000D03*
X132068000Y-106032000D03*
X131568000Y-106032000D03*
X131068000Y-106032000D03*
X130568000Y-106032000D03*
D11*
X142494000Y-112136000D03*
X142494000Y-110236000D03*
D12*
X141550000Y-103000000D03*
X143450000Y-103000000D03*
X133450000Y-103000000D03*
X131550000Y-103000000D03*
D13*
X145800000Y-90500000D03*
X144200000Y-90500000D03*
X145800000Y-93500000D03*
X144200000Y-93500000D03*
X145800000Y-96500000D03*
X144200000Y-96500000D03*
X145800000Y-99500000D03*
X144200000Y-99500000D03*
X140800000Y-90500000D03*
X139200000Y-90500000D03*
X140800000Y-93500000D03*
X139200000Y-93500000D03*
X140800000Y-96500000D03*
X139200000Y-96500000D03*
X140800000Y-99500000D03*
X139200000Y-99500000D03*
X135800000Y-90500000D03*
X134200000Y-90500000D03*
X135800000Y-93500000D03*
X134200000Y-93500000D03*
X135800000Y-96500000D03*
X134200000Y-96500000D03*
X135800000Y-99500000D03*
X134200000Y-99500000D03*
X130800000Y-90500000D03*
X129200000Y-90500000D03*
X130800000Y-93500000D03*
X129200000Y-93500000D03*
X130800000Y-96500000D03*
X129200000Y-96500000D03*
X130800000Y-99500000D03*
X129200000Y-99500000D03*
D14*
X126250000Y-96500000D03*
X124750000Y-96500000D03*
X126250000Y-99500000D03*
X124750000Y-99500000D03*
X148750000Y-96500000D03*
X150250000Y-96500000D03*
X148750000Y-99500000D03*
X150250000Y-99500000D03*
D15*
X136575000Y-103000000D03*
X138425000Y-103000000D03*
G36*
G01*
X135687500Y-105608000D02*
X135812500Y-105608000D01*
G75*
G02*
X135875000Y-105670500I0J-62500D01*
G01*
X135875000Y-106295500D01*
G75*
G02*
X135812500Y-106358000I-62500J0D01*
G01*
X135687500Y-106358000D01*
G75*
G02*
X135625000Y-106295500I0J62500D01*
G01*
X135625000Y-105670500D01*
G75*
G02*
X135687500Y-105608000I62500J0D01*
G01*
G37*
G36*
G01*
X136187500Y-105608000D02*
X136312500Y-105608000D01*
G75*
G02*
X136375000Y-105670500I0J-62500D01*
G01*
X136375000Y-106295500D01*
G75*
G02*
X136312500Y-106358000I-62500J0D01*
G01*
X136187500Y-106358000D01*
G75*
G02*
X136125000Y-106295500I0J62500D01*
G01*
X136125000Y-105670500D01*
G75*
G02*
X136187500Y-105608000I62500J0D01*
G01*
G37*
G36*
G01*
X136687500Y-105608000D02*
X136812500Y-105608000D01*
G75*
G02*
X136875000Y-105670500I0J-62500D01*
G01*
X136875000Y-106295500D01*
G75*
G02*
X136812500Y-106358000I-62500J0D01*
G01*
X136687500Y-106358000D01*
G75*
G02*
X136625000Y-106295500I0J62500D01*
G01*
X136625000Y-105670500D01*
G75*
G02*
X136687500Y-105608000I62500J0D01*
G01*
G37*
G36*
G01*
X137187500Y-105608000D02*
X137312500Y-105608000D01*
G75*
G02*
X137375000Y-105670500I0J-62500D01*
G01*
X137375000Y-106295500D01*
G75*
G02*
X137312500Y-106358000I-62500J0D01*
G01*
X137187500Y-106358000D01*
G75*
G02*
X137125000Y-106295500I0J62500D01*
G01*
X137125000Y-105670500D01*
G75*
G02*
X137187500Y-105608000I62500J0D01*
G01*
G37*
G36*
G01*
X137687500Y-105608000D02*
X137812500Y-105608000D01*
G75*
G02*
X137875000Y-105670500I0J-62500D01*
G01*
X137875000Y-106295500D01*
G75*
G02*
X137812500Y-106358000I-62500J0D01*
G01*
X137687500Y-106358000D01*
G75*
G02*
X137625000Y-106295500I0J62500D01*
G01*
X137625000Y-105670500D01*
G75*
G02*
X137687500Y-105608000I62500J0D01*
G01*
G37*
G36*
G01*
X138187500Y-105608000D02*
X138312500Y-105608000D01*
G75*
G02*
X138375000Y-105670500I0J-62500D01*
G01*
X138375000Y-106295500D01*
G75*
G02*
X138312500Y-106358000I-62500J0D01*
G01*
X138187500Y-106358000D01*
G75*
G02*
X138125000Y-106295500I0J62500D01*
G01*
X138125000Y-105670500D01*
G75*
G02*
X138187500Y-105608000I62500J0D01*
G01*
G37*
G36*
G01*
X138687500Y-105608000D02*
X138812500Y-105608000D01*
G75*
G02*
X138875000Y-105670500I0J-62500D01*
G01*
X138875000Y-106295500D01*
G75*
G02*
X138812500Y-106358000I-62500J0D01*
G01*
X138687500Y-106358000D01*
G75*
G02*
X138625000Y-106295500I0J62500D01*
G01*
X138625000Y-105670500D01*
G75*
G02*
X138687500Y-105608000I62500J0D01*
G01*
G37*
G36*
G01*
X139187500Y-105608000D02*
X139312500Y-105608000D01*
G75*
G02*
X139375000Y-105670500I0J-62500D01*
G01*
X139375000Y-106295500D01*
G75*
G02*
X139312500Y-106358000I-62500J0D01*
G01*
X139187500Y-106358000D01*
G75*
G02*
X139125000Y-106295500I0J62500D01*
G01*
X139125000Y-105670500D01*
G75*
G02*
X139187500Y-105608000I62500J0D01*
G01*
G37*
G36*
G01*
X139662500Y-106583000D02*
X140287500Y-106583000D01*
G75*
G02*
X140350000Y-106645500I0J-62500D01*
G01*
X140350000Y-106770500D01*
G75*
G02*
X140287500Y-106833000I-62500J0D01*
G01*
X139662500Y-106833000D01*
G75*
G02*
X139600000Y-106770500I0J62500D01*
G01*
X139600000Y-106645500D01*
G75*
G02*
X139662500Y-106583000I62500J0D01*
G01*
G37*
G36*
G01*
X139662500Y-107083000D02*
X140287500Y-107083000D01*
G75*
G02*
X140350000Y-107145500I0J-62500D01*
G01*
X140350000Y-107270500D01*
G75*
G02*
X140287500Y-107333000I-62500J0D01*
G01*
X139662500Y-107333000D01*
G75*
G02*
X139600000Y-107270500I0J62500D01*
G01*
X139600000Y-107145500D01*
G75*
G02*
X139662500Y-107083000I62500J0D01*
G01*
G37*
G36*
G01*
X139662500Y-107583000D02*
X140287500Y-107583000D01*
G75*
G02*
X140350000Y-107645500I0J-62500D01*
G01*
X140350000Y-107770500D01*
G75*
G02*
X140287500Y-107833000I-62500J0D01*
G01*
X139662500Y-107833000D01*
G75*
G02*
X139600000Y-107770500I0J62500D01*
G01*
X139600000Y-107645500D01*
G75*
G02*
X139662500Y-107583000I62500J0D01*
G01*
G37*
G36*
G01*
X139662500Y-108083000D02*
X140287500Y-108083000D01*
G75*
G02*
X140350000Y-108145500I0J-62500D01*
G01*
X140350000Y-108270500D01*
G75*
G02*
X140287500Y-108333000I-62500J0D01*
G01*
X139662500Y-108333000D01*
G75*
G02*
X139600000Y-108270500I0J62500D01*
G01*
X139600000Y-108145500D01*
G75*
G02*
X139662500Y-108083000I62500J0D01*
G01*
G37*
G36*
G01*
X139662500Y-108583000D02*
X140287500Y-108583000D01*
G75*
G02*
X140350000Y-108645500I0J-62500D01*
G01*
X140350000Y-108770500D01*
G75*
G02*
X140287500Y-108833000I-62500J0D01*
G01*
X139662500Y-108833000D01*
G75*
G02*
X139600000Y-108770500I0J62500D01*
G01*
X139600000Y-108645500D01*
G75*
G02*
X139662500Y-108583000I62500J0D01*
G01*
G37*
G36*
G01*
X139662500Y-109083000D02*
X140287500Y-109083000D01*
G75*
G02*
X140350000Y-109145500I0J-62500D01*
G01*
X140350000Y-109270500D01*
G75*
G02*
X140287500Y-109333000I-62500J0D01*
G01*
X139662500Y-109333000D01*
G75*
G02*
X139600000Y-109270500I0J62500D01*
G01*
X139600000Y-109145500D01*
G75*
G02*
X139662500Y-109083000I62500J0D01*
G01*
G37*
G36*
G01*
X139662500Y-109583000D02*
X140287500Y-109583000D01*
G75*
G02*
X140350000Y-109645500I0J-62500D01*
G01*
X140350000Y-109770500D01*
G75*
G02*
X140287500Y-109833000I-62500J0D01*
G01*
X139662500Y-109833000D01*
G75*
G02*
X139600000Y-109770500I0J62500D01*
G01*
X139600000Y-109645500D01*
G75*
G02*
X139662500Y-109583000I62500J0D01*
G01*
G37*
G36*
G01*
X139662500Y-110083000D02*
X140287500Y-110083000D01*
G75*
G02*
X140350000Y-110145500I0J-62500D01*
G01*
X140350000Y-110270500D01*
G75*
G02*
X140287500Y-110333000I-62500J0D01*
G01*
X139662500Y-110333000D01*
G75*
G02*
X139600000Y-110270500I0J62500D01*
G01*
X139600000Y-110145500D01*
G75*
G02*
X139662500Y-110083000I62500J0D01*
G01*
G37*
G36*
G01*
X139187500Y-110558000D02*
X139312500Y-110558000D01*
G75*
G02*
X139375000Y-110620500I0J-62500D01*
G01*
X139375000Y-111245500D01*
G75*
G02*
X139312500Y-111308000I-62500J0D01*
G01*
X139187500Y-111308000D01*
G75*
G02*
X139125000Y-111245500I0J62500D01*
G01*
X139125000Y-110620500D01*
G75*
G02*
X139187500Y-110558000I62500J0D01*
G01*
G37*
G36*
G01*
X138687500Y-110558000D02*
X138812500Y-110558000D01*
G75*
G02*
X138875000Y-110620500I0J-62500D01*
G01*
X138875000Y-111245500D01*
G75*
G02*
X138812500Y-111308000I-62500J0D01*
G01*
X138687500Y-111308000D01*
G75*
G02*
X138625000Y-111245500I0J62500D01*
G01*
X138625000Y-110620500D01*
G75*
G02*
X138687500Y-110558000I62500J0D01*
G01*
G37*
G36*
G01*
X138187500Y-110558000D02*
X138312500Y-110558000D01*
G75*
G02*
X138375000Y-110620500I0J-62500D01*
G01*
X138375000Y-111245500D01*
G75*
G02*
X138312500Y-111308000I-62500J0D01*
G01*
X138187500Y-111308000D01*
G75*
G02*
X138125000Y-111245500I0J62500D01*
G01*
X138125000Y-110620500D01*
G75*
G02*
X138187500Y-110558000I62500J0D01*
G01*
G37*
G36*
G01*
X137687500Y-110558000D02*
X137812500Y-110558000D01*
G75*
G02*
X137875000Y-110620500I0J-62500D01*
G01*
X137875000Y-111245500D01*
G75*
G02*
X137812500Y-111308000I-62500J0D01*
G01*
X137687500Y-111308000D01*
G75*
G02*
X137625000Y-111245500I0J62500D01*
G01*
X137625000Y-110620500D01*
G75*
G02*
X137687500Y-110558000I62500J0D01*
G01*
G37*
G36*
G01*
X137187500Y-110558000D02*
X137312500Y-110558000D01*
G75*
G02*
X137375000Y-110620500I0J-62500D01*
G01*
X137375000Y-111245500D01*
G75*
G02*
X137312500Y-111308000I-62500J0D01*
G01*
X137187500Y-111308000D01*
G75*
G02*
X137125000Y-111245500I0J62500D01*
G01*
X137125000Y-110620500D01*
G75*
G02*
X137187500Y-110558000I62500J0D01*
G01*
G37*
G36*
G01*
X136687500Y-110558000D02*
X136812500Y-110558000D01*
G75*
G02*
X136875000Y-110620500I0J-62500D01*
G01*
X136875000Y-111245500D01*
G75*
G02*
X136812500Y-111308000I-62500J0D01*
G01*
X136687500Y-111308000D01*
G75*
G02*
X136625000Y-111245500I0J62500D01*
G01*
X136625000Y-110620500D01*
G75*
G02*
X136687500Y-110558000I62500J0D01*
G01*
G37*
G36*
G01*
X136187500Y-110558000D02*
X136312500Y-110558000D01*
G75*
G02*
X136375000Y-110620500I0J-62500D01*
G01*
X136375000Y-111245500D01*
G75*
G02*
X136312500Y-111308000I-62500J0D01*
G01*
X136187500Y-111308000D01*
G75*
G02*
X136125000Y-111245500I0J62500D01*
G01*
X136125000Y-110620500D01*
G75*
G02*
X136187500Y-110558000I62500J0D01*
G01*
G37*
G36*
G01*
X135687500Y-110558000D02*
X135812500Y-110558000D01*
G75*
G02*
X135875000Y-110620500I0J-62500D01*
G01*
X135875000Y-111245500D01*
G75*
G02*
X135812500Y-111308000I-62500J0D01*
G01*
X135687500Y-111308000D01*
G75*
G02*
X135625000Y-111245500I0J62500D01*
G01*
X135625000Y-110620500D01*
G75*
G02*
X135687500Y-110558000I62500J0D01*
G01*
G37*
G36*
G01*
X134712500Y-110083000D02*
X135337500Y-110083000D01*
G75*
G02*
X135400000Y-110145500I0J-62500D01*
G01*
X135400000Y-110270500D01*
G75*
G02*
X135337500Y-110333000I-62500J0D01*
G01*
X134712500Y-110333000D01*
G75*
G02*
X134650000Y-110270500I0J62500D01*
G01*
X134650000Y-110145500D01*
G75*
G02*
X134712500Y-110083000I62500J0D01*
G01*
G37*
G36*
G01*
X134712500Y-109583000D02*
X135337500Y-109583000D01*
G75*
G02*
X135400000Y-109645500I0J-62500D01*
G01*
X135400000Y-109770500D01*
G75*
G02*
X135337500Y-109833000I-62500J0D01*
G01*
X134712500Y-109833000D01*
G75*
G02*
X134650000Y-109770500I0J62500D01*
G01*
X134650000Y-109645500D01*
G75*
G02*
X134712500Y-109583000I62500J0D01*
G01*
G37*
G36*
G01*
X134712500Y-109083000D02*
X135337500Y-109083000D01*
G75*
G02*
X135400000Y-109145500I0J-62500D01*
G01*
X135400000Y-109270500D01*
G75*
G02*
X135337500Y-109333000I-62500J0D01*
G01*
X134712500Y-109333000D01*
G75*
G02*
X134650000Y-109270500I0J62500D01*
G01*
X134650000Y-109145500D01*
G75*
G02*
X134712500Y-109083000I62500J0D01*
G01*
G37*
G36*
G01*
X134712500Y-108583000D02*
X135337500Y-108583000D01*
G75*
G02*
X135400000Y-108645500I0J-62500D01*
G01*
X135400000Y-108770500D01*
G75*
G02*
X135337500Y-108833000I-62500J0D01*
G01*
X134712500Y-108833000D01*
G75*
G02*
X134650000Y-108770500I0J62500D01*
G01*
X134650000Y-108645500D01*
G75*
G02*
X134712500Y-108583000I62500J0D01*
G01*
G37*
G36*
G01*
X134712500Y-108083000D02*
X135337500Y-108083000D01*
G75*
G02*
X135400000Y-108145500I0J-62500D01*
G01*
X135400000Y-108270500D01*
G75*
G02*
X135337500Y-108333000I-62500J0D01*
G01*
X134712500Y-108333000D01*
G75*
G02*
X134650000Y-108270500I0J62500D01*
G01*
X134650000Y-108145500D01*
G75*
G02*
X134712500Y-108083000I62500J0D01*
G01*
G37*
G36*
G01*
X134712500Y-107583000D02*
X135337500Y-107583000D01*
G75*
G02*
X135400000Y-107645500I0J-62500D01*
G01*
X135400000Y-107770500D01*
G75*
G02*
X135337500Y-107833000I-62500J0D01*
G01*
X134712500Y-107833000D01*
G75*
G02*
X134650000Y-107770500I0J62500D01*
G01*
X134650000Y-107645500D01*
G75*
G02*
X134712500Y-107583000I62500J0D01*
G01*
G37*
G36*
G01*
X134712500Y-107083000D02*
X135337500Y-107083000D01*
G75*
G02*
X135400000Y-107145500I0J-62500D01*
G01*
X135400000Y-107270500D01*
G75*
G02*
X135337500Y-107333000I-62500J0D01*
G01*
X134712500Y-107333000D01*
G75*
G02*
X134650000Y-107270500I0J62500D01*
G01*
X134650000Y-107145500D01*
G75*
G02*
X134712500Y-107083000I62500J0D01*
G01*
G37*
G36*
G01*
X134712500Y-106583000D02*
X135337500Y-106583000D01*
G75*
G02*
X135400000Y-106645500I0J-62500D01*
G01*
X135400000Y-106770500D01*
G75*
G02*
X135337500Y-106833000I-62500J0D01*
G01*
X134712500Y-106833000D01*
G75*
G02*
X134650000Y-106770500I0J62500D01*
G01*
X134650000Y-106645500D01*
G75*
G02*
X134712500Y-106583000I62500J0D01*
G01*
G37*
D16*
X137500000Y-108458000D03*
M02*
