G04 #@! TF.GenerationSoftware,KiCad,Pcbnew,5.1.9*
G04 #@! TF.CreationDate,2021-04-30T23:25:29+02:00*
G04 #@! TF.ProjectId,Watch,57617463-682e-46b6-9963-61645f706362,rev?*
G04 #@! TF.SameCoordinates,Original*
G04 #@! TF.FileFunction,Copper,L2,Bot*
G04 #@! TF.FilePolarity,Positive*
%FSLAX46Y46*%
G04 Gerber Fmt 4.6, Leading zero omitted, Abs format (unit mm)*
G04 Created by KiCad (PCBNEW 5.1.9) date 2021-04-30 23:25:29*
%MOMM*%
%LPD*%
G01*
G04 APERTURE LIST*
G04 #@! TA.AperFunction,SMDPad,CuDef*
%ADD10R,0.300000X0.350000*%
G04 #@! TD*
G04 #@! TA.AperFunction,SMDPad,CuDef*
%ADD11R,0.750000X1.200000*%
G04 #@! TD*
G04 #@! TA.AperFunction,SMDPad,CuDef*
%ADD12R,1.200000X0.750000*%
G04 #@! TD*
G04 #@! TA.AperFunction,SMDPad,CuDef*
%ADD13R,0.800000X0.800000*%
G04 #@! TD*
G04 #@! TA.AperFunction,SMDPad,CuDef*
%ADD14R,0.500000X0.900000*%
G04 #@! TD*
G04 #@! TA.AperFunction,SMDPad,CuDef*
%ADD15R,1.050000X1.100000*%
G04 #@! TD*
G04 #@! TA.AperFunction,SMDPad,CuDef*
%ADD16R,3.650000X3.650000*%
G04 #@! TD*
G04 #@! TA.AperFunction,ViaPad*
%ADD17C,0.600000*%
G04 #@! TD*
G04 #@! TA.AperFunction,Conductor*
%ADD18C,0.250000*%
G04 #@! TD*
G04 APERTURE END LIST*
D10*
X130543000Y-106557000D03*
X130543000Y-107057000D03*
X130568000Y-107582000D03*
X131068000Y-107582000D03*
X131568000Y-107582000D03*
X132068000Y-107582000D03*
X132093000Y-107057000D03*
X132093000Y-106557000D03*
X132068000Y-106032000D03*
X131568000Y-106032000D03*
X131068000Y-106032000D03*
X130568000Y-106032000D03*
D11*
X142494000Y-112136000D03*
X142494000Y-110236000D03*
D12*
X141550000Y-103000000D03*
X143450000Y-103000000D03*
X133450000Y-103000000D03*
X131550000Y-103000000D03*
D13*
X145800000Y-90500000D03*
X144200000Y-90500000D03*
X145800000Y-93500000D03*
X144200000Y-93500000D03*
X145800000Y-96500000D03*
X144200000Y-96500000D03*
X145800000Y-99500000D03*
X144200000Y-99500000D03*
X140800000Y-90500000D03*
X139200000Y-90500000D03*
X140800000Y-93500000D03*
X139200000Y-93500000D03*
X140800000Y-96500000D03*
X139200000Y-96500000D03*
X140800000Y-99500000D03*
X139200000Y-99500000D03*
X135800000Y-90500000D03*
X134200000Y-90500000D03*
X135800000Y-93500000D03*
X134200000Y-93500000D03*
X135800000Y-96500000D03*
X134200000Y-96500000D03*
X135800000Y-99500000D03*
X134200000Y-99500000D03*
X130800000Y-90500000D03*
X129200000Y-90500000D03*
X130800000Y-93500000D03*
X129200000Y-93500000D03*
X130800000Y-96500000D03*
X129200000Y-96500000D03*
X130800000Y-99500000D03*
X129200000Y-99500000D03*
D14*
X126250000Y-96500000D03*
X124750000Y-96500000D03*
X126250000Y-99500000D03*
X124750000Y-99500000D03*
X148750000Y-96500000D03*
X150250000Y-96500000D03*
X148750000Y-99500000D03*
X150250000Y-99500000D03*
D15*
X136575000Y-103000000D03*
X138425000Y-103000000D03*
G04 #@! TA.AperFunction,SMDPad,CuDef*
G36*
G01*
X135687500Y-105608000D02*
X135812500Y-105608000D01*
G75*
G02*
X135875000Y-105670500I0J-62500D01*
G01*
X135875000Y-106295500D01*
G75*
G02*
X135812500Y-106358000I-62500J0D01*
G01*
X135687500Y-106358000D01*
G75*
G02*
X135625000Y-106295500I0J62500D01*
G01*
X135625000Y-105670500D01*
G75*
G02*
X135687500Y-105608000I62500J0D01*
G01*
G37*
G04 #@! TD.AperFunction*
G04 #@! TA.AperFunction,SMDPad,CuDef*
G36*
G01*
X136187500Y-105608000D02*
X136312500Y-105608000D01*
G75*
G02*
X136375000Y-105670500I0J-62500D01*
G01*
X136375000Y-106295500D01*
G75*
G02*
X136312500Y-106358000I-62500J0D01*
G01*
X136187500Y-106358000D01*
G75*
G02*
X136125000Y-106295500I0J62500D01*
G01*
X136125000Y-105670500D01*
G75*
G02*
X136187500Y-105608000I62500J0D01*
G01*
G37*
G04 #@! TD.AperFunction*
G04 #@! TA.AperFunction,SMDPad,CuDef*
G36*
G01*
X136687500Y-105608000D02*
X136812500Y-105608000D01*
G75*
G02*
X136875000Y-105670500I0J-62500D01*
G01*
X136875000Y-106295500D01*
G75*
G02*
X136812500Y-106358000I-62500J0D01*
G01*
X136687500Y-106358000D01*
G75*
G02*
X136625000Y-106295500I0J62500D01*
G01*
X136625000Y-105670500D01*
G75*
G02*
X136687500Y-105608000I62500J0D01*
G01*
G37*
G04 #@! TD.AperFunction*
G04 #@! TA.AperFunction,SMDPad,CuDef*
G36*
G01*
X137187500Y-105608000D02*
X137312500Y-105608000D01*
G75*
G02*
X137375000Y-105670500I0J-62500D01*
G01*
X137375000Y-106295500D01*
G75*
G02*
X137312500Y-106358000I-62500J0D01*
G01*
X137187500Y-106358000D01*
G75*
G02*
X137125000Y-106295500I0J62500D01*
G01*
X137125000Y-105670500D01*
G75*
G02*
X137187500Y-105608000I62500J0D01*
G01*
G37*
G04 #@! TD.AperFunction*
G04 #@! TA.AperFunction,SMDPad,CuDef*
G36*
G01*
X137687500Y-105608000D02*
X137812500Y-105608000D01*
G75*
G02*
X137875000Y-105670500I0J-62500D01*
G01*
X137875000Y-106295500D01*
G75*
G02*
X137812500Y-106358000I-62500J0D01*
G01*
X137687500Y-106358000D01*
G75*
G02*
X137625000Y-106295500I0J62500D01*
G01*
X137625000Y-105670500D01*
G75*
G02*
X137687500Y-105608000I62500J0D01*
G01*
G37*
G04 #@! TD.AperFunction*
G04 #@! TA.AperFunction,SMDPad,CuDef*
G36*
G01*
X138187500Y-105608000D02*
X138312500Y-105608000D01*
G75*
G02*
X138375000Y-105670500I0J-62500D01*
G01*
X138375000Y-106295500D01*
G75*
G02*
X138312500Y-106358000I-62500J0D01*
G01*
X138187500Y-106358000D01*
G75*
G02*
X138125000Y-106295500I0J62500D01*
G01*
X138125000Y-105670500D01*
G75*
G02*
X138187500Y-105608000I62500J0D01*
G01*
G37*
G04 #@! TD.AperFunction*
G04 #@! TA.AperFunction,SMDPad,CuDef*
G36*
G01*
X138687500Y-105608000D02*
X138812500Y-105608000D01*
G75*
G02*
X138875000Y-105670500I0J-62500D01*
G01*
X138875000Y-106295500D01*
G75*
G02*
X138812500Y-106358000I-62500J0D01*
G01*
X138687500Y-106358000D01*
G75*
G02*
X138625000Y-106295500I0J62500D01*
G01*
X138625000Y-105670500D01*
G75*
G02*
X138687500Y-105608000I62500J0D01*
G01*
G37*
G04 #@! TD.AperFunction*
G04 #@! TA.AperFunction,SMDPad,CuDef*
G36*
G01*
X139187500Y-105608000D02*
X139312500Y-105608000D01*
G75*
G02*
X139375000Y-105670500I0J-62500D01*
G01*
X139375000Y-106295500D01*
G75*
G02*
X139312500Y-106358000I-62500J0D01*
G01*
X139187500Y-106358000D01*
G75*
G02*
X139125000Y-106295500I0J62500D01*
G01*
X139125000Y-105670500D01*
G75*
G02*
X139187500Y-105608000I62500J0D01*
G01*
G37*
G04 #@! TD.AperFunction*
G04 #@! TA.AperFunction,SMDPad,CuDef*
G36*
G01*
X139662500Y-106583000D02*
X140287500Y-106583000D01*
G75*
G02*
X140350000Y-106645500I0J-62500D01*
G01*
X140350000Y-106770500D01*
G75*
G02*
X140287500Y-106833000I-62500J0D01*
G01*
X139662500Y-106833000D01*
G75*
G02*
X139600000Y-106770500I0J62500D01*
G01*
X139600000Y-106645500D01*
G75*
G02*
X139662500Y-106583000I62500J0D01*
G01*
G37*
G04 #@! TD.AperFunction*
G04 #@! TA.AperFunction,SMDPad,CuDef*
G36*
G01*
X139662500Y-107083000D02*
X140287500Y-107083000D01*
G75*
G02*
X140350000Y-107145500I0J-62500D01*
G01*
X140350000Y-107270500D01*
G75*
G02*
X140287500Y-107333000I-62500J0D01*
G01*
X139662500Y-107333000D01*
G75*
G02*
X139600000Y-107270500I0J62500D01*
G01*
X139600000Y-107145500D01*
G75*
G02*
X139662500Y-107083000I62500J0D01*
G01*
G37*
G04 #@! TD.AperFunction*
G04 #@! TA.AperFunction,SMDPad,CuDef*
G36*
G01*
X139662500Y-107583000D02*
X140287500Y-107583000D01*
G75*
G02*
X140350000Y-107645500I0J-62500D01*
G01*
X140350000Y-107770500D01*
G75*
G02*
X140287500Y-107833000I-62500J0D01*
G01*
X139662500Y-107833000D01*
G75*
G02*
X139600000Y-107770500I0J62500D01*
G01*
X139600000Y-107645500D01*
G75*
G02*
X139662500Y-107583000I62500J0D01*
G01*
G37*
G04 #@! TD.AperFunction*
G04 #@! TA.AperFunction,SMDPad,CuDef*
G36*
G01*
X139662500Y-108083000D02*
X140287500Y-108083000D01*
G75*
G02*
X140350000Y-108145500I0J-62500D01*
G01*
X140350000Y-108270500D01*
G75*
G02*
X140287500Y-108333000I-62500J0D01*
G01*
X139662500Y-108333000D01*
G75*
G02*
X139600000Y-108270500I0J62500D01*
G01*
X139600000Y-108145500D01*
G75*
G02*
X139662500Y-108083000I62500J0D01*
G01*
G37*
G04 #@! TD.AperFunction*
G04 #@! TA.AperFunction,SMDPad,CuDef*
G36*
G01*
X139662500Y-108583000D02*
X140287500Y-108583000D01*
G75*
G02*
X140350000Y-108645500I0J-62500D01*
G01*
X140350000Y-108770500D01*
G75*
G02*
X140287500Y-108833000I-62500J0D01*
G01*
X139662500Y-108833000D01*
G75*
G02*
X139600000Y-108770500I0J62500D01*
G01*
X139600000Y-108645500D01*
G75*
G02*
X139662500Y-108583000I62500J0D01*
G01*
G37*
G04 #@! TD.AperFunction*
G04 #@! TA.AperFunction,SMDPad,CuDef*
G36*
G01*
X139662500Y-109083000D02*
X140287500Y-109083000D01*
G75*
G02*
X140350000Y-109145500I0J-62500D01*
G01*
X140350000Y-109270500D01*
G75*
G02*
X140287500Y-109333000I-62500J0D01*
G01*
X139662500Y-109333000D01*
G75*
G02*
X139600000Y-109270500I0J62500D01*
G01*
X139600000Y-109145500D01*
G75*
G02*
X139662500Y-109083000I62500J0D01*
G01*
G37*
G04 #@! TD.AperFunction*
G04 #@! TA.AperFunction,SMDPad,CuDef*
G36*
G01*
X139662500Y-109583000D02*
X140287500Y-109583000D01*
G75*
G02*
X140350000Y-109645500I0J-62500D01*
G01*
X140350000Y-109770500D01*
G75*
G02*
X140287500Y-109833000I-62500J0D01*
G01*
X139662500Y-109833000D01*
G75*
G02*
X139600000Y-109770500I0J62500D01*
G01*
X139600000Y-109645500D01*
G75*
G02*
X139662500Y-109583000I62500J0D01*
G01*
G37*
G04 #@! TD.AperFunction*
G04 #@! TA.AperFunction,SMDPad,CuDef*
G36*
G01*
X139662500Y-110083000D02*
X140287500Y-110083000D01*
G75*
G02*
X140350000Y-110145500I0J-62500D01*
G01*
X140350000Y-110270500D01*
G75*
G02*
X140287500Y-110333000I-62500J0D01*
G01*
X139662500Y-110333000D01*
G75*
G02*
X139600000Y-110270500I0J62500D01*
G01*
X139600000Y-110145500D01*
G75*
G02*
X139662500Y-110083000I62500J0D01*
G01*
G37*
G04 #@! TD.AperFunction*
G04 #@! TA.AperFunction,SMDPad,CuDef*
G36*
G01*
X139187500Y-110558000D02*
X139312500Y-110558000D01*
G75*
G02*
X139375000Y-110620500I0J-62500D01*
G01*
X139375000Y-111245500D01*
G75*
G02*
X139312500Y-111308000I-62500J0D01*
G01*
X139187500Y-111308000D01*
G75*
G02*
X139125000Y-111245500I0J62500D01*
G01*
X139125000Y-110620500D01*
G75*
G02*
X139187500Y-110558000I62500J0D01*
G01*
G37*
G04 #@! TD.AperFunction*
G04 #@! TA.AperFunction,SMDPad,CuDef*
G36*
G01*
X138687500Y-110558000D02*
X138812500Y-110558000D01*
G75*
G02*
X138875000Y-110620500I0J-62500D01*
G01*
X138875000Y-111245500D01*
G75*
G02*
X138812500Y-111308000I-62500J0D01*
G01*
X138687500Y-111308000D01*
G75*
G02*
X138625000Y-111245500I0J62500D01*
G01*
X138625000Y-110620500D01*
G75*
G02*
X138687500Y-110558000I62500J0D01*
G01*
G37*
G04 #@! TD.AperFunction*
G04 #@! TA.AperFunction,SMDPad,CuDef*
G36*
G01*
X138187500Y-110558000D02*
X138312500Y-110558000D01*
G75*
G02*
X138375000Y-110620500I0J-62500D01*
G01*
X138375000Y-111245500D01*
G75*
G02*
X138312500Y-111308000I-62500J0D01*
G01*
X138187500Y-111308000D01*
G75*
G02*
X138125000Y-111245500I0J62500D01*
G01*
X138125000Y-110620500D01*
G75*
G02*
X138187500Y-110558000I62500J0D01*
G01*
G37*
G04 #@! TD.AperFunction*
G04 #@! TA.AperFunction,SMDPad,CuDef*
G36*
G01*
X137687500Y-110558000D02*
X137812500Y-110558000D01*
G75*
G02*
X137875000Y-110620500I0J-62500D01*
G01*
X137875000Y-111245500D01*
G75*
G02*
X137812500Y-111308000I-62500J0D01*
G01*
X137687500Y-111308000D01*
G75*
G02*
X137625000Y-111245500I0J62500D01*
G01*
X137625000Y-110620500D01*
G75*
G02*
X137687500Y-110558000I62500J0D01*
G01*
G37*
G04 #@! TD.AperFunction*
G04 #@! TA.AperFunction,SMDPad,CuDef*
G36*
G01*
X137187500Y-110558000D02*
X137312500Y-110558000D01*
G75*
G02*
X137375000Y-110620500I0J-62500D01*
G01*
X137375000Y-111245500D01*
G75*
G02*
X137312500Y-111308000I-62500J0D01*
G01*
X137187500Y-111308000D01*
G75*
G02*
X137125000Y-111245500I0J62500D01*
G01*
X137125000Y-110620500D01*
G75*
G02*
X137187500Y-110558000I62500J0D01*
G01*
G37*
G04 #@! TD.AperFunction*
G04 #@! TA.AperFunction,SMDPad,CuDef*
G36*
G01*
X136687500Y-110558000D02*
X136812500Y-110558000D01*
G75*
G02*
X136875000Y-110620500I0J-62500D01*
G01*
X136875000Y-111245500D01*
G75*
G02*
X136812500Y-111308000I-62500J0D01*
G01*
X136687500Y-111308000D01*
G75*
G02*
X136625000Y-111245500I0J62500D01*
G01*
X136625000Y-110620500D01*
G75*
G02*
X136687500Y-110558000I62500J0D01*
G01*
G37*
G04 #@! TD.AperFunction*
G04 #@! TA.AperFunction,SMDPad,CuDef*
G36*
G01*
X136187500Y-110558000D02*
X136312500Y-110558000D01*
G75*
G02*
X136375000Y-110620500I0J-62500D01*
G01*
X136375000Y-111245500D01*
G75*
G02*
X136312500Y-111308000I-62500J0D01*
G01*
X136187500Y-111308000D01*
G75*
G02*
X136125000Y-111245500I0J62500D01*
G01*
X136125000Y-110620500D01*
G75*
G02*
X136187500Y-110558000I62500J0D01*
G01*
G37*
G04 #@! TD.AperFunction*
G04 #@! TA.AperFunction,SMDPad,CuDef*
G36*
G01*
X135687500Y-110558000D02*
X135812500Y-110558000D01*
G75*
G02*
X135875000Y-110620500I0J-62500D01*
G01*
X135875000Y-111245500D01*
G75*
G02*
X135812500Y-111308000I-62500J0D01*
G01*
X135687500Y-111308000D01*
G75*
G02*
X135625000Y-111245500I0J62500D01*
G01*
X135625000Y-110620500D01*
G75*
G02*
X135687500Y-110558000I62500J0D01*
G01*
G37*
G04 #@! TD.AperFunction*
G04 #@! TA.AperFunction,SMDPad,CuDef*
G36*
G01*
X134712500Y-110083000D02*
X135337500Y-110083000D01*
G75*
G02*
X135400000Y-110145500I0J-62500D01*
G01*
X135400000Y-110270500D01*
G75*
G02*
X135337500Y-110333000I-62500J0D01*
G01*
X134712500Y-110333000D01*
G75*
G02*
X134650000Y-110270500I0J62500D01*
G01*
X134650000Y-110145500D01*
G75*
G02*
X134712500Y-110083000I62500J0D01*
G01*
G37*
G04 #@! TD.AperFunction*
G04 #@! TA.AperFunction,SMDPad,CuDef*
G36*
G01*
X134712500Y-109583000D02*
X135337500Y-109583000D01*
G75*
G02*
X135400000Y-109645500I0J-62500D01*
G01*
X135400000Y-109770500D01*
G75*
G02*
X135337500Y-109833000I-62500J0D01*
G01*
X134712500Y-109833000D01*
G75*
G02*
X134650000Y-109770500I0J62500D01*
G01*
X134650000Y-109645500D01*
G75*
G02*
X134712500Y-109583000I62500J0D01*
G01*
G37*
G04 #@! TD.AperFunction*
G04 #@! TA.AperFunction,SMDPad,CuDef*
G36*
G01*
X134712500Y-109083000D02*
X135337500Y-109083000D01*
G75*
G02*
X135400000Y-109145500I0J-62500D01*
G01*
X135400000Y-109270500D01*
G75*
G02*
X135337500Y-109333000I-62500J0D01*
G01*
X134712500Y-109333000D01*
G75*
G02*
X134650000Y-109270500I0J62500D01*
G01*
X134650000Y-109145500D01*
G75*
G02*
X134712500Y-109083000I62500J0D01*
G01*
G37*
G04 #@! TD.AperFunction*
G04 #@! TA.AperFunction,SMDPad,CuDef*
G36*
G01*
X134712500Y-108583000D02*
X135337500Y-108583000D01*
G75*
G02*
X135400000Y-108645500I0J-62500D01*
G01*
X135400000Y-108770500D01*
G75*
G02*
X135337500Y-108833000I-62500J0D01*
G01*
X134712500Y-108833000D01*
G75*
G02*
X134650000Y-108770500I0J62500D01*
G01*
X134650000Y-108645500D01*
G75*
G02*
X134712500Y-108583000I62500J0D01*
G01*
G37*
G04 #@! TD.AperFunction*
G04 #@! TA.AperFunction,SMDPad,CuDef*
G36*
G01*
X134712500Y-108083000D02*
X135337500Y-108083000D01*
G75*
G02*
X135400000Y-108145500I0J-62500D01*
G01*
X135400000Y-108270500D01*
G75*
G02*
X135337500Y-108333000I-62500J0D01*
G01*
X134712500Y-108333000D01*
G75*
G02*
X134650000Y-108270500I0J62500D01*
G01*
X134650000Y-108145500D01*
G75*
G02*
X134712500Y-108083000I62500J0D01*
G01*
G37*
G04 #@! TD.AperFunction*
G04 #@! TA.AperFunction,SMDPad,CuDef*
G36*
G01*
X134712500Y-107583000D02*
X135337500Y-107583000D01*
G75*
G02*
X135400000Y-107645500I0J-62500D01*
G01*
X135400000Y-107770500D01*
G75*
G02*
X135337500Y-107833000I-62500J0D01*
G01*
X134712500Y-107833000D01*
G75*
G02*
X134650000Y-107770500I0J62500D01*
G01*
X134650000Y-107645500D01*
G75*
G02*
X134712500Y-107583000I62500J0D01*
G01*
G37*
G04 #@! TD.AperFunction*
G04 #@! TA.AperFunction,SMDPad,CuDef*
G36*
G01*
X134712500Y-107083000D02*
X135337500Y-107083000D01*
G75*
G02*
X135400000Y-107145500I0J-62500D01*
G01*
X135400000Y-107270500D01*
G75*
G02*
X135337500Y-107333000I-62500J0D01*
G01*
X134712500Y-107333000D01*
G75*
G02*
X134650000Y-107270500I0J62500D01*
G01*
X134650000Y-107145500D01*
G75*
G02*
X134712500Y-107083000I62500J0D01*
G01*
G37*
G04 #@! TD.AperFunction*
G04 #@! TA.AperFunction,SMDPad,CuDef*
G36*
G01*
X134712500Y-106583000D02*
X135337500Y-106583000D01*
G75*
G02*
X135400000Y-106645500I0J-62500D01*
G01*
X135400000Y-106770500D01*
G75*
G02*
X135337500Y-106833000I-62500J0D01*
G01*
X134712500Y-106833000D01*
G75*
G02*
X134650000Y-106770500I0J62500D01*
G01*
X134650000Y-106645500D01*
G75*
G02*
X134712500Y-106583000I62500J0D01*
G01*
G37*
G04 #@! TD.AperFunction*
D16*
X137500000Y-108458000D03*
D17*
X143364094Y-104657990D03*
X141605000Y-105283000D03*
X128083979Y-103612012D03*
X151257000Y-102362000D03*
X139783990Y-112141000D03*
X144600000Y-102997000D03*
X143637000Y-110109000D03*
X130425658Y-102987002D03*
X129032000Y-105664000D03*
X129168990Y-107578990D03*
X128397000Y-107061000D03*
X144398730Y-105917730D03*
X129794000Y-104775000D03*
X130175000Y-108585000D03*
X134149906Y-105320906D03*
X142494000Y-105918000D03*
X131246161Y-108592994D03*
X147000000Y-95000000D03*
X145413968Y-104901988D03*
X128397000Y-91948000D03*
X128270000Y-94615000D03*
X128124000Y-102000000D03*
X131653034Y-111585649D03*
X132185070Y-110986894D03*
X133858000Y-107569000D03*
X143885814Y-108845223D03*
X148082000Y-91313000D03*
X130556000Y-88900000D03*
D18*
X135050000Y-104648000D02*
X135750000Y-105348000D01*
X135750000Y-105348000D02*
X135750000Y-105983000D01*
X133858000Y-104648000D02*
X135050000Y-104648000D01*
X131568000Y-106032000D02*
X131568000Y-105607000D01*
X132461000Y-104648000D02*
X133858000Y-104648000D01*
X132461000Y-104714000D02*
X131568000Y-105607000D01*
X132461000Y-104648000D02*
X132461000Y-104714000D01*
X134555000Y-105983000D02*
X135750000Y-105983000D01*
X133666000Y-105983000D02*
X134555000Y-105983000D01*
X132651500Y-107398500D02*
X132651500Y-106997500D01*
X132468000Y-107582000D02*
X132651500Y-107398500D01*
X132651500Y-106997500D02*
X133666000Y-105983000D01*
X132068000Y-107582000D02*
X132468000Y-107582000D01*
X143181033Y-104841051D02*
X143364094Y-104657990D01*
X137750000Y-105983000D02*
X137750000Y-104948410D01*
X137750000Y-104948410D02*
X137857359Y-104841051D01*
X140776949Y-104841051D02*
X141163051Y-104841051D01*
X140776949Y-104841051D02*
X143181033Y-104841051D01*
X137857359Y-104841051D02*
X140776949Y-104841051D01*
X141163051Y-104841051D02*
X141605000Y-105283000D01*
X132461000Y-104648000D02*
X131725011Y-103912011D01*
X130610990Y-103612012D02*
X130910989Y-103912011D01*
X128083979Y-103612012D02*
X130610990Y-103612012D01*
X131725011Y-103912011D02*
X130910989Y-103912011D01*
X142494000Y-112136000D02*
X142499000Y-112136000D01*
X151257000Y-103378000D02*
X151257000Y-102362000D01*
X142499000Y-112136000D02*
X151257000Y-103378000D01*
X139788990Y-112136000D02*
X139783990Y-112141000D01*
X139783990Y-111466990D02*
X139783990Y-112141000D01*
X142494000Y-112136000D02*
X139788990Y-112136000D01*
X139250000Y-110933000D02*
X139783990Y-111466990D01*
X132750000Y-102000000D02*
X142000000Y-102000000D01*
X132750000Y-102000000D02*
X132550000Y-102000000D01*
X142450000Y-102000000D02*
X143450000Y-103000000D01*
X132550000Y-102000000D02*
X131550000Y-103000000D01*
X142000000Y-102000000D02*
X142450000Y-102000000D01*
X142450000Y-102000000D02*
X143450000Y-103000000D01*
X131068000Y-107582000D02*
X131568000Y-107582000D01*
X131550000Y-103000000D02*
X132436000Y-103886000D01*
X132436000Y-103886000D02*
X135763000Y-103886000D01*
X135763000Y-103886000D02*
X136144000Y-103886000D01*
X135750000Y-106708000D02*
X137500000Y-108458000D01*
X135025000Y-106708000D02*
X135750000Y-106708000D01*
X139250000Y-110208000D02*
X137500000Y-108458000D01*
X139975000Y-110208000D02*
X139250000Y-110208000D01*
X144650000Y-103000000D02*
X144653000Y-102997000D01*
X144597000Y-103000000D02*
X144600000Y-102997000D01*
X143450000Y-103000000D02*
X144597000Y-103000000D01*
X142621000Y-110109000D02*
X142494000Y-110236000D01*
X143637000Y-110109000D02*
X142621000Y-110109000D01*
X140003000Y-110236000D02*
X139975000Y-110208000D01*
X142494000Y-110236000D02*
X140003000Y-110236000D01*
X142996179Y-103000000D02*
X142110179Y-103886000D01*
X142110179Y-103886000D02*
X137875011Y-103886000D01*
X143450000Y-103000000D02*
X142996179Y-103000000D01*
X131550000Y-103000000D02*
X130438656Y-103000000D01*
X133830000Y-106708000D02*
X135025000Y-106708000D01*
X131568000Y-108007000D02*
X131703983Y-108142983D01*
X133101511Y-107436489D02*
X133830000Y-106708000D01*
X131703983Y-108142983D02*
X132776017Y-108142983D01*
X132776017Y-108142983D02*
X133101511Y-107817489D01*
X131568000Y-107582000D02*
X131568000Y-108007000D01*
X133101511Y-107817489D02*
X133101511Y-107436489D01*
X138225000Y-89525000D02*
X143225000Y-89525000D01*
X143225000Y-89525000D02*
X144200000Y-90500000D01*
X138225000Y-89525000D02*
X139200000Y-90500000D01*
X129200000Y-90500000D02*
X129250000Y-90500000D01*
X133225000Y-89525000D02*
X134200000Y-90500000D01*
X127964000Y-90500000D02*
X128321000Y-90500000D01*
X126250000Y-92214000D02*
X127964000Y-90500000D01*
X128321000Y-90500000D02*
X129200000Y-90500000D01*
X126250000Y-96500000D02*
X126250000Y-92214000D01*
X133225000Y-89525000D02*
X133741000Y-89525000D01*
X133741000Y-89525000D02*
X134102000Y-89525000D01*
X134102000Y-89525000D02*
X138225000Y-89525000D01*
X129200000Y-90500000D02*
X130175000Y-89525000D01*
X130175000Y-89525000D02*
X130566000Y-89525000D01*
X130566000Y-89525000D02*
X130275000Y-89525000D01*
X134102000Y-89525000D02*
X130566000Y-89525000D01*
X138225000Y-94475000D02*
X143225000Y-94475000D01*
X143225000Y-94475000D02*
X144200000Y-93500000D01*
X133225000Y-94475000D02*
X138225000Y-94475000D01*
X138225000Y-94475000D02*
X139200000Y-93500000D01*
X133225000Y-94475000D02*
X134200000Y-93500000D01*
X126250000Y-99500000D02*
X126250000Y-99250000D01*
X126250000Y-99250000D02*
X127500000Y-98000000D01*
X127500000Y-98000000D02*
X127500000Y-95200000D01*
X127500000Y-95200000D02*
X127500000Y-94242000D01*
X128242000Y-93500000D02*
X129200000Y-93500000D01*
X127500000Y-94242000D02*
X128242000Y-93500000D01*
X129200000Y-93500000D02*
X129200000Y-93513000D01*
X130162000Y-94475000D02*
X130289000Y-94475000D01*
X129200000Y-93513000D02*
X130162000Y-94475000D01*
X130289000Y-94475000D02*
X133225000Y-94475000D01*
X136250000Y-97500000D02*
X130200000Y-97500000D01*
X130200000Y-97500000D02*
X129200000Y-96500000D01*
X140250000Y-97500000D02*
X136250000Y-97500000D01*
X136250000Y-97500000D02*
X135200000Y-97500000D01*
X135200000Y-97500000D02*
X134200000Y-96500000D01*
X145200000Y-97500000D02*
X147750000Y-97500000D01*
X147750000Y-97500000D02*
X148750000Y-96500000D01*
X145200000Y-97500000D02*
X140250000Y-97500000D01*
X140250000Y-97500000D02*
X140200000Y-97500000D01*
X140200000Y-97500000D02*
X139200000Y-96500000D01*
X145200000Y-97500000D02*
X144200000Y-96500000D01*
X145250000Y-98500000D02*
X147750000Y-98500000D01*
X147750000Y-98500000D02*
X148750000Y-99500000D01*
X135200000Y-98500000D02*
X130200000Y-98500000D01*
X130200000Y-98500000D02*
X129200000Y-99500000D01*
X140250000Y-98500000D02*
X135200000Y-98500000D01*
X135200000Y-98500000D02*
X134200000Y-99500000D01*
X145250000Y-98500000D02*
X140250000Y-98500000D01*
X140250000Y-98500000D02*
X140200000Y-98500000D01*
X140200000Y-98500000D02*
X139200000Y-99500000D01*
X148750000Y-99500000D02*
X148500000Y-99500000D01*
X145250000Y-98500000D02*
X145200000Y-98500000D01*
X145200000Y-98500000D02*
X144200000Y-99500000D01*
X144200000Y-99500000D02*
X144200000Y-99700000D01*
X139200000Y-99500000D02*
X139200000Y-99700000D01*
X130568000Y-106032000D02*
X129400000Y-106032000D01*
X129400000Y-106032000D02*
X129032000Y-105664000D01*
X130337121Y-109672125D02*
X129168990Y-108503994D01*
X135025000Y-109208000D02*
X134383643Y-109208000D01*
X134383643Y-109208000D02*
X133919518Y-109672125D01*
X133919518Y-109672125D02*
X130337121Y-109672125D01*
X129168990Y-108503994D02*
X129168990Y-107578990D01*
X130543000Y-106557000D02*
X128901000Y-106557000D01*
X128901000Y-106557000D02*
X128397000Y-107061000D01*
X128397000Y-108297704D02*
X130204765Y-110105469D01*
X134601978Y-109708000D02*
X135025000Y-109708000D01*
X128397000Y-107061000D02*
X128397000Y-108297704D01*
X134204509Y-110105469D02*
X134601978Y-109708000D01*
X132845531Y-110105469D02*
X132464531Y-110105469D01*
X131314469Y-110105469D02*
X133219469Y-110105469D01*
X133219469Y-110105469D02*
X134204509Y-110105469D01*
X132845531Y-110105469D02*
X133219469Y-110105469D01*
X130204765Y-110105469D02*
X131314469Y-110105469D01*
X131314469Y-110105469D02*
X131812331Y-110105469D01*
X144398730Y-104767908D02*
X144398730Y-105917730D01*
X144398730Y-104266730D02*
X144398730Y-104767908D01*
X143891000Y-103759000D02*
X144398730Y-104266730D01*
X143129000Y-103759000D02*
X143891000Y-103759000D01*
X142551991Y-104336009D02*
X143129000Y-103759000D01*
X137725990Y-104336009D02*
X142551991Y-104336009D01*
X137250000Y-104812000D02*
X137725990Y-104336009D01*
X137250000Y-105983000D02*
X137250000Y-104812000D01*
X131068000Y-105621998D02*
X131068000Y-106032000D01*
X130221002Y-104775000D02*
X131068000Y-105621998D01*
X129794000Y-104775000D02*
X130221002Y-104775000D01*
X134489000Y-108708000D02*
X135025000Y-108708000D01*
X134263851Y-108708000D02*
X134489000Y-108708000D01*
X134247233Y-108708000D02*
X134489000Y-108708000D01*
X133735242Y-109219991D02*
X134247233Y-108708000D01*
X133730991Y-109219991D02*
X133735242Y-109219991D01*
X134242982Y-108708000D02*
X133730991Y-109219991D01*
X135025000Y-108708000D02*
X134242982Y-108708000D01*
X130809991Y-109219991D02*
X130175000Y-108585000D01*
X131466904Y-109219991D02*
X130809991Y-109219991D01*
X131466904Y-109219991D02*
X133730991Y-109219991D01*
X138425000Y-103000000D02*
X141550000Y-103000000D01*
X138425000Y-103000000D02*
X137650000Y-103000000D01*
X137650000Y-103000000D02*
X137425001Y-103224999D01*
X137425001Y-103224999D02*
X137425001Y-103877821D01*
X137425001Y-103877821D02*
X136750000Y-104552822D01*
X136750000Y-104552822D02*
X136750000Y-105348000D01*
X136750000Y-105348000D02*
X136750000Y-105983000D01*
X136575000Y-103000000D02*
X133450000Y-103000000D01*
X136250000Y-105348000D02*
X136250000Y-104416411D01*
X136250000Y-104416411D02*
X136594011Y-104072400D01*
X136594011Y-103019011D02*
X136575000Y-103000000D01*
X136594011Y-104072400D02*
X136594011Y-103019011D01*
X136250000Y-105348000D02*
X136250000Y-105983000D01*
X132093000Y-106557000D02*
X132316810Y-106557000D01*
X133552904Y-105320906D02*
X134149906Y-105320906D01*
X132316810Y-106557000D02*
X133552904Y-105320906D01*
X138250000Y-105463000D02*
X138250000Y-105983000D01*
X140753996Y-105283000D02*
X138430000Y-105283000D01*
X141388996Y-105918000D02*
X140753996Y-105283000D01*
X142494000Y-105918000D02*
X141388996Y-105918000D01*
X138430000Y-105283000D02*
X138250000Y-105463000D01*
X134106572Y-108208000D02*
X133721578Y-108592994D01*
X130568000Y-107914833D02*
X131246161Y-108592994D01*
X133721578Y-108592994D02*
X131246161Y-108592994D01*
X130568000Y-107582000D02*
X130568000Y-107914833D01*
X135025000Y-108208000D02*
X134106572Y-108208000D01*
X145800000Y-96500000D02*
X146750000Y-96500000D01*
X146750000Y-96500000D02*
X148625000Y-94625000D01*
X147500000Y-93500000D02*
X145800000Y-93500000D01*
X148625000Y-94625000D02*
X147500000Y-93500000D01*
X149500000Y-100052179D02*
X149500000Y-95500000D01*
X149500000Y-95500000D02*
X148625000Y-94625000D01*
X146050000Y-99750000D02*
X145800000Y-99500000D01*
X149096590Y-100455590D02*
X147067410Y-100455590D01*
X149096590Y-100455590D02*
X149500000Y-100052179D01*
X144628770Y-107208000D02*
X146038978Y-105797792D01*
X139975000Y-107208000D02*
X144628770Y-107208000D01*
X146755590Y-100455590D02*
X145800000Y-99500000D01*
X147067410Y-100455590D02*
X146755590Y-100455590D01*
X149096590Y-100455590D02*
X149096590Y-100458410D01*
X149096590Y-100458410D02*
X146038978Y-103516022D01*
X146038978Y-105797792D02*
X146038978Y-103516022D01*
X147500000Y-92200000D02*
X145800000Y-90500000D01*
X147500000Y-93500000D02*
X147500000Y-92200000D01*
X146500000Y-94500000D02*
X145000000Y-94500000D01*
X147000000Y-95000000D02*
X146500000Y-94500000D01*
X140800000Y-99500000D02*
X140750000Y-99500000D01*
X140800000Y-99500000D02*
X141000000Y-99500000D01*
X145000000Y-94500000D02*
X144250000Y-94500000D01*
X142250000Y-96500000D02*
X140800000Y-96500000D01*
X144250000Y-94500000D02*
X142250000Y-96500000D01*
X142275000Y-92025000D02*
X142275000Y-91975000D01*
X142275000Y-91975000D02*
X140800000Y-90500000D01*
X142300000Y-92000000D02*
X142275000Y-92025000D01*
X142275000Y-92025000D02*
X140800000Y-93500000D01*
X144500000Y-92000000D02*
X142300000Y-92000000D01*
X145000000Y-92500000D02*
X144500000Y-92000000D01*
X145000000Y-94500000D02*
X145000000Y-92500000D01*
X142299000Y-99500000D02*
X145413968Y-102614968D01*
X145413968Y-102614968D02*
X145413968Y-104901988D01*
X140800000Y-99500000D02*
X142299000Y-99500000D01*
X145413968Y-105786392D02*
X145413968Y-104901988D01*
X144492359Y-106708000D02*
X145413968Y-105786392D01*
X139975000Y-106708000D02*
X144492359Y-106708000D01*
X134800000Y-100500000D02*
X135800000Y-99500000D01*
X135800000Y-99500000D02*
X135750000Y-99500000D01*
X131000000Y-100500000D02*
X134800000Y-100500000D01*
X134300000Y-92000000D02*
X135800000Y-93500000D01*
X134300000Y-92000000D02*
X135800000Y-90500000D01*
X135800000Y-93500000D02*
X135750000Y-93500000D01*
X135800000Y-90500000D02*
X135800000Y-90700000D01*
X129500000Y-102000000D02*
X131000000Y-100500000D01*
X128449000Y-92000000D02*
X128397000Y-91948000D01*
X134300000Y-92000000D02*
X128449000Y-92000000D01*
X127075011Y-108283008D02*
X131002653Y-112210650D01*
X136031783Y-112210650D02*
X136750000Y-111492433D01*
X131002653Y-112210650D02*
X136031783Y-112210650D01*
X136750000Y-111492433D02*
X136750000Y-110933000D01*
X127075011Y-102924989D02*
X127075011Y-108283008D01*
X128000000Y-102000000D02*
X127075011Y-102924989D01*
X135750000Y-96500000D02*
X134500000Y-95250000D01*
X128905000Y-95250000D02*
X128270000Y-94615000D01*
X130500000Y-95250000D02*
X128905000Y-95250000D01*
X130500000Y-95250000D02*
X134500000Y-95250000D01*
X135800000Y-96500000D02*
X135750000Y-96500000D01*
X128124000Y-102000000D02*
X129500000Y-102000000D01*
X128000000Y-102000000D02*
X128124000Y-102000000D01*
X128000000Y-100750000D02*
X128000000Y-100500000D01*
X128000000Y-100500000D02*
X130000000Y-100500000D01*
X130000000Y-100500000D02*
X130800000Y-99700000D01*
X130800000Y-99700000D02*
X130800000Y-99500000D01*
X128000000Y-100750000D02*
X126625000Y-102125000D01*
X125500000Y-98750000D02*
X127000000Y-97250000D01*
X127000000Y-97250000D02*
X127000000Y-93500000D01*
X125500000Y-100987590D02*
X125500000Y-98750000D01*
X126624999Y-102112589D02*
X125500000Y-100987590D01*
X126625000Y-102125000D02*
X126624999Y-102112589D01*
X128718600Y-95700011D02*
X130000011Y-95700011D01*
X128000000Y-100500000D02*
X128000000Y-96418611D01*
X128000000Y-96418611D02*
X128718600Y-95700011D01*
X130000011Y-95700011D02*
X130800000Y-96500000D01*
X129873002Y-92573002D02*
X130800000Y-93500000D01*
X127000000Y-92419996D02*
X127000000Y-93500000D01*
X130500000Y-90500000D02*
X129756011Y-91243989D01*
X129756011Y-91243989D02*
X128176007Y-91243989D01*
X127926998Y-92573002D02*
X129873002Y-92573002D01*
X128176007Y-91243989D02*
X127000000Y-92419996D01*
X127000000Y-93500000D02*
X127926998Y-92573002D01*
X130800000Y-90500000D02*
X130500000Y-90500000D01*
X136218183Y-112660661D02*
X137250000Y-111628844D01*
X137250000Y-111628844D02*
X137250000Y-110933000D01*
X126625000Y-102125000D02*
X126625000Y-108469408D01*
X130816253Y-112660661D02*
X136218183Y-112660661D01*
X126625000Y-108469408D02*
X130816253Y-112660661D01*
X124750000Y-96500000D02*
X124250000Y-96500000D01*
X124250000Y-96500000D02*
X124048485Y-96701515D01*
X124048485Y-96701515D02*
X124048485Y-107574487D01*
X124048485Y-107574487D02*
X130219029Y-113745031D01*
X130219029Y-113745031D02*
X136465969Y-113745031D01*
X136465969Y-113745031D02*
X138250000Y-111961000D01*
X138250000Y-111961000D02*
X138250000Y-110933000D01*
X124750000Y-107230819D02*
X124750000Y-99500000D01*
X137750000Y-111765255D02*
X136404583Y-113110672D01*
X137750000Y-110933000D02*
X137750000Y-111765255D01*
X130629853Y-113110672D02*
X124750000Y-107230819D01*
X136404583Y-113110672D02*
X130629853Y-113110672D01*
X146939000Y-106170590D02*
X146939000Y-104096002D01*
X139975000Y-108208000D02*
X144901589Y-108208000D01*
X144901589Y-108208000D02*
X146939000Y-106170590D01*
X151044501Y-97294501D02*
X151017500Y-97267500D01*
X151044501Y-99990501D02*
X151044501Y-97294501D01*
X151017500Y-97267500D02*
X150250000Y-96500000D01*
X146939000Y-104096002D02*
X151044501Y-99990501D01*
X150250000Y-100067000D02*
X150250000Y-99500000D01*
X146488989Y-103828011D02*
X150250000Y-100067000D01*
X144765180Y-107708000D02*
X146488989Y-105984191D01*
X146488989Y-105984191D02*
X146488989Y-103828011D01*
X139975000Y-107708000D02*
X144765180Y-107708000D01*
X135973022Y-111633000D02*
X131700385Y-111633000D01*
X136250000Y-111356022D02*
X135973022Y-111633000D01*
X131700385Y-111633000D02*
X131653034Y-111585649D01*
X136250000Y-110933000D02*
X136250000Y-111356022D01*
X135750000Y-110933000D02*
X132239010Y-110933000D01*
X132239010Y-110933000D02*
X132184408Y-110987602D01*
X134219000Y-107208000D02*
X133858000Y-107569000D01*
X135025000Y-107208000D02*
X134219000Y-107208000D01*
X143523037Y-109208000D02*
X143885814Y-108845223D01*
X139975000Y-109208000D02*
X143523037Y-109208000D01*
X147998002Y-91313000D02*
X148082000Y-91313000D01*
X145585002Y-88900000D02*
X147998002Y-91313000D01*
X130556000Y-88900000D02*
X145585002Y-88900000D01*
M02*
