G04 #@! TF.GenerationSoftware,KiCad,Pcbnew,5.0.1*
G04 #@! TF.CreationDate,2019-02-14T21:06:13+01:00*
G04 #@! TF.ProjectId,AnalogWatch,416E616C6F6757617463682E6B696361,rev?*
G04 #@! TF.SameCoordinates,Original*
G04 #@! TF.FileFunction,Legend,Bot*
G04 #@! TF.FilePolarity,Positive*
%FSLAX46Y46*%
G04 Gerber Fmt 4.6, Leading zero omitted, Abs format (unit mm)*
G04 Created by KiCad (PCBNEW 5.0.1) date Do 14 Feb 2019 21:06:13 CET*
%MOMM*%
%LPD*%
G01*
G04 APERTURE LIST*
%ADD10C,0.150000*%
%ADD11C,0.120000*%
G04 APERTURE END LIST*
D10*
G04 #@! TO.C,BT1*
X110776307Y-95500000D02*
G75*
G03X110776307Y-95500000I-10776307J0D01*
G01*
D11*
G04 #@! TO.C,SW1*
X85650000Y-101075000D02*
X85650000Y-100150000D01*
X87775000Y-104950000D02*
X87225000Y-104950000D01*
X87775000Y-100050000D02*
X87225000Y-100050000D01*
X89350000Y-104850000D02*
X89350000Y-100150000D01*
X85650000Y-104850000D02*
X85650000Y-103925000D01*
G04 #@! TO.C,SW2*
X114350000Y-103925000D02*
X114350000Y-104850000D01*
X112225000Y-100050000D02*
X112775000Y-100050000D01*
X112225000Y-104950000D02*
X112775000Y-104950000D01*
X110650000Y-100150000D02*
X110650000Y-104850000D01*
X114350000Y-100150000D02*
X114350000Y-101075000D01*
G04 #@! TO.C,J1*
D10*
X101933333Y-107402380D02*
X101933333Y-108116666D01*
X101980952Y-108259523D01*
X102076190Y-108354761D01*
X102219047Y-108402380D01*
X102314285Y-108402380D01*
X100933333Y-108402380D02*
X101504761Y-108402380D01*
X101219047Y-108402380D02*
X101219047Y-107402380D01*
X101314285Y-107545238D01*
X101409523Y-107640476D01*
X101504761Y-107688095D01*
G04 #@! TO.C,J2*
X99393333Y-107402380D02*
X99393333Y-108116666D01*
X99440952Y-108259523D01*
X99536190Y-108354761D01*
X99679047Y-108402380D01*
X99774285Y-108402380D01*
X98964761Y-107497619D02*
X98917142Y-107450000D01*
X98821904Y-107402380D01*
X98583809Y-107402380D01*
X98488571Y-107450000D01*
X98440952Y-107497619D01*
X98393333Y-107592857D01*
X98393333Y-107688095D01*
X98440952Y-107830952D01*
X99012380Y-108402380D01*
X98393333Y-108402380D01*
G04 #@! TO.C,J3*
X94313333Y-107402380D02*
X94313333Y-108116666D01*
X94360952Y-108259523D01*
X94456190Y-108354761D01*
X94599047Y-108402380D01*
X94694285Y-108402380D01*
X93932380Y-107402380D02*
X93313333Y-107402380D01*
X93646666Y-107783333D01*
X93503809Y-107783333D01*
X93408571Y-107830952D01*
X93360952Y-107878571D01*
X93313333Y-107973809D01*
X93313333Y-108211904D01*
X93360952Y-108307142D01*
X93408571Y-108354761D01*
X93503809Y-108402380D01*
X93789523Y-108402380D01*
X93884761Y-108354761D01*
X93932380Y-108307142D01*
G04 #@! TO.C,J4*
X107013333Y-107402380D02*
X107013333Y-108116666D01*
X107060952Y-108259523D01*
X107156190Y-108354761D01*
X107299047Y-108402380D01*
X107394285Y-108402380D01*
X106108571Y-107735714D02*
X106108571Y-108402380D01*
X106346666Y-107354761D02*
X106584761Y-108069047D01*
X105965714Y-108069047D01*
G04 #@! TO.C,J5*
X104473333Y-107402380D02*
X104473333Y-108116666D01*
X104520952Y-108259523D01*
X104616190Y-108354761D01*
X104759047Y-108402380D01*
X104854285Y-108402380D01*
X103520952Y-107402380D02*
X103997142Y-107402380D01*
X104044761Y-107878571D01*
X103997142Y-107830952D01*
X103901904Y-107783333D01*
X103663809Y-107783333D01*
X103568571Y-107830952D01*
X103520952Y-107878571D01*
X103473333Y-107973809D01*
X103473333Y-108211904D01*
X103520952Y-108307142D01*
X103568571Y-108354761D01*
X103663809Y-108402380D01*
X103901904Y-108402380D01*
X103997142Y-108354761D01*
X104044761Y-108307142D01*
G04 #@! TO.C,J6*
X96853333Y-107402380D02*
X96853333Y-108116666D01*
X96900952Y-108259523D01*
X96996190Y-108354761D01*
X97139047Y-108402380D01*
X97234285Y-108402380D01*
X95948571Y-107402380D02*
X96139047Y-107402380D01*
X96234285Y-107450000D01*
X96281904Y-107497619D01*
X96377142Y-107640476D01*
X96424761Y-107830952D01*
X96424761Y-108211904D01*
X96377142Y-108307142D01*
X96329523Y-108354761D01*
X96234285Y-108402380D01*
X96043809Y-108402380D01*
X95948571Y-108354761D01*
X95900952Y-108307142D01*
X95853333Y-108211904D01*
X95853333Y-107973809D01*
X95900952Y-107878571D01*
X95948571Y-107830952D01*
X96043809Y-107783333D01*
X96234285Y-107783333D01*
X96329523Y-107830952D01*
X96377142Y-107878571D01*
X96424761Y-107973809D01*
G04 #@! TO.C,SW1*
X83404761Y-101166666D02*
X83452380Y-101309523D01*
X83452380Y-101547619D01*
X83404761Y-101642857D01*
X83357142Y-101690476D01*
X83261904Y-101738095D01*
X83166666Y-101738095D01*
X83071428Y-101690476D01*
X83023809Y-101642857D01*
X82976190Y-101547619D01*
X82928571Y-101357142D01*
X82880952Y-101261904D01*
X82833333Y-101214285D01*
X82738095Y-101166666D01*
X82642857Y-101166666D01*
X82547619Y-101214285D01*
X82500000Y-101261904D01*
X82452380Y-101357142D01*
X82452380Y-101595238D01*
X82500000Y-101738095D01*
X82452380Y-102071428D02*
X83452380Y-102309523D01*
X82738095Y-102500000D01*
X83452380Y-102690476D01*
X82452380Y-102928571D01*
X83452380Y-103833333D02*
X83452380Y-103261904D01*
X83452380Y-103547619D02*
X82452380Y-103547619D01*
X82595238Y-103452380D01*
X82690476Y-103357142D01*
X82738095Y-103261904D01*
G04 #@! TO.C,SW2*
X117404761Y-101166666D02*
X117452380Y-101309523D01*
X117452380Y-101547619D01*
X117404761Y-101642857D01*
X117357142Y-101690476D01*
X117261904Y-101738095D01*
X117166666Y-101738095D01*
X117071428Y-101690476D01*
X117023809Y-101642857D01*
X116976190Y-101547619D01*
X116928571Y-101357142D01*
X116880952Y-101261904D01*
X116833333Y-101214285D01*
X116738095Y-101166666D01*
X116642857Y-101166666D01*
X116547619Y-101214285D01*
X116500000Y-101261904D01*
X116452380Y-101357142D01*
X116452380Y-101595238D01*
X116500000Y-101738095D01*
X116452380Y-102071428D02*
X117452380Y-102309523D01*
X116738095Y-102500000D01*
X117452380Y-102690476D01*
X116452380Y-102928571D01*
X116547619Y-103261904D02*
X116500000Y-103309523D01*
X116452380Y-103404761D01*
X116452380Y-103642857D01*
X116500000Y-103738095D01*
X116547619Y-103785714D01*
X116642857Y-103833333D01*
X116738095Y-103833333D01*
X116880952Y-103785714D01*
X117452380Y-103214285D01*
X117452380Y-103833333D01*
G04 #@! TD*
M02*
