G04 #@! TF.GenerationSoftware,KiCad,Pcbnew,5.0.1*
G04 #@! TF.CreationDate,2019-02-14T21:06:13+01:00*
G04 #@! TF.ProjectId,AnalogWatch,416E616C6F6757617463682E6B696361,rev?*
G04 #@! TF.SameCoordinates,Original*
G04 #@! TF.FileFunction,Soldermask,Bot*
G04 #@! TF.FilePolarity,Negative*
%FSLAX46Y46*%
G04 Gerber Fmt 4.6, Leading zero omitted, Abs format (unit mm)*
G04 Created by KiCad (PCBNEW 5.0.1) date Do 14 Feb 2019 21:06:13 CET*
%MOMM*%
%LPD*%
G01*
G04 APERTURE LIST*
%ADD10C,0.100000*%
G04 APERTURE END LIST*
D10*
G36*
X106840721Y-108690174D02*
X106940995Y-108731709D01*
X107031245Y-108792012D01*
X107107988Y-108868755D01*
X107168291Y-108959005D01*
X107209826Y-109059279D01*
X107231000Y-109165730D01*
X107231000Y-109274270D01*
X107209826Y-109380721D01*
X107168291Y-109480995D01*
X107107988Y-109571245D01*
X107031245Y-109647988D01*
X106940995Y-109708291D01*
X106840721Y-109749826D01*
X106734270Y-109771000D01*
X106625730Y-109771000D01*
X106519279Y-109749826D01*
X106419005Y-109708291D01*
X106328755Y-109647988D01*
X106252012Y-109571245D01*
X106191709Y-109480995D01*
X106150174Y-109380721D01*
X106129000Y-109274270D01*
X106129000Y-109165730D01*
X106150174Y-109059279D01*
X106191709Y-108959005D01*
X106252012Y-108868755D01*
X106328755Y-108792012D01*
X106419005Y-108731709D01*
X106519279Y-108690174D01*
X106625730Y-108669000D01*
X106734270Y-108669000D01*
X106840721Y-108690174D01*
X106840721Y-108690174D01*
G37*
G36*
X94140721Y-108690174D02*
X94240995Y-108731709D01*
X94331245Y-108792012D01*
X94407988Y-108868755D01*
X94468291Y-108959005D01*
X94509826Y-109059279D01*
X94531000Y-109165730D01*
X94531000Y-109274270D01*
X94509826Y-109380721D01*
X94468291Y-109480995D01*
X94407988Y-109571245D01*
X94331245Y-109647988D01*
X94240995Y-109708291D01*
X94140721Y-109749826D01*
X94034270Y-109771000D01*
X93925730Y-109771000D01*
X93819279Y-109749826D01*
X93719005Y-109708291D01*
X93628755Y-109647988D01*
X93552012Y-109571245D01*
X93491709Y-109480995D01*
X93450174Y-109380721D01*
X93429000Y-109274270D01*
X93429000Y-109165730D01*
X93450174Y-109059279D01*
X93491709Y-108959005D01*
X93552012Y-108868755D01*
X93628755Y-108792012D01*
X93719005Y-108731709D01*
X93819279Y-108690174D01*
X93925730Y-108669000D01*
X94034270Y-108669000D01*
X94140721Y-108690174D01*
X94140721Y-108690174D01*
G37*
G36*
X99220721Y-108690174D02*
X99320995Y-108731709D01*
X99411245Y-108792012D01*
X99487988Y-108868755D01*
X99548291Y-108959005D01*
X99589826Y-109059279D01*
X99611000Y-109165730D01*
X99611000Y-109274270D01*
X99589826Y-109380721D01*
X99548291Y-109480995D01*
X99487988Y-109571245D01*
X99411245Y-109647988D01*
X99320995Y-109708291D01*
X99220721Y-109749826D01*
X99114270Y-109771000D01*
X99005730Y-109771000D01*
X98899279Y-109749826D01*
X98799005Y-109708291D01*
X98708755Y-109647988D01*
X98632012Y-109571245D01*
X98571709Y-109480995D01*
X98530174Y-109380721D01*
X98509000Y-109274270D01*
X98509000Y-109165730D01*
X98530174Y-109059279D01*
X98571709Y-108959005D01*
X98632012Y-108868755D01*
X98708755Y-108792012D01*
X98799005Y-108731709D01*
X98899279Y-108690174D01*
X99005730Y-108669000D01*
X99114270Y-108669000D01*
X99220721Y-108690174D01*
X99220721Y-108690174D01*
G37*
G36*
X101760721Y-108690174D02*
X101860995Y-108731709D01*
X101951245Y-108792012D01*
X102027988Y-108868755D01*
X102088291Y-108959005D01*
X102129826Y-109059279D01*
X102151000Y-109165730D01*
X102151000Y-109274270D01*
X102129826Y-109380721D01*
X102088291Y-109480995D01*
X102027988Y-109571245D01*
X101951245Y-109647988D01*
X101860995Y-109708291D01*
X101760721Y-109749826D01*
X101654270Y-109771000D01*
X101545730Y-109771000D01*
X101439279Y-109749826D01*
X101339005Y-109708291D01*
X101248755Y-109647988D01*
X101172012Y-109571245D01*
X101111709Y-109480995D01*
X101070174Y-109380721D01*
X101049000Y-109274270D01*
X101049000Y-109165730D01*
X101070174Y-109059279D01*
X101111709Y-108959005D01*
X101172012Y-108868755D01*
X101248755Y-108792012D01*
X101339005Y-108731709D01*
X101439279Y-108690174D01*
X101545730Y-108669000D01*
X101654270Y-108669000D01*
X101760721Y-108690174D01*
X101760721Y-108690174D01*
G37*
G36*
X96680721Y-108690174D02*
X96780995Y-108731709D01*
X96871245Y-108792012D01*
X96947988Y-108868755D01*
X97008291Y-108959005D01*
X97049826Y-109059279D01*
X97071000Y-109165730D01*
X97071000Y-109274270D01*
X97049826Y-109380721D01*
X97008291Y-109480995D01*
X96947988Y-109571245D01*
X96871245Y-109647988D01*
X96780995Y-109708291D01*
X96680721Y-109749826D01*
X96574270Y-109771000D01*
X96465730Y-109771000D01*
X96359279Y-109749826D01*
X96259005Y-109708291D01*
X96168755Y-109647988D01*
X96092012Y-109571245D01*
X96031709Y-109480995D01*
X95990174Y-109380721D01*
X95969000Y-109274270D01*
X95969000Y-109165730D01*
X95990174Y-109059279D01*
X96031709Y-108959005D01*
X96092012Y-108868755D01*
X96168755Y-108792012D01*
X96259005Y-108731709D01*
X96359279Y-108690174D01*
X96465730Y-108669000D01*
X96574270Y-108669000D01*
X96680721Y-108690174D01*
X96680721Y-108690174D01*
G37*
G36*
X104300721Y-108690174D02*
X104400995Y-108731709D01*
X104491245Y-108792012D01*
X104567988Y-108868755D01*
X104628291Y-108959005D01*
X104669826Y-109059279D01*
X104691000Y-109165730D01*
X104691000Y-109274270D01*
X104669826Y-109380721D01*
X104628291Y-109480995D01*
X104567988Y-109571245D01*
X104491245Y-109647988D01*
X104400995Y-109708291D01*
X104300721Y-109749826D01*
X104194270Y-109771000D01*
X104085730Y-109771000D01*
X103979279Y-109749826D01*
X103879005Y-109708291D01*
X103788755Y-109647988D01*
X103712012Y-109571245D01*
X103651709Y-109480995D01*
X103610174Y-109380721D01*
X103589000Y-109274270D01*
X103589000Y-109165730D01*
X103610174Y-109059279D01*
X103651709Y-108959005D01*
X103712012Y-108868755D01*
X103788755Y-108792012D01*
X103879005Y-108731709D01*
X103979279Y-108690174D01*
X104085730Y-108669000D01*
X104194270Y-108669000D01*
X104300721Y-108690174D01*
X104300721Y-108690174D01*
G37*
G36*
X112201000Y-105951000D02*
X111099000Y-105951000D01*
X111099000Y-104299000D01*
X112201000Y-104299000D01*
X112201000Y-105951000D01*
X112201000Y-105951000D01*
G37*
G36*
X113901000Y-105951000D02*
X112799000Y-105951000D01*
X112799000Y-104299000D01*
X113901000Y-104299000D01*
X113901000Y-105951000D01*
X113901000Y-105951000D01*
G37*
G36*
X87201000Y-105951000D02*
X86099000Y-105951000D01*
X86099000Y-104299000D01*
X87201000Y-104299000D01*
X87201000Y-105951000D01*
X87201000Y-105951000D01*
G37*
G36*
X88901000Y-105951000D02*
X87799000Y-105951000D01*
X87799000Y-104299000D01*
X88901000Y-104299000D01*
X88901000Y-105951000D01*
X88901000Y-105951000D01*
G37*
G36*
X113901000Y-100701000D02*
X112799000Y-100701000D01*
X112799000Y-99049000D01*
X113901000Y-99049000D01*
X113901000Y-100701000D01*
X113901000Y-100701000D01*
G37*
G36*
X88901000Y-100701000D02*
X87799000Y-100701000D01*
X87799000Y-99049000D01*
X88901000Y-99049000D01*
X88901000Y-100701000D01*
X88901000Y-100701000D01*
G37*
G36*
X87201000Y-100701000D02*
X86099000Y-100701000D01*
X86099000Y-99049000D01*
X87201000Y-99049000D01*
X87201000Y-100701000D01*
X87201000Y-100701000D01*
G37*
G36*
X112201000Y-100701000D02*
X111099000Y-100701000D01*
X111099000Y-99049000D01*
X112201000Y-99049000D01*
X112201000Y-100701000D01*
X112201000Y-100701000D01*
G37*
G36*
X105051000Y-100551000D02*
X94949000Y-100551000D01*
X94949000Y-90449000D01*
X105051000Y-90449000D01*
X105051000Y-100551000D01*
X105051000Y-100551000D01*
G37*
G36*
X113301000Y-98301000D02*
X110699000Y-98301000D01*
X110699000Y-92699000D01*
X113301000Y-92699000D01*
X113301000Y-98301000D01*
X113301000Y-98301000D01*
G37*
G36*
X89301000Y-98301000D02*
X86699000Y-98301000D01*
X86699000Y-92699000D01*
X89301000Y-92699000D01*
X89301000Y-98301000D01*
X89301000Y-98301000D01*
G37*
M02*
