%TF.GenerationSoftware,KiCad,Pcbnew,5.1.9*%
%TF.CreationDate,2021-05-01T17:54:34+02:00*%
%TF.ProjectId,LiPo_Circuit,4c69506f-5f43-4697-9263-7569742e6b69,rev?*%
%TF.SameCoordinates,Original*%
%TF.FileFunction,Copper,L1,Top*%
%TF.FilePolarity,Positive*%
%FSLAX46Y46*%
G04 Gerber Fmt 4.6, Leading zero omitted, Abs format (unit mm)*
G04 Created by KiCad (PCBNEW 5.1.9) date 2021-05-01 17:54:34*
%MOMM*%
%LPD*%
G01*
G04 APERTURE LIST*
%TA.AperFunction,SMDPad,CuDef*%
%ADD10C,19.000000*%
%TD*%
%TA.AperFunction,ComponentPad*%
%ADD11R,1.700000X1.700000*%
%TD*%
%TA.AperFunction,ComponentPad*%
%ADD12O,1.700000X1.700000*%
%TD*%
%TA.AperFunction,SMDPad,CuDef*%
%ADD13R,1.220000X0.650000*%
%TD*%
%TA.AperFunction,SMDPad,CuDef*%
%ADD14R,1.060000X0.650000*%
%TD*%
%TA.AperFunction,ViaPad*%
%ADD15C,0.800000*%
%TD*%
%TA.AperFunction,Conductor*%
%ADD16C,0.250000*%
%TD*%
G04 APERTURE END LIST*
D10*
%TO.P,BatDummy1,1*%
%TO.N,BAT-*%
X156083000Y-118999000D03*
%TD*%
%TO.P,C1,1*%
%TO.N,BAT+*%
%TA.AperFunction,SMDPad,CuDef*%
G36*
G01*
X131207500Y-115821000D02*
X131682500Y-115821000D01*
G75*
G02*
X131920000Y-116058500I0J-237500D01*
G01*
X131920000Y-116658500D01*
G75*
G02*
X131682500Y-116896000I-237500J0D01*
G01*
X131207500Y-116896000D01*
G75*
G02*
X130970000Y-116658500I0J237500D01*
G01*
X130970000Y-116058500D01*
G75*
G02*
X131207500Y-115821000I237500J0D01*
G01*
G37*
%TD.AperFunction*%
%TO.P,C1,2*%
%TO.N,BAT-*%
%TA.AperFunction,SMDPad,CuDef*%
G36*
G01*
X131207500Y-117546000D02*
X131682500Y-117546000D01*
G75*
G02*
X131920000Y-117783500I0J-237500D01*
G01*
X131920000Y-118383500D01*
G75*
G02*
X131682500Y-118621000I-237500J0D01*
G01*
X131207500Y-118621000D01*
G75*
G02*
X130970000Y-118383500I0J237500D01*
G01*
X130970000Y-117783500D01*
G75*
G02*
X131207500Y-117546000I237500J0D01*
G01*
G37*
%TD.AperFunction*%
%TD*%
%TO.P,C2,1*%
%TO.N,PowerOut*%
%TA.AperFunction,SMDPad,CuDef*%
G36*
G01*
X140445500Y-118721500D02*
X139970500Y-118721500D01*
G75*
G02*
X139733000Y-118484000I0J237500D01*
G01*
X139733000Y-117884000D01*
G75*
G02*
X139970500Y-117646500I237500J0D01*
G01*
X140445500Y-117646500D01*
G75*
G02*
X140683000Y-117884000I0J-237500D01*
G01*
X140683000Y-118484000D01*
G75*
G02*
X140445500Y-118721500I-237500J0D01*
G01*
G37*
%TD.AperFunction*%
%TO.P,C2,2*%
%TO.N,BAT-*%
%TA.AperFunction,SMDPad,CuDef*%
G36*
G01*
X140445500Y-116996500D02*
X139970500Y-116996500D01*
G75*
G02*
X139733000Y-116759000I0J237500D01*
G01*
X139733000Y-116159000D01*
G75*
G02*
X139970500Y-115921500I237500J0D01*
G01*
X140445500Y-115921500D01*
G75*
G02*
X140683000Y-116159000I0J-237500D01*
G01*
X140683000Y-116759000D01*
G75*
G02*
X140445500Y-116996500I-237500J0D01*
G01*
G37*
%TD.AperFunction*%
%TD*%
%TO.P,C3,2*%
%TO.N,BAT-*%
%TA.AperFunction,SMDPad,CuDef*%
G36*
G01*
X142350500Y-116996500D02*
X141875500Y-116996500D01*
G75*
G02*
X141638000Y-116759000I0J237500D01*
G01*
X141638000Y-116159000D01*
G75*
G02*
X141875500Y-115921500I237500J0D01*
G01*
X142350500Y-115921500D01*
G75*
G02*
X142588000Y-116159000I0J-237500D01*
G01*
X142588000Y-116759000D01*
G75*
G02*
X142350500Y-116996500I-237500J0D01*
G01*
G37*
%TD.AperFunction*%
%TO.P,C3,1*%
%TO.N,PowerOut*%
%TA.AperFunction,SMDPad,CuDef*%
G36*
G01*
X142350500Y-118721500D02*
X141875500Y-118721500D01*
G75*
G02*
X141638000Y-118484000I0J237500D01*
G01*
X141638000Y-117884000D01*
G75*
G02*
X141875500Y-117646500I237500J0D01*
G01*
X142350500Y-117646500D01*
G75*
G02*
X142588000Y-117884000I0J-237500D01*
G01*
X142588000Y-118484000D01*
G75*
G02*
X142350500Y-118721500I-237500J0D01*
G01*
G37*
%TD.AperFunction*%
%TD*%
%TO.P,GND1,1*%
%TO.N,BAT-*%
%TA.AperFunction,SMDPad,CuDef*%
G36*
G01*
X131564000Y-123039000D02*
X130564000Y-123039000D01*
G75*
G02*
X130064000Y-122539000I0J500000D01*
G01*
X130064000Y-120539000D01*
G75*
G02*
X130564000Y-120039000I500000J0D01*
G01*
X131564000Y-120039000D01*
G75*
G02*
X132064000Y-120539000I0J-500000D01*
G01*
X132064000Y-122539000D01*
G75*
G02*
X131564000Y-123039000I-500000J0D01*
G01*
G37*
%TD.AperFunction*%
%TD*%
%TO.P,J_Bat+1,1*%
%TO.N,BAT+*%
%TA.AperFunction,SMDPad,CuDef*%
G36*
G01*
X135501000Y-123293000D02*
X134501000Y-123293000D01*
G75*
G02*
X134001000Y-122793000I0J500000D01*
G01*
X134001000Y-120793000D01*
G75*
G02*
X134501000Y-120293000I500000J0D01*
G01*
X135501000Y-120293000D01*
G75*
G02*
X136001000Y-120793000I0J-500000D01*
G01*
X136001000Y-122793000D01*
G75*
G02*
X135501000Y-123293000I-500000J0D01*
G01*
G37*
%TD.AperFunction*%
%TD*%
D11*
%TO.P,J_Bat_Cur1,1*%
%TO.N,BAT+*%
X119761000Y-120523000D03*
D12*
%TO.P,J_Bat_Cur1,2*%
%TO.N,Net-(BT1-Pad1)*%
X119761000Y-123063000D03*
%TD*%
%TO.P,J_CHG+1,1*%
%TO.N,CHG+*%
%TA.AperFunction,SMDPad,CuDef*%
G36*
G01*
X127881000Y-123039000D02*
X126881000Y-123039000D01*
G75*
G02*
X126381000Y-122539000I0J500000D01*
G01*
X126381000Y-120539000D01*
G75*
G02*
X126881000Y-120039000I500000J0D01*
G01*
X127881000Y-120039000D01*
G75*
G02*
X128381000Y-120539000I0J-500000D01*
G01*
X128381000Y-122539000D01*
G75*
G02*
X127881000Y-123039000I-500000J0D01*
G01*
G37*
%TD.AperFunction*%
%TD*%
%TO.P,J_ChgStat1,1*%
%TO.N,CHG_State*%
%TA.AperFunction,SMDPad,CuDef*%
G36*
G01*
X125706000Y-113546000D02*
X125706000Y-114546000D01*
G75*
G02*
X125206000Y-115046000I-500000J0D01*
G01*
X123206000Y-115046000D01*
G75*
G02*
X122706000Y-114546000I0J500000D01*
G01*
X122706000Y-113546000D01*
G75*
G02*
X123206000Y-113046000I500000J0D01*
G01*
X125206000Y-113046000D01*
G75*
G02*
X125706000Y-113546000I0J-500000D01*
G01*
G37*
%TD.AperFunction*%
%TD*%
%TO.P,J_PowOut1,1*%
%TO.N,PowerOut*%
%TA.AperFunction,SMDPad,CuDef*%
G36*
G01*
X140073000Y-123293000D02*
X139073000Y-123293000D01*
G75*
G02*
X138573000Y-122793000I0J500000D01*
G01*
X138573000Y-120793000D01*
G75*
G02*
X139073000Y-120293000I500000J0D01*
G01*
X140073000Y-120293000D01*
G75*
G02*
X140573000Y-120793000I0J-500000D01*
G01*
X140573000Y-122793000D01*
G75*
G02*
X140073000Y-123293000I-500000J0D01*
G01*
G37*
%TD.AperFunction*%
%TD*%
%TO.P,L1,1*%
%TO.N,PowerOut*%
%TA.AperFunction,SMDPad,CuDef*%
G36*
G01*
X138159500Y-118621000D02*
X137684500Y-118621000D01*
G75*
G02*
X137447000Y-118383500I0J237500D01*
G01*
X137447000Y-117808500D01*
G75*
G02*
X137684500Y-117571000I237500J0D01*
G01*
X138159500Y-117571000D01*
G75*
G02*
X138397000Y-117808500I0J-237500D01*
G01*
X138397000Y-118383500D01*
G75*
G02*
X138159500Y-118621000I-237500J0D01*
G01*
G37*
%TD.AperFunction*%
%TO.P,L1,2*%
%TO.N,Net-(L1-Pad2)*%
%TA.AperFunction,SMDPad,CuDef*%
G36*
G01*
X138159500Y-116871000D02*
X137684500Y-116871000D01*
G75*
G02*
X137447000Y-116633500I0J237500D01*
G01*
X137447000Y-116058500D01*
G75*
G02*
X137684500Y-115821000I237500J0D01*
G01*
X138159500Y-115821000D01*
G75*
G02*
X138397000Y-116058500I0J-237500D01*
G01*
X138397000Y-116633500D01*
G75*
G02*
X138159500Y-116871000I-237500J0D01*
G01*
G37*
%TD.AperFunction*%
%TD*%
%TO.P,R1,1*%
%TO.N,Net-(R1-Pad1)*%
%TA.AperFunction,SMDPad,CuDef*%
G36*
G01*
X129523500Y-118621000D02*
X129048500Y-118621000D01*
G75*
G02*
X128811000Y-118383500I0J237500D01*
G01*
X128811000Y-117883500D01*
G75*
G02*
X129048500Y-117646000I237500J0D01*
G01*
X129523500Y-117646000D01*
G75*
G02*
X129761000Y-117883500I0J-237500D01*
G01*
X129761000Y-118383500D01*
G75*
G02*
X129523500Y-118621000I-237500J0D01*
G01*
G37*
%TD.AperFunction*%
%TO.P,R1,2*%
%TO.N,BAT-*%
%TA.AperFunction,SMDPad,CuDef*%
G36*
G01*
X129523500Y-116796000D02*
X129048500Y-116796000D01*
G75*
G02*
X128811000Y-116558500I0J237500D01*
G01*
X128811000Y-116058500D01*
G75*
G02*
X129048500Y-115821000I237500J0D01*
G01*
X129523500Y-115821000D01*
G75*
G02*
X129761000Y-116058500I0J-237500D01*
G01*
X129761000Y-116558500D01*
G75*
G02*
X129523500Y-116796000I-237500J0D01*
G01*
G37*
%TD.AperFunction*%
%TD*%
D13*
%TO.P,U1,1*%
%TO.N,CHG_State*%
X124253000Y-116205000D03*
%TO.P,U1,2*%
%TO.N,BAT-*%
X124253000Y-117155000D03*
%TO.P,U1,3*%
%TO.N,BAT+*%
X124253000Y-118105000D03*
%TO.P,U1,4*%
%TO.N,CHG+*%
X126873000Y-118105000D03*
%TO.P,U1,5*%
%TO.N,Net-(R1-Pad1)*%
X126873000Y-116205000D03*
%TD*%
D14*
%TO.P,U2,1*%
%TO.N,BAT+*%
X133647000Y-116271000D03*
%TO.P,U2,2*%
%TO.N,BAT-*%
X133647000Y-117221000D03*
%TO.P,U2,3*%
%TO.N,BAT+*%
X133647000Y-118171000D03*
%TO.P,U2,4*%
%TO.N,PowerOut*%
X135847000Y-118171000D03*
%TO.P,U2,5*%
%TO.N,Net-(L1-Pad2)*%
X135847000Y-116271000D03*
%TD*%
D11*
%TO.P,J_ChgIn1,1*%
%TO.N,BAT-*%
X119761000Y-114173000D03*
D12*
%TO.P,J_ChgIn1,2*%
%TO.N,CHG+*%
X119761000Y-116713000D03*
%TD*%
D15*
%TO.N,BAT-*%
X139700000Y-115062000D03*
%TO.N,PowerOut*%
X142113000Y-119634000D03*
%TO.N,CHG+*%
X125476000Y-118110000D03*
%TD*%
D16*
%TO.N,BAT-*%
X122743000Y-117155000D02*
X124253000Y-117155000D01*
X119761000Y-114173000D02*
X122743000Y-117155000D01*
X129286000Y-116308500D02*
X128420500Y-115443000D01*
X126114998Y-115443000D02*
X125730000Y-115827998D01*
X128420500Y-115443000D02*
X126114998Y-115443000D01*
X125113000Y-117155000D02*
X124253000Y-117155000D01*
X125730000Y-116538000D02*
X125113000Y-117155000D01*
X125730000Y-115827998D02*
X125730000Y-116538000D01*
X129670000Y-116308500D02*
X131445000Y-118083500D01*
X129286000Y-116308500D02*
X129670000Y-116308500D01*
X132307500Y-117221000D02*
X133647000Y-117221000D01*
X131445000Y-118083500D02*
X132307500Y-117221000D01*
X140208000Y-116459000D02*
X142113000Y-116459000D01*
X153543000Y-116459000D02*
X156083000Y-118999000D01*
X142113000Y-116459000D02*
X153543000Y-116459000D01*
X139700000Y-115951000D02*
X140208000Y-116459000D01*
X139700000Y-115062000D02*
X139700000Y-115951000D01*
X131064000Y-118464500D02*
X131445000Y-118083500D01*
X131064000Y-121539000D02*
X131064000Y-118464500D01*
%TO.N,PowerOut*%
X137847000Y-118171000D02*
X137922000Y-118096000D01*
X135847000Y-118171000D02*
X137847000Y-118171000D01*
X140120000Y-118096000D02*
X140208000Y-118184000D01*
X137922000Y-118096000D02*
X140120000Y-118096000D01*
X140208000Y-118184000D02*
X142113000Y-118184000D01*
X140208000Y-121158000D02*
X139573000Y-121793000D01*
X140208000Y-118184000D02*
X140208000Y-121158000D01*
X142113000Y-118184000D02*
X142113000Y-119634000D01*
%TO.N,BAT+*%
X133559500Y-116358500D02*
X133647000Y-116271000D01*
X131445000Y-116358500D02*
X133559500Y-116358500D01*
X134427000Y-116271000D02*
X134620000Y-116464000D01*
X133647000Y-116271000D02*
X134427000Y-116271000D01*
X134427000Y-118171000D02*
X133647000Y-118171000D01*
X134620000Y-117978000D02*
X134427000Y-118171000D01*
X134620000Y-116464000D02*
X134620000Y-117978000D01*
X122179000Y-118105000D02*
X124253000Y-118105000D01*
X119761000Y-120523000D02*
X122179000Y-118105000D01*
X134427000Y-121219000D02*
X135001000Y-121793000D01*
X134427000Y-118171000D02*
X134427000Y-121219000D01*
X124253000Y-121077742D02*
X124253000Y-118105000D01*
X126793268Y-123618010D02*
X124253000Y-121077742D01*
X133175990Y-123618010D02*
X126793268Y-123618010D01*
X135001000Y-121793000D02*
X133175990Y-123618010D01*
%TO.N,CHG+*%
X127381000Y-118613000D02*
X126873000Y-118105000D01*
X127381000Y-121539000D02*
X127381000Y-118613000D01*
X125481000Y-118105000D02*
X125476000Y-118110000D01*
X126873000Y-118105000D02*
X125481000Y-118105000D01*
%TO.N,CHG_State*%
X124253000Y-114093000D02*
X124206000Y-114046000D01*
X124253000Y-116205000D02*
X124253000Y-114093000D01*
%TO.N,Net-(L1-Pad2)*%
X137847000Y-116271000D02*
X137922000Y-116346000D01*
X135847000Y-116271000D02*
X137847000Y-116271000D01*
%TO.N,Net-(R1-Pad1)*%
X127357500Y-116205000D02*
X129286000Y-118133500D01*
X126873000Y-116205000D02*
X127357500Y-116205000D01*
%TD*%
M02*
