%TF.GenerationSoftware,KiCad,Pcbnew,5.1.9*%
%TF.CreationDate,2021-05-01T17:54:34+02:00*%
%TF.ProjectId,LiPo_Circuit,4c69506f-5f43-4697-9263-7569742e6b69,rev?*%
%TF.SameCoordinates,Original*%
%TF.FileFunction,Copper,L2,Bot*%
%TF.FilePolarity,Positive*%
%FSLAX46Y46*%
G04 Gerber Fmt 4.6, Leading zero omitted, Abs format (unit mm)*
G04 Created by KiCad (PCBNEW 5.1.9) date 2021-05-01 17:54:34*
%MOMM*%
%LPD*%
G01*
G04 APERTURE LIST*
%TA.AperFunction,SMDPad,CuDef*%
%ADD10C,19.000000*%
%TD*%
%TA.AperFunction,ComponentPad*%
%ADD11R,1.700000X1.700000*%
%TD*%
%TA.AperFunction,ComponentPad*%
%ADD12O,1.700000X1.700000*%
%TD*%
%TA.AperFunction,ViaPad*%
%ADD13C,0.800000*%
%TD*%
%TA.AperFunction,Conductor*%
%ADD14C,0.250000*%
%TD*%
G04 APERTURE END LIST*
D10*
%TO.P,BatDummy1,2*%
%TO.N,PowerOut*%
X156083000Y-118999000D03*
%TD*%
%TO.P,BT1,1*%
%TO.N,Net-(BT1-Pad1)*%
%TA.AperFunction,SMDPad,CuDef*%
G36*
G01*
X121944000Y-124023000D02*
X121944000Y-123023000D01*
G75*
G02*
X122444000Y-122523000I500000J0D01*
G01*
X124444000Y-122523000D01*
G75*
G02*
X124944000Y-123023000I0J-500000D01*
G01*
X124944000Y-124023000D01*
G75*
G02*
X124444000Y-124523000I-500000J0D01*
G01*
X122444000Y-124523000D01*
G75*
G02*
X121944000Y-124023000I0J500000D01*
G01*
G37*
%TD.AperFunction*%
%TO.P,BT1,2*%
%TO.N,BAT-*%
%TA.AperFunction,SMDPad,CuDef*%
G36*
G01*
X121944000Y-121023000D02*
X121944000Y-120023000D01*
G75*
G02*
X122444000Y-119523000I500000J0D01*
G01*
X124444000Y-119523000D01*
G75*
G02*
X124944000Y-120023000I0J-500000D01*
G01*
X124944000Y-121023000D01*
G75*
G02*
X124444000Y-121523000I-500000J0D01*
G01*
X122444000Y-121523000D01*
G75*
G02*
X121944000Y-121023000I0J500000D01*
G01*
G37*
%TD.AperFunction*%
%TD*%
D11*
%TO.P,J_Bat_Cur1,1*%
%TO.N,BAT+*%
X119761000Y-120523000D03*
D12*
%TO.P,J_Bat_Cur1,2*%
%TO.N,Net-(BT1-Pad1)*%
X119761000Y-123063000D03*
%TD*%
D11*
%TO.P,J_ChgIn1,1*%
%TO.N,BAT-*%
X119761000Y-114173000D03*
D12*
%TO.P,J_ChgIn1,2*%
%TO.N,CHG+*%
X119761000Y-116713000D03*
%TD*%
D13*
%TO.N,BAT-*%
X139700000Y-115062000D03*
%TO.N,PowerOut*%
X142113000Y-119634000D03*
%TO.N,CHG+*%
X125476000Y-118110000D03*
%TD*%
D14*
%TO.N,BAT-*%
X123444000Y-117856000D02*
X119761000Y-114173000D01*
X123444000Y-120523000D02*
X123444000Y-117856000D01*
X123444000Y-120523000D02*
X134239000Y-120523000D01*
X134239000Y-120523000D02*
X139700000Y-115062000D01*
%TO.N,PowerOut*%
X155448000Y-119634000D02*
X156083000Y-118999000D01*
X142113000Y-119634000D02*
X155448000Y-119634000D01*
%TO.N,Net-(BT1-Pad1)*%
X120221000Y-123523000D02*
X119761000Y-123063000D01*
X123444000Y-123523000D02*
X120221000Y-123523000D01*
%TO.N,CHG+*%
X125476000Y-118110000D02*
X125476000Y-117544315D01*
X125476000Y-117544315D02*
X120929684Y-112997999D01*
X120929684Y-112997999D02*
X118650999Y-112997999D01*
X118650999Y-112997999D02*
X118585999Y-113062999D01*
X118585999Y-113062999D02*
X118585999Y-115537999D01*
X118585999Y-115537999D02*
X119761000Y-116713000D01*
%TD*%
M02*
