G04 #@! TF.GenerationSoftware,KiCad,Pcbnew,5.1.6*
G04 #@! TF.CreationDate,2020-08-06T11:22:41+02:00*
G04 #@! TF.ProjectId,AnalogWatch,416e616c-6f67-4576-9174-63682e6b6963,rev?*
G04 #@! TF.SameCoordinates,Original*
G04 #@! TF.FileFunction,Paste,Top*
G04 #@! TF.FilePolarity,Positive*
%FSLAX46Y46*%
G04 Gerber Fmt 4.6, Leading zero omitted, Abs format (unit mm)*
G04 Created by KiCad (PCBNEW 5.1.6) date 2020-08-06 11:22:41*
%MOMM*%
%LPD*%
G01*
G04 APERTURE LIST*
%ADD10R,0.350000X0.375000*%
%ADD11R,0.375000X0.350000*%
%ADD12C,0.100000*%
G04 APERTURE END LIST*
D10*
X96515500Y-102921000D03*
X96015500Y-102921000D03*
X96515500Y-104446000D03*
X96015500Y-104446000D03*
X95515500Y-102921000D03*
X95515500Y-104446000D03*
X97015500Y-102921000D03*
X97015500Y-104446000D03*
D11*
X95503000Y-103433500D03*
X95503000Y-103933500D03*
X97028000Y-103933500D03*
X97028000Y-103433500D03*
G36*
G01*
X103915075Y-95774049D02*
X104250951Y-96109925D01*
G75*
G02*
X104250951Y-96445801I-167938J-167938D01*
G01*
X103844365Y-96852387D01*
G75*
G02*
X103508489Y-96852387I-167938J167938D01*
G01*
X103172613Y-96516511D01*
G75*
G02*
X103172613Y-96180635I167938J167938D01*
G01*
X103579199Y-95774049D01*
G75*
G02*
X103915075Y-95774049I167938J-167938D01*
G01*
G37*
G36*
G01*
X105152511Y-94536613D02*
X105488387Y-94872489D01*
G75*
G02*
X105488387Y-95208365I-167938J-167938D01*
G01*
X105081801Y-95614951D01*
G75*
G02*
X104745925Y-95614951I-167938J167938D01*
G01*
X104410049Y-95279075D01*
G75*
G02*
X104410049Y-94943199I167938J167938D01*
G01*
X104816635Y-94536613D01*
G75*
G02*
X105152511Y-94536613I167938J-167938D01*
G01*
G37*
G36*
G01*
X99743750Y-113550000D02*
X100256250Y-113550000D01*
G75*
G02*
X100475000Y-113768750I0J-218750D01*
G01*
X100475000Y-114206250D01*
G75*
G02*
X100256250Y-114425000I-218750J0D01*
G01*
X99743750Y-114425000D01*
G75*
G02*
X99525000Y-114206250I0J218750D01*
G01*
X99525000Y-113768750D01*
G75*
G02*
X99743750Y-113550000I218750J0D01*
G01*
G37*
G36*
G01*
X99743750Y-111975000D02*
X100256250Y-111975000D01*
G75*
G02*
X100475000Y-112193750I0J-218750D01*
G01*
X100475000Y-112631250D01*
G75*
G02*
X100256250Y-112850000I-218750J0D01*
G01*
X99743750Y-112850000D01*
G75*
G02*
X99525000Y-112631250I0J218750D01*
G01*
X99525000Y-112193750D01*
G75*
G02*
X99743750Y-111975000I218750J0D01*
G01*
G37*
G36*
G01*
X112966001Y-96056528D02*
X112807630Y-95569111D01*
G75*
G02*
X112948077Y-95293470I208044J67597D01*
G01*
X113364164Y-95158275D01*
G75*
G02*
X113639805Y-95298722I67597J-208044D01*
G01*
X113798176Y-95786139D01*
G75*
G02*
X113657729Y-96061780I-208044J-67597D01*
G01*
X113241642Y-96196975D01*
G75*
G02*
X112966001Y-96056528I-67597J208044D01*
G01*
G37*
G36*
G01*
X111468087Y-96543230D02*
X111309716Y-96055813D01*
G75*
G02*
X111450163Y-95780172I208044J67597D01*
G01*
X111866250Y-95644977D01*
G75*
G02*
X112141891Y-95785424I67597J-208044D01*
G01*
X112300262Y-96272841D01*
G75*
G02*
X112159815Y-96548482I-208044J-67597D01*
G01*
X111743728Y-96683677D01*
G75*
G02*
X111468087Y-96543230I-67597J208044D01*
G01*
G37*
G36*
G01*
X110498779Y-94234419D02*
X110242529Y-93790581D01*
G75*
G02*
X110322597Y-93491763I189443J109375D01*
G01*
X110701483Y-93273013D01*
G75*
G02*
X111000301Y-93353081I109375J-189443D01*
G01*
X111256551Y-93796919D01*
G75*
G02*
X111176483Y-94095737I-189443J-109375D01*
G01*
X110797597Y-94314487D01*
G75*
G02*
X110498779Y-94234419I-109375J189443D01*
G01*
G37*
G36*
G01*
X111862769Y-93446919D02*
X111606519Y-93003081D01*
G75*
G02*
X111686587Y-92704263I189443J109375D01*
G01*
X112065473Y-92485513D01*
G75*
G02*
X112364291Y-92565581I109375J-189443D01*
G01*
X112620541Y-93009419D01*
G75*
G02*
X112540473Y-93308237I-189443J-109375D01*
G01*
X112161587Y-93526987D01*
G75*
G02*
X111862769Y-93446919I-109375J189443D01*
G01*
G37*
G36*
G01*
X110241078Y-91123712D02*
X109898148Y-90742849D01*
G75*
G02*
X109914339Y-90433914I162563J146372D01*
G01*
X110239465Y-90141170D01*
G75*
G02*
X110548400Y-90157361I146372J-162563D01*
G01*
X110891330Y-90538223D01*
G75*
G02*
X110875139Y-90847158I-162563J-146372D01*
G01*
X110550013Y-91139902D01*
G75*
G02*
X110241078Y-91123711I-146372J162563D01*
G01*
G37*
G36*
G01*
X109070624Y-92177592D02*
X108727694Y-91796729D01*
G75*
G02*
X108743885Y-91487794I162563J146372D01*
G01*
X109069011Y-91195050D01*
G75*
G02*
X109377946Y-91211241I146372J-162563D01*
G01*
X109720876Y-91592103D01*
G75*
G02*
X109704685Y-91901038I-162563J-146372D01*
G01*
X109379559Y-92193782D01*
G75*
G02*
X109070624Y-92177591I-146372J162563D01*
G01*
G37*
G36*
G01*
X107246039Y-90462642D02*
X106831417Y-90161401D01*
G75*
G02*
X106783023Y-89855851I128578J176972D01*
G01*
X107040179Y-89501907D01*
G75*
G02*
X107345729Y-89453513I176972J-128578D01*
G01*
X107760351Y-89754753D01*
G75*
G02*
X107808745Y-90060303I-128578J-176972D01*
G01*
X107551589Y-90414247D01*
G75*
G02*
X107246039Y-90462641I-176972J128578D01*
G01*
G37*
G36*
G01*
X108171801Y-89188440D02*
X107757179Y-88887199D01*
G75*
G02*
X107708785Y-88581649I128578J176972D01*
G01*
X107965941Y-88227705D01*
G75*
G02*
X108271491Y-88179311I176972J-128578D01*
G01*
X108686113Y-88480551D01*
G75*
G02*
X108734507Y-88786101I-128578J-176972D01*
G01*
X108477351Y-89140045D01*
G75*
G02*
X108171801Y-89188439I-176972J128578D01*
G01*
G37*
G36*
G01*
X105745378Y-87725685D02*
X105277185Y-87517233D01*
G75*
G02*
X105166321Y-87228421I88974J199838D01*
G01*
X105344269Y-86828745D01*
G75*
G02*
X105633081Y-86717881I199838J-88974D01*
G01*
X106101273Y-86926333D01*
G75*
G02*
X106212137Y-87215145I-88974J-199838D01*
G01*
X106034189Y-87614821D01*
G75*
G02*
X105745377Y-87725685I-199838J88974D01*
G01*
G37*
G36*
G01*
X105104768Y-89164519D02*
X104636575Y-88956067D01*
G75*
G02*
X104525711Y-88667255I88974J199838D01*
G01*
X104703659Y-88267579D01*
G75*
G02*
X104992471Y-88156715I199838J-88974D01*
G01*
X105460663Y-88365167D01*
G75*
G02*
X105571527Y-88653979I-88974J-199838D01*
G01*
X105393579Y-89053655D01*
G75*
G02*
X105104767Y-89164519I-199838J88974D01*
G01*
G37*
G36*
G01*
X102740393Y-88339960D02*
X102239092Y-88233405D01*
G75*
G02*
X102070603Y-87973954I45481J213970D01*
G01*
X102161564Y-87546015D01*
G75*
G02*
X102421015Y-87377526I213970J-45481D01*
G01*
X102922316Y-87484081D01*
G75*
G02*
X103090805Y-87743532I-45481J-213970D01*
G01*
X102999844Y-88171471D01*
G75*
G02*
X102740393Y-88339960I-213970J45481D01*
G01*
G37*
G36*
G01*
X103067853Y-86799378D02*
X102566552Y-86692823D01*
G75*
G02*
X102398063Y-86433372I45481J213970D01*
G01*
X102489024Y-86005433D01*
G75*
G02*
X102748475Y-85836944I213970J-45481D01*
G01*
X103249776Y-85943499D01*
G75*
G02*
X103418265Y-86202950I-45481J-213970D01*
G01*
X103327304Y-86630889D01*
G75*
G02*
X103067853Y-86799378I-213970J45481D01*
G01*
G37*
G36*
G01*
X100256250Y-88025000D02*
X99743750Y-88025000D01*
G75*
G02*
X99525000Y-87806250I0J218750D01*
G01*
X99525000Y-87368750D01*
G75*
G02*
X99743750Y-87150000I218750J0D01*
G01*
X100256250Y-87150000D01*
G75*
G02*
X100475000Y-87368750I0J-218750D01*
G01*
X100475000Y-87806250D01*
G75*
G02*
X100256250Y-88025000I-218750J0D01*
G01*
G37*
G36*
G01*
X100256250Y-86450000D02*
X99743750Y-86450000D01*
G75*
G02*
X99525000Y-86231250I0J218750D01*
G01*
X99525000Y-85793750D01*
G75*
G02*
X99743750Y-85575000I218750J0D01*
G01*
X100256250Y-85575000D01*
G75*
G02*
X100475000Y-85793750I0J-218750D01*
G01*
X100475000Y-86231250D01*
G75*
G02*
X100256250Y-86450000I-218750J0D01*
G01*
G37*
G36*
G01*
X97433448Y-86692823D02*
X96932147Y-86799378D01*
G75*
G02*
X96672696Y-86630889I-45481J213970D01*
G01*
X96581735Y-86202950D01*
G75*
G02*
X96750224Y-85943499I213970J45481D01*
G01*
X97251525Y-85836944D01*
G75*
G02*
X97510976Y-86005433I45481J-213970D01*
G01*
X97601937Y-86433372D01*
G75*
G02*
X97433448Y-86692823I-213970J-45481D01*
G01*
G37*
G36*
G01*
X97760908Y-88233405D02*
X97259607Y-88339960D01*
G75*
G02*
X97000156Y-88171471I-45481J213970D01*
G01*
X96909195Y-87743532D01*
G75*
G02*
X97077684Y-87484081I213970J45481D01*
G01*
X97578985Y-87377526D01*
G75*
G02*
X97838436Y-87546015I45481J-213970D01*
G01*
X97929397Y-87973954D01*
G75*
G02*
X97760908Y-88233405I-213970J-45481D01*
G01*
G37*
G36*
G01*
X95363424Y-88956067D02*
X94895233Y-89164519D01*
G75*
G02*
X94606421Y-89053655I-88974J199838D01*
G01*
X94428473Y-88653979D01*
G75*
G02*
X94539337Y-88365167I199838J88974D01*
G01*
X95007529Y-88156715D01*
G75*
G02*
X95296341Y-88267579I88974J-199838D01*
G01*
X95474289Y-88667255D01*
G75*
G02*
X95363425Y-88956067I-199838J-88974D01*
G01*
G37*
G36*
G01*
X94722814Y-87517233D02*
X94254623Y-87725685D01*
G75*
G02*
X93965811Y-87614821I-88974J199838D01*
G01*
X93787863Y-87215145D01*
G75*
G02*
X93898727Y-86926333I199838J88974D01*
G01*
X94366919Y-86717881D01*
G75*
G02*
X94655731Y-86828745I88974J-199838D01*
G01*
X94833679Y-87228421D01*
G75*
G02*
X94722815Y-87517233I-199838J-88974D01*
G01*
G37*
G36*
G01*
X102566552Y-113307177D02*
X103067853Y-113200622D01*
G75*
G02*
X103327304Y-113369111I45481J-213970D01*
G01*
X103418265Y-113797050D01*
G75*
G02*
X103249776Y-114056501I-213970J-45481D01*
G01*
X102748475Y-114163056D01*
G75*
G02*
X102489024Y-113994567I-45481J213970D01*
G01*
X102398063Y-113566628D01*
G75*
G02*
X102566552Y-113307177I213970J45481D01*
G01*
G37*
G36*
G01*
X102239092Y-111766595D02*
X102740393Y-111660040D01*
G75*
G02*
X102999844Y-111828529I45481J-213970D01*
G01*
X103090805Y-112256468D01*
G75*
G02*
X102922316Y-112515919I-213970J-45481D01*
G01*
X102421015Y-112622474D01*
G75*
G02*
X102161564Y-112453985I-45481J213970D01*
G01*
X102070603Y-112026046D01*
G75*
G02*
X102239092Y-111766595I213970J45481D01*
G01*
G37*
G36*
G01*
X104636576Y-111043933D02*
X105104767Y-110835481D01*
G75*
G02*
X105393579Y-110946345I88974J-199838D01*
G01*
X105571527Y-111346021D01*
G75*
G02*
X105460663Y-111634833I-199838J-88974D01*
G01*
X104992471Y-111843285D01*
G75*
G02*
X104703659Y-111732421I-88974J199838D01*
G01*
X104525711Y-111332745D01*
G75*
G02*
X104636575Y-111043933I199838J88974D01*
G01*
G37*
G36*
G01*
X105277186Y-112482767D02*
X105745377Y-112274315D01*
G75*
G02*
X106034189Y-112385179I88974J-199838D01*
G01*
X106212137Y-112784855D01*
G75*
G02*
X106101273Y-113073667I-199838J-88974D01*
G01*
X105633081Y-113282119D01*
G75*
G02*
X105344269Y-113171255I-88974J199838D01*
G01*
X105166321Y-112771579D01*
G75*
G02*
X105277185Y-112482767I199838J88974D01*
G01*
G37*
G36*
G01*
X107757179Y-111112800D02*
X108171801Y-110811561D01*
G75*
G02*
X108477351Y-110859955I128578J-176972D01*
G01*
X108734507Y-111213899D01*
G75*
G02*
X108686113Y-111519449I-176972J-128578D01*
G01*
X108271491Y-111820689D01*
G75*
G02*
X107965941Y-111772295I-128578J176972D01*
G01*
X107708785Y-111418351D01*
G75*
G02*
X107757179Y-111112801I176972J128578D01*
G01*
G37*
G36*
G01*
X106831417Y-109838598D02*
X107246039Y-109537359D01*
G75*
G02*
X107551589Y-109585753I128578J-176972D01*
G01*
X107808745Y-109939697D01*
G75*
G02*
X107760351Y-110245247I-176972J-128578D01*
G01*
X107345729Y-110546487D01*
G75*
G02*
X107040179Y-110498093I-128578J176972D01*
G01*
X106783023Y-110144149D01*
G75*
G02*
X106831417Y-109838599I176972J128578D01*
G01*
G37*
G36*
G01*
X108727694Y-108203270D02*
X109070624Y-107822409D01*
G75*
G02*
X109379559Y-107806218I162563J-146372D01*
G01*
X109704685Y-108098962D01*
G75*
G02*
X109720876Y-108407897I-146372J-162563D01*
G01*
X109377946Y-108788759D01*
G75*
G02*
X109069011Y-108804950I-162563J146372D01*
G01*
X108743885Y-108512206D01*
G75*
G02*
X108727694Y-108203271I146372J162563D01*
G01*
G37*
G36*
G01*
X109898148Y-109257150D02*
X110241078Y-108876289D01*
G75*
G02*
X110550013Y-108860098I162563J-146372D01*
G01*
X110875139Y-109152842D01*
G75*
G02*
X110891330Y-109461777I-146372J-162563D01*
G01*
X110548400Y-109842639D01*
G75*
G02*
X110239465Y-109858830I-162563J146372D01*
G01*
X109914339Y-109566086D01*
G75*
G02*
X109898148Y-109257151I146372J162563D01*
G01*
G37*
G36*
G01*
X111606519Y-106996919D02*
X111862769Y-106553081D01*
G75*
G02*
X112161587Y-106473013I189443J-109375D01*
G01*
X112540473Y-106691763D01*
G75*
G02*
X112620541Y-106990581I-109375J-189443D01*
G01*
X112364291Y-107434419D01*
G75*
G02*
X112065473Y-107514487I-189443J109375D01*
G01*
X111686587Y-107295737D01*
G75*
G02*
X111606519Y-106996919I109375J189443D01*
G01*
G37*
G36*
G01*
X110242529Y-106209419D02*
X110498779Y-105765581D01*
G75*
G02*
X110797597Y-105685513I189443J-109375D01*
G01*
X111176483Y-105904263D01*
G75*
G02*
X111256551Y-106203081I-109375J-189443D01*
G01*
X111000301Y-106646919D01*
G75*
G02*
X110701483Y-106726987I-189443J109375D01*
G01*
X110322597Y-106508237D01*
G75*
G02*
X110242529Y-106209419I109375J189443D01*
G01*
G37*
G36*
G01*
X111309716Y-103944186D02*
X111468087Y-103456770D01*
G75*
G02*
X111743728Y-103316323I208044J-67597D01*
G01*
X112159815Y-103451518D01*
G75*
G02*
X112300262Y-103727159I-67597J-208044D01*
G01*
X112141891Y-104214576D01*
G75*
G02*
X111866250Y-104355023I-208044J67597D01*
G01*
X111450163Y-104219828D01*
G75*
G02*
X111309716Y-103944187I67597J208044D01*
G01*
G37*
G36*
G01*
X112807630Y-104430888D02*
X112966001Y-103943472D01*
G75*
G02*
X113241642Y-103803025I208044J-67597D01*
G01*
X113657729Y-103938220D01*
G75*
G02*
X113798176Y-104213861I-67597J-208044D01*
G01*
X113639805Y-104701278D01*
G75*
G02*
X113364164Y-104841725I-208044J67597D01*
G01*
X112948077Y-104706530D01*
G75*
G02*
X112807630Y-104430889I67597J208044D01*
G01*
G37*
G36*
G01*
X111882614Y-101506575D02*
X111936185Y-100996882D01*
G75*
G02*
X112176603Y-100802196I217552J-22866D01*
G01*
X112611706Y-100847927D01*
G75*
G02*
X112806392Y-101088345I-22866J-217552D01*
G01*
X112752821Y-101598038D01*
G75*
G02*
X112512403Y-101792724I-217552J22866D01*
G01*
X112077300Y-101746993D01*
G75*
G02*
X111882614Y-101506575I22866J217552D01*
G01*
G37*
G36*
G01*
X113448986Y-101671207D02*
X113502557Y-101161514D01*
G75*
G02*
X113742975Y-100966828I217552J-22866D01*
G01*
X114178078Y-101012559D01*
G75*
G02*
X114372764Y-101252977I-22866J-217552D01*
G01*
X114319193Y-101762670D01*
G75*
G02*
X114078775Y-101957356I-217552J22866D01*
G01*
X113643672Y-101911625D01*
G75*
G02*
X113448986Y-101671207I22866J217552D01*
G01*
G37*
G36*
G01*
X111936185Y-99003117D02*
X111882614Y-98493425D01*
G75*
G02*
X112077300Y-98253007I217552J22866D01*
G01*
X112512403Y-98207276D01*
G75*
G02*
X112752821Y-98401962I22866J-217552D01*
G01*
X112806392Y-98911655D01*
G75*
G02*
X112611706Y-99152073I-217552J-22866D01*
G01*
X112176603Y-99197804D01*
G75*
G02*
X111936185Y-99003118I-22866J217552D01*
G01*
G37*
G36*
G01*
X113502557Y-98838485D02*
X113448986Y-98328793D01*
G75*
G02*
X113643672Y-98088375I217552J22866D01*
G01*
X114078775Y-98042644D01*
G75*
G02*
X114319193Y-98237330I22866J-217552D01*
G01*
X114372764Y-98747023D01*
G75*
G02*
X114178078Y-98987441I-217552J-22866D01*
G01*
X113742975Y-99033172D01*
G75*
G02*
X113502557Y-98838486I-22866J217552D01*
G01*
G37*
G36*
G01*
X87033999Y-103943472D02*
X87192370Y-104430889D01*
G75*
G02*
X87051923Y-104706530I-208044J-67597D01*
G01*
X86635836Y-104841725D01*
G75*
G02*
X86360195Y-104701278I-67597J208044D01*
G01*
X86201824Y-104213861D01*
G75*
G02*
X86342271Y-103938220I208044J67597D01*
G01*
X86758358Y-103803025D01*
G75*
G02*
X87033999Y-103943472I67597J-208044D01*
G01*
G37*
G36*
G01*
X88531913Y-103456770D02*
X88690284Y-103944187D01*
G75*
G02*
X88549837Y-104219828I-208044J-67597D01*
G01*
X88133750Y-104355023D01*
G75*
G02*
X87858109Y-104214576I-67597J208044D01*
G01*
X87699738Y-103727159D01*
G75*
G02*
X87840185Y-103451518I208044J67597D01*
G01*
X88256272Y-103316323D01*
G75*
G02*
X88531913Y-103456770I67597J-208044D01*
G01*
G37*
G36*
G01*
X89501221Y-105765581D02*
X89757471Y-106209419D01*
G75*
G02*
X89677403Y-106508237I-189443J-109375D01*
G01*
X89298517Y-106726987D01*
G75*
G02*
X88999699Y-106646919I-109375J189443D01*
G01*
X88743449Y-106203081D01*
G75*
G02*
X88823517Y-105904263I189443J109375D01*
G01*
X89202403Y-105685513D01*
G75*
G02*
X89501221Y-105765581I109375J-189443D01*
G01*
G37*
G36*
G01*
X88137231Y-106553081D02*
X88393481Y-106996919D01*
G75*
G02*
X88313413Y-107295737I-189443J-109375D01*
G01*
X87934527Y-107514487D01*
G75*
G02*
X87635709Y-107434419I-109375J189443D01*
G01*
X87379459Y-106990581D01*
G75*
G02*
X87459527Y-106691763I189443J109375D01*
G01*
X87838413Y-106473013D01*
G75*
G02*
X88137231Y-106553081I109375J-189443D01*
G01*
G37*
G36*
G01*
X89758922Y-108876288D02*
X90101852Y-109257151D01*
G75*
G02*
X90085661Y-109566086I-162563J-146372D01*
G01*
X89760535Y-109858830D01*
G75*
G02*
X89451600Y-109842639I-146372J162563D01*
G01*
X89108670Y-109461777D01*
G75*
G02*
X89124861Y-109152842I162563J146372D01*
G01*
X89449987Y-108860098D01*
G75*
G02*
X89758922Y-108876289I146372J-162563D01*
G01*
G37*
G36*
G01*
X90929376Y-107822408D02*
X91272306Y-108203271D01*
G75*
G02*
X91256115Y-108512206I-162563J-146372D01*
G01*
X90930989Y-108804950D01*
G75*
G02*
X90622054Y-108788759I-146372J162563D01*
G01*
X90279124Y-108407897D01*
G75*
G02*
X90295315Y-108098962I162563J146372D01*
G01*
X90620441Y-107806218D01*
G75*
G02*
X90929376Y-107822409I146372J-162563D01*
G01*
G37*
G36*
G01*
X92753961Y-109537358D02*
X93168583Y-109838599D01*
G75*
G02*
X93216977Y-110144149I-128578J-176972D01*
G01*
X92959821Y-110498093D01*
G75*
G02*
X92654271Y-110546487I-176972J128578D01*
G01*
X92239649Y-110245247D01*
G75*
G02*
X92191255Y-109939697I128578J176972D01*
G01*
X92448411Y-109585753D01*
G75*
G02*
X92753961Y-109537359I176972J-128578D01*
G01*
G37*
G36*
G01*
X91828199Y-110811560D02*
X92242821Y-111112801D01*
G75*
G02*
X92291215Y-111418351I-128578J-176972D01*
G01*
X92034059Y-111772295D01*
G75*
G02*
X91728509Y-111820689I-176972J128578D01*
G01*
X91313887Y-111519449D01*
G75*
G02*
X91265493Y-111213899I128578J176972D01*
G01*
X91522649Y-110859955D01*
G75*
G02*
X91828199Y-110811561I176972J-128578D01*
G01*
G37*
G36*
G01*
X94254622Y-112274315D02*
X94722815Y-112482767D01*
G75*
G02*
X94833679Y-112771579I-88974J-199838D01*
G01*
X94655731Y-113171255D01*
G75*
G02*
X94366919Y-113282119I-199838J88974D01*
G01*
X93898727Y-113073667D01*
G75*
G02*
X93787863Y-112784855I88974J199838D01*
G01*
X93965811Y-112385179D01*
G75*
G02*
X94254623Y-112274315I199838J-88974D01*
G01*
G37*
G36*
G01*
X94895232Y-110835481D02*
X95363425Y-111043933D01*
G75*
G02*
X95474289Y-111332745I-88974J-199838D01*
G01*
X95296341Y-111732421D01*
G75*
G02*
X95007529Y-111843285I-199838J88974D01*
G01*
X94539337Y-111634833D01*
G75*
G02*
X94428473Y-111346021I88974J199838D01*
G01*
X94606421Y-110946345D01*
G75*
G02*
X94895233Y-110835481I199838J-88974D01*
G01*
G37*
G36*
G01*
X96932147Y-113200622D02*
X97433448Y-113307177D01*
G75*
G02*
X97601937Y-113566628I-45481J-213970D01*
G01*
X97510976Y-113994567D01*
G75*
G02*
X97251525Y-114163056I-213970J45481D01*
G01*
X96750224Y-114056501D01*
G75*
G02*
X96581735Y-113797050I45481J213970D01*
G01*
X96672696Y-113369111D01*
G75*
G02*
X96932147Y-113200622I213970J-45481D01*
G01*
G37*
G36*
G01*
X97259607Y-111660040D02*
X97760908Y-111766595D01*
G75*
G02*
X97929397Y-112026046I-45481J-213970D01*
G01*
X97838436Y-112453985D01*
G75*
G02*
X97578985Y-112622474I-213970J45481D01*
G01*
X97077684Y-112515919D01*
G75*
G02*
X96909195Y-112256468I45481J213970D01*
G01*
X97000156Y-111828529D01*
G75*
G02*
X97259607Y-111660040I213970J-45481D01*
G01*
G37*
G36*
G01*
X93168583Y-90161402D02*
X92753961Y-90462641D01*
G75*
G02*
X92448411Y-90414247I-128578J176972D01*
G01*
X92191255Y-90060303D01*
G75*
G02*
X92239649Y-89754753I176972J128578D01*
G01*
X92654271Y-89453513D01*
G75*
G02*
X92959821Y-89501907I128578J-176972D01*
G01*
X93216977Y-89855851D01*
G75*
G02*
X93168583Y-90161401I-176972J-128578D01*
G01*
G37*
G36*
G01*
X92242821Y-88887200D02*
X91828199Y-89188439D01*
G75*
G02*
X91522649Y-89140045I-128578J176972D01*
G01*
X91265493Y-88786101D01*
G75*
G02*
X91313887Y-88480551I176972J128578D01*
G01*
X91728509Y-88179311D01*
G75*
G02*
X92034059Y-88227705I128578J-176972D01*
G01*
X92291215Y-88581649D01*
G75*
G02*
X92242821Y-88887199I-176972J-128578D01*
G01*
G37*
G36*
G01*
X90101852Y-90742850D02*
X89758922Y-91123711D01*
G75*
G02*
X89449987Y-91139902I-162563J146372D01*
G01*
X89124861Y-90847158D01*
G75*
G02*
X89108670Y-90538223I146372J162563D01*
G01*
X89451600Y-90157361D01*
G75*
G02*
X89760535Y-90141170I162563J-146372D01*
G01*
X90085661Y-90433914D01*
G75*
G02*
X90101852Y-90742849I-146372J-162563D01*
G01*
G37*
G36*
G01*
X91272306Y-91796730D02*
X90929376Y-92177591D01*
G75*
G02*
X90620441Y-92193782I-162563J146372D01*
G01*
X90295315Y-91901038D01*
G75*
G02*
X90279124Y-91592103I146372J162563D01*
G01*
X90622054Y-91211241D01*
G75*
G02*
X90930989Y-91195050I162563J-146372D01*
G01*
X91256115Y-91487794D01*
G75*
G02*
X91272306Y-91796729I-146372J-162563D01*
G01*
G37*
G36*
G01*
X89757471Y-93790581D02*
X89501221Y-94234419D01*
G75*
G02*
X89202403Y-94314487I-189443J109375D01*
G01*
X88823517Y-94095737D01*
G75*
G02*
X88743449Y-93796919I109375J189443D01*
G01*
X88999699Y-93353081D01*
G75*
G02*
X89298517Y-93273013I189443J-109375D01*
G01*
X89677403Y-93491763D01*
G75*
G02*
X89757471Y-93790581I-109375J-189443D01*
G01*
G37*
G36*
G01*
X88393481Y-93003081D02*
X88137231Y-93446919D01*
G75*
G02*
X87838413Y-93526987I-189443J109375D01*
G01*
X87459527Y-93308237D01*
G75*
G02*
X87379459Y-93009419I109375J189443D01*
G01*
X87635709Y-92565581D01*
G75*
G02*
X87934527Y-92485513I189443J-109375D01*
G01*
X88313413Y-92704263D01*
G75*
G02*
X88393481Y-93003081I-109375J-189443D01*
G01*
G37*
G36*
G01*
X87192370Y-95569112D02*
X87033999Y-96056528D01*
G75*
G02*
X86758358Y-96196975I-208044J67597D01*
G01*
X86342271Y-96061780D01*
G75*
G02*
X86201824Y-95786139I67597J208044D01*
G01*
X86360195Y-95298722D01*
G75*
G02*
X86635836Y-95158275I208044J-67597D01*
G01*
X87051923Y-95293470D01*
G75*
G02*
X87192370Y-95569111I-67597J-208044D01*
G01*
G37*
G36*
G01*
X88690284Y-96055814D02*
X88531913Y-96543230D01*
G75*
G02*
X88256272Y-96683677I-208044J67597D01*
G01*
X87840185Y-96548482D01*
G75*
G02*
X87699738Y-96272841I67597J208044D01*
G01*
X87858109Y-95785424D01*
G75*
G02*
X88133750Y-95644977I208044J-67597D01*
G01*
X88549837Y-95780172D01*
G75*
G02*
X88690284Y-96055813I-67597J-208044D01*
G01*
G37*
G36*
G01*
X86551014Y-98328793D02*
X86497443Y-98838486D01*
G75*
G02*
X86257025Y-99033172I-217552J22866D01*
G01*
X85821922Y-98987441D01*
G75*
G02*
X85627236Y-98747023I22866J217552D01*
G01*
X85680807Y-98237330D01*
G75*
G02*
X85921225Y-98042644I217552J-22866D01*
G01*
X86356328Y-98088375D01*
G75*
G02*
X86551014Y-98328793I-22866J-217552D01*
G01*
G37*
G36*
G01*
X88117386Y-98493425D02*
X88063815Y-99003118D01*
G75*
G02*
X87823397Y-99197804I-217552J22866D01*
G01*
X87388294Y-99152073D01*
G75*
G02*
X87193608Y-98911655I22866J217552D01*
G01*
X87247179Y-98401962D01*
G75*
G02*
X87487597Y-98207276I217552J-22866D01*
G01*
X87922700Y-98253007D01*
G75*
G02*
X88117386Y-98493425I-22866J-217552D01*
G01*
G37*
G36*
G01*
X88063815Y-100996883D02*
X88117386Y-101506575D01*
G75*
G02*
X87922700Y-101746993I-217552J-22866D01*
G01*
X87487597Y-101792724D01*
G75*
G02*
X87247179Y-101598038I-22866J217552D01*
G01*
X87193608Y-101088345D01*
G75*
G02*
X87388294Y-100847927I217552J22866D01*
G01*
X87823397Y-100802196D01*
G75*
G02*
X88063815Y-100996882I22866J-217552D01*
G01*
G37*
G36*
G01*
X86497443Y-101161515D02*
X86551014Y-101671207D01*
G75*
G02*
X86356328Y-101911625I-217552J-22866D01*
G01*
X85921225Y-101957356D01*
G75*
G02*
X85680807Y-101762670I-22866J217552D01*
G01*
X85627236Y-101252977D01*
G75*
G02*
X85821922Y-101012559I217552J22866D01*
G01*
X86257025Y-100966828D01*
G75*
G02*
X86497443Y-101161514I22866J-217552D01*
G01*
G37*
G36*
G01*
X107294485Y-96084419D02*
X107038235Y-95640581D01*
G75*
G02*
X107118303Y-95341763I189443J109375D01*
G01*
X107497189Y-95123013D01*
G75*
G02*
X107796007Y-95203081I109375J-189443D01*
G01*
X108052257Y-95646919D01*
G75*
G02*
X107972189Y-95945737I-189443J-109375D01*
G01*
X107593303Y-96164487D01*
G75*
G02*
X107294485Y-96084419I-109375J189443D01*
G01*
G37*
G36*
G01*
X108658475Y-95296919D02*
X108402225Y-94853081D01*
G75*
G02*
X108482293Y-94554263I189443J109375D01*
G01*
X108861179Y-94335513D01*
G75*
G02*
X109159997Y-94415581I109375J-189443D01*
G01*
X109416247Y-94859419D01*
G75*
G02*
X109336179Y-95158237I-189443J-109375D01*
G01*
X108957293Y-95376987D01*
G75*
G02*
X108658475Y-95296919I-109375J189443D01*
G01*
G37*
G36*
G01*
X105146919Y-91597775D02*
X104703081Y-91341525D01*
G75*
G02*
X104623013Y-91042707I109375J189443D01*
G01*
X104841763Y-90663821D01*
G75*
G02*
X105140581Y-90583753I189443J-109375D01*
G01*
X105584419Y-90840003D01*
G75*
G02*
X105664487Y-91138821I-109375J-189443D01*
G01*
X105445737Y-91517707D01*
G75*
G02*
X105146919Y-91597775I-189443J109375D01*
G01*
G37*
G36*
G01*
X104359419Y-92961765D02*
X103915581Y-92705515D01*
G75*
G02*
X103835513Y-92406697I109375J189443D01*
G01*
X104054263Y-92027811D01*
G75*
G02*
X104353081Y-91947743I189443J-109375D01*
G01*
X104796919Y-92203993D01*
G75*
G02*
X104876987Y-92502811I-109375J-189443D01*
G01*
X104658237Y-92881697D01*
G75*
G02*
X104359419Y-92961765I-189443J109375D01*
G01*
G37*
G36*
G01*
X100256250Y-90150000D02*
X99743750Y-90150000D01*
G75*
G02*
X99525000Y-89931250I0J218750D01*
G01*
X99525000Y-89493750D01*
G75*
G02*
X99743750Y-89275000I218750J0D01*
G01*
X100256250Y-89275000D01*
G75*
G02*
X100475000Y-89493750I0J-218750D01*
G01*
X100475000Y-89931250D01*
G75*
G02*
X100256250Y-90150000I-218750J0D01*
G01*
G37*
G36*
G01*
X100256250Y-91725000D02*
X99743750Y-91725000D01*
G75*
G02*
X99525000Y-91506250I0J218750D01*
G01*
X99525000Y-91068750D01*
G75*
G02*
X99743750Y-90850000I218750J0D01*
G01*
X100256250Y-90850000D01*
G75*
G02*
X100475000Y-91068750I0J-218750D01*
G01*
X100475000Y-91506250D01*
G75*
G02*
X100256250Y-91725000I-218750J0D01*
G01*
G37*
G36*
G01*
X103915581Y-107294485D02*
X104359419Y-107038235D01*
G75*
G02*
X104658237Y-107118303I109375J-189443D01*
G01*
X104876987Y-107497189D01*
G75*
G02*
X104796919Y-107796007I-189443J-109375D01*
G01*
X104353081Y-108052257D01*
G75*
G02*
X104054263Y-107972189I-109375J189443D01*
G01*
X103835513Y-107593303D01*
G75*
G02*
X103915581Y-107294485I189443J109375D01*
G01*
G37*
G36*
G01*
X104703081Y-108658475D02*
X105146919Y-108402225D01*
G75*
G02*
X105445737Y-108482293I109375J-189443D01*
G01*
X105664487Y-108861179D01*
G75*
G02*
X105584419Y-109159997I-189443J-109375D01*
G01*
X105140581Y-109416247D01*
G75*
G02*
X104841763Y-109336179I-109375J189443D01*
G01*
X104623013Y-108957293D01*
G75*
G02*
X104703081Y-108658475I189443J109375D01*
G01*
G37*
G36*
G01*
X108402225Y-105146919D02*
X108658475Y-104703081D01*
G75*
G02*
X108957293Y-104623013I189443J-109375D01*
G01*
X109336179Y-104841763D01*
G75*
G02*
X109416247Y-105140581I-109375J-189443D01*
G01*
X109159997Y-105584419D01*
G75*
G02*
X108861179Y-105664487I-189443J109375D01*
G01*
X108482293Y-105445737D01*
G75*
G02*
X108402225Y-105146919I109375J189443D01*
G01*
G37*
G36*
G01*
X107038235Y-104359419D02*
X107294485Y-103915581D01*
G75*
G02*
X107593303Y-103835513I189443J-109375D01*
G01*
X107972189Y-104054263D01*
G75*
G02*
X108052257Y-104353081I-109375J-189443D01*
G01*
X107796007Y-104796919D01*
G75*
G02*
X107497189Y-104876987I-189443J109375D01*
G01*
X107118303Y-104658237D01*
G75*
G02*
X107038235Y-104359419I109375J189443D01*
G01*
G37*
G36*
G01*
X109850000Y-100256250D02*
X109850000Y-99743750D01*
G75*
G02*
X110068750Y-99525000I218750J0D01*
G01*
X110506250Y-99525000D01*
G75*
G02*
X110725000Y-99743750I0J-218750D01*
G01*
X110725000Y-100256250D01*
G75*
G02*
X110506250Y-100475000I-218750J0D01*
G01*
X110068750Y-100475000D01*
G75*
G02*
X109850000Y-100256250I0J218750D01*
G01*
G37*
G36*
G01*
X108275000Y-100256250D02*
X108275000Y-99743750D01*
G75*
G02*
X108493750Y-99525000I218750J0D01*
G01*
X108931250Y-99525000D01*
G75*
G02*
X109150000Y-99743750I0J-218750D01*
G01*
X109150000Y-100256250D01*
G75*
G02*
X108931250Y-100475000I-218750J0D01*
G01*
X108493750Y-100475000D01*
G75*
G02*
X108275000Y-100256250I0J218750D01*
G01*
G37*
G36*
G01*
X91341525Y-104703081D02*
X91597775Y-105146919D01*
G75*
G02*
X91517707Y-105445737I-189443J-109375D01*
G01*
X91138821Y-105664487D01*
G75*
G02*
X90840003Y-105584419I-109375J189443D01*
G01*
X90583753Y-105140581D01*
G75*
G02*
X90663821Y-104841763I189443J109375D01*
G01*
X91042707Y-104623013D01*
G75*
G02*
X91341525Y-104703081I109375J-189443D01*
G01*
G37*
G36*
G01*
X92705515Y-103915581D02*
X92961765Y-104359419D01*
G75*
G02*
X92881697Y-104658237I-189443J-109375D01*
G01*
X92502811Y-104876987D01*
G75*
G02*
X92203993Y-104796919I-109375J189443D01*
G01*
X91947743Y-104353081D01*
G75*
G02*
X92027811Y-104054263I189443J109375D01*
G01*
X92406697Y-103835513D01*
G75*
G02*
X92705515Y-103915581I109375J-189443D01*
G01*
G37*
G36*
G01*
X95640581Y-107038235D02*
X96084419Y-107294485D01*
G75*
G02*
X96164487Y-107593303I-109375J-189443D01*
G01*
X95945737Y-107972189D01*
G75*
G02*
X95646919Y-108052257I-189443J109375D01*
G01*
X95203081Y-107796007D01*
G75*
G02*
X95123013Y-107497189I109375J189443D01*
G01*
X95341763Y-107118303D01*
G75*
G02*
X95640581Y-107038235I189443J-109375D01*
G01*
G37*
G36*
G01*
X94853081Y-108402225D02*
X95296919Y-108658475D01*
G75*
G02*
X95376987Y-108957293I-109375J-189443D01*
G01*
X95158237Y-109336179D01*
G75*
G02*
X94859419Y-109416247I-189443J109375D01*
G01*
X94415581Y-109159997D01*
G75*
G02*
X94335513Y-108861179I109375J189443D01*
G01*
X94554263Y-108482293D01*
G75*
G02*
X94853081Y-108402225I189443J-109375D01*
G01*
G37*
G36*
G01*
X99743750Y-109850000D02*
X100256250Y-109850000D01*
G75*
G02*
X100475000Y-110068750I0J-218750D01*
G01*
X100475000Y-110506250D01*
G75*
G02*
X100256250Y-110725000I-218750J0D01*
G01*
X99743750Y-110725000D01*
G75*
G02*
X99525000Y-110506250I0J218750D01*
G01*
X99525000Y-110068750D01*
G75*
G02*
X99743750Y-109850000I218750J0D01*
G01*
G37*
G36*
G01*
X99743750Y-108275000D02*
X100256250Y-108275000D01*
G75*
G02*
X100475000Y-108493750I0J-218750D01*
G01*
X100475000Y-108931250D01*
G75*
G02*
X100256250Y-109150000I-218750J0D01*
G01*
X99743750Y-109150000D01*
G75*
G02*
X99525000Y-108931250I0J218750D01*
G01*
X99525000Y-108493750D01*
G75*
G02*
X99743750Y-108275000I218750J0D01*
G01*
G37*
G36*
G01*
X95296919Y-91341525D02*
X94853081Y-91597775D01*
G75*
G02*
X94554263Y-91517707I-109375J189443D01*
G01*
X94335513Y-91138821D01*
G75*
G02*
X94415581Y-90840003I189443J109375D01*
G01*
X94859419Y-90583753D01*
G75*
G02*
X95158237Y-90663821I109375J-189443D01*
G01*
X95376987Y-91042707D01*
G75*
G02*
X95296919Y-91341525I-189443J-109375D01*
G01*
G37*
G36*
G01*
X96084419Y-92705515D02*
X95640581Y-92961765D01*
G75*
G02*
X95341763Y-92881697I-109375J189443D01*
G01*
X95123013Y-92502811D01*
G75*
G02*
X95203081Y-92203993I189443J109375D01*
G01*
X95646919Y-91947743D01*
G75*
G02*
X95945737Y-92027811I109375J-189443D01*
G01*
X96164487Y-92406697D01*
G75*
G02*
X96084419Y-92705515I-189443J-109375D01*
G01*
G37*
G36*
G01*
X92961765Y-95640581D02*
X92705515Y-96084419D01*
G75*
G02*
X92406697Y-96164487I-189443J109375D01*
G01*
X92027811Y-95945737D01*
G75*
G02*
X91947743Y-95646919I109375J189443D01*
G01*
X92203993Y-95203081D01*
G75*
G02*
X92502811Y-95123013I189443J-109375D01*
G01*
X92881697Y-95341763D01*
G75*
G02*
X92961765Y-95640581I-109375J-189443D01*
G01*
G37*
G36*
G01*
X91597775Y-94853081D02*
X91341525Y-95296919D01*
G75*
G02*
X91042707Y-95376987I-189443J109375D01*
G01*
X90663821Y-95158237D01*
G75*
G02*
X90583753Y-94859419I109375J189443D01*
G01*
X90840003Y-94415581D01*
G75*
G02*
X91138821Y-94335513I189443J-109375D01*
G01*
X91517707Y-94554263D01*
G75*
G02*
X91597775Y-94853081I-109375J-189443D01*
G01*
G37*
G36*
G01*
X91725000Y-99743750D02*
X91725000Y-100256250D01*
G75*
G02*
X91506250Y-100475000I-218750J0D01*
G01*
X91068750Y-100475000D01*
G75*
G02*
X90850000Y-100256250I0J218750D01*
G01*
X90850000Y-99743750D01*
G75*
G02*
X91068750Y-99525000I218750J0D01*
G01*
X91506250Y-99525000D01*
G75*
G02*
X91725000Y-99743750I0J-218750D01*
G01*
G37*
G36*
G01*
X90150000Y-99743750D02*
X90150000Y-100256250D01*
G75*
G02*
X89931250Y-100475000I-218750J0D01*
G01*
X89493750Y-100475000D01*
G75*
G02*
X89275000Y-100256250I0J218750D01*
G01*
X89275000Y-99743750D01*
G75*
G02*
X89493750Y-99525000I218750J0D01*
G01*
X89931250Y-99525000D01*
G75*
G02*
X90150000Y-99743750I0J-218750D01*
G01*
G37*
G36*
G01*
X96949465Y-89532878D02*
X97408279Y-89409940D01*
G75*
G02*
X97699156Y-89577877I61470J-229407D01*
G01*
X97847977Y-90133284D01*
G75*
G02*
X97680040Y-90424161I-229407J-61470D01*
G01*
X97221225Y-90547100D01*
G75*
G02*
X96930348Y-90379163I-61470J229407D01*
G01*
X96781527Y-89823756D01*
G75*
G02*
X96949464Y-89532879I229407J61470D01*
G01*
G37*
G36*
G01*
X97402399Y-91223248D02*
X97861213Y-91100310D01*
G75*
G02*
X98152090Y-91268247I61470J-229407D01*
G01*
X98300911Y-91823654D01*
G75*
G02*
X98132974Y-92114531I-229407J-61470D01*
G01*
X97674159Y-92237470D01*
G75*
G02*
X97383282Y-92069533I-61470J229407D01*
G01*
X97234461Y-91514126D01*
G75*
G02*
X97402398Y-91223249I229407J61470D01*
G01*
G37*
G36*
G01*
X102591721Y-89409939D02*
X103050536Y-89532879D01*
G75*
G02*
X103218473Y-89823756I-61470J-229407D01*
G01*
X103069652Y-90379163D01*
G75*
G02*
X102778775Y-90547100I-229407J61470D01*
G01*
X102319960Y-90424161D01*
G75*
G02*
X102152023Y-90133284I61470J229407D01*
G01*
X102300844Y-89577877D01*
G75*
G02*
X102591721Y-89409940I229407J-61470D01*
G01*
G37*
G36*
G01*
X102138787Y-91100309D02*
X102597602Y-91223249D01*
G75*
G02*
X102765539Y-91514126I-61470J-229407D01*
G01*
X102616718Y-92069533D01*
G75*
G02*
X102325841Y-92237470I-229407J61470D01*
G01*
X101867026Y-92114531D01*
G75*
G02*
X101699089Y-91823654I61470J229407D01*
G01*
X101847910Y-91268247D01*
G75*
G02*
X102138787Y-91100310I229407J-61470D01*
G01*
G37*
G36*
G01*
X106302089Y-93362035D02*
X106637965Y-93697911D01*
G75*
G02*
X106637965Y-94033787I-167938J-167938D01*
G01*
X106231379Y-94440373D01*
G75*
G02*
X105895503Y-94440373I-167938J167938D01*
G01*
X105559627Y-94104497D01*
G75*
G02*
X105559627Y-93768621I167938J167938D01*
G01*
X105966213Y-93362035D01*
G75*
G02*
X106302089Y-93362035I167938J-167938D01*
G01*
G37*
G36*
G01*
X107539525Y-92124599D02*
X107875401Y-92460475D01*
G75*
G02*
X107875401Y-92796351I-167938J-167938D01*
G01*
X107468815Y-93202937D01*
G75*
G02*
X107132939Y-93202937I-167938J167938D01*
G01*
X106797063Y-92867061D01*
G75*
G02*
X106797063Y-92531185I167938J167938D01*
G01*
X107203649Y-92124599D01*
G75*
G02*
X107539525Y-92124599I167938J-167938D01*
G01*
G37*
G36*
G01*
X108776752Y-97402399D02*
X108899690Y-97861213D01*
G75*
G02*
X108731753Y-98152090I-229407J-61470D01*
G01*
X108176346Y-98300911D01*
G75*
G02*
X107885469Y-98132974I-61470J229407D01*
G01*
X107762530Y-97674159D01*
G75*
G02*
X107930467Y-97383282I229407J61470D01*
G01*
X108485874Y-97234461D01*
G75*
G02*
X108776751Y-97402398I61470J-229407D01*
G01*
G37*
G36*
G01*
X110467122Y-96949465D02*
X110590060Y-97408279D01*
G75*
G02*
X110422123Y-97699156I-229407J-61470D01*
G01*
X109866716Y-97847977D01*
G75*
G02*
X109575839Y-97680040I-61470J229407D01*
G01*
X109452900Y-97221225D01*
G75*
G02*
X109620837Y-96930348I229407J61470D01*
G01*
X110176244Y-96781527D01*
G75*
G02*
X110467121Y-96949464I61470J-229407D01*
G01*
G37*
G36*
G01*
X107700000Y-99762500D02*
X107700000Y-100237500D01*
G75*
G02*
X107462500Y-100475000I-237500J0D01*
G01*
X106887500Y-100475000D01*
G75*
G02*
X106650000Y-100237500I0J237500D01*
G01*
X106650000Y-99762500D01*
G75*
G02*
X106887500Y-99525000I237500J0D01*
G01*
X107462500Y-99525000D01*
G75*
G02*
X107700000Y-99762500I0J-237500D01*
G01*
G37*
G36*
G01*
X105950000Y-99762500D02*
X105950000Y-100237500D01*
G75*
G02*
X105712500Y-100475000I-237500J0D01*
G01*
X105137500Y-100475000D01*
G75*
G02*
X104900000Y-100237500I0J237500D01*
G01*
X104900000Y-99762500D01*
G75*
G02*
X105137500Y-99525000I237500J0D01*
G01*
X105712500Y-99525000D01*
G75*
G02*
X105950000Y-99762500I0J-237500D01*
G01*
G37*
G36*
G01*
X108899691Y-102138787D02*
X108776751Y-102597602D01*
G75*
G02*
X108485874Y-102765539I-229407J61470D01*
G01*
X107930467Y-102616718D01*
G75*
G02*
X107762530Y-102325841I61470J229407D01*
G01*
X107885469Y-101867026D01*
G75*
G02*
X108176346Y-101699089I229407J-61470D01*
G01*
X108731753Y-101847910D01*
G75*
G02*
X108899690Y-102138787I-61470J-229407D01*
G01*
G37*
G36*
G01*
X110590061Y-102591721D02*
X110467121Y-103050536D01*
G75*
G02*
X110176244Y-103218473I-229407J61470D01*
G01*
X109620837Y-103069652D01*
G75*
G02*
X109452900Y-102778775I61470J229407D01*
G01*
X109575839Y-102319960D01*
G75*
G02*
X109866716Y-102152023I229407J-61470D01*
G01*
X110422123Y-102300844D01*
G75*
G02*
X110590060Y-102591721I-61470J-229407D01*
G01*
G37*
G36*
G01*
X107875401Y-107539525D02*
X107539525Y-107875401D01*
G75*
G02*
X107203649Y-107875401I-167938J167938D01*
G01*
X106797063Y-107468815D01*
G75*
G02*
X106797063Y-107132939I167938J167938D01*
G01*
X107132939Y-106797063D01*
G75*
G02*
X107468815Y-106797063I167938J-167938D01*
G01*
X107875401Y-107203649D01*
G75*
G02*
X107875401Y-107539525I-167938J-167938D01*
G01*
G37*
G36*
G01*
X106637965Y-106302089D02*
X106302089Y-106637965D01*
G75*
G02*
X105966213Y-106637965I-167938J167938D01*
G01*
X105559627Y-106231379D01*
G75*
G02*
X105559627Y-105895503I167938J167938D01*
G01*
X105895503Y-105559627D01*
G75*
G02*
X106231379Y-105559627I167938J-167938D01*
G01*
X106637965Y-105966213D01*
G75*
G02*
X106637965Y-106302089I-167938J-167938D01*
G01*
G37*
G36*
G01*
X103050535Y-110467122D02*
X102591721Y-110590060D01*
G75*
G02*
X102300844Y-110422123I-61470J229407D01*
G01*
X102152023Y-109866716D01*
G75*
G02*
X102319960Y-109575839I229407J61470D01*
G01*
X102778775Y-109452900D01*
G75*
G02*
X103069652Y-109620837I61470J-229407D01*
G01*
X103218473Y-110176244D01*
G75*
G02*
X103050536Y-110467121I-229407J-61470D01*
G01*
G37*
G36*
G01*
X102597601Y-108776752D02*
X102138787Y-108899690D01*
G75*
G02*
X101847910Y-108731753I-61470J229407D01*
G01*
X101699089Y-108176346D01*
G75*
G02*
X101867026Y-107885469I229407J61470D01*
G01*
X102325841Y-107762530D01*
G75*
G02*
X102616718Y-107930467I61470J-229407D01*
G01*
X102765539Y-108485874D01*
G75*
G02*
X102597602Y-108776751I-229407J-61470D01*
G01*
G37*
G36*
G01*
X94049999Y-100237500D02*
X94049999Y-99762500D01*
G75*
G02*
X94287499Y-99525000I237500J0D01*
G01*
X94862499Y-99525000D01*
G75*
G02*
X95099999Y-99762500I0J-237500D01*
G01*
X95099999Y-100237500D01*
G75*
G02*
X94862499Y-100475000I-237500J0D01*
G01*
X94287499Y-100475000D01*
G75*
G02*
X94049999Y-100237500I0J237500D01*
G01*
G37*
G36*
G01*
X92300001Y-100237500D02*
X92300001Y-99762500D01*
G75*
G02*
X92537501Y-99525000I237500J0D01*
G01*
X93112501Y-99525000D01*
G75*
G02*
X93350001Y-99762500I0J-237500D01*
G01*
X93350001Y-100237500D01*
G75*
G02*
X93112501Y-100475000I-237500J0D01*
G01*
X92537501Y-100475000D01*
G75*
G02*
X92300001Y-100237500I0J237500D01*
G01*
G37*
G36*
G01*
X97408279Y-110590061D02*
X96949464Y-110467121D01*
G75*
G02*
X96781527Y-110176244I61470J229407D01*
G01*
X96930348Y-109620837D01*
G75*
G02*
X97221225Y-109452900I229407J-61470D01*
G01*
X97680040Y-109575839D01*
G75*
G02*
X97847977Y-109866716I-61470J-229407D01*
G01*
X97699156Y-110422123D01*
G75*
G02*
X97408279Y-110590060I-229407J61470D01*
G01*
G37*
G36*
G01*
X97861213Y-108899691D02*
X97402398Y-108776751D01*
G75*
G02*
X97234461Y-108485874I61470J229407D01*
G01*
X97383282Y-107930467D01*
G75*
G02*
X97674159Y-107762530I229407J-61470D01*
G01*
X98132974Y-107885469D01*
G75*
G02*
X98300911Y-108176346I-61470J-229407D01*
G01*
X98152090Y-108731753D01*
G75*
G02*
X97861213Y-108899690I-229407J61470D01*
G01*
G37*
G36*
G01*
X93697911Y-106637965D02*
X93362035Y-106302089D01*
G75*
G02*
X93362035Y-105966213I167938J167938D01*
G01*
X93768621Y-105559627D01*
G75*
G02*
X94104497Y-105559627I167938J-167938D01*
G01*
X94440373Y-105895503D01*
G75*
G02*
X94440373Y-106231379I-167938J-167938D01*
G01*
X94033787Y-106637965D01*
G75*
G02*
X93697911Y-106637965I-167938J167938D01*
G01*
G37*
G36*
G01*
X92460475Y-107875401D02*
X92124599Y-107539525D01*
G75*
G02*
X92124599Y-107203649I167938J167938D01*
G01*
X92531185Y-106797063D01*
G75*
G02*
X92867061Y-106797063I167938J-167938D01*
G01*
X93202937Y-107132939D01*
G75*
G02*
X93202937Y-107468815I-167938J-167938D01*
G01*
X92796351Y-107875401D01*
G75*
G02*
X92460475Y-107875401I-167938J167938D01*
G01*
G37*
G36*
G01*
X91223248Y-102597601D02*
X91100310Y-102138787D01*
G75*
G02*
X91268247Y-101847910I229407J61470D01*
G01*
X91823654Y-101699089D01*
G75*
G02*
X92114531Y-101867026I61470J-229407D01*
G01*
X92237470Y-102325841D01*
G75*
G02*
X92069533Y-102616718I-229407J-61470D01*
G01*
X91514126Y-102765539D01*
G75*
G02*
X91223249Y-102597602I-61470J229407D01*
G01*
G37*
G36*
G01*
X89532878Y-103050535D02*
X89409940Y-102591721D01*
G75*
G02*
X89577877Y-102300844I229407J61470D01*
G01*
X90133284Y-102152023D01*
G75*
G02*
X90424161Y-102319960I61470J-229407D01*
G01*
X90547100Y-102778775D01*
G75*
G02*
X90379163Y-103069652I-229407J-61470D01*
G01*
X89823756Y-103218473D01*
G75*
G02*
X89532879Y-103050536I-61470J229407D01*
G01*
G37*
G36*
G01*
X94600113Y-94872489D02*
X94935989Y-94536613D01*
G75*
G02*
X95271865Y-94536613I167938J-167938D01*
G01*
X95678451Y-94943199D01*
G75*
G02*
X95678451Y-95279075I-167938J-167938D01*
G01*
X95342575Y-95614951D01*
G75*
G02*
X95006699Y-95614951I-167938J167938D01*
G01*
X94600113Y-95208365D01*
G75*
G02*
X94600113Y-94872489I167938J167938D01*
G01*
G37*
G36*
G01*
X95837549Y-96109925D02*
X96173425Y-95774049D01*
G75*
G02*
X96509301Y-95774049I167938J-167938D01*
G01*
X96915887Y-96180635D01*
G75*
G02*
X96915887Y-96516511I-167938J-167938D01*
G01*
X96580011Y-96852387D01*
G75*
G02*
X96244135Y-96852387I-167938J167938D01*
G01*
X95837549Y-96445801D01*
G75*
G02*
X95837549Y-96109925I167938J167938D01*
G01*
G37*
G36*
G01*
X91100309Y-97861213D02*
X91223249Y-97402398D01*
G75*
G02*
X91514126Y-97234461I229407J-61470D01*
G01*
X92069533Y-97383282D01*
G75*
G02*
X92237470Y-97674159I-61470J-229407D01*
G01*
X92114531Y-98132974D01*
G75*
G02*
X91823654Y-98300911I-229407J61470D01*
G01*
X91268247Y-98152090D01*
G75*
G02*
X91100310Y-97861213I61470J229407D01*
G01*
G37*
G36*
G01*
X89409939Y-97408279D02*
X89532879Y-96949464D01*
G75*
G02*
X89823756Y-96781527I229407J-61470D01*
G01*
X90379163Y-96930348D01*
G75*
G02*
X90547100Y-97221225I-61470J-229407D01*
G01*
X90424161Y-97680040D01*
G75*
G02*
X90133284Y-97847977I-229407J61470D01*
G01*
X89577877Y-97699156D01*
G75*
G02*
X89409940Y-97408279I61470J229407D01*
G01*
G37*
G36*
G01*
X92124599Y-92460475D02*
X92460475Y-92124599D01*
G75*
G02*
X92796351Y-92124599I167938J-167938D01*
G01*
X93202937Y-92531185D01*
G75*
G02*
X93202937Y-92867061I-167938J-167938D01*
G01*
X92867061Y-93202937D01*
G75*
G02*
X92531185Y-93202937I-167938J167938D01*
G01*
X92124599Y-92796351D01*
G75*
G02*
X92124599Y-92460475I167938J167938D01*
G01*
G37*
G36*
G01*
X93362035Y-93697911D02*
X93697911Y-93362035D01*
G75*
G02*
X94033787Y-93362035I167938J-167938D01*
G01*
X94440373Y-93768621D01*
G75*
G02*
X94440373Y-94104497I-167938J-167938D01*
G01*
X94104497Y-94440373D01*
G75*
G02*
X93768621Y-94440373I-167938J167938D01*
G01*
X93362035Y-94033787D01*
G75*
G02*
X93362035Y-93697911I167938J167938D01*
G01*
G37*
G36*
G01*
X100758451Y-105566075D02*
X100422575Y-105901951D01*
G75*
G02*
X100086699Y-105901951I-167938J167938D01*
G01*
X99680113Y-105495365D01*
G75*
G02*
X99680113Y-105159489I167938J167938D01*
G01*
X100015989Y-104823613D01*
G75*
G02*
X100351865Y-104823613I167938J-167938D01*
G01*
X100758451Y-105230199D01*
G75*
G02*
X100758451Y-105566075I-167938J-167938D01*
G01*
G37*
G36*
G01*
X101995887Y-106803511D02*
X101660011Y-107139387D01*
G75*
G02*
X101324135Y-107139387I-167938J167938D01*
G01*
X100917549Y-106732801D01*
G75*
G02*
X100917549Y-106396925I167938J167938D01*
G01*
X101253425Y-106061049D01*
G75*
G02*
X101589301Y-106061049I167938J-167938D01*
G01*
X101995887Y-106467635D01*
G75*
G02*
X101995887Y-106803511I-167938J-167938D01*
G01*
G37*
G36*
G01*
X102873489Y-106391387D02*
X102537613Y-106055511D01*
G75*
G02*
X102537613Y-105719635I167938J167938D01*
G01*
X102944199Y-105313049D01*
G75*
G02*
X103280075Y-105313049I167938J-167938D01*
G01*
X103615951Y-105648925D01*
G75*
G02*
X103615951Y-105984801I-167938J-167938D01*
G01*
X103209365Y-106391387D01*
G75*
G02*
X102873489Y-106391387I-167938J167938D01*
G01*
G37*
G36*
G01*
X104110925Y-105153951D02*
X103775049Y-104818075D01*
G75*
G02*
X103775049Y-104482199I167938J167938D01*
G01*
X104181635Y-104075613D01*
G75*
G02*
X104517511Y-104075613I167938J-167938D01*
G01*
X104853387Y-104411489D01*
G75*
G02*
X104853387Y-104747365I-167938J-167938D01*
G01*
X104446801Y-105153951D01*
G75*
G02*
X104110925Y-105153951I-167938J167938D01*
G01*
G37*
G36*
G01*
X99762500Y-92530000D02*
X100237500Y-92530000D01*
G75*
G02*
X100475000Y-92767500I0J-237500D01*
G01*
X100475000Y-93342500D01*
G75*
G02*
X100237500Y-93580000I-237500J0D01*
G01*
X99762500Y-93580000D01*
G75*
G02*
X99525000Y-93342500I0J237500D01*
G01*
X99525000Y-92767500D01*
G75*
G02*
X99762500Y-92530000I237500J0D01*
G01*
G37*
G36*
G01*
X99762500Y-94280000D02*
X100237500Y-94280000D01*
G75*
G02*
X100475000Y-94517500I0J-237500D01*
G01*
X100475000Y-95092500D01*
G75*
G02*
X100237500Y-95330000I-237500J0D01*
G01*
X99762500Y-95330000D01*
G75*
G02*
X99525000Y-95092500I0J237500D01*
G01*
X99525000Y-94517500D01*
G75*
G02*
X99762500Y-94280000I237500J0D01*
G01*
G37*
G36*
G01*
X100839689Y-103226175D02*
X100751301Y-103314563D01*
G75*
G02*
X100662913Y-103314563I-44194J44194D01*
G01*
X100132583Y-102784233D01*
G75*
G02*
X100132583Y-102695845I44194J44194D01*
G01*
X100220971Y-102607457D01*
G75*
G02*
X100309359Y-102607457I44194J-44194D01*
G01*
X100839689Y-103137787D01*
G75*
G02*
X100839689Y-103226175I-44194J-44194D01*
G01*
G37*
G36*
G01*
X101193242Y-102872621D02*
X101104854Y-102961009D01*
G75*
G02*
X101016466Y-102961009I-44194J44194D01*
G01*
X100486136Y-102430679D01*
G75*
G02*
X100486136Y-102342291I44194J44194D01*
G01*
X100574524Y-102253903D01*
G75*
G02*
X100662912Y-102253903I44194J-44194D01*
G01*
X101193242Y-102784233D01*
G75*
G02*
X101193242Y-102872621I-44194J-44194D01*
G01*
G37*
G36*
G01*
X101546796Y-102519068D02*
X101458408Y-102607456D01*
G75*
G02*
X101370020Y-102607456I-44194J44194D01*
G01*
X100839690Y-102077126D01*
G75*
G02*
X100839690Y-101988738I44194J44194D01*
G01*
X100928078Y-101900350D01*
G75*
G02*
X101016466Y-101900350I44194J-44194D01*
G01*
X101546796Y-102430680D01*
G75*
G02*
X101546796Y-102519068I-44194J-44194D01*
G01*
G37*
G36*
G01*
X101900349Y-102165514D02*
X101811961Y-102253902D01*
G75*
G02*
X101723573Y-102253902I-44194J44194D01*
G01*
X101193243Y-101723572D01*
G75*
G02*
X101193243Y-101635184I44194J44194D01*
G01*
X101281631Y-101546796D01*
G75*
G02*
X101370019Y-101546796I44194J-44194D01*
G01*
X101900349Y-102077126D01*
G75*
G02*
X101900349Y-102165514I-44194J-44194D01*
G01*
G37*
G36*
G01*
X102253902Y-101811961D02*
X102165514Y-101900349D01*
G75*
G02*
X102077126Y-101900349I-44194J44194D01*
G01*
X101546796Y-101370019D01*
G75*
G02*
X101546796Y-101281631I44194J44194D01*
G01*
X101635184Y-101193243D01*
G75*
G02*
X101723572Y-101193243I44194J-44194D01*
G01*
X102253902Y-101723573D01*
G75*
G02*
X102253902Y-101811961I-44194J-44194D01*
G01*
G37*
G36*
G01*
X102607456Y-101458408D02*
X102519068Y-101546796D01*
G75*
G02*
X102430680Y-101546796I-44194J44194D01*
G01*
X101900350Y-101016466D01*
G75*
G02*
X101900350Y-100928078I44194J44194D01*
G01*
X101988738Y-100839690D01*
G75*
G02*
X102077126Y-100839690I44194J-44194D01*
G01*
X102607456Y-101370020D01*
G75*
G02*
X102607456Y-101458408I-44194J-44194D01*
G01*
G37*
G36*
G01*
X102961009Y-101104854D02*
X102872621Y-101193242D01*
G75*
G02*
X102784233Y-101193242I-44194J44194D01*
G01*
X102253903Y-100662912D01*
G75*
G02*
X102253903Y-100574524I44194J44194D01*
G01*
X102342291Y-100486136D01*
G75*
G02*
X102430679Y-100486136I44194J-44194D01*
G01*
X102961009Y-101016466D01*
G75*
G02*
X102961009Y-101104854I-44194J-44194D01*
G01*
G37*
G36*
G01*
X103314563Y-100751301D02*
X103226175Y-100839689D01*
G75*
G02*
X103137787Y-100839689I-44194J44194D01*
G01*
X102607457Y-100309359D01*
G75*
G02*
X102607457Y-100220971I44194J44194D01*
G01*
X102695845Y-100132583D01*
G75*
G02*
X102784233Y-100132583I44194J-44194D01*
G01*
X103314563Y-100662913D01*
G75*
G02*
X103314563Y-100751301I-44194J-44194D01*
G01*
G37*
G36*
G01*
X103314563Y-99337087D02*
X102784233Y-99867417D01*
G75*
G02*
X102695845Y-99867417I-44194J44194D01*
G01*
X102607457Y-99779029D01*
G75*
G02*
X102607457Y-99690641I44194J44194D01*
G01*
X103137787Y-99160311D01*
G75*
G02*
X103226175Y-99160311I44194J-44194D01*
G01*
X103314563Y-99248699D01*
G75*
G02*
X103314563Y-99337087I-44194J-44194D01*
G01*
G37*
G36*
G01*
X102961009Y-98983534D02*
X102430679Y-99513864D01*
G75*
G02*
X102342291Y-99513864I-44194J44194D01*
G01*
X102253903Y-99425476D01*
G75*
G02*
X102253903Y-99337088I44194J44194D01*
G01*
X102784233Y-98806758D01*
G75*
G02*
X102872621Y-98806758I44194J-44194D01*
G01*
X102961009Y-98895146D01*
G75*
G02*
X102961009Y-98983534I-44194J-44194D01*
G01*
G37*
G36*
G01*
X102607456Y-98629980D02*
X102077126Y-99160310D01*
G75*
G02*
X101988738Y-99160310I-44194J44194D01*
G01*
X101900350Y-99071922D01*
G75*
G02*
X101900350Y-98983534I44194J44194D01*
G01*
X102430680Y-98453204D01*
G75*
G02*
X102519068Y-98453204I44194J-44194D01*
G01*
X102607456Y-98541592D01*
G75*
G02*
X102607456Y-98629980I-44194J-44194D01*
G01*
G37*
G36*
G01*
X102253902Y-98276427D02*
X101723572Y-98806757D01*
G75*
G02*
X101635184Y-98806757I-44194J44194D01*
G01*
X101546796Y-98718369D01*
G75*
G02*
X101546796Y-98629981I44194J44194D01*
G01*
X102077126Y-98099651D01*
G75*
G02*
X102165514Y-98099651I44194J-44194D01*
G01*
X102253902Y-98188039D01*
G75*
G02*
X102253902Y-98276427I-44194J-44194D01*
G01*
G37*
G36*
G01*
X101900349Y-97922874D02*
X101370019Y-98453204D01*
G75*
G02*
X101281631Y-98453204I-44194J44194D01*
G01*
X101193243Y-98364816D01*
G75*
G02*
X101193243Y-98276428I44194J44194D01*
G01*
X101723573Y-97746098D01*
G75*
G02*
X101811961Y-97746098I44194J-44194D01*
G01*
X101900349Y-97834486D01*
G75*
G02*
X101900349Y-97922874I-44194J-44194D01*
G01*
G37*
G36*
G01*
X101546796Y-97569320D02*
X101016466Y-98099650D01*
G75*
G02*
X100928078Y-98099650I-44194J44194D01*
G01*
X100839690Y-98011262D01*
G75*
G02*
X100839690Y-97922874I44194J44194D01*
G01*
X101370020Y-97392544D01*
G75*
G02*
X101458408Y-97392544I44194J-44194D01*
G01*
X101546796Y-97480932D01*
G75*
G02*
X101546796Y-97569320I-44194J-44194D01*
G01*
G37*
G36*
G01*
X101193242Y-97215767D02*
X100662912Y-97746097D01*
G75*
G02*
X100574524Y-97746097I-44194J44194D01*
G01*
X100486136Y-97657709D01*
G75*
G02*
X100486136Y-97569321I44194J44194D01*
G01*
X101016466Y-97038991D01*
G75*
G02*
X101104854Y-97038991I44194J-44194D01*
G01*
X101193242Y-97127379D01*
G75*
G02*
X101193242Y-97215767I-44194J-44194D01*
G01*
G37*
G36*
G01*
X100839689Y-96862213D02*
X100309359Y-97392543D01*
G75*
G02*
X100220971Y-97392543I-44194J44194D01*
G01*
X100132583Y-97304155D01*
G75*
G02*
X100132583Y-97215767I44194J44194D01*
G01*
X100662913Y-96685437D01*
G75*
G02*
X100751301Y-96685437I44194J-44194D01*
G01*
X100839689Y-96773825D01*
G75*
G02*
X100839689Y-96862213I-44194J-44194D01*
G01*
G37*
G36*
G01*
X99867417Y-97304155D02*
X99779029Y-97392543D01*
G75*
G02*
X99690641Y-97392543I-44194J44194D01*
G01*
X99160311Y-96862213D01*
G75*
G02*
X99160311Y-96773825I44194J44194D01*
G01*
X99248699Y-96685437D01*
G75*
G02*
X99337087Y-96685437I44194J-44194D01*
G01*
X99867417Y-97215767D01*
G75*
G02*
X99867417Y-97304155I-44194J-44194D01*
G01*
G37*
G36*
G01*
X99513864Y-97657709D02*
X99425476Y-97746097D01*
G75*
G02*
X99337088Y-97746097I-44194J44194D01*
G01*
X98806758Y-97215767D01*
G75*
G02*
X98806758Y-97127379I44194J44194D01*
G01*
X98895146Y-97038991D01*
G75*
G02*
X98983534Y-97038991I44194J-44194D01*
G01*
X99513864Y-97569321D01*
G75*
G02*
X99513864Y-97657709I-44194J-44194D01*
G01*
G37*
G36*
G01*
X99160310Y-98011262D02*
X99071922Y-98099650D01*
G75*
G02*
X98983534Y-98099650I-44194J44194D01*
G01*
X98453204Y-97569320D01*
G75*
G02*
X98453204Y-97480932I44194J44194D01*
G01*
X98541592Y-97392544D01*
G75*
G02*
X98629980Y-97392544I44194J-44194D01*
G01*
X99160310Y-97922874D01*
G75*
G02*
X99160310Y-98011262I-44194J-44194D01*
G01*
G37*
G36*
G01*
X98806757Y-98364816D02*
X98718369Y-98453204D01*
G75*
G02*
X98629981Y-98453204I-44194J44194D01*
G01*
X98099651Y-97922874D01*
G75*
G02*
X98099651Y-97834486I44194J44194D01*
G01*
X98188039Y-97746098D01*
G75*
G02*
X98276427Y-97746098I44194J-44194D01*
G01*
X98806757Y-98276428D01*
G75*
G02*
X98806757Y-98364816I-44194J-44194D01*
G01*
G37*
G36*
G01*
X98453204Y-98718369D02*
X98364816Y-98806757D01*
G75*
G02*
X98276428Y-98806757I-44194J44194D01*
G01*
X97746098Y-98276427D01*
G75*
G02*
X97746098Y-98188039I44194J44194D01*
G01*
X97834486Y-98099651D01*
G75*
G02*
X97922874Y-98099651I44194J-44194D01*
G01*
X98453204Y-98629981D01*
G75*
G02*
X98453204Y-98718369I-44194J-44194D01*
G01*
G37*
G36*
G01*
X98099650Y-99071922D02*
X98011262Y-99160310D01*
G75*
G02*
X97922874Y-99160310I-44194J44194D01*
G01*
X97392544Y-98629980D01*
G75*
G02*
X97392544Y-98541592I44194J44194D01*
G01*
X97480932Y-98453204D01*
G75*
G02*
X97569320Y-98453204I44194J-44194D01*
G01*
X98099650Y-98983534D01*
G75*
G02*
X98099650Y-99071922I-44194J-44194D01*
G01*
G37*
G36*
G01*
X97746097Y-99425476D02*
X97657709Y-99513864D01*
G75*
G02*
X97569321Y-99513864I-44194J44194D01*
G01*
X97038991Y-98983534D01*
G75*
G02*
X97038991Y-98895146I44194J44194D01*
G01*
X97127379Y-98806758D01*
G75*
G02*
X97215767Y-98806758I44194J-44194D01*
G01*
X97746097Y-99337088D01*
G75*
G02*
X97746097Y-99425476I-44194J-44194D01*
G01*
G37*
G36*
G01*
X97392543Y-99779029D02*
X97304155Y-99867417D01*
G75*
G02*
X97215767Y-99867417I-44194J44194D01*
G01*
X96685437Y-99337087D01*
G75*
G02*
X96685437Y-99248699I44194J44194D01*
G01*
X96773825Y-99160311D01*
G75*
G02*
X96862213Y-99160311I44194J-44194D01*
G01*
X97392543Y-99690641D01*
G75*
G02*
X97392543Y-99779029I-44194J-44194D01*
G01*
G37*
G36*
G01*
X97392543Y-100309359D02*
X96862213Y-100839689D01*
G75*
G02*
X96773825Y-100839689I-44194J44194D01*
G01*
X96685437Y-100751301D01*
G75*
G02*
X96685437Y-100662913I44194J44194D01*
G01*
X97215767Y-100132583D01*
G75*
G02*
X97304155Y-100132583I44194J-44194D01*
G01*
X97392543Y-100220971D01*
G75*
G02*
X97392543Y-100309359I-44194J-44194D01*
G01*
G37*
G36*
G01*
X97746097Y-100662912D02*
X97215767Y-101193242D01*
G75*
G02*
X97127379Y-101193242I-44194J44194D01*
G01*
X97038991Y-101104854D01*
G75*
G02*
X97038991Y-101016466I44194J44194D01*
G01*
X97569321Y-100486136D01*
G75*
G02*
X97657709Y-100486136I44194J-44194D01*
G01*
X97746097Y-100574524D01*
G75*
G02*
X97746097Y-100662912I-44194J-44194D01*
G01*
G37*
G36*
G01*
X98099650Y-101016466D02*
X97569320Y-101546796D01*
G75*
G02*
X97480932Y-101546796I-44194J44194D01*
G01*
X97392544Y-101458408D01*
G75*
G02*
X97392544Y-101370020I44194J44194D01*
G01*
X97922874Y-100839690D01*
G75*
G02*
X98011262Y-100839690I44194J-44194D01*
G01*
X98099650Y-100928078D01*
G75*
G02*
X98099650Y-101016466I-44194J-44194D01*
G01*
G37*
G36*
G01*
X98453204Y-101370019D02*
X97922874Y-101900349D01*
G75*
G02*
X97834486Y-101900349I-44194J44194D01*
G01*
X97746098Y-101811961D01*
G75*
G02*
X97746098Y-101723573I44194J44194D01*
G01*
X98276428Y-101193243D01*
G75*
G02*
X98364816Y-101193243I44194J-44194D01*
G01*
X98453204Y-101281631D01*
G75*
G02*
X98453204Y-101370019I-44194J-44194D01*
G01*
G37*
G36*
G01*
X98806757Y-101723572D02*
X98276427Y-102253902D01*
G75*
G02*
X98188039Y-102253902I-44194J44194D01*
G01*
X98099651Y-102165514D01*
G75*
G02*
X98099651Y-102077126I44194J44194D01*
G01*
X98629981Y-101546796D01*
G75*
G02*
X98718369Y-101546796I44194J-44194D01*
G01*
X98806757Y-101635184D01*
G75*
G02*
X98806757Y-101723572I-44194J-44194D01*
G01*
G37*
G36*
G01*
X99160310Y-102077126D02*
X98629980Y-102607456D01*
G75*
G02*
X98541592Y-102607456I-44194J44194D01*
G01*
X98453204Y-102519068D01*
G75*
G02*
X98453204Y-102430680I44194J44194D01*
G01*
X98983534Y-101900350D01*
G75*
G02*
X99071922Y-101900350I44194J-44194D01*
G01*
X99160310Y-101988738D01*
G75*
G02*
X99160310Y-102077126I-44194J-44194D01*
G01*
G37*
G36*
G01*
X99513864Y-102430679D02*
X98983534Y-102961009D01*
G75*
G02*
X98895146Y-102961009I-44194J44194D01*
G01*
X98806758Y-102872621D01*
G75*
G02*
X98806758Y-102784233I44194J44194D01*
G01*
X99337088Y-102253903D01*
G75*
G02*
X99425476Y-102253903I44194J-44194D01*
G01*
X99513864Y-102342291D01*
G75*
G02*
X99513864Y-102430679I-44194J-44194D01*
G01*
G37*
G36*
G01*
X99867417Y-102784233D02*
X99337087Y-103314563D01*
G75*
G02*
X99248699Y-103314563I-44194J44194D01*
G01*
X99160311Y-103226175D01*
G75*
G02*
X99160311Y-103137787I44194J44194D01*
G01*
X99690641Y-102607457D01*
G75*
G02*
X99779029Y-102607457I44194J-44194D01*
G01*
X99867417Y-102695845D01*
G75*
G02*
X99867417Y-102784233I-44194J-44194D01*
G01*
G37*
G36*
G01*
X100493207Y-101790748D02*
X100164402Y-102119553D01*
G75*
G02*
X99835598Y-102119553I-164402J164402D01*
G01*
X99506793Y-101790748D01*
G75*
G02*
X99506793Y-101461944I164402J164402D01*
G01*
X99835598Y-101133139D01*
G75*
G02*
X100164402Y-101133139I164402J-164402D01*
G01*
X100493207Y-101461944D01*
G75*
G02*
X100493207Y-101790748I-164402J-164402D01*
G01*
G37*
G36*
G01*
X101306380Y-100977575D02*
X100977575Y-101306380D01*
G75*
G02*
X100648771Y-101306380I-164402J164402D01*
G01*
X100319966Y-100977575D01*
G75*
G02*
X100319966Y-100648771I164402J164402D01*
G01*
X100648771Y-100319966D01*
G75*
G02*
X100977575Y-100319966I164402J-164402D01*
G01*
X101306380Y-100648771D01*
G75*
G02*
X101306380Y-100977575I-164402J-164402D01*
G01*
G37*
G36*
G01*
X102119553Y-100164402D02*
X101790748Y-100493207D01*
G75*
G02*
X101461944Y-100493207I-164402J164402D01*
G01*
X101133139Y-100164402D01*
G75*
G02*
X101133139Y-99835598I164402J164402D01*
G01*
X101461944Y-99506793D01*
G75*
G02*
X101790748Y-99506793I164402J-164402D01*
G01*
X102119553Y-99835598D01*
G75*
G02*
X102119553Y-100164402I-164402J-164402D01*
G01*
G37*
G36*
G01*
X99680034Y-100977575D02*
X99351229Y-101306380D01*
G75*
G02*
X99022425Y-101306380I-164402J164402D01*
G01*
X98693620Y-100977575D01*
G75*
G02*
X98693620Y-100648771I164402J164402D01*
G01*
X99022425Y-100319966D01*
G75*
G02*
X99351229Y-100319966I164402J-164402D01*
G01*
X99680034Y-100648771D01*
G75*
G02*
X99680034Y-100977575I-164402J-164402D01*
G01*
G37*
G36*
G01*
X100493207Y-100164402D02*
X100164402Y-100493207D01*
G75*
G02*
X99835598Y-100493207I-164402J164402D01*
G01*
X99506793Y-100164402D01*
G75*
G02*
X99506793Y-99835598I164402J164402D01*
G01*
X99835598Y-99506793D01*
G75*
G02*
X100164402Y-99506793I164402J-164402D01*
G01*
X100493207Y-99835598D01*
G75*
G02*
X100493207Y-100164402I-164402J-164402D01*
G01*
G37*
G36*
G01*
X101306380Y-99351229D02*
X100977575Y-99680034D01*
G75*
G02*
X100648771Y-99680034I-164402J164402D01*
G01*
X100319966Y-99351229D01*
G75*
G02*
X100319966Y-99022425I164402J164402D01*
G01*
X100648771Y-98693620D01*
G75*
G02*
X100977575Y-98693620I164402J-164402D01*
G01*
X101306380Y-99022425D01*
G75*
G02*
X101306380Y-99351229I-164402J-164402D01*
G01*
G37*
G36*
G01*
X98866861Y-100164402D02*
X98538056Y-100493207D01*
G75*
G02*
X98209252Y-100493207I-164402J164402D01*
G01*
X97880447Y-100164402D01*
G75*
G02*
X97880447Y-99835598I164402J164402D01*
G01*
X98209252Y-99506793D01*
G75*
G02*
X98538056Y-99506793I164402J-164402D01*
G01*
X98866861Y-99835598D01*
G75*
G02*
X98866861Y-100164402I-164402J-164402D01*
G01*
G37*
G36*
G01*
X99680034Y-99351229D02*
X99351229Y-99680034D01*
G75*
G02*
X99022425Y-99680034I-164402J164402D01*
G01*
X98693620Y-99351229D01*
G75*
G02*
X98693620Y-99022425I164402J164402D01*
G01*
X99022425Y-98693620D01*
G75*
G02*
X99351229Y-98693620I164402J-164402D01*
G01*
X99680034Y-99022425D01*
G75*
G02*
X99680034Y-99351229I-164402J-164402D01*
G01*
G37*
G36*
G01*
X100493207Y-98538056D02*
X100164402Y-98866861D01*
G75*
G02*
X99835598Y-98866861I-164402J164402D01*
G01*
X99506793Y-98538056D01*
G75*
G02*
X99506793Y-98209252I164402J164402D01*
G01*
X99835598Y-97880447D01*
G75*
G02*
X100164402Y-97880447I164402J-164402D01*
G01*
X100493207Y-98209252D01*
G75*
G02*
X100493207Y-98538056I-164402J-164402D01*
G01*
G37*
D12*
G36*
X101808178Y-105471640D02*
G01*
X101030360Y-104693822D01*
X101772822Y-103951360D01*
X102550640Y-104729178D01*
X101808178Y-105471640D01*
G37*
G36*
X103116326Y-104163492D02*
G01*
X102338508Y-103385674D01*
X103080970Y-102643212D01*
X103858788Y-103421030D01*
X103116326Y-104163492D01*
G37*
M02*
