G04 #@! TF.GenerationSoftware,KiCad,Pcbnew,5.1.6*
G04 #@! TF.CreationDate,2020-08-26T14:56:34+02:00*
G04 #@! TF.ProjectId,AnalogWatch,416e616c-6f67-4576-9174-63682e6b6963,rev?*
G04 #@! TF.SameCoordinates,Original*
G04 #@! TF.FileFunction,Copper,L2,Bot*
G04 #@! TF.FilePolarity,Positive*
%FSLAX46Y46*%
G04 Gerber Fmt 4.6, Leading zero omitted, Abs format (unit mm)*
G04 Created by KiCad (PCBNEW 5.1.6) date 2020-08-26 14:56:34*
%MOMM*%
%LPD*%
G01*
G04 APERTURE LIST*
G04 #@! TA.AperFunction,SMDPad,CuDef*
%ADD10R,10.000000X10.000000*%
G04 #@! TD*
G04 #@! TA.AperFunction,SMDPad,CuDef*
%ADD11R,2.500000X5.500000*%
G04 #@! TD*
G04 #@! TA.AperFunction,SMDPad,CuDef*
%ADD12R,0.300000X1.100000*%
G04 #@! TD*
G04 #@! TA.AperFunction,SMDPad,CuDef*
%ADD13R,2.300000X3.100000*%
G04 #@! TD*
G04 #@! TA.AperFunction,ViaPad*
%ADD14C,0.800000*%
G04 #@! TD*
G04 #@! TA.AperFunction,Conductor*
%ADD15C,0.200000*%
G04 #@! TD*
G04 #@! TA.AperFunction,Conductor*
%ADD16C,0.254000*%
G04 #@! TD*
G04 APERTURE END LIST*
D10*
X100000000Y-95500000D03*
D11*
X88000000Y-95500000D03*
X112000000Y-95500000D03*
G04 #@! TA.AperFunction,SMDPad,CuDef*
G36*
G01*
X87900500Y-101646500D02*
X88375500Y-101646500D01*
G75*
G02*
X88613000Y-101884000I0J-237500D01*
G01*
X88613000Y-102459000D01*
G75*
G02*
X88375500Y-102696500I-237500J0D01*
G01*
X87900500Y-102696500D01*
G75*
G02*
X87663000Y-102459000I0J237500D01*
G01*
X87663000Y-101884000D01*
G75*
G02*
X87900500Y-101646500I237500J0D01*
G01*
G37*
G04 #@! TD.AperFunction*
G04 #@! TA.AperFunction,SMDPad,CuDef*
G36*
G01*
X87900500Y-99896500D02*
X88375500Y-99896500D01*
G75*
G02*
X88613000Y-100134000I0J-237500D01*
G01*
X88613000Y-100709000D01*
G75*
G02*
X88375500Y-100946500I-237500J0D01*
G01*
X87900500Y-100946500D01*
G75*
G02*
X87663000Y-100709000I0J237500D01*
G01*
X87663000Y-100134000D01*
G75*
G02*
X87900500Y-99896500I237500J0D01*
G01*
G37*
G04 #@! TD.AperFunction*
G04 #@! TA.AperFunction,SMDPad,CuDef*
G36*
G01*
X109442831Y-106857707D02*
X109778707Y-106521831D01*
G75*
G02*
X110114583Y-106521831I167938J-167938D01*
G01*
X110521169Y-106928417D01*
G75*
G02*
X110521169Y-107264293I-167938J-167938D01*
G01*
X110185293Y-107600169D01*
G75*
G02*
X109849417Y-107600169I-167938J167938D01*
G01*
X109442831Y-107193583D01*
G75*
G02*
X109442831Y-106857707I167938J167938D01*
G01*
G37*
G04 #@! TD.AperFunction*
G04 #@! TA.AperFunction,SMDPad,CuDef*
G36*
G01*
X108205395Y-105620271D02*
X108541271Y-105284395D01*
G75*
G02*
X108877147Y-105284395I167938J-167938D01*
G01*
X109283733Y-105690981D01*
G75*
G02*
X109283733Y-106026857I-167938J-167938D01*
G01*
X108947857Y-106362733D01*
G75*
G02*
X108611981Y-106362733I-167938J167938D01*
G01*
X108205395Y-105956147D01*
G75*
G02*
X108205395Y-105620271I167938J167938D01*
G01*
G37*
G04 #@! TD.AperFunction*
G04 #@! TA.AperFunction,SMDPad,CuDef*
G36*
G01*
X109649613Y-104143489D02*
X109985489Y-103807613D01*
G75*
G02*
X110321365Y-103807613I167938J-167938D01*
G01*
X110727951Y-104214199D01*
G75*
G02*
X110727951Y-104550075I-167938J-167938D01*
G01*
X110392075Y-104885951D01*
G75*
G02*
X110056199Y-104885951I-167938J167938D01*
G01*
X109649613Y-104479365D01*
G75*
G02*
X109649613Y-104143489I167938J167938D01*
G01*
G37*
G04 #@! TD.AperFunction*
G04 #@! TA.AperFunction,SMDPad,CuDef*
G36*
G01*
X110887049Y-105380925D02*
X111222925Y-105045049D01*
G75*
G02*
X111558801Y-105045049I167938J-167938D01*
G01*
X111965387Y-105451635D01*
G75*
G02*
X111965387Y-105787511I-167938J-167938D01*
G01*
X111629511Y-106123387D01*
G75*
G02*
X111293635Y-106123387I-167938J167938D01*
G01*
X110887049Y-105716801D01*
G75*
G02*
X110887049Y-105380925I167938J167938D01*
G01*
G37*
G04 #@! TD.AperFunction*
D12*
X102250000Y-108949500D03*
X101750000Y-108949500D03*
X101250000Y-108949500D03*
X100750000Y-108949500D03*
X100250000Y-108949500D03*
X99750000Y-108949500D03*
X99250000Y-108949500D03*
X98750000Y-108949500D03*
X98250000Y-108949500D03*
X97750000Y-108949500D03*
D13*
X103920000Y-110649500D03*
X96080000Y-110649500D03*
G04 #@! TA.AperFunction,SMDPad,CuDef*
G36*
G01*
X109124169Y-108597793D02*
X108788293Y-108933669D01*
G75*
G02*
X108452417Y-108933669I-167938J167938D01*
G01*
X108045831Y-108527083D01*
G75*
G02*
X108045831Y-108191207I167938J167938D01*
G01*
X108381707Y-107855331D01*
G75*
G02*
X108717583Y-107855331I167938J-167938D01*
G01*
X109124169Y-108261917D01*
G75*
G02*
X109124169Y-108597793I-167938J-167938D01*
G01*
G37*
G04 #@! TD.AperFunction*
G04 #@! TA.AperFunction,SMDPad,CuDef*
G36*
G01*
X107886733Y-107360357D02*
X107550857Y-107696233D01*
G75*
G02*
X107214981Y-107696233I-167938J167938D01*
G01*
X106808395Y-107289647D01*
G75*
G02*
X106808395Y-106953771I167938J167938D01*
G01*
X107144271Y-106617895D01*
G75*
G02*
X107480147Y-106617895I167938J-167938D01*
G01*
X107886733Y-107024481D01*
G75*
G02*
X107886733Y-107360357I-167938J-167938D01*
G01*
G37*
G04 #@! TD.AperFunction*
D14*
X89725500Y-104203500D03*
X91630500Y-106489500D03*
X102743000Y-107061000D03*
X95036881Y-105199125D03*
X100203000Y-103949500D03*
X106045000Y-103187500D03*
X92900500Y-98615500D03*
X94545032Y-104414716D03*
X104838500Y-105727500D03*
X97763919Y-105571990D03*
X96618277Y-101995219D03*
X106807000Y-102171500D03*
X96265500Y-103683500D03*
X96570881Y-105571990D03*
X94660809Y-102198259D03*
X93118493Y-102300392D03*
X93726000Y-103124000D03*
X99701331Y-106905490D03*
D15*
X102250000Y-108979500D02*
X103920000Y-110649500D01*
X102250000Y-108949500D02*
X102250000Y-108979500D01*
X109664500Y-107378500D02*
X109982000Y-107061000D01*
X111426218Y-105616782D02*
X111426218Y-105584218D01*
X109982000Y-107061000D02*
X111426218Y-105616782D01*
X112508000Y-104502436D02*
X111426218Y-105584218D01*
X112508000Y-102298500D02*
X112508000Y-104502436D01*
X109982000Y-107061000D02*
X109537500Y-107505500D01*
X109537500Y-107505500D02*
X108902500Y-107505500D01*
X106175000Y-108394500D02*
X103920000Y-110649500D01*
X108585000Y-108394500D02*
X106175000Y-108394500D01*
X108585000Y-107696000D02*
X108839000Y-107442000D01*
X108585000Y-108394500D02*
X108585000Y-107696000D01*
X108902500Y-107505500D02*
X108839000Y-107442000D01*
X96080000Y-110649500D02*
X95092000Y-110649500D01*
X95092000Y-110649500D02*
X91630500Y-107188000D01*
X91630500Y-107188000D02*
X91630500Y-106489500D01*
X100000000Y-95500000D02*
X97159000Y-95500000D01*
X89725500Y-102933500D02*
X89725500Y-104203500D01*
X97159000Y-95500000D02*
X89725500Y-102933500D01*
X88963500Y-102171500D02*
X89725500Y-102933500D01*
X88138000Y-102171500D02*
X88963500Y-102171500D01*
X96080000Y-110649500D02*
X96080000Y-106242244D01*
X96080000Y-106242244D02*
X95036881Y-105199125D01*
X105727500Y-107061000D02*
X102743000Y-107061000D01*
X106680000Y-106108500D02*
X105727500Y-107061000D01*
X107505500Y-106108500D02*
X106680000Y-106108500D01*
X108839000Y-107442000D02*
X107505500Y-106108500D01*
X100965000Y-103187500D02*
X100203000Y-103949500D01*
X106045000Y-103187500D02*
X100965000Y-103187500D01*
X91115500Y-98615500D02*
X88000000Y-95500000D01*
X92900500Y-98615500D02*
X91115500Y-98615500D01*
X112000000Y-92759500D02*
X112000000Y-95500000D01*
X105092500Y-85852000D02*
X112000000Y-92759500D01*
X95015565Y-85852000D02*
X105092500Y-85852000D01*
X88000000Y-92867566D02*
X95015565Y-85852000D01*
X88000000Y-95500000D02*
X88000000Y-92867566D01*
X100139500Y-107505500D02*
X99314000Y-107505500D01*
X100410989Y-107776989D02*
X100139500Y-107505500D01*
X101327489Y-107776989D02*
X100410989Y-107776989D01*
X101750000Y-108199500D02*
X101327489Y-107776989D01*
X101750000Y-108949500D02*
X101750000Y-108199500D01*
X99314000Y-107505500D02*
X99101330Y-107259720D01*
X103822500Y-106362500D02*
X105727500Y-106362500D01*
X99101330Y-107259720D02*
X99101330Y-106617489D01*
X99101330Y-106617489D02*
X99991319Y-105727500D01*
X103187500Y-105727500D02*
X103822500Y-106362500D01*
X99991319Y-105727500D02*
X103187500Y-105727500D01*
X105727500Y-106362500D02*
X106045000Y-106045000D01*
X108744564Y-105791000D02*
X108744564Y-105823564D01*
X110188782Y-104346782D02*
X108744564Y-105791000D01*
X107601564Y-105823564D02*
X106045000Y-104267000D01*
X108744564Y-105823564D02*
X107601564Y-105823564D01*
X106045000Y-104267000D02*
X106045000Y-103187500D01*
X106045000Y-106045000D02*
X106045000Y-104267000D01*
X110758000Y-103777564D02*
X110188782Y-104346782D01*
X110758000Y-102298500D02*
X110758000Y-103777564D01*
X89309500Y-100421500D02*
X91115500Y-98615500D01*
X88138000Y-100421500D02*
X89309500Y-100421500D01*
X106934000Y-103187500D02*
X106997500Y-103187500D01*
X106045000Y-103187500D02*
X106934000Y-103187500D01*
X106997500Y-103187500D02*
X109029500Y-101155500D01*
X112000000Y-98121500D02*
X112000000Y-95500000D01*
X108966000Y-101155500D02*
X112000000Y-98121500D01*
X108966000Y-101155500D02*
X109029500Y-101155500D01*
X112000000Y-98185000D02*
X112000000Y-95500000D01*
X109029500Y-101155500D02*
X112000000Y-98185000D01*
X108966000Y-101155500D02*
X94615000Y-101155500D01*
X94615000Y-101155500D02*
X94329250Y-101441250D01*
X94545032Y-102970484D02*
X94545032Y-104414716D01*
X94060808Y-101709692D02*
X94060808Y-102486260D01*
X94329250Y-101441250D02*
X94060808Y-101709692D01*
X94060808Y-102486260D02*
X94545032Y-102970484D01*
X104438501Y-105327501D02*
X104838500Y-105727500D01*
X98801319Y-106176681D02*
X99650499Y-105327501D01*
X99650499Y-105327501D02*
X104438501Y-105327501D01*
X100389000Y-108199500D02*
X100002389Y-107812889D01*
X98801319Y-107417098D02*
X98801319Y-106176681D01*
X100002389Y-107812889D02*
X99197111Y-107812889D01*
X101250000Y-108199500D02*
X100389000Y-108199500D01*
X99197111Y-107812889D02*
X98801319Y-107417098D01*
X101250000Y-108949500D02*
X101250000Y-108199500D01*
X98750000Y-108949500D02*
X98750000Y-108338500D01*
X98050011Y-105858082D02*
X97763919Y-105571990D01*
X98050011Y-107638511D02*
X98050011Y-105858082D01*
X98750000Y-108338500D02*
X98050011Y-107638511D01*
X97763919Y-105571990D02*
X97163918Y-104971989D01*
X95380651Y-103846373D02*
X95380651Y-103232845D01*
X95380651Y-103232845D02*
X96618277Y-101995219D01*
X96627790Y-104435861D02*
X97163918Y-104971989D01*
X95970139Y-104435861D02*
X96627790Y-104435861D01*
X95970139Y-104435861D02*
X95380651Y-103846373D01*
X97777500Y-102171500D02*
X97980500Y-102171500D01*
X96265500Y-103683500D02*
X97777500Y-102171500D01*
X106807000Y-102171500D02*
X97980500Y-102171500D01*
X99750000Y-108199500D02*
X99750000Y-108949500D01*
X99032399Y-108112899D02*
X99663399Y-108112899D01*
X96831185Y-103683500D02*
X98363921Y-105216236D01*
X98363921Y-107444421D02*
X99032399Y-108112899D01*
X98363921Y-105216236D02*
X98363921Y-107444421D01*
X96265500Y-103683500D02*
X96831185Y-103683500D01*
X99663399Y-108112899D02*
X99750000Y-108199500D01*
X97750000Y-106751109D02*
X96570881Y-105571990D01*
X97750000Y-108949500D02*
X97750000Y-106751109D01*
X96570881Y-105571990D02*
X95056746Y-104057855D01*
X95056746Y-102594196D02*
X94660809Y-102198259D01*
X95056746Y-104057855D02*
X95056746Y-102594196D01*
X97673500Y-112776000D02*
X94488000Y-112776000D01*
X94488000Y-112776000D02*
X90730487Y-109018487D01*
X90730487Y-109018487D02*
X90730487Y-104688398D01*
X90730487Y-104688398D02*
X93118493Y-102300392D01*
X100750000Y-108949500D02*
X100750000Y-109699500D01*
X100750000Y-109699500D02*
X97673500Y-112776000D01*
X97491000Y-112458500D02*
X94742000Y-112458500D01*
X100250000Y-109699500D02*
X99396000Y-110553500D01*
X98075750Y-111347250D02*
X98075750Y-111093250D01*
X98679000Y-110807500D02*
X98679000Y-111125000D01*
X98996500Y-110236000D02*
X98933000Y-110172500D01*
X98234500Y-110934500D02*
X98234500Y-110871000D01*
X98361500Y-111442500D02*
X98171000Y-111442500D01*
X94742000Y-112458500D02*
X91030498Y-108746998D01*
X98085000Y-111864500D02*
X97491000Y-112458500D01*
X98933000Y-110172500D02*
X98679000Y-110172500D01*
X98488500Y-110617000D02*
X98679000Y-110807500D01*
X98679000Y-110172500D02*
X98488500Y-110363000D01*
X98234500Y-110871000D02*
X98107500Y-110744000D01*
X98107500Y-110744000D02*
X97790000Y-110744000D01*
X97790000Y-110744000D02*
X97663000Y-110871000D01*
X98085000Y-111801000D02*
X98085000Y-111864500D01*
X98488500Y-110363000D02*
X98488500Y-110617000D01*
X97663000Y-110871000D02*
X97663000Y-111379000D01*
X99123500Y-110553500D02*
X98996500Y-110426500D01*
X98996500Y-110426500D02*
X98996500Y-110236000D01*
X99396000Y-110553500D02*
X99123500Y-110553500D01*
X98171000Y-111442500D02*
X98075750Y-111347250D01*
X100250000Y-108949500D02*
X100250000Y-109699500D01*
X98075750Y-111093250D02*
X98234500Y-110934500D01*
X98679000Y-111125000D02*
X98361500Y-111442500D01*
X97663000Y-111379000D02*
X98085000Y-111801000D01*
X91030498Y-105819502D02*
X91030498Y-106016498D01*
X93726000Y-103124000D02*
X91030498Y-105819502D01*
X91030498Y-108746998D02*
X91030498Y-106016498D01*
X101699488Y-106905490D02*
X102454999Y-107661001D01*
X102454999Y-107661001D02*
X106843627Y-107661001D01*
X106843627Y-107661001D02*
X107011688Y-107492940D01*
X99701331Y-106905490D02*
X101699488Y-106905490D01*
X107011688Y-107492940D02*
X107347564Y-107157064D01*
D16*
G36*
X110411804Y-92210751D02*
G01*
X110395506Y-92219463D01*
X110298815Y-92298815D01*
X110219463Y-92395506D01*
X110160498Y-92505820D01*
X110124188Y-92625518D01*
X110111928Y-92750000D01*
X110111928Y-98250000D01*
X110124188Y-98374482D01*
X110160498Y-98494180D01*
X110219463Y-98604494D01*
X110298815Y-98701185D01*
X110343883Y-98738171D01*
X108661554Y-100420500D01*
X105638020Y-100420500D01*
X105635000Y-95785750D01*
X105476250Y-95627000D01*
X100127000Y-95627000D01*
X100127000Y-95647000D01*
X99873000Y-95647000D01*
X99873000Y-95627000D01*
X94523750Y-95627000D01*
X94365000Y-95785750D01*
X94361951Y-100464188D01*
X94332366Y-100473163D01*
X94282158Y-100500000D01*
X94204680Y-100541413D01*
X94092762Y-100633262D01*
X94069741Y-100661313D01*
X93566616Y-101164438D01*
X93538570Y-101187455D01*
X93446721Y-101299373D01*
X93439413Y-101313045D01*
X93420391Y-101305166D01*
X93220432Y-101265392D01*
X93016554Y-101265392D01*
X92816595Y-101305166D01*
X92628237Y-101383187D01*
X92458719Y-101496455D01*
X92314556Y-101640618D01*
X92201288Y-101810136D01*
X92123267Y-101998494D01*
X92083493Y-102198453D01*
X92083493Y-102295945D01*
X90236295Y-104143144D01*
X90208250Y-104166160D01*
X90116401Y-104278078D01*
X90055695Y-104391651D01*
X90048151Y-104405765D01*
X90006122Y-104544313D01*
X89991931Y-104688398D01*
X89995488Y-104724513D01*
X89995487Y-108982382D01*
X89991931Y-109018487D01*
X90005605Y-109157318D01*
X90006122Y-109162571D01*
X90048150Y-109301119D01*
X90116400Y-109428806D01*
X90208249Y-109540724D01*
X90236295Y-109563741D01*
X93942746Y-113270193D01*
X93965762Y-113298238D01*
X94077680Y-113390087D01*
X94205367Y-113458337D01*
X94343915Y-113500365D01*
X94488000Y-113514556D01*
X94524105Y-113511000D01*
X97637395Y-113511000D01*
X97673500Y-113514556D01*
X97709605Y-113511000D01*
X97817585Y-113500365D01*
X97956133Y-113458337D01*
X98083820Y-113390087D01*
X98195738Y-113298238D01*
X98218759Y-113270187D01*
X99289446Y-112199500D01*
X102131928Y-112199500D01*
X102144188Y-112323982D01*
X102180498Y-112443680D01*
X102239463Y-112553994D01*
X102318815Y-112650685D01*
X102415506Y-112730037D01*
X102525820Y-112789002D01*
X102645518Y-112825312D01*
X102770000Y-112837572D01*
X103634250Y-112834500D01*
X103793000Y-112675750D01*
X103793000Y-110776500D01*
X104047000Y-110776500D01*
X104047000Y-112675750D01*
X104205750Y-112834500D01*
X105070000Y-112837572D01*
X105194482Y-112825312D01*
X105314180Y-112789002D01*
X105424494Y-112730037D01*
X105521185Y-112650685D01*
X105600537Y-112553994D01*
X105659502Y-112443680D01*
X105695812Y-112323982D01*
X105708072Y-112199500D01*
X105705000Y-110935250D01*
X105546250Y-110776500D01*
X104047000Y-110776500D01*
X103793000Y-110776500D01*
X102293750Y-110776500D01*
X102135000Y-110935250D01*
X102131928Y-112199500D01*
X99289446Y-112199500D01*
X101244193Y-110244754D01*
X101272238Y-110221738D01*
X101341311Y-110137572D01*
X101400000Y-110137572D01*
X101500000Y-110127723D01*
X101600000Y-110137572D01*
X101900000Y-110137572D01*
X102003841Y-110127345D01*
X102068250Y-110134500D01*
X102100497Y-110102253D01*
X102122998Y-110095428D01*
X102122998Y-110134500D01*
X102134443Y-110134500D01*
X102135000Y-110363750D01*
X102293750Y-110522500D01*
X103793000Y-110522500D01*
X103793000Y-108623250D01*
X104047000Y-108623250D01*
X104047000Y-110522500D01*
X105546250Y-110522500D01*
X105705000Y-110363750D01*
X105707932Y-109156938D01*
X108002167Y-109156938D01*
X108002167Y-109381444D01*
X108169170Y-109552792D01*
X108265861Y-109632145D01*
X108376176Y-109691109D01*
X108495874Y-109727418D01*
X108620355Y-109739679D01*
X108744837Y-109727418D01*
X108864535Y-109691109D01*
X108974849Y-109632145D01*
X109071540Y-109552792D01*
X109203188Y-109416800D01*
X109203188Y-109192293D01*
X108585000Y-108574105D01*
X108002167Y-109156938D01*
X105707932Y-109156938D01*
X105708072Y-109099500D01*
X105695812Y-108975018D01*
X105659502Y-108855320D01*
X105600537Y-108745006D01*
X105521185Y-108648315D01*
X105424494Y-108568963D01*
X105314180Y-108509998D01*
X105194482Y-108473688D01*
X105070000Y-108461428D01*
X104205750Y-108464500D01*
X104047000Y-108623250D01*
X103793000Y-108623250D01*
X103634250Y-108464500D01*
X103037364Y-108462378D01*
X103037965Y-108411175D01*
X103036750Y-108396001D01*
X106807522Y-108396001D01*
X106843627Y-108399557D01*
X106879732Y-108396001D01*
X106987712Y-108385366D01*
X107097143Y-108352170D01*
X107212103Y-108387043D01*
X107242867Y-108390073D01*
X107252082Y-108483626D01*
X107288391Y-108603324D01*
X107347355Y-108713639D01*
X107426708Y-108810330D01*
X107598056Y-108977333D01*
X107822562Y-108977333D01*
X108405395Y-108394500D01*
X108764605Y-108394500D01*
X109382793Y-109012688D01*
X109607300Y-109012688D01*
X109743292Y-108881040D01*
X109822645Y-108784349D01*
X109881609Y-108674035D01*
X109917918Y-108554337D01*
X109930179Y-108429855D01*
X109926970Y-108397276D01*
X110017355Y-108406179D01*
X110141837Y-108393918D01*
X110261535Y-108357609D01*
X110371849Y-108298645D01*
X110468540Y-108219292D01*
X110600188Y-108083300D01*
X110600188Y-107858793D01*
X109982000Y-107240605D01*
X109410938Y-107811667D01*
X109347438Y-107811667D01*
X108764605Y-108394500D01*
X108405395Y-108394500D01*
X108391253Y-108380358D01*
X108570858Y-108200753D01*
X108585000Y-108214895D01*
X109156062Y-107643833D01*
X109219562Y-107643833D01*
X109802395Y-107061000D01*
X110161605Y-107061000D01*
X110779793Y-107679188D01*
X111004300Y-107679188D01*
X111140292Y-107547540D01*
X111219645Y-107450849D01*
X111278609Y-107340535D01*
X111314918Y-107220837D01*
X111327179Y-107096355D01*
X111314918Y-106971874D01*
X111294384Y-106904181D01*
X111337092Y-106917136D01*
X111461573Y-106929397D01*
X111586055Y-106917136D01*
X111705753Y-106880827D01*
X111816067Y-106821863D01*
X111912758Y-106742510D01*
X112044406Y-106606518D01*
X112044406Y-106382011D01*
X111426218Y-105763823D01*
X110843385Y-106346656D01*
X110843385Y-106478167D01*
X110744438Y-106478167D01*
X110161605Y-107061000D01*
X109802395Y-107061000D01*
X109788253Y-107046858D01*
X109967858Y-106867253D01*
X109982000Y-106881395D01*
X110564833Y-106298562D01*
X110564833Y-106167051D01*
X110663780Y-106167051D01*
X111246613Y-105584218D01*
X111605823Y-105584218D01*
X112224011Y-106202406D01*
X112448518Y-106202406D01*
X112584510Y-106070758D01*
X112663863Y-105974067D01*
X112722827Y-105863753D01*
X112759136Y-105744055D01*
X112771397Y-105619573D01*
X112759136Y-105495092D01*
X112722827Y-105375394D01*
X112663863Y-105265079D01*
X112584510Y-105168388D01*
X112413162Y-105001385D01*
X112188656Y-105001385D01*
X111605823Y-105584218D01*
X111246613Y-105584218D01*
X111232471Y-105570076D01*
X111412076Y-105390471D01*
X111426218Y-105404613D01*
X112009051Y-104821780D01*
X112009051Y-104597274D01*
X111842048Y-104425926D01*
X111745357Y-104346573D01*
X111635042Y-104287609D01*
X111515344Y-104251300D01*
X111421791Y-104242085D01*
X111418761Y-104211321D01*
X111397327Y-104140663D01*
X111440337Y-104060197D01*
X111482365Y-103921649D01*
X111493000Y-103813669D01*
X111496556Y-103777564D01*
X111493000Y-103741459D01*
X111493000Y-102262395D01*
X111482365Y-102154415D01*
X111440337Y-102015867D01*
X111372087Y-101888180D01*
X111280237Y-101776262D01*
X111168319Y-101684413D01*
X111040632Y-101616163D01*
X110902084Y-101574135D01*
X110758000Y-101559944D01*
X110613915Y-101574135D01*
X110475367Y-101616163D01*
X110347680Y-101684413D01*
X110235762Y-101776263D01*
X110143913Y-101888181D01*
X110075663Y-102015868D01*
X110033635Y-102154416D01*
X110023000Y-102262396D01*
X110023001Y-103112825D01*
X109982611Y-103116803D01*
X109818360Y-103166628D01*
X109666985Y-103247539D01*
X109534304Y-103356428D01*
X109198428Y-103692304D01*
X109089539Y-103824985D01*
X109008628Y-103976360D01*
X108958803Y-104140611D01*
X108941979Y-104311427D01*
X108958803Y-104482243D01*
X108971621Y-104524497D01*
X108897294Y-104598824D01*
X108880025Y-104593585D01*
X108709209Y-104576761D01*
X108538393Y-104593585D01*
X108374142Y-104643410D01*
X108222767Y-104724321D01*
X108090086Y-104833210D01*
X107870371Y-105052925D01*
X106780000Y-103962554D01*
X106780000Y-103922500D01*
X106961395Y-103922500D01*
X106997500Y-103926056D01*
X107033605Y-103922500D01*
X107141585Y-103911865D01*
X107280133Y-103869837D01*
X107407820Y-103801587D01*
X107519738Y-103709738D01*
X107542758Y-103681688D01*
X109523694Y-101700753D01*
X109551738Y-101677738D01*
X109574759Y-101649687D01*
X112336375Y-98888072D01*
X113250000Y-98888072D01*
X113374482Y-98875812D01*
X113494180Y-98839502D01*
X113604494Y-98780537D01*
X113701185Y-98701185D01*
X113780537Y-98604494D01*
X113839502Y-98494180D01*
X113875812Y-98374482D01*
X113888072Y-98250000D01*
X113888072Y-95006418D01*
X114293659Y-96299115D01*
X114594735Y-97764169D01*
X114746049Y-99252165D01*
X114746049Y-100747835D01*
X114594735Y-102235831D01*
X114293659Y-103700885D01*
X113845910Y-105127962D01*
X113256084Y-106502420D01*
X112530232Y-107810154D01*
X111675804Y-109037745D01*
X110701566Y-110172597D01*
X109617515Y-111203064D01*
X108434775Y-112118572D01*
X107165483Y-112909728D01*
X105822664Y-113568412D01*
X104420097Y-114087866D01*
X102972173Y-114462760D01*
X101493750Y-114689246D01*
X100000000Y-114765000D01*
X98506250Y-114689246D01*
X97027827Y-114462760D01*
X95579903Y-114087866D01*
X94177336Y-113568412D01*
X92834517Y-112909728D01*
X91565225Y-112118572D01*
X90382485Y-111203064D01*
X89298434Y-110172597D01*
X88324196Y-109037745D01*
X87469768Y-107810154D01*
X86743916Y-106502420D01*
X86154090Y-105127962D01*
X85706341Y-103700885D01*
X85499935Y-102696500D01*
X87024928Y-102696500D01*
X87037188Y-102820982D01*
X87073498Y-102940680D01*
X87132463Y-103050994D01*
X87211815Y-103147685D01*
X87308506Y-103227037D01*
X87418820Y-103286002D01*
X87538518Y-103322312D01*
X87663000Y-103334572D01*
X87852250Y-103331500D01*
X88011000Y-103172750D01*
X88011000Y-102298500D01*
X88265000Y-102298500D01*
X88265000Y-103172750D01*
X88423750Y-103331500D01*
X88613000Y-103334572D01*
X88737482Y-103322312D01*
X88857180Y-103286002D01*
X88967494Y-103227037D01*
X89064185Y-103147685D01*
X89143537Y-103050994D01*
X89202502Y-102940680D01*
X89238812Y-102820982D01*
X89251072Y-102696500D01*
X89248000Y-102457250D01*
X89089250Y-102298500D01*
X88265000Y-102298500D01*
X88011000Y-102298500D01*
X87186750Y-102298500D01*
X87028000Y-102457250D01*
X87024928Y-102696500D01*
X85499935Y-102696500D01*
X85405265Y-102235831D01*
X85253951Y-100747835D01*
X85253951Y-99252165D01*
X85405265Y-97764169D01*
X85706341Y-96299115D01*
X86111928Y-95006418D01*
X86111928Y-98250000D01*
X86124188Y-98374482D01*
X86160498Y-98494180D01*
X86219463Y-98604494D01*
X86298815Y-98701185D01*
X86395506Y-98780537D01*
X86505820Y-98839502D01*
X86625518Y-98875812D01*
X86750000Y-98888072D01*
X89250000Y-98888072D01*
X89374482Y-98875812D01*
X89494180Y-98839502D01*
X89604494Y-98780537D01*
X89701185Y-98701185D01*
X89780537Y-98604494D01*
X89839502Y-98494180D01*
X89866321Y-98405768D01*
X90076053Y-98615500D01*
X89076685Y-99614869D01*
X88994623Y-99514877D01*
X88861942Y-99405988D01*
X88710567Y-99325077D01*
X88546316Y-99275252D01*
X88375500Y-99258428D01*
X87900500Y-99258428D01*
X87729684Y-99275252D01*
X87565433Y-99325077D01*
X87414058Y-99405988D01*
X87281377Y-99514877D01*
X87172488Y-99647558D01*
X87091577Y-99798933D01*
X87041752Y-99963184D01*
X87024928Y-100134000D01*
X87024928Y-100709000D01*
X87041752Y-100879816D01*
X87091577Y-101044067D01*
X87172488Y-101195442D01*
X87192099Y-101219339D01*
X87132463Y-101292006D01*
X87073498Y-101402320D01*
X87037188Y-101522018D01*
X87024928Y-101646500D01*
X87028000Y-101885750D01*
X87186750Y-102044500D01*
X88011000Y-102044500D01*
X88011000Y-102024500D01*
X88265000Y-102024500D01*
X88265000Y-102044500D01*
X89089250Y-102044500D01*
X89248000Y-101885750D01*
X89251072Y-101646500D01*
X89238812Y-101522018D01*
X89202502Y-101402320D01*
X89143537Y-101292006D01*
X89083901Y-101219339D01*
X89103512Y-101195442D01*
X89124327Y-101156500D01*
X89273395Y-101156500D01*
X89309500Y-101160056D01*
X89345605Y-101156500D01*
X89453585Y-101145865D01*
X89592133Y-101103837D01*
X89719820Y-101035587D01*
X89831738Y-100943738D01*
X89854758Y-100915688D01*
X91419947Y-99350500D01*
X92171789Y-99350500D01*
X92240726Y-99419437D01*
X92410244Y-99532705D01*
X92598602Y-99610726D01*
X92798561Y-99650500D01*
X93002439Y-99650500D01*
X93202398Y-99610726D01*
X93390756Y-99532705D01*
X93560274Y-99419437D01*
X93704437Y-99275274D01*
X93817705Y-99105756D01*
X93895726Y-98917398D01*
X93935500Y-98717439D01*
X93935500Y-98513561D01*
X93895726Y-98313602D01*
X93817705Y-98125244D01*
X93704437Y-97955726D01*
X93560274Y-97811563D01*
X93390756Y-97698295D01*
X93202398Y-97620274D01*
X93002439Y-97580500D01*
X92798561Y-97580500D01*
X92598602Y-97620274D01*
X92410244Y-97698295D01*
X92240726Y-97811563D01*
X92171789Y-97880500D01*
X91419947Y-97880500D01*
X89888072Y-96348626D01*
X89888072Y-92750000D01*
X89875812Y-92625518D01*
X89839502Y-92505820D01*
X89780537Y-92395506D01*
X89701185Y-92298815D01*
X89650112Y-92256900D01*
X91407012Y-90500000D01*
X94361928Y-90500000D01*
X94365000Y-95214250D01*
X94523750Y-95373000D01*
X99873000Y-95373000D01*
X99873000Y-90023750D01*
X100127000Y-90023750D01*
X100127000Y-95373000D01*
X105476250Y-95373000D01*
X105635000Y-95214250D01*
X105638072Y-90500000D01*
X105625812Y-90375518D01*
X105589502Y-90255820D01*
X105530537Y-90145506D01*
X105451185Y-90048815D01*
X105354494Y-89969463D01*
X105244180Y-89910498D01*
X105124482Y-89874188D01*
X105000000Y-89861928D01*
X100285750Y-89865000D01*
X100127000Y-90023750D01*
X99873000Y-90023750D01*
X99714250Y-89865000D01*
X95000000Y-89861928D01*
X94875518Y-89874188D01*
X94755820Y-89910498D01*
X94645506Y-89969463D01*
X94548815Y-90048815D01*
X94469463Y-90145506D01*
X94410498Y-90255820D01*
X94374188Y-90375518D01*
X94361928Y-90500000D01*
X91407012Y-90500000D01*
X95320012Y-86587000D01*
X104788054Y-86587000D01*
X110411804Y-92210751D01*
G37*
X110411804Y-92210751D02*
X110395506Y-92219463D01*
X110298815Y-92298815D01*
X110219463Y-92395506D01*
X110160498Y-92505820D01*
X110124188Y-92625518D01*
X110111928Y-92750000D01*
X110111928Y-98250000D01*
X110124188Y-98374482D01*
X110160498Y-98494180D01*
X110219463Y-98604494D01*
X110298815Y-98701185D01*
X110343883Y-98738171D01*
X108661554Y-100420500D01*
X105638020Y-100420500D01*
X105635000Y-95785750D01*
X105476250Y-95627000D01*
X100127000Y-95627000D01*
X100127000Y-95647000D01*
X99873000Y-95647000D01*
X99873000Y-95627000D01*
X94523750Y-95627000D01*
X94365000Y-95785750D01*
X94361951Y-100464188D01*
X94332366Y-100473163D01*
X94282158Y-100500000D01*
X94204680Y-100541413D01*
X94092762Y-100633262D01*
X94069741Y-100661313D01*
X93566616Y-101164438D01*
X93538570Y-101187455D01*
X93446721Y-101299373D01*
X93439413Y-101313045D01*
X93420391Y-101305166D01*
X93220432Y-101265392D01*
X93016554Y-101265392D01*
X92816595Y-101305166D01*
X92628237Y-101383187D01*
X92458719Y-101496455D01*
X92314556Y-101640618D01*
X92201288Y-101810136D01*
X92123267Y-101998494D01*
X92083493Y-102198453D01*
X92083493Y-102295945D01*
X90236295Y-104143144D01*
X90208250Y-104166160D01*
X90116401Y-104278078D01*
X90055695Y-104391651D01*
X90048151Y-104405765D01*
X90006122Y-104544313D01*
X89991931Y-104688398D01*
X89995488Y-104724513D01*
X89995487Y-108982382D01*
X89991931Y-109018487D01*
X90005605Y-109157318D01*
X90006122Y-109162571D01*
X90048150Y-109301119D01*
X90116400Y-109428806D01*
X90208249Y-109540724D01*
X90236295Y-109563741D01*
X93942746Y-113270193D01*
X93965762Y-113298238D01*
X94077680Y-113390087D01*
X94205367Y-113458337D01*
X94343915Y-113500365D01*
X94488000Y-113514556D01*
X94524105Y-113511000D01*
X97637395Y-113511000D01*
X97673500Y-113514556D01*
X97709605Y-113511000D01*
X97817585Y-113500365D01*
X97956133Y-113458337D01*
X98083820Y-113390087D01*
X98195738Y-113298238D01*
X98218759Y-113270187D01*
X99289446Y-112199500D01*
X102131928Y-112199500D01*
X102144188Y-112323982D01*
X102180498Y-112443680D01*
X102239463Y-112553994D01*
X102318815Y-112650685D01*
X102415506Y-112730037D01*
X102525820Y-112789002D01*
X102645518Y-112825312D01*
X102770000Y-112837572D01*
X103634250Y-112834500D01*
X103793000Y-112675750D01*
X103793000Y-110776500D01*
X104047000Y-110776500D01*
X104047000Y-112675750D01*
X104205750Y-112834500D01*
X105070000Y-112837572D01*
X105194482Y-112825312D01*
X105314180Y-112789002D01*
X105424494Y-112730037D01*
X105521185Y-112650685D01*
X105600537Y-112553994D01*
X105659502Y-112443680D01*
X105695812Y-112323982D01*
X105708072Y-112199500D01*
X105705000Y-110935250D01*
X105546250Y-110776500D01*
X104047000Y-110776500D01*
X103793000Y-110776500D01*
X102293750Y-110776500D01*
X102135000Y-110935250D01*
X102131928Y-112199500D01*
X99289446Y-112199500D01*
X101244193Y-110244754D01*
X101272238Y-110221738D01*
X101341311Y-110137572D01*
X101400000Y-110137572D01*
X101500000Y-110127723D01*
X101600000Y-110137572D01*
X101900000Y-110137572D01*
X102003841Y-110127345D01*
X102068250Y-110134500D01*
X102100497Y-110102253D01*
X102122998Y-110095428D01*
X102122998Y-110134500D01*
X102134443Y-110134500D01*
X102135000Y-110363750D01*
X102293750Y-110522500D01*
X103793000Y-110522500D01*
X103793000Y-108623250D01*
X104047000Y-108623250D01*
X104047000Y-110522500D01*
X105546250Y-110522500D01*
X105705000Y-110363750D01*
X105707932Y-109156938D01*
X108002167Y-109156938D01*
X108002167Y-109381444D01*
X108169170Y-109552792D01*
X108265861Y-109632145D01*
X108376176Y-109691109D01*
X108495874Y-109727418D01*
X108620355Y-109739679D01*
X108744837Y-109727418D01*
X108864535Y-109691109D01*
X108974849Y-109632145D01*
X109071540Y-109552792D01*
X109203188Y-109416800D01*
X109203188Y-109192293D01*
X108585000Y-108574105D01*
X108002167Y-109156938D01*
X105707932Y-109156938D01*
X105708072Y-109099500D01*
X105695812Y-108975018D01*
X105659502Y-108855320D01*
X105600537Y-108745006D01*
X105521185Y-108648315D01*
X105424494Y-108568963D01*
X105314180Y-108509998D01*
X105194482Y-108473688D01*
X105070000Y-108461428D01*
X104205750Y-108464500D01*
X104047000Y-108623250D01*
X103793000Y-108623250D01*
X103634250Y-108464500D01*
X103037364Y-108462378D01*
X103037965Y-108411175D01*
X103036750Y-108396001D01*
X106807522Y-108396001D01*
X106843627Y-108399557D01*
X106879732Y-108396001D01*
X106987712Y-108385366D01*
X107097143Y-108352170D01*
X107212103Y-108387043D01*
X107242867Y-108390073D01*
X107252082Y-108483626D01*
X107288391Y-108603324D01*
X107347355Y-108713639D01*
X107426708Y-108810330D01*
X107598056Y-108977333D01*
X107822562Y-108977333D01*
X108405395Y-108394500D01*
X108764605Y-108394500D01*
X109382793Y-109012688D01*
X109607300Y-109012688D01*
X109743292Y-108881040D01*
X109822645Y-108784349D01*
X109881609Y-108674035D01*
X109917918Y-108554337D01*
X109930179Y-108429855D01*
X109926970Y-108397276D01*
X110017355Y-108406179D01*
X110141837Y-108393918D01*
X110261535Y-108357609D01*
X110371849Y-108298645D01*
X110468540Y-108219292D01*
X110600188Y-108083300D01*
X110600188Y-107858793D01*
X109982000Y-107240605D01*
X109410938Y-107811667D01*
X109347438Y-107811667D01*
X108764605Y-108394500D01*
X108405395Y-108394500D01*
X108391253Y-108380358D01*
X108570858Y-108200753D01*
X108585000Y-108214895D01*
X109156062Y-107643833D01*
X109219562Y-107643833D01*
X109802395Y-107061000D01*
X110161605Y-107061000D01*
X110779793Y-107679188D01*
X111004300Y-107679188D01*
X111140292Y-107547540D01*
X111219645Y-107450849D01*
X111278609Y-107340535D01*
X111314918Y-107220837D01*
X111327179Y-107096355D01*
X111314918Y-106971874D01*
X111294384Y-106904181D01*
X111337092Y-106917136D01*
X111461573Y-106929397D01*
X111586055Y-106917136D01*
X111705753Y-106880827D01*
X111816067Y-106821863D01*
X111912758Y-106742510D01*
X112044406Y-106606518D01*
X112044406Y-106382011D01*
X111426218Y-105763823D01*
X110843385Y-106346656D01*
X110843385Y-106478167D01*
X110744438Y-106478167D01*
X110161605Y-107061000D01*
X109802395Y-107061000D01*
X109788253Y-107046858D01*
X109967858Y-106867253D01*
X109982000Y-106881395D01*
X110564833Y-106298562D01*
X110564833Y-106167051D01*
X110663780Y-106167051D01*
X111246613Y-105584218D01*
X111605823Y-105584218D01*
X112224011Y-106202406D01*
X112448518Y-106202406D01*
X112584510Y-106070758D01*
X112663863Y-105974067D01*
X112722827Y-105863753D01*
X112759136Y-105744055D01*
X112771397Y-105619573D01*
X112759136Y-105495092D01*
X112722827Y-105375394D01*
X112663863Y-105265079D01*
X112584510Y-105168388D01*
X112413162Y-105001385D01*
X112188656Y-105001385D01*
X111605823Y-105584218D01*
X111246613Y-105584218D01*
X111232471Y-105570076D01*
X111412076Y-105390471D01*
X111426218Y-105404613D01*
X112009051Y-104821780D01*
X112009051Y-104597274D01*
X111842048Y-104425926D01*
X111745357Y-104346573D01*
X111635042Y-104287609D01*
X111515344Y-104251300D01*
X111421791Y-104242085D01*
X111418761Y-104211321D01*
X111397327Y-104140663D01*
X111440337Y-104060197D01*
X111482365Y-103921649D01*
X111493000Y-103813669D01*
X111496556Y-103777564D01*
X111493000Y-103741459D01*
X111493000Y-102262395D01*
X111482365Y-102154415D01*
X111440337Y-102015867D01*
X111372087Y-101888180D01*
X111280237Y-101776262D01*
X111168319Y-101684413D01*
X111040632Y-101616163D01*
X110902084Y-101574135D01*
X110758000Y-101559944D01*
X110613915Y-101574135D01*
X110475367Y-101616163D01*
X110347680Y-101684413D01*
X110235762Y-101776263D01*
X110143913Y-101888181D01*
X110075663Y-102015868D01*
X110033635Y-102154416D01*
X110023000Y-102262396D01*
X110023001Y-103112825D01*
X109982611Y-103116803D01*
X109818360Y-103166628D01*
X109666985Y-103247539D01*
X109534304Y-103356428D01*
X109198428Y-103692304D01*
X109089539Y-103824985D01*
X109008628Y-103976360D01*
X108958803Y-104140611D01*
X108941979Y-104311427D01*
X108958803Y-104482243D01*
X108971621Y-104524497D01*
X108897294Y-104598824D01*
X108880025Y-104593585D01*
X108709209Y-104576761D01*
X108538393Y-104593585D01*
X108374142Y-104643410D01*
X108222767Y-104724321D01*
X108090086Y-104833210D01*
X107870371Y-105052925D01*
X106780000Y-103962554D01*
X106780000Y-103922500D01*
X106961395Y-103922500D01*
X106997500Y-103926056D01*
X107033605Y-103922500D01*
X107141585Y-103911865D01*
X107280133Y-103869837D01*
X107407820Y-103801587D01*
X107519738Y-103709738D01*
X107542758Y-103681688D01*
X109523694Y-101700753D01*
X109551738Y-101677738D01*
X109574759Y-101649687D01*
X112336375Y-98888072D01*
X113250000Y-98888072D01*
X113374482Y-98875812D01*
X113494180Y-98839502D01*
X113604494Y-98780537D01*
X113701185Y-98701185D01*
X113780537Y-98604494D01*
X113839502Y-98494180D01*
X113875812Y-98374482D01*
X113888072Y-98250000D01*
X113888072Y-95006418D01*
X114293659Y-96299115D01*
X114594735Y-97764169D01*
X114746049Y-99252165D01*
X114746049Y-100747835D01*
X114594735Y-102235831D01*
X114293659Y-103700885D01*
X113845910Y-105127962D01*
X113256084Y-106502420D01*
X112530232Y-107810154D01*
X111675804Y-109037745D01*
X110701566Y-110172597D01*
X109617515Y-111203064D01*
X108434775Y-112118572D01*
X107165483Y-112909728D01*
X105822664Y-113568412D01*
X104420097Y-114087866D01*
X102972173Y-114462760D01*
X101493750Y-114689246D01*
X100000000Y-114765000D01*
X98506250Y-114689246D01*
X97027827Y-114462760D01*
X95579903Y-114087866D01*
X94177336Y-113568412D01*
X92834517Y-112909728D01*
X91565225Y-112118572D01*
X90382485Y-111203064D01*
X89298434Y-110172597D01*
X88324196Y-109037745D01*
X87469768Y-107810154D01*
X86743916Y-106502420D01*
X86154090Y-105127962D01*
X85706341Y-103700885D01*
X85499935Y-102696500D01*
X87024928Y-102696500D01*
X87037188Y-102820982D01*
X87073498Y-102940680D01*
X87132463Y-103050994D01*
X87211815Y-103147685D01*
X87308506Y-103227037D01*
X87418820Y-103286002D01*
X87538518Y-103322312D01*
X87663000Y-103334572D01*
X87852250Y-103331500D01*
X88011000Y-103172750D01*
X88011000Y-102298500D01*
X88265000Y-102298500D01*
X88265000Y-103172750D01*
X88423750Y-103331500D01*
X88613000Y-103334572D01*
X88737482Y-103322312D01*
X88857180Y-103286002D01*
X88967494Y-103227037D01*
X89064185Y-103147685D01*
X89143537Y-103050994D01*
X89202502Y-102940680D01*
X89238812Y-102820982D01*
X89251072Y-102696500D01*
X89248000Y-102457250D01*
X89089250Y-102298500D01*
X88265000Y-102298500D01*
X88011000Y-102298500D01*
X87186750Y-102298500D01*
X87028000Y-102457250D01*
X87024928Y-102696500D01*
X85499935Y-102696500D01*
X85405265Y-102235831D01*
X85253951Y-100747835D01*
X85253951Y-99252165D01*
X85405265Y-97764169D01*
X85706341Y-96299115D01*
X86111928Y-95006418D01*
X86111928Y-98250000D01*
X86124188Y-98374482D01*
X86160498Y-98494180D01*
X86219463Y-98604494D01*
X86298815Y-98701185D01*
X86395506Y-98780537D01*
X86505820Y-98839502D01*
X86625518Y-98875812D01*
X86750000Y-98888072D01*
X89250000Y-98888072D01*
X89374482Y-98875812D01*
X89494180Y-98839502D01*
X89604494Y-98780537D01*
X89701185Y-98701185D01*
X89780537Y-98604494D01*
X89839502Y-98494180D01*
X89866321Y-98405768D01*
X90076053Y-98615500D01*
X89076685Y-99614869D01*
X88994623Y-99514877D01*
X88861942Y-99405988D01*
X88710567Y-99325077D01*
X88546316Y-99275252D01*
X88375500Y-99258428D01*
X87900500Y-99258428D01*
X87729684Y-99275252D01*
X87565433Y-99325077D01*
X87414058Y-99405988D01*
X87281377Y-99514877D01*
X87172488Y-99647558D01*
X87091577Y-99798933D01*
X87041752Y-99963184D01*
X87024928Y-100134000D01*
X87024928Y-100709000D01*
X87041752Y-100879816D01*
X87091577Y-101044067D01*
X87172488Y-101195442D01*
X87192099Y-101219339D01*
X87132463Y-101292006D01*
X87073498Y-101402320D01*
X87037188Y-101522018D01*
X87024928Y-101646500D01*
X87028000Y-101885750D01*
X87186750Y-102044500D01*
X88011000Y-102044500D01*
X88011000Y-102024500D01*
X88265000Y-102024500D01*
X88265000Y-102044500D01*
X89089250Y-102044500D01*
X89248000Y-101885750D01*
X89251072Y-101646500D01*
X89238812Y-101522018D01*
X89202502Y-101402320D01*
X89143537Y-101292006D01*
X89083901Y-101219339D01*
X89103512Y-101195442D01*
X89124327Y-101156500D01*
X89273395Y-101156500D01*
X89309500Y-101160056D01*
X89345605Y-101156500D01*
X89453585Y-101145865D01*
X89592133Y-101103837D01*
X89719820Y-101035587D01*
X89831738Y-100943738D01*
X89854758Y-100915688D01*
X91419947Y-99350500D01*
X92171789Y-99350500D01*
X92240726Y-99419437D01*
X92410244Y-99532705D01*
X92598602Y-99610726D01*
X92798561Y-99650500D01*
X93002439Y-99650500D01*
X93202398Y-99610726D01*
X93390756Y-99532705D01*
X93560274Y-99419437D01*
X93704437Y-99275274D01*
X93817705Y-99105756D01*
X93895726Y-98917398D01*
X93935500Y-98717439D01*
X93935500Y-98513561D01*
X93895726Y-98313602D01*
X93817705Y-98125244D01*
X93704437Y-97955726D01*
X93560274Y-97811563D01*
X93390756Y-97698295D01*
X93202398Y-97620274D01*
X93002439Y-97580500D01*
X92798561Y-97580500D01*
X92598602Y-97620274D01*
X92410244Y-97698295D01*
X92240726Y-97811563D01*
X92171789Y-97880500D01*
X91419947Y-97880500D01*
X89888072Y-96348626D01*
X89888072Y-92750000D01*
X89875812Y-92625518D01*
X89839502Y-92505820D01*
X89780537Y-92395506D01*
X89701185Y-92298815D01*
X89650112Y-92256900D01*
X91407012Y-90500000D01*
X94361928Y-90500000D01*
X94365000Y-95214250D01*
X94523750Y-95373000D01*
X99873000Y-95373000D01*
X99873000Y-90023750D01*
X100127000Y-90023750D01*
X100127000Y-95373000D01*
X105476250Y-95373000D01*
X105635000Y-95214250D01*
X105638072Y-90500000D01*
X105625812Y-90375518D01*
X105589502Y-90255820D01*
X105530537Y-90145506D01*
X105451185Y-90048815D01*
X105354494Y-89969463D01*
X105244180Y-89910498D01*
X105124482Y-89874188D01*
X105000000Y-89861928D01*
X100285750Y-89865000D01*
X100127000Y-90023750D01*
X99873000Y-90023750D01*
X99714250Y-89865000D01*
X95000000Y-89861928D01*
X94875518Y-89874188D01*
X94755820Y-89910498D01*
X94645506Y-89969463D01*
X94548815Y-90048815D01*
X94469463Y-90145506D01*
X94410498Y-90255820D01*
X94374188Y-90375518D01*
X94361928Y-90500000D01*
X91407012Y-90500000D01*
X95320012Y-86587000D01*
X104788054Y-86587000D01*
X110411804Y-92210751D01*
G36*
X93510032Y-104516655D02*
G01*
X93549806Y-104716614D01*
X93627827Y-104904972D01*
X93741095Y-105074490D01*
X93885258Y-105218653D01*
X94054776Y-105331921D01*
X94243134Y-105409942D01*
X94443093Y-105449716D01*
X94646971Y-105449716D01*
X94846930Y-105409942D01*
X95035288Y-105331921D01*
X95188795Y-105229351D01*
X95535881Y-105576437D01*
X95535881Y-105673929D01*
X95575655Y-105873888D01*
X95653676Y-106062246D01*
X95766944Y-106231764D01*
X95911107Y-106375927D01*
X96080625Y-106489195D01*
X96268983Y-106567216D01*
X96468942Y-106606990D01*
X96566435Y-106606990D01*
X97015001Y-107055557D01*
X97015000Y-108146897D01*
X97010498Y-108155320D01*
X96974188Y-108275018D01*
X96961928Y-108399500D01*
X96961928Y-108462381D01*
X96365750Y-108464500D01*
X96207000Y-108623250D01*
X96207000Y-110522500D01*
X96227000Y-110522500D01*
X96227000Y-110776500D01*
X96207000Y-110776500D01*
X96207000Y-110796500D01*
X95953000Y-110796500D01*
X95953000Y-110776500D01*
X94453750Y-110776500D01*
X94295000Y-110935250D01*
X94294911Y-110971964D01*
X92422447Y-109099500D01*
X94291928Y-109099500D01*
X94295000Y-110363750D01*
X94453750Y-110522500D01*
X95953000Y-110522500D01*
X95953000Y-108623250D01*
X95794250Y-108464500D01*
X94930000Y-108461428D01*
X94805518Y-108473688D01*
X94685820Y-108509998D01*
X94575506Y-108568963D01*
X94478815Y-108648315D01*
X94399463Y-108745006D01*
X94340498Y-108855320D01*
X94304188Y-108975018D01*
X94291928Y-109099500D01*
X92422447Y-109099500D01*
X91765498Y-108442552D01*
X91765498Y-106123948D01*
X93510032Y-104379415D01*
X93510032Y-104516655D01*
G37*
X93510032Y-104516655D02*
X93549806Y-104716614D01*
X93627827Y-104904972D01*
X93741095Y-105074490D01*
X93885258Y-105218653D01*
X94054776Y-105331921D01*
X94243134Y-105409942D01*
X94443093Y-105449716D01*
X94646971Y-105449716D01*
X94846930Y-105409942D01*
X95035288Y-105331921D01*
X95188795Y-105229351D01*
X95535881Y-105576437D01*
X95535881Y-105673929D01*
X95575655Y-105873888D01*
X95653676Y-106062246D01*
X95766944Y-106231764D01*
X95911107Y-106375927D01*
X96080625Y-106489195D01*
X96268983Y-106567216D01*
X96468942Y-106606990D01*
X96566435Y-106606990D01*
X97015001Y-107055557D01*
X97015000Y-108146897D01*
X97010498Y-108155320D01*
X96974188Y-108275018D01*
X96961928Y-108399500D01*
X96961928Y-108462381D01*
X96365750Y-108464500D01*
X96207000Y-108623250D01*
X96207000Y-110522500D01*
X96227000Y-110522500D01*
X96227000Y-110776500D01*
X96207000Y-110776500D01*
X96207000Y-110796500D01*
X95953000Y-110796500D01*
X95953000Y-110776500D01*
X94453750Y-110776500D01*
X94295000Y-110935250D01*
X94294911Y-110971964D01*
X92422447Y-109099500D01*
X94291928Y-109099500D01*
X94295000Y-110363750D01*
X94453750Y-110522500D01*
X95953000Y-110522500D01*
X95953000Y-108623250D01*
X95794250Y-108464500D01*
X94930000Y-108461428D01*
X94805518Y-108473688D01*
X94685820Y-108509998D01*
X94575506Y-108568963D01*
X94478815Y-108648315D01*
X94399463Y-108745006D01*
X94340498Y-108855320D01*
X94304188Y-108975018D01*
X94291928Y-109099500D01*
X92422447Y-109099500D01*
X91765498Y-108442552D01*
X91765498Y-106123948D01*
X93510032Y-104379415D01*
X93510032Y-104516655D01*
G36*
X106809623Y-106071070D02*
G01*
X106778470Y-106096637D01*
X106780000Y-106081105D01*
X106780000Y-106081104D01*
X106783556Y-106045003D01*
X106809623Y-106071070D01*
G37*
X106809623Y-106071070D02*
X106778470Y-106096637D01*
X106780000Y-106081105D01*
X106780000Y-106081104D01*
X106783556Y-106045003D01*
X106809623Y-106071070D01*
M02*
