G04 #@! TF.GenerationSoftware,KiCad,Pcbnew,5.1.6*
G04 #@! TF.CreationDate,2020-08-03T21:51:23+02:00*
G04 #@! TF.ProjectId,AnalogWatch,416e616c-6f67-4576-9174-63682e6b6963,rev?*
G04 #@! TF.SameCoordinates,Original*
G04 #@! TF.FileFunction,Soldermask,Bot*
G04 #@! TF.FilePolarity,Negative*
%FSLAX46Y46*%
G04 Gerber Fmt 4.6, Leading zero omitted, Abs format (unit mm)*
G04 Created by KiCad (PCBNEW 5.1.6) date 2020-08-03 21:51:23*
%MOMM*%
%LPD*%
G01*
G04 APERTURE LIST*
%ADD10C,0.100000*%
G04 APERTURE END LIST*
D10*
G36*
X105070000Y-112199500D02*
G01*
X102770000Y-112199500D01*
X102770000Y-109099500D01*
X105070000Y-109099500D01*
X105070000Y-112199500D01*
G37*
G36*
X97230000Y-112199500D02*
G01*
X94930000Y-112199500D01*
X94930000Y-109099500D01*
X97230000Y-109099500D01*
X97230000Y-112199500D01*
G37*
G36*
X97900000Y-109499500D02*
G01*
X97600000Y-109499500D01*
X97600000Y-108399500D01*
X97900000Y-108399500D01*
X97900000Y-109499500D01*
G37*
G36*
X98400000Y-109499500D02*
G01*
X98100000Y-109499500D01*
X98100000Y-108399500D01*
X98400000Y-108399500D01*
X98400000Y-109499500D01*
G37*
G36*
X98900000Y-109499500D02*
G01*
X98600000Y-109499500D01*
X98600000Y-108399500D01*
X98900000Y-108399500D01*
X98900000Y-109499500D01*
G37*
G36*
X99400000Y-109499500D02*
G01*
X99100000Y-109499500D01*
X99100000Y-108399500D01*
X99400000Y-108399500D01*
X99400000Y-109499500D01*
G37*
G36*
X99900000Y-109499500D02*
G01*
X99600000Y-109499500D01*
X99600000Y-108399500D01*
X99900000Y-108399500D01*
X99900000Y-109499500D01*
G37*
G36*
X100400000Y-109499500D02*
G01*
X100100000Y-109499500D01*
X100100000Y-108399500D01*
X100400000Y-108399500D01*
X100400000Y-109499500D01*
G37*
G36*
X100900000Y-109499500D02*
G01*
X100600000Y-109499500D01*
X100600000Y-108399500D01*
X100900000Y-108399500D01*
X100900000Y-109499500D01*
G37*
G36*
X101400000Y-109499500D02*
G01*
X101100000Y-109499500D01*
X101100000Y-108399500D01*
X101400000Y-108399500D01*
X101400000Y-109499500D01*
G37*
G36*
X101900000Y-109499500D02*
G01*
X101600000Y-109499500D01*
X101600000Y-108399500D01*
X101900000Y-108399500D01*
X101900000Y-109499500D01*
G37*
G36*
X102400000Y-109499500D02*
G01*
X102100000Y-109499500D01*
X102100000Y-108399500D01*
X102400000Y-108399500D01*
X102400000Y-109499500D01*
G37*
G36*
X108591053Y-107779734D02*
G01*
X108630874Y-107791814D01*
X108667568Y-107811426D01*
X108701639Y-107839388D01*
X108717577Y-107855326D01*
X108717583Y-107855331D01*
X109124169Y-108261917D01*
X109124174Y-108261923D01*
X109140112Y-108277861D01*
X109168074Y-108311932D01*
X109187686Y-108348626D01*
X109199766Y-108388447D01*
X109203844Y-108429855D01*
X109199766Y-108471263D01*
X109187686Y-108511084D01*
X109168074Y-108547778D01*
X109140112Y-108581849D01*
X109124174Y-108597787D01*
X109124169Y-108597793D01*
X108788293Y-108933669D01*
X108788287Y-108933674D01*
X108772349Y-108949612D01*
X108738278Y-108977574D01*
X108701584Y-108997186D01*
X108661763Y-109009266D01*
X108620355Y-109013344D01*
X108578947Y-109009266D01*
X108539126Y-108997186D01*
X108502432Y-108977574D01*
X108468361Y-108949612D01*
X108452423Y-108933674D01*
X108452417Y-108933669D01*
X108045831Y-108527083D01*
X108045826Y-108527077D01*
X108029888Y-108511139D01*
X108001926Y-108477068D01*
X107982314Y-108440374D01*
X107970234Y-108400553D01*
X107966156Y-108359145D01*
X107970234Y-108317737D01*
X107982314Y-108277916D01*
X108001926Y-108241222D01*
X108029888Y-108207151D01*
X108045826Y-108191213D01*
X108045831Y-108191207D01*
X108381707Y-107855331D01*
X108381713Y-107855326D01*
X108397651Y-107839388D01*
X108431722Y-107811426D01*
X108468416Y-107791814D01*
X108508237Y-107779734D01*
X108549645Y-107775656D01*
X108591053Y-107779734D01*
G37*
G36*
X107353617Y-106542298D02*
G01*
X107393438Y-106554378D01*
X107430132Y-106573990D01*
X107464203Y-106601952D01*
X107480141Y-106617890D01*
X107480147Y-106617895D01*
X107886733Y-107024481D01*
X107886738Y-107024487D01*
X107902676Y-107040425D01*
X107930638Y-107074496D01*
X107950250Y-107111190D01*
X107962330Y-107151011D01*
X107966408Y-107192419D01*
X107962330Y-107233827D01*
X107950250Y-107273648D01*
X107930638Y-107310342D01*
X107902676Y-107344413D01*
X107886738Y-107360351D01*
X107886733Y-107360357D01*
X107550857Y-107696233D01*
X107550851Y-107696238D01*
X107534913Y-107712176D01*
X107500842Y-107740138D01*
X107464148Y-107759750D01*
X107424327Y-107771830D01*
X107382919Y-107775908D01*
X107341511Y-107771830D01*
X107301690Y-107759750D01*
X107264996Y-107740138D01*
X107230925Y-107712176D01*
X107214987Y-107696238D01*
X107214981Y-107696233D01*
X106808395Y-107289647D01*
X106808390Y-107289641D01*
X106792452Y-107273703D01*
X106764490Y-107239632D01*
X106744878Y-107202938D01*
X106732798Y-107163117D01*
X106728720Y-107121709D01*
X106732798Y-107080301D01*
X106744878Y-107040480D01*
X106764490Y-107003786D01*
X106792452Y-106969715D01*
X106808390Y-106953777D01*
X106808395Y-106953771D01*
X107144271Y-106617895D01*
X107144277Y-106617890D01*
X107160215Y-106601952D01*
X107194286Y-106573990D01*
X107230980Y-106554378D01*
X107270801Y-106542298D01*
X107312209Y-106538220D01*
X107353617Y-106542298D01*
G37*
G36*
X109988053Y-106446234D02*
G01*
X110027874Y-106458314D01*
X110064568Y-106477926D01*
X110098639Y-106505888D01*
X110114577Y-106521826D01*
X110114583Y-106521831D01*
X110521169Y-106928417D01*
X110521174Y-106928423D01*
X110537112Y-106944361D01*
X110565074Y-106978432D01*
X110584686Y-107015126D01*
X110596766Y-107054947D01*
X110600844Y-107096355D01*
X110596766Y-107137763D01*
X110584686Y-107177584D01*
X110565074Y-107214278D01*
X110537112Y-107248349D01*
X110521174Y-107264287D01*
X110521169Y-107264293D01*
X110185293Y-107600169D01*
X110185287Y-107600174D01*
X110169349Y-107616112D01*
X110135278Y-107644074D01*
X110098584Y-107663686D01*
X110058763Y-107675766D01*
X110017355Y-107679844D01*
X109975947Y-107675766D01*
X109936126Y-107663686D01*
X109899432Y-107644074D01*
X109865361Y-107616112D01*
X109849423Y-107600174D01*
X109849417Y-107600169D01*
X109442831Y-107193583D01*
X109442826Y-107193577D01*
X109426888Y-107177639D01*
X109398926Y-107143568D01*
X109379314Y-107106874D01*
X109367234Y-107067053D01*
X109363156Y-107025645D01*
X109367234Y-106984237D01*
X109379314Y-106944416D01*
X109398926Y-106907722D01*
X109426888Y-106873651D01*
X109442826Y-106857713D01*
X109442831Y-106857707D01*
X109778707Y-106521831D01*
X109778713Y-106521826D01*
X109794651Y-106505888D01*
X109828722Y-106477926D01*
X109865416Y-106458314D01*
X109905237Y-106446234D01*
X109946645Y-106442156D01*
X109988053Y-106446234D01*
G37*
G36*
X108750617Y-105208798D02*
G01*
X108790438Y-105220878D01*
X108827132Y-105240490D01*
X108861203Y-105268452D01*
X108877141Y-105284390D01*
X108877147Y-105284395D01*
X109283733Y-105690981D01*
X109283738Y-105690987D01*
X109299676Y-105706925D01*
X109327638Y-105740996D01*
X109347250Y-105777690D01*
X109359330Y-105817511D01*
X109363408Y-105858919D01*
X109359330Y-105900327D01*
X109347250Y-105940148D01*
X109327638Y-105976842D01*
X109299676Y-106010913D01*
X109283738Y-106026851D01*
X109283733Y-106026857D01*
X108947857Y-106362733D01*
X108947851Y-106362738D01*
X108931913Y-106378676D01*
X108897842Y-106406638D01*
X108861148Y-106426250D01*
X108821327Y-106438330D01*
X108779919Y-106442408D01*
X108738511Y-106438330D01*
X108698690Y-106426250D01*
X108661996Y-106406638D01*
X108627925Y-106378676D01*
X108611987Y-106362738D01*
X108611981Y-106362733D01*
X108205395Y-105956147D01*
X108205390Y-105956141D01*
X108189452Y-105940203D01*
X108161490Y-105906132D01*
X108141878Y-105869438D01*
X108129798Y-105829617D01*
X108125720Y-105788209D01*
X108129798Y-105746801D01*
X108141878Y-105706980D01*
X108161490Y-105670286D01*
X108189452Y-105636215D01*
X108205390Y-105620277D01*
X108205395Y-105620271D01*
X108541271Y-105284395D01*
X108541277Y-105284390D01*
X108557215Y-105268452D01*
X108591286Y-105240490D01*
X108627980Y-105220878D01*
X108667801Y-105208798D01*
X108709209Y-105204720D01*
X108750617Y-105208798D01*
G37*
G36*
X111432271Y-104969452D02*
G01*
X111472092Y-104981532D01*
X111508786Y-105001144D01*
X111542857Y-105029106D01*
X111558795Y-105045044D01*
X111558801Y-105045049D01*
X111965387Y-105451635D01*
X111965392Y-105451641D01*
X111981330Y-105467579D01*
X112009292Y-105501650D01*
X112028904Y-105538344D01*
X112040984Y-105578165D01*
X112045062Y-105619573D01*
X112040984Y-105660981D01*
X112028904Y-105700802D01*
X112009292Y-105737496D01*
X111981330Y-105771567D01*
X111965392Y-105787505D01*
X111965387Y-105787511D01*
X111629511Y-106123387D01*
X111629505Y-106123392D01*
X111613567Y-106139330D01*
X111579496Y-106167292D01*
X111542802Y-106186904D01*
X111502981Y-106198984D01*
X111461573Y-106203062D01*
X111420165Y-106198984D01*
X111380344Y-106186904D01*
X111343650Y-106167292D01*
X111309579Y-106139330D01*
X111293641Y-106123392D01*
X111293635Y-106123387D01*
X110887049Y-105716801D01*
X110887044Y-105716795D01*
X110871106Y-105700857D01*
X110843144Y-105666786D01*
X110823532Y-105630092D01*
X110811452Y-105590271D01*
X110807374Y-105548863D01*
X110811452Y-105507455D01*
X110823532Y-105467634D01*
X110843144Y-105430940D01*
X110871106Y-105396869D01*
X110887044Y-105380931D01*
X110887049Y-105380925D01*
X111222925Y-105045049D01*
X111222931Y-105045044D01*
X111238869Y-105029106D01*
X111272940Y-105001144D01*
X111309634Y-104981532D01*
X111349455Y-104969452D01*
X111390863Y-104965374D01*
X111432271Y-104969452D01*
G37*
G36*
X110194835Y-103732016D02*
G01*
X110234656Y-103744096D01*
X110271350Y-103763708D01*
X110305421Y-103791670D01*
X110321359Y-103807608D01*
X110321365Y-103807613D01*
X110727951Y-104214199D01*
X110727956Y-104214205D01*
X110743894Y-104230143D01*
X110771856Y-104264214D01*
X110791468Y-104300908D01*
X110803548Y-104340729D01*
X110807626Y-104382137D01*
X110803548Y-104423545D01*
X110791468Y-104463366D01*
X110771856Y-104500060D01*
X110743894Y-104534131D01*
X110727956Y-104550069D01*
X110727951Y-104550075D01*
X110392075Y-104885951D01*
X110392069Y-104885956D01*
X110376131Y-104901894D01*
X110342060Y-104929856D01*
X110305366Y-104949468D01*
X110265545Y-104961548D01*
X110224137Y-104965626D01*
X110182729Y-104961548D01*
X110142908Y-104949468D01*
X110106214Y-104929856D01*
X110072143Y-104901894D01*
X110056205Y-104885956D01*
X110056199Y-104885951D01*
X109649613Y-104479365D01*
X109649608Y-104479359D01*
X109633670Y-104463421D01*
X109605708Y-104429350D01*
X109586096Y-104392656D01*
X109574016Y-104352835D01*
X109569938Y-104311427D01*
X109574016Y-104270019D01*
X109586096Y-104230198D01*
X109605708Y-104193504D01*
X109633670Y-104159433D01*
X109649608Y-104143495D01*
X109649613Y-104143489D01*
X109985489Y-103807613D01*
X109985495Y-103807608D01*
X110001433Y-103791670D01*
X110035504Y-103763708D01*
X110072198Y-103744096D01*
X110112019Y-103732016D01*
X110153427Y-103727938D01*
X110194835Y-103732016D01*
G37*
G36*
X88441908Y-101650820D02*
G01*
X88481729Y-101662900D01*
X88518423Y-101682512D01*
X88550589Y-101708911D01*
X88576988Y-101741077D01*
X88596600Y-101777771D01*
X88608680Y-101817592D01*
X88613000Y-101861454D01*
X88613000Y-102481546D01*
X88608680Y-102525408D01*
X88596600Y-102565229D01*
X88576988Y-102601923D01*
X88550589Y-102634089D01*
X88518423Y-102660488D01*
X88481729Y-102680100D01*
X88441908Y-102692180D01*
X88398046Y-102696500D01*
X87877954Y-102696500D01*
X87834092Y-102692180D01*
X87794271Y-102680100D01*
X87757577Y-102660488D01*
X87725411Y-102634089D01*
X87699012Y-102601923D01*
X87679400Y-102565229D01*
X87667320Y-102525408D01*
X87663000Y-102481546D01*
X87663000Y-101861454D01*
X87667320Y-101817592D01*
X87679400Y-101777771D01*
X87699012Y-101741077D01*
X87725411Y-101708911D01*
X87757577Y-101682512D01*
X87794271Y-101662900D01*
X87834092Y-101650820D01*
X87877954Y-101646500D01*
X88398046Y-101646500D01*
X88441908Y-101650820D01*
G37*
G36*
X88441908Y-99900820D02*
G01*
X88481729Y-99912900D01*
X88518423Y-99932512D01*
X88550589Y-99958911D01*
X88576988Y-99991077D01*
X88596600Y-100027771D01*
X88608680Y-100067592D01*
X88613000Y-100111454D01*
X88613000Y-100731546D01*
X88608680Y-100775408D01*
X88596600Y-100815229D01*
X88576988Y-100851923D01*
X88550589Y-100884089D01*
X88518423Y-100910488D01*
X88481729Y-100930100D01*
X88441908Y-100942180D01*
X88398046Y-100946500D01*
X87877954Y-100946500D01*
X87834092Y-100942180D01*
X87794271Y-100930100D01*
X87757577Y-100910488D01*
X87725411Y-100884089D01*
X87699012Y-100851923D01*
X87679400Y-100815229D01*
X87667320Y-100775408D01*
X87663000Y-100731546D01*
X87663000Y-100111454D01*
X87667320Y-100067592D01*
X87679400Y-100027771D01*
X87699012Y-99991077D01*
X87725411Y-99958911D01*
X87757577Y-99932512D01*
X87794271Y-99912900D01*
X87834092Y-99900820D01*
X87877954Y-99896500D01*
X88398046Y-99896500D01*
X88441908Y-99900820D01*
G37*
G36*
X105000000Y-100500000D02*
G01*
X95000000Y-100500000D01*
X95000000Y-90500000D01*
X105000000Y-90500000D01*
X105000000Y-100500000D01*
G37*
G36*
X113250000Y-98250000D02*
G01*
X110750000Y-98250000D01*
X110750000Y-92750000D01*
X113250000Y-92750000D01*
X113250000Y-98250000D01*
G37*
G36*
X89250000Y-98250000D02*
G01*
X86750000Y-98250000D01*
X86750000Y-92750000D01*
X89250000Y-92750000D01*
X89250000Y-98250000D01*
G37*
M02*
