G04 #@! TF.GenerationSoftware,KiCad,Pcbnew,5.1.6*
G04 #@! TF.CreationDate,2020-08-06T11:22:41+02:00*
G04 #@! TF.ProjectId,AnalogWatch,416e616c-6f67-4576-9174-63682e6b6963,rev?*
G04 #@! TF.SameCoordinates,Original*
G04 #@! TF.FileFunction,Legend,Bot*
G04 #@! TF.FilePolarity,Positive*
%FSLAX46Y46*%
G04 Gerber Fmt 4.6, Leading zero omitted, Abs format (unit mm)*
G04 Created by KiCad (PCBNEW 5.1.6) date 2020-08-06 11:22:41*
%MOMM*%
%LPD*%
G01*
G04 APERTURE LIST*
%ADD10C,0.150000*%
%ADD11C,0.120000*%
G04 APERTURE END LIST*
D10*
X110776307Y-95500000D02*
G75*
G03*
X110776307Y-95500000I-10776307J0D01*
G01*
D11*
X88648000Y-101125233D02*
X88648000Y-101467767D01*
X87628000Y-101125233D02*
X87628000Y-101467767D01*
X109602802Y-105960553D02*
X109845011Y-106202762D01*
X108881553Y-106681802D02*
X109123762Y-106924011D01*
X110325771Y-105205020D02*
X110567980Y-105447229D01*
X111047020Y-104483771D02*
X111289229Y-104725980D01*
X102050000Y-109749500D02*
X102450000Y-109749500D01*
X102250000Y-110149500D02*
X102050000Y-109749500D01*
X102450000Y-109749500D02*
X102250000Y-110149500D01*
X94675000Y-112339500D02*
X94675000Y-112939500D01*
X94785000Y-112339500D02*
X94675000Y-112339500D01*
X105325000Y-112339500D02*
X105325000Y-112939500D01*
X105215000Y-112339500D02*
X105325000Y-112339500D01*
X107726762Y-108257511D02*
X107484553Y-108015302D01*
X108448011Y-107536262D02*
X108205802Y-107294053D01*
D10*
X88495142Y-103909833D02*
X88542761Y-103862214D01*
X88590380Y-103719357D01*
X88590380Y-103624119D01*
X88542761Y-103481261D01*
X88447523Y-103386023D01*
X88352285Y-103338404D01*
X88161809Y-103290785D01*
X88018952Y-103290785D01*
X87828476Y-103338404D01*
X87733238Y-103386023D01*
X87638000Y-103481261D01*
X87590380Y-103624119D01*
X87590380Y-103719357D01*
X87638000Y-103862214D01*
X87685619Y-103909833D01*
X87923714Y-104766976D02*
X88590380Y-104766976D01*
X87542761Y-104528880D02*
X88257047Y-104290785D01*
X88257047Y-104909833D01*
X107370812Y-105081889D02*
X107370812Y-105149232D01*
X107438156Y-105283919D01*
X107505500Y-105351263D01*
X107640187Y-105418606D01*
X107774874Y-105418606D01*
X107875889Y-105384935D01*
X108044248Y-105283919D01*
X108145263Y-105182904D01*
X108246278Y-105014545D01*
X108279950Y-104913530D01*
X108279950Y-104778843D01*
X108212606Y-104644156D01*
X108145263Y-104576812D01*
X108010576Y-104509469D01*
X107943232Y-104509469D01*
X107370812Y-103802362D02*
X107707530Y-104139080D01*
X107404484Y-104509469D01*
X107404484Y-104442125D01*
X107370812Y-104341110D01*
X107202454Y-104172751D01*
X107101438Y-104139080D01*
X107034095Y-104139080D01*
X106933080Y-104172751D01*
X106764721Y-104341110D01*
X106731049Y-104442125D01*
X106731049Y-104509469D01*
X106764721Y-104610484D01*
X106933080Y-104778843D01*
X107034095Y-104812515D01*
X107101438Y-104812515D01*
X108816657Y-103479734D02*
X108816657Y-103547077D01*
X108884001Y-103681764D01*
X108951345Y-103749108D01*
X109086032Y-103816451D01*
X109220719Y-103816451D01*
X109321734Y-103782780D01*
X109490093Y-103681764D01*
X109591108Y-103580749D01*
X109692123Y-103412390D01*
X109725795Y-103311375D01*
X109725795Y-103176688D01*
X109658451Y-103042001D01*
X109591108Y-102974657D01*
X109456421Y-102907314D01*
X109389077Y-102907314D01*
X108850329Y-102233879D02*
X108985016Y-102368566D01*
X109018688Y-102469581D01*
X109018688Y-102536925D01*
X108985016Y-102705283D01*
X108884001Y-102873642D01*
X108614627Y-103143016D01*
X108513612Y-103176688D01*
X108446268Y-103176688D01*
X108345253Y-103143016D01*
X108210566Y-103008329D01*
X108176894Y-102907314D01*
X108176894Y-102839970D01*
X108210566Y-102738955D01*
X108378925Y-102570596D01*
X108479940Y-102536925D01*
X108547283Y-102536925D01*
X108648299Y-102570596D01*
X108782986Y-102705283D01*
X108816657Y-102806299D01*
X108816657Y-102873642D01*
X108782986Y-102974657D01*
X94059333Y-108354880D02*
X94059333Y-109069166D01*
X94106952Y-109212023D01*
X94202190Y-109307261D01*
X94345047Y-109354880D01*
X94440285Y-109354880D01*
X93059333Y-109354880D02*
X93630761Y-109354880D01*
X93345047Y-109354880D02*
X93345047Y-108354880D01*
X93440285Y-108497738D01*
X93535523Y-108592976D01*
X93630761Y-108640595D01*
X107112969Y-109784732D02*
X107685389Y-109683717D01*
X107517030Y-110188793D02*
X108224137Y-109481687D01*
X107954763Y-109212312D01*
X107853748Y-109178641D01*
X107786404Y-109178641D01*
X107685389Y-109212312D01*
X107584374Y-109313328D01*
X107550702Y-109414343D01*
X107550702Y-109481687D01*
X107584374Y-109582702D01*
X107853748Y-109852076D01*
X106439534Y-109111297D02*
X106843595Y-109515358D01*
X106641564Y-109313328D02*
X107348671Y-108606221D01*
X107315000Y-108774580D01*
X107315000Y-108909267D01*
X107348671Y-109010282D01*
M02*
