G04 #@! TF.GenerationSoftware,KiCad,Pcbnew,5.1.6*
G04 #@! TF.CreationDate,2020-08-03T21:51:23+02:00*
G04 #@! TF.ProjectId,AnalogWatch,416e616c-6f67-4576-9174-63682e6b6963,rev?*
G04 #@! TF.SameCoordinates,Original*
G04 #@! TF.FileFunction,Legend,Top*
G04 #@! TF.FilePolarity,Positive*
%FSLAX46Y46*%
G04 Gerber Fmt 4.6, Leading zero omitted, Abs format (unit mm)*
G04 Created by KiCad (PCBNEW 5.1.6) date 2020-08-03 21:51:23*
%MOMM*%
%LPD*%
G01*
G04 APERTURE LIST*
%ADD10C,0.120000*%
G04 APERTURE END LIST*
D10*
X104812229Y-95934020D02*
X104570020Y-96176229D01*
X104090980Y-95212771D02*
X103848771Y-95454980D01*
X100735000Y-114000000D02*
X100735000Y-111715000D01*
X100735000Y-111715000D02*
X99265000Y-111715000D01*
X99265000Y-111715000D02*
X99265000Y-114000000D01*
X113087664Y-94974736D02*
X110914500Y-95680840D01*
X110914500Y-95680840D02*
X111368755Y-97078893D01*
X111368755Y-97078893D02*
X113541919Y-96372789D01*
X110512987Y-94779029D02*
X112491855Y-93636529D01*
X109777987Y-93505971D02*
X110512987Y-94779029D01*
X111756855Y-92363471D02*
X109777987Y-93505971D01*
X109912217Y-90085960D02*
X108214131Y-91614924D01*
X108214131Y-91614924D02*
X109197753Y-92707346D01*
X109197753Y-92707346D02*
X110895839Y-91178383D01*
X107480531Y-90954388D02*
X108823621Y-89105785D01*
X106291276Y-90090344D02*
X107480531Y-90954388D01*
X107634366Y-88241740D02*
X106291276Y-90090344D01*
X105022857Y-86911412D02*
X104093464Y-88998864D01*
X104093464Y-88998864D02*
X105436376Y-89596766D01*
X105436376Y-89596766D02*
X106365769Y-87509315D01*
X103154624Y-88693816D02*
X103629702Y-86458749D01*
X101716747Y-88388186D02*
X103154624Y-88693816D01*
X102191825Y-86153119D02*
X101716747Y-88388186D01*
X100735000Y-88285000D02*
X100735000Y-86000000D01*
X99265000Y-88285000D02*
X100735000Y-88285000D01*
X99265000Y-86000000D02*
X99265000Y-88285000D01*
X96370298Y-86458749D02*
X96845376Y-88693816D01*
X96845376Y-88693816D02*
X98283253Y-88388186D01*
X98283253Y-88388186D02*
X97808175Y-86153119D01*
X95906536Y-88998864D02*
X94977143Y-86911412D01*
X94563624Y-89596766D02*
X95906536Y-88998864D01*
X93634231Y-87509315D02*
X94563624Y-89596766D01*
X103629702Y-113541251D02*
X103154624Y-111306184D01*
X103154624Y-111306184D02*
X101716747Y-111611814D01*
X101716747Y-111611814D02*
X102191825Y-113846881D01*
X104093464Y-111001136D02*
X105022857Y-113088588D01*
X105436376Y-110403234D02*
X104093464Y-111001136D01*
X106365769Y-112490685D02*
X105436376Y-110403234D01*
X108823621Y-110894215D02*
X107480531Y-109045612D01*
X107480531Y-109045612D02*
X106291276Y-109909656D01*
X106291276Y-109909656D02*
X107634366Y-111758260D01*
X108214131Y-108385076D02*
X109912217Y-109914040D01*
X109197753Y-107292654D02*
X108214131Y-108385076D01*
X110895839Y-108821617D02*
X109197753Y-107292654D01*
X112491855Y-106363471D02*
X110512987Y-105220971D01*
X110512987Y-105220971D02*
X109777987Y-106494029D01*
X109777987Y-106494029D02*
X111756855Y-107636529D01*
X110914500Y-104319160D02*
X113087664Y-105025264D01*
X111368755Y-102921107D02*
X110914500Y-104319160D01*
X113541919Y-103627211D02*
X111368755Y-102921107D01*
X111573996Y-101955525D02*
X113846478Y-102194372D01*
X111727652Y-100493578D02*
X111573996Y-101955525D01*
X114000135Y-100732425D02*
X111727652Y-100493578D01*
X111727652Y-99506422D02*
X114000135Y-99267575D01*
X111573996Y-98044475D02*
X111727652Y-99506422D01*
X113846478Y-97805628D02*
X111573996Y-98044475D01*
X86912336Y-105025264D02*
X89085500Y-104319160D01*
X89085500Y-104319160D02*
X88631245Y-102921107D01*
X88631245Y-102921107D02*
X86458081Y-103627211D01*
X89487013Y-105220971D02*
X87508145Y-106363471D01*
X90222013Y-106494029D02*
X89487013Y-105220971D01*
X88243145Y-107636529D02*
X90222013Y-106494029D01*
X90087783Y-109914040D02*
X91785869Y-108385076D01*
X91785869Y-108385076D02*
X90802247Y-107292654D01*
X90802247Y-107292654D02*
X89104161Y-108821617D01*
X92519469Y-109045612D02*
X91176379Y-110894215D01*
X93708724Y-109909656D02*
X92519469Y-109045612D01*
X92365634Y-111758260D02*
X93708724Y-109909656D01*
X94977143Y-113088588D02*
X95906536Y-111001136D01*
X95906536Y-111001136D02*
X94563624Y-110403234D01*
X94563624Y-110403234D02*
X93634231Y-112490685D01*
X97808175Y-113846881D02*
X98283253Y-111611814D01*
X98283253Y-111611814D02*
X96845376Y-111306184D01*
X96845376Y-111306184D02*
X96370298Y-113541251D01*
X93708724Y-90090344D02*
X92365634Y-88241740D01*
X92519469Y-90954388D02*
X93708724Y-90090344D01*
X91176379Y-89105785D02*
X92519469Y-90954388D01*
X89104161Y-91178383D02*
X90802247Y-92707346D01*
X90802247Y-92707346D02*
X91785869Y-91614924D01*
X91785869Y-91614924D02*
X90087783Y-90085960D01*
X90222013Y-93505971D02*
X88243145Y-92363471D01*
X89487013Y-94779029D02*
X90222013Y-93505971D01*
X87508145Y-93636529D02*
X89487013Y-94779029D01*
X86458081Y-96372789D02*
X88631245Y-97078893D01*
X88631245Y-97078893D02*
X89085500Y-95680840D01*
X89085500Y-95680840D02*
X86912336Y-94974736D01*
X85999865Y-99267575D02*
X88272348Y-99506422D01*
X88272348Y-99506422D02*
X88426004Y-98044475D01*
X88426004Y-98044475D02*
X86153522Y-97805628D01*
X88272348Y-100493578D02*
X85999865Y-100732425D01*
X88426004Y-101955525D02*
X88272348Y-100493578D01*
X86153522Y-102194372D02*
X88426004Y-101955525D01*
X107308693Y-96629029D02*
X109287561Y-95486529D01*
X106573693Y-95355971D02*
X107308693Y-96629029D01*
X108552561Y-94213471D02*
X106573693Y-95355971D01*
X104513471Y-90712439D02*
X103370971Y-92691307D01*
X103370971Y-92691307D02*
X104644029Y-93426307D01*
X104644029Y-93426307D02*
X105786529Y-91447439D01*
X99265000Y-89700000D02*
X99265000Y-91985000D01*
X99265000Y-91985000D02*
X100735000Y-91985000D01*
X100735000Y-91985000D02*
X100735000Y-89700000D01*
X103370971Y-107308693D02*
X104513471Y-109287561D01*
X104644029Y-106573693D02*
X103370971Y-107308693D01*
X105786529Y-108552561D02*
X104644029Y-106573693D01*
X109287561Y-104513471D02*
X107308693Y-103370971D01*
X107308693Y-103370971D02*
X106573693Y-104644029D01*
X106573693Y-104644029D02*
X108552561Y-105786529D01*
X110300000Y-99265000D02*
X108015000Y-99265000D01*
X108015000Y-99265000D02*
X108015000Y-100735000D01*
X108015000Y-100735000D02*
X110300000Y-100735000D01*
X91447439Y-105786529D02*
X93426307Y-104644029D01*
X93426307Y-104644029D02*
X92691307Y-103370971D01*
X92691307Y-103370971D02*
X90712439Y-104513471D01*
X95355971Y-106573693D02*
X94213471Y-108552561D01*
X96629029Y-107308693D02*
X95355971Y-106573693D01*
X95486529Y-109287561D02*
X96629029Y-107308693D01*
X100735000Y-110300000D02*
X100735000Y-108015000D01*
X100735000Y-108015000D02*
X99265000Y-108015000D01*
X99265000Y-108015000D02*
X99265000Y-110300000D01*
X94213471Y-91447439D02*
X95355971Y-93426307D01*
X95355971Y-93426307D02*
X96629029Y-92691307D01*
X96629029Y-92691307D02*
X95486529Y-90712439D01*
X93426307Y-95355971D02*
X91447439Y-94213471D01*
X92691307Y-96629029D02*
X93426307Y-95355971D01*
X90712439Y-95486529D02*
X92691307Y-96629029D01*
X91985000Y-99265000D02*
X89700000Y-99265000D01*
X91985000Y-100735000D02*
X91985000Y-99265000D01*
X89700000Y-100735000D02*
X91985000Y-100735000D01*
X97004270Y-90790271D02*
X97092924Y-91121134D01*
X97989514Y-90526276D02*
X98078168Y-90857139D01*
X102010486Y-90526276D02*
X101921832Y-90857139D01*
X102995730Y-90790271D02*
X102907076Y-91121134D01*
X107199243Y-93522006D02*
X106957034Y-93764215D01*
X106477994Y-92800757D02*
X106235785Y-93042966D01*
X109473724Y-97989514D02*
X109142861Y-98078168D01*
X109209729Y-97004270D02*
X108878866Y-97092924D01*
X106471267Y-99490000D02*
X106128733Y-99490000D01*
X106471267Y-100510000D02*
X106128733Y-100510000D01*
X109209729Y-102995730D02*
X108878866Y-102907076D01*
X109473724Y-102010486D02*
X109142861Y-101921832D01*
X107199243Y-106477994D02*
X106957034Y-106235785D01*
X106477994Y-107199243D02*
X106235785Y-106957034D01*
X102995730Y-109209729D02*
X102907076Y-108878866D01*
X102010486Y-109473724D02*
X101921832Y-109142861D01*
X93528733Y-99490000D02*
X93871267Y-99490000D01*
X93528733Y-100510000D02*
X93871267Y-100510000D01*
X97989514Y-109473724D02*
X98078168Y-109142861D01*
X97004270Y-109209729D02*
X97092924Y-108878866D01*
X92800757Y-106477994D02*
X93042966Y-106235785D01*
X93522006Y-107199243D02*
X93764215Y-106957034D01*
X90526276Y-102010486D02*
X90857139Y-101921832D01*
X90790271Y-102995730D02*
X91121134Y-102907076D01*
X95276271Y-95934020D02*
X95518480Y-96176229D01*
X95997520Y-95212771D02*
X96239729Y-95454980D01*
X90790271Y-97004270D02*
X91121134Y-97092924D01*
X90526276Y-97989514D02*
X90857139Y-98078168D01*
X92800757Y-93522006D02*
X93042966Y-93764215D01*
X93522006Y-92800757D02*
X93764215Y-93042966D01*
X100598480Y-106463229D02*
X100356271Y-106221020D01*
X101319729Y-105741980D02*
X101077520Y-105499771D01*
X103935020Y-105715229D02*
X104177229Y-105473020D01*
X103213771Y-104993980D02*
X103455980Y-104751771D01*
X99490000Y-93758733D02*
X99490000Y-94101267D01*
X100510000Y-93758733D02*
X100510000Y-94101267D01*
X99664124Y-103355222D02*
X100000000Y-103691097D01*
X100000000Y-96308903D02*
X99664124Y-96644778D01*
X100335876Y-96644778D02*
X100000000Y-96308903D01*
X103691097Y-100000000D02*
X103355222Y-100335876D01*
X103355222Y-99664124D02*
X103691097Y-100000000D01*
X96308903Y-100000000D02*
X96644778Y-99664124D01*
X96644778Y-100335876D02*
X96308903Y-100000000D01*
X102727417Y-102643212D02*
X100712162Y-104658467D01*
X100712162Y-104658467D02*
X101843533Y-105789838D01*
X101843533Y-105789838D02*
X103858788Y-103774583D01*
M02*
